<?xml version="1.0" encoding="utf-8"?>
<!-- Generator: Adobe Illustrator 27.9.0, SVG Export Plug-In . SVG Version: 6.00 Build 0)  -->
<svg version="1.1" id="Layer_1" xmlns="http://www.w3.org/2000/svg" xmlns:xlink="http://www.w3.org/1999/xlink" x="0px" y="0px"
	 viewBox="0 0 75 75" style="enable-background:new 0 0 75 75;" xml:space="preserve">
<style type="text/css">
	.st0{fill:#F7F7F7;}
	.st1{fill:#34383C;}
	.st2{fill:#FFFFFF;}
	.st3{fill-rule:evenodd;clip-rule:evenodd;fill:#34383C;}
	.st4{fill-rule:evenodd;clip-rule:evenodd;fill:#FFFFFF;}
	.st5{fill:#2E3134;}
	.st6{fill-rule:evenodd;clip-rule:evenodd;fill:#0A23F3;}
	.st7{fill:#2E3134;stroke:#2E3134;stroke-width:0.75;stroke-miterlimit:10;}
	.st8{fill:#0A23F3;}
	.st9{fill:#34383B;}
	.st10{fill:#0024FA;}
	.st11{fill:#0024FC;}
	.st12{fill:none;stroke:#0024FC;stroke-width:2;stroke-linecap:round;stroke-linejoin:round;stroke-miterlimit:10;}
</style>
<g>
	<path class="st5" d="M48.18,24.37l10.27-3.47c0,0-3.86-4.41-6.22-7.28c-0.66-0.8-1.72-1.14-2.73-0.87
		c-2.76,0.73-5.52,1.46-8.28,2.18L48.18,24.37z"/>
	<path class="st5" d="M47.8,25.55L36.69,29.3c2.29,3.34,4.57,6.68,6.85,10.02c0.44,0.64,1.27,0.88,1.98,0.58
		c3.27-1.38,6.54-2.75,9.81-4.13L47.8,25.55z"/>
	<path class="st5" d="M48.8,25.21l7.49,10.15l9.15-3.8c0.73-0.3,0.96-1.23,0.45-1.84l-6.8-8.09L48.8,25.21z"/>
	<path class="st5" d="M47.18,24.71l-7.01-9.49c-1.87,0.49-3.75,0.99-5.62,1.48c-1.8,0.47-3.6,0.94-5.5,1.44
		c2.36,3.45,4.71,6.88,7.05,10.31L47.18,24.71z"/>
</g>
<path class="st5" d="M21.33,43.62l6.62,2.31c0.46,0.16,0.76,0.61,0.73,1.09l-0.71,13.55c-0.04,0.78-0.88,1.27-1.58,0.91l-5.91-2.98
	c-0.37-0.19-0.6-0.56-0.6-0.97V44.65C19.88,43.9,20.62,43.38,21.33,43.62z"/>
<g>
	<path class="st5" d="M40.12,68.73l-27.62-13.2c-2.15-1.03-3.53-3.23-3.53-5.6V28.38h2v21.54c0,1.61,0.94,3.1,2.4,3.8l26.78,12.8
		l22.53-10.28c1.44-0.69,2.38-2.18,2.38-3.79V33.78h2v18.67c0,2.38-1.39,4.58-3.53,5.6L40.12,68.73z"/>
</g>
<g>
	<rect x="39.19" y="39.1" class="st5" width="2" height="28.52"/>
</g>
<g>
	<path class="st11" d="M44.28,43.84c-1.29,0-2.53-0.63-3.29-1.75L25.68,19.31c-0.32-0.47-0.8-0.78-1.36-0.87
		c-0.25-0.04-0.48-0.03-0.72,0.02l-0.15,0.04c-0.01,0-0.03,0.01-0.04,0.01c-0.23,0.07-0.45,0.19-0.65,0.35l-16.7,13.3
		C5.63,32.5,5,32.43,4.65,32c-0.34-0.43-0.27-1.06,0.16-1.41l16.7-13.3c0.41-0.33,0.88-0.57,1.38-0.71c0.01,0,0.03-0.01,0.04-0.01
		l0.03-0.01c0.01,0,0.03-0.01,0.04-0.01l26.06-6.93c1.92-0.5,3.98,0.15,5.26,1.65l14.67,17.06c0.79,0.92,1.09,2.12,0.81,3.29
		c-0.27,1.14-1.04,2.11-2.02,2.51l-21.96,9.4C45.33,43.73,44.8,43.84,44.28,43.84z M26.85,17.59c0.18,0.18,0.35,0.38,0.49,0.6
		l15.31,22.78c0.52,0.78,1.53,1.08,2.39,0.71l21.97-9.4c0.38-0.16,0.73-0.62,0.85-1.13c0.09-0.39,0.1-0.96-0.38-1.52L52.8,12.57
		c-0.79-0.93-2.05-1.32-3.23-1.02L26.85,17.59z"/>
</g>
</svg>
