<?xml version="1.0" encoding="utf-8"?>
<svg version="1.1" id="Layer_1" xmlns="http://www.w3.org/2000/svg" xmlns:xlink="http://www.w3.org/1999/xlink" x="0px" y="0px"
	 viewBox="0 0 24 24" style="enable-background:new 0 0 24 24;" xml:space="preserve">
<style type="text/css">
	.st0{fill:none;stroke:currentColor;stroke-miterlimit:10;}
	.st1{fill:none;stroke:currentColor;stroke-width:1.2;}
	.st2{fill:none;stroke:currentColor;stroke-width:1.5;stroke-miterlimit:10;}
	.st3{fill:currentColor;}
	.st4{fill:none;stroke:currentColor;stroke-width:1.5;stroke-linecap:round;}
</style>
<path class="st0" d="M4.69,20.59c0.78,0,1.41-0.63,1.41-1.41c0-0.78-0.63-1.41-1.41-1.41s-1.41,0.63-1.41,1.41
	C3.28,19.96,3.91,20.59,4.69,20.59z"/>
<path class="st1" d="M5.37,18.45l2.26-2.21"/>
<path class="st2" d="M13.31,14.42L9.5,10.61l8.18-8.18c0.39-0.39,1.03-0.39,1.42,0l2.39,2.39c0.39,0.39,0.39,1.02,0,1.42
	L13.31,14.42z"/>
<path class="st2" d="M17.96,16.86l-3.55-3.55l3.96-3.96l3.54,3.54c0.1,0.1,0.1,0.26,0,0.35l-3.6,3.6
	C18.21,16.96,18.06,16.96,17.96,16.86z"/>
<path class="st2" d="M10.59,9.52L7.08,6.01c-0.1-0.1-0.1-0.25,0-0.35l3.6-3.6c0.1-0.1,0.26-0.1,0.36,0l3.51,3.51L10.59,9.52z"/>
<path class="st2" d="M11.38,12.49c-2.76-2.76-6.72-3.35-9.16-1.47c-0.27,0.21-0.31,0.6-0.07,0.84l9.86,9.86
	c0.24,0.24,0.63,0.2,0.84-0.07C14.73,19.21,14.14,15.25,11.38,12.49z"/>
</svg>
