<?xml version="1.0" encoding="utf-8"?>
<!-- Generator: Adobe Illustrator 25.2.3, SVG Export Plug-In . SVG Version: 6.00 Build 0)  -->
<svg version="1.1" id="Layer_1" xmlns="http://www.w3.org/2000/svg" xmlns:xlink="http://www.w3.org/1999/xlink" x="0px" y="0px"
	 viewBox="0 0 14 14" style="enable-background:new 0 0 14 14;" xml:space="preserve">
<style type="text/css">
	.st0{fill:#2E3134;}
</style>
<g id="gemKL0.tif">
	<g>
		<path class="st0" d="M11.7,7c0,1.3,0,2.7,0,4c0,1-0.4,1.6-1.2,2.1c-0.8,0.4-1.6,0.7-2.5,0.8c-1,0.1-2.1,0.1-3.1-0.2
			c-0.7-0.2-1.4-0.4-1.9-0.9c-0.5-0.4-0.7-0.9-0.7-1.5c0-2.8,0-5.5,0-8.3c0-0.8,0.3-1.3,0.9-1.7c0.7-0.5,1.4-0.7,2.2-0.9
			C6.6,0.1,7.8,0.1,9,0.4c0.7,0.2,1.4,0.4,2,0.9c0.5,0.4,0.7,0.9,0.7,1.5C11.7,4.2,11.7,5.6,11.7,7z M3.2,9.8c1.2-0.7,2.5-1,3.8-1
			c1.3,0,2.6,0.2,3.8,1c0-1.8,0-3.7,0-5.5C9.6,5,8.3,5.2,7,5.2c-1.3,0-2.6-0.2-3.8-1C3.2,6.1,3.2,7.9,3.2,9.8z M7.2,1.1
			c-0.9,0-1.6,0.1-2.3,0.3c-0.5,0.2-1,0.4-1.3,0.7C3.1,2.4,3.1,2.9,3.5,3.2C3.6,3.4,3.8,3.5,4,3.7c0.7,0.4,1.5,0.6,2.3,0.6
			c1.1,0.1,2.1,0,3.1-0.4c0.4-0.1,0.8-0.3,1.1-0.6c0.3-0.3,0.4-0.7,0-1.1C10.3,1.9,10,1.7,9.7,1.6C8.9,1.2,7.9,1.1,7.2,1.1z"/>
	</g>
</g>
</svg>
