<svg width="32" height="33" viewBox="0 0 32 33" fill="none" xmlns="http://www.w3.org/2000/svg">
<path fill-rule="evenodd" clip-rule="evenodd" d="M1.88235 2.54886H2.89882C3.41862 2.54886 3.84 2.12748 3.84 1.60768C3.84 1.08788 3.41862 0.666504 2.89882 0.666504H1.54353C0.691063 0.666504 0 1.35756 0 2.21003V3.56533C0 4.08513 0.421379 4.5065 0.941176 4.5065C1.46097 4.5065 1.88235 4.08513 1.88235 3.56533V2.54886ZM6.47529 1.60768C6.47529 1.08788 6.89667 0.666504 7.41647 0.666504H10.1271C10.6469 0.666504 11.0682 1.08788 11.0682 1.60768C11.0682 2.12748 10.6469 2.54886 10.1271 2.54886H7.41647C6.89667 2.54886 6.47529 2.12748 6.47529 1.60768ZM13.7035 1.60768C13.7035 1.08788 14.1249 0.666504 14.6447 0.666504H17.3553C17.8751 0.666504 18.2965 1.08788 18.2965 1.60768C18.2965 2.12748 17.8751 2.54886 17.3553 2.54886H14.6447C14.1249 2.54886 13.7035 2.12748 13.7035 1.60768ZM20.9318 1.60768C20.9318 1.08788 21.3531 0.666504 21.8729 0.666504H24.5835C25.1033 0.666504 25.5247 1.08788 25.5247 1.60768C25.5247 2.12748 25.1033 2.54886 24.5835 2.54886H21.8729C21.3531 2.54886 20.9318 2.12748 20.9318 1.60768ZM28.16 1.60768C28.16 1.08788 28.5814 0.666504 29.1012 0.666504H30.4565C31.3089 0.666504 32 1.35757 32 2.21003V3.56533C32 4.08512 31.5786 4.5065 31.0588 4.5065C30.539 4.5065 30.1176 4.08512 30.1176 3.56533V2.54886H29.1012C28.5814 2.54886 28.16 2.12748 28.16 1.60768ZM31.0588 7.1418C31.5786 7.1418 32 7.56318 32 8.08297V10.7936C32 11.3134 31.5786 11.7347 31.0588 11.7347C30.539 11.7347 30.1176 11.3134 30.1176 10.7936V8.08297C30.1176 7.56318 30.539 7.1418 31.0588 7.1418ZM0.941176 7.1418C1.46097 7.1418 1.88235 7.56318 1.88235 8.08298V10.7936C1.88235 11.3134 1.46097 11.7347 0.941176 11.7347C0.421379 11.7347 0 11.3134 0 10.7936V8.08298C0 7.56318 0.421379 7.1418 0.941176 7.1418ZM0.941176 14.37C1.46097 14.37 1.88235 14.7914 1.88235 15.3112V18.0218C1.88235 18.5416 1.46097 18.963 0.941176 18.963C0.421379 18.963 0 18.5416 0 18.0218V15.3112C0 14.7914 0.421379 14.37 0.941176 14.37ZM31.0588 14.37C31.5786 14.37 32 14.7914 32 15.3112V18.0218C32 18.5416 31.5786 18.963 31.0588 18.963C30.539 18.963 30.1176 18.5416 30.1176 18.0218V15.3112C30.1176 14.7914 30.539 14.37 31.0588 14.37ZM31.0588 21.5983C31.5786 21.5983 32 22.0196 32 22.5394V25.25C32 25.7698 31.5786 26.1912 31.0588 26.1912C30.539 26.1912 30.1176 25.7698 30.1176 25.25V22.5394C30.1176 22.0196 30.539 21.5983 31.0588 21.5983ZM0.941176 21.5983C1.46097 21.5983 1.88235 22.0196 1.88235 22.5394V25.25C1.88235 25.7698 1.46097 26.1912 0.941176 26.1912C0.421379 26.1912 0 25.7698 0 25.25V22.5394C0 22.0196 0.421379 21.5983 0.941176 21.5983ZM31.0588 28.8265C31.5786 28.8265 32 29.2479 32 29.7677V31.123C32 31.9754 31.3089 32.6665 30.4565 32.6665H29.1012C28.5814 32.6665 28.16 32.2451 28.16 31.7253C28.16 31.2055 28.5814 30.7842 29.1012 30.7842H30.1176V29.7677C30.1176 29.2479 30.539 28.8265 31.0588 28.8265ZM0.941176 28.8265C1.46097 28.8265 1.88235 29.2479 1.88235 29.7677V30.7842H2.89882C3.41862 30.7842 3.84 31.2055 3.84 31.7253C3.84 32.2451 3.41862 32.6665 2.89882 32.6665H1.54353C0.69106 32.6665 0 31.9754 0 31.123V29.7677C0 29.2479 0.421379 28.8265 0.941176 28.8265ZM6.47529 31.7253C6.47529 31.2055 6.89667 30.7842 7.41647 30.7842H10.1271C10.6469 30.7842 11.0682 31.2055 11.0682 31.7253C11.0682 32.2451 10.6469 32.6665 10.1271 32.6665H7.41647C6.89667 32.6665 6.47529 32.2451 6.47529 31.7253ZM13.7035 31.7253C13.7035 31.2055 14.1249 30.7842 14.6447 30.7842H17.3553C17.8751 30.7842 18.2965 31.2055 18.2965 31.7253C18.2965 32.2451 17.8751 32.6665 17.3553 32.6665H14.6447C14.1249 32.6665 13.7035 32.2451 13.7035 31.7253ZM20.9318 31.7253C20.9318 31.2055 21.3531 30.7842 21.8729 30.7842H24.5835C25.1033 30.7842 25.5247 31.2055 25.5247 31.7253C25.5247 32.2451 25.1033 32.6665 24.5835 32.6665H21.8729C21.3531 32.6665 20.9318 32.2451 20.9318 31.7253Z" fill="currentColor"/>
<path d="M12.3333 9.52365V12.3808C12.3333 12.8542 11.9496 13.2379 11.4762 13.2379H7.85714C7.38375 13.2379 7 12.8542 7 12.3808V9.52365C7 9.05025 7.38375 8.6665 7.85714 8.6665H11.4762C11.9496 8.6665 12.3333 9.05025 12.3333 9.52365ZM18.8095 18.0951V15.2379C18.8095 14.7645 18.4258 14.3808 17.9524 14.3808H14.3333C13.8599 14.3808 13.4762 14.7645 13.4762 15.2379V18.0951C13.4762 18.5685 13.8599 18.9522 14.3333 18.9522H17.9524C18.4258 18.9522 18.8095 18.5685 18.8095 18.0951ZM19.9524 9.52365V12.3808C19.9524 12.8542 20.3361 13.2379 20.8095 13.2379H24.4286C24.902 13.2379 25.2857 12.8542 25.2857 12.3808V9.52365C25.2857 9.05025 24.902 8.6665 24.4286 8.6665H20.8095C20.3361 8.6665 19.9524 9.05025 19.9524 9.52365ZM18.8095 12.3808V9.52365C18.8095 9.05025 18.4258 8.6665 17.9524 8.6665H14.3333C13.8599 8.6665 13.4762 9.05025 13.4762 9.52365V12.3808C13.4762 12.8542 13.8599 13.2379 14.3333 13.2379H17.9524C18.4258 13.2379 18.8095 12.8542 18.8095 12.3808ZM11.4762 14.3808H7.85714C7.38375 14.3808 7 14.7645 7 15.2379V18.0951C7 18.5685 7.38375 18.9522 7.85714 18.9522H11.4762C11.9496 18.9522 12.3333 18.5685 12.3333 18.0951V15.2379C12.3333 14.7645 11.9496 14.3808 11.4762 14.3808ZM7 20.9522V23.8094C7 24.2828 7.38375 24.6665 7.85714 24.6665H11.4762C11.9496 24.6665 12.3333 24.2828 12.3333 23.8094V20.9522C12.3333 20.4788 11.9496 20.0951 11.4762 20.0951H7.85714C7.38375 20.0951 7 20.4788 7 20.9522ZM20.8095 18.9522H24.4286C24.902 18.9522 25.2857 18.5685 25.2857 18.0951V15.2379C25.2857 14.7645 24.902 14.3808 24.4286 14.3808H20.8095C20.3361 14.3808 19.9524 14.7645 19.9524 15.2379V18.0951C19.9524 18.5685 20.3361 18.9522 20.8095 18.9522ZM20.8095 24.6665H24.4286C24.902 24.6665 25.2857 24.2828 25.2857 23.8094V20.9522C25.2857 20.4788 24.902 20.0951 24.4286 20.0951H20.8095C20.3361 20.0951 19.9524 20.4788 19.9524 20.9522V23.8094C19.9524 24.2828 20.3361 24.6665 20.8095 24.6665ZM13.4762 20.9522V23.8094C13.4762 24.2828 13.8599 24.6665 14.3333 24.6665H17.9524C18.4257 24.6665 18.8095 24.2828 18.8095 23.8094V20.9522C18.8095 20.4788 18.4257 20.0951 17.9524 20.0951H14.3333C13.8599 20.0951 13.4762 20.4788 13.4762 20.9522Z" fill="currentColor"/>
</svg>
