<svg width="32" height="32" viewBox="0 0 32 32" fill="none" xmlns="http://www.w3.org/2000/svg">
<path fill-rule="evenodd" clip-rule="evenodd" d="M1.88235 1.88235H2.89882C3.41862 1.88235 3.84 1.46097 3.84 0.941176C3.84 0.421379 3.41862 0 2.89882 0H1.54353C0.691063 0 0 0.69106 0 1.54353V2.89882C0 3.41862 0.421379 3.84 0.941176 3.84C1.46097 3.84 1.88235 3.41862 1.88235 2.89882V1.88235ZM6.47529 0.941176C6.47529 0.421379 6.89667 0 7.41647 0H10.1271C10.6469 0 11.0682 0.421379 11.0682 0.941176C11.0682 1.46097 10.6469 1.88235 10.1271 1.88235H7.41647C6.89667 1.88235 6.47529 1.46097 6.47529 0.941176ZM13.7035 0.941176C13.7035 0.421379 14.1249 0 14.6447 0H17.3553C17.8751 0 18.2965 0.421379 18.2965 0.941176C18.2965 1.46097 17.8751 1.88235 17.3553 1.88235H14.6447C14.1249 1.88235 13.7035 1.46097 13.7035 0.941176ZM20.9318 0.941176C20.9318 0.421379 21.3531 0 21.8729 0H24.5835C25.1033 0 25.5247 0.421379 25.5247 0.941176C25.5247 1.46097 25.1033 1.88235 24.5835 1.88235H21.8729C21.3531 1.88235 20.9318 1.46097 20.9318 0.941176ZM28.16 0.941176C28.16 0.421379 28.5814 0 29.1012 0H30.4565C31.3089 0 32 0.691063 32 1.54353V2.89882C32 3.41862 31.5786 3.84 31.0588 3.84C30.539 3.84 30.1176 3.41862 30.1176 2.89882V1.88235H29.1012C28.5814 1.88235 28.16 1.46097 28.16 0.941176ZM31.0588 6.47529C31.5786 6.47529 32 6.89667 32 7.41647V10.1271C32 10.6469 31.5786 11.0682 31.0588 11.0682C30.539 11.0682 30.1176 10.6469 30.1176 10.1271V7.41647C30.1176 6.89667 30.539 6.47529 31.0588 6.47529ZM0.941176 6.4753C1.46097 6.4753 1.88235 6.89667 1.88235 7.41647V10.1271C1.88235 10.6469 1.46097 11.0682 0.941176 11.0682C0.421379 11.0682 0 10.6469 0 10.1271V7.41647C0 6.89667 0.421379 6.4753 0.941176 6.4753ZM0.941176 13.7035C1.46097 13.7035 1.88235 14.1249 1.88235 14.6447V17.3553C1.88235 17.8751 1.46097 18.2965 0.941176 18.2965C0.421379 18.2965 0 17.8751 0 17.3553V14.6447C0 14.1249 0.421379 13.7035 0.941176 13.7035ZM31.0588 13.7035C31.5786 13.7035 32 14.1249 32 14.6447V17.3553C32 17.8751 31.5786 18.2965 31.0588 18.2965C30.539 18.2965 30.1176 17.8751 30.1176 17.3553V14.6447C30.1176 14.1249 30.539 13.7035 31.0588 13.7035ZM31.0588 20.9318C31.5786 20.9318 32 21.3531 32 21.8729V24.5835C32 25.1033 31.5786 25.5247 31.0588 25.5247C30.539 25.5247 30.1176 25.1033 30.1176 24.5835V21.8729C30.1176 21.3531 30.539 20.9318 31.0588 20.9318ZM0.941176 20.9318C1.46097 20.9318 1.88235 21.3531 1.88235 21.8729V24.5835C1.88235 25.1033 1.46097 25.5247 0.941176 25.5247C0.421379 25.5247 0 25.1033 0 24.5835V21.8729C0 21.3531 0.421379 20.9318 0.941176 20.9318ZM31.0588 28.16C31.5786 28.16 32 28.5814 32 29.1012V30.4565C32 31.3089 31.3089 32 30.4565 32H29.1012C28.5814 32 28.16 31.5786 28.16 31.0588C28.16 30.539 28.5814 30.1176 29.1012 30.1176H30.1176V29.1012C30.1176 28.5814 30.539 28.16 31.0588 28.16ZM0.941176 28.16C1.46097 28.16 1.88235 28.5814 1.88235 29.1012V30.1176H2.89882C3.41862 30.1176 3.84 30.539 3.84 31.0588C3.84 31.5786 3.41862 32 2.89882 32H1.54353C0.69106 32 0 31.3089 0 30.4565V29.1012C0 28.5814 0.421379 28.16 0.941176 28.16ZM6.47529 31.0588C6.47529 30.539 6.89667 30.1176 7.41647 30.1176H10.1271C10.6469 30.1176 11.0682 30.539 11.0682 31.0588C11.0682 31.5786 10.6469 32 10.1271 32H7.41647C6.89667 32 6.47529 31.5786 6.47529 31.0588ZM13.7035 31.0588C13.7035 30.539 14.1249 30.1176 14.6447 30.1176H17.3553C17.8751 30.1176 18.2965 30.539 18.2965 31.0588C18.2965 31.5786 17.8751 32 17.3553 32H14.6447C14.1249 32 13.7035 31.5786 13.7035 31.0588ZM20.9318 31.0588C20.9318 30.539 21.3531 30.1176 21.8729 30.1176H24.5835C25.1033 30.1176 25.5247 30.539 25.5247 31.0588C25.5247 31.5786 25.1033 32 24.5835 32H21.8729C21.3531 32 20.9318 31.5786 20.9318 31.0588Z" fill="currentColor"/>
<path d="M16 8C11.5817 8 8 11.5817 8 16C8 20.4183 11.5817 24 16 24C20.4183 24 24 20.4183 24 16C24 11.5817 20.4183 8 16 8ZM20.197 11.803C22.3083 13.9142 22.4551 17.1411 20.864 19.4042L12.5958 11.136C14.8605 9.54387 18.087 9.69294 20.197 11.803ZM11.803 20.197C9.69174 18.0858 9.5449 14.8589 11.136 12.5958L19.4042 20.864C17.1396 22.4561 13.913 22.3071 11.803 20.197Z" fill="currentColor"/>
</svg>
