<?xml version="1.0" encoding="utf-8"?>
<!-- Generator: Adobe Illustrator 25.2.3, SVG Export Plug-In . SVG Version: 6.00 Build 0)  -->
<svg version="1.1" id="Layer_1" xmlns="http://www.w3.org/2000/svg" xmlns:xlink="http://www.w3.org/1999/xlink" x="0px" y="0px"
	 viewBox="0 0 14 13" style="enable-background:new 0 0 14 13;" xml:space="preserve">
<style type="text/css">
	.st0{fill:#78819A;}
</style>
<path class="st0" d="M9.5,5.9C9.4,5.8,9.4,5.8,9.3,5.7c-0.1-0.1-0.2-0.1-0.4,0C8.4,6.2,7.9,6.8,7.3,7.3C7.2,7.4,7.1,7.6,6.9,7.7
	C6.9,7.6,6.8,7.6,6.8,7.5C6.2,6.9,5.6,6.3,5,5.7c-0.1-0.1-0.2-0.1-0.4,0C4.5,5.8,4.5,5.8,4.4,5.9C4.3,6,4.3,6.1,4.4,6.2
	C5.2,7,6,7.7,6.8,8.5c0.1,0.1,0.2,0.1,0.3,0c0.5-0.5,1-1,1.5-1.5c0.3-0.3,0.5-0.5,0.8-0.8C9.6,6.1,9.6,6,9.5,5.9z"/>
<path class="st0" d="M4.8,5.6"/>
</svg>
