<svg width="24" height="24" viewBox="0 0 24 24" fill="none" xmlns="http://www.w3.org/2000/svg">
<path d="M21.8651 21.8649C22.2158 21.5142 22.2158 20.9457 21.8652 20.5949L3.41492 2.13525C3.06389 1.78403 2.49493 1.78285 2.14243 2.13259V2.13259C1.78803 2.48422 1.78691 3.05691 2.13992 3.40992L5.36 6.63L3.73 6.77L5.5 10.56C5.64 9.77 5.89 9.01 6.33 8.27C6.39 8.13 6.52 8.01 6.61 7.88L8.05 9.32C7.64 10.04 7.39 10.88 7.39 11.77C7.39 14.53 9.63 16.77 12.39 16.77C13.29 16.77 14.12 16.52 14.84 16.11L20.5949 21.8649C20.9457 22.2157 21.5143 22.2157 21.8651 21.8649V21.8649ZM12.39 14.77C10.73 14.77 9.39 13.43 9.39 11.77C9.39 11.44 9.46 11.13 9.56 10.83L13.33 14.6C13.03 14.7 12.72 14.77 12.39 14.77ZM18.44 8.27C18.02 7.55 17.49 6.92 16.89 6.41L21.04 6.77L19.27 10.56C19.13 9.77 18.86 9 18.44 8.27ZM12.39 6.77C15.15 6.77 17.39 9.01 17.39 11.77C17.39 12.31 17.28 12.82 17.13 13.31L15.39 11.55C15.26 10.07 14.09 8.9 12.61 8.77L10.86 7.04C11.34 6.88 11.85 6.77 12.39 6.77ZM12.39 4.77C11.55 4.77 10.74 4.92 10 5.19L12.39 1.77L14.78 5.19C14.04 4.92 13.23 4.77 12.39 4.77ZM19.26 12.98L21.03 16.77L20.63 16.81L18.64 14.82C18.93 14.22 19.15 13.61 19.26 12.98ZM12.39 18.77C13.21 18.77 14.02 18.6 14.76 18.33L12.39 21.77L9.98 18.33C10.72 18.6 11.53 18.77 12.39 18.77ZM6.34 15.27C6.76 16.01 7.3 16.63 7.89 17.14L3.75 16.77L5.51 13C5.65 13.77 5.92 14.55 6.34 15.27Z" fill="#2E3134"/>
</svg>
