<svg width="25" height="25" viewBox="0 0 25 25" fill="none" xmlns="http://www.w3.org/2000/svg">
<path fill-rule="evenodd" clip-rule="evenodd" d="M16.3035 19.7C16.8534 19.7 17.2992 19.2275 17.2992 18.6445V6.35548C17.2992 5.77256 16.8534 5.30001 16.3035 5.30001H8.69493C8.14501 5.30001 7.69922 5.77256 7.69922 6.35548L7.69922 18.6437C7.69922 19.2266 8.1449 19.6991 8.69474 19.6992L16.3035 19.7ZM13.2992 18.0977V16.5L15.6992 16.5V18.0977L13.2992 18.0977ZM15.6992 14.9001L13.2992 14.9V13.3H15.6992V14.9001ZM15.6992 11.7H13.2992V10.1H15.6992L15.6992 11.7ZM15.6992 8.50001H13.2992V6.90229H15.6992V8.50001ZM11.6992 6.90001V8.50001H9.29922V6.90001H11.6992ZM9.29922 10.1H11.6992V11.7H9.29922V10.1ZM9.29922 13.3L11.6992 13.3V14.9005L9.29922 14.9V13.3ZM9.29922 16.5L11.7434 16.5005V18.0975L9.29922 18.097V16.5Z" fill="#2E3134"/>
</svg>
