<svg width="18" height="18" viewBox="0 0 18 18" fill="none" xmlns="http://www.w3.org/2000/svg">
<path d="M17.5044 4.99551L15.8837 6.61621C15.7185 6.78145 15.4513 6.78145 15.2861 6.61621L11.3837 2.71387C11.2185 2.54863 11.2185 2.28145 11.3837 2.11621L13.0044 0.495508C13.6619 -0.161914 14.7306 -0.161914 15.3916 0.495508L17.5044 2.6084C18.1654 3.26582 18.1654 4.33457 17.5044 4.99551ZM9.99155 3.5084L0.759519 12.7404L0.014206 17.0119C-0.0877471 17.5885 0.414987 18.0877 0.99155 17.9893L5.26303 17.2404L14.4951 8.0084C14.6603 7.84316 14.6603 7.57598 14.4951 7.41074L10.5927 3.5084C10.424 3.34316 10.1568 3.34316 9.99155 3.5084ZM4.36303 11.9494C4.16967 11.7561 4.16967 11.4467 4.36303 11.2533L9.7771 5.83926C9.97046 5.6459 10.2798 5.6459 10.4732 5.83926C10.6665 6.03262 10.6665 6.34199 10.4732 6.53535L5.05913 11.9494C4.86577 12.1428 4.55639 12.1428 4.36303 11.9494ZM3.09389 14.9061H4.78139V16.1822L2.51382 16.5795L1.42046 15.4861L1.81772 13.2186H3.09389V14.9061Z" fill="currentColor"/>
</svg>
