<svg width="21" height="20" viewBox="0 0 21 20" fill="none" xmlns="http://www.w3.org/2000/svg">
<path d="M20.2412 9.96976C20.2412 10.7214 19.6319 11.3306 18.8803 11.3306L11.7323 11.3306L11.7323 18.488C11.7323 19.3231 11.0554 20 10.2204 20V20C9.3853 20 8.70836 19.3231 8.70836 18.488L8.70836 11.3306L1.6021 11.3306C0.8505 11.3306 0.24121 10.7214 0.241211 9.96976V9.96976C0.241211 9.21816 0.850501 8.60887 1.6021 8.60887L8.70836 8.60887L8.70836 1.51199C8.70836 0.676942 9.38531 3.85395e-07 10.2204 4.20589e-07V4.20589e-07C11.0554 4.55784e-07 11.7323 0.676942 11.7323 1.51199L11.7323 8.60887L18.8803 8.60887C19.6319 8.60887 20.2412 9.21816 20.2412 9.96976V9.96976Z" fill="#2E3134"/>
</svg>
