<?xml version="1.0" encoding="UTF-8" standalone="no"?>
<svg
   viewBox="0 0 40 40"
   fill="none"
   version="1.1"
   id="svg2"
   sodipodi:docname="close-circle.svg"
   inkscape:version="1.3 (0e150ed, 2023-07-21)"
   xmlns:inkscape="http://www.inkscape.org/namespaces/inkscape"
   xmlns:sodipodi="http://sodipodi.sourceforge.net/DTD/sodipodi-0.dtd"
   xmlns="http://www.w3.org/2000/svg"
   xmlns:svg="http://www.w3.org/2000/svg">
  <defs
     id="defs2" />
  <sodipodi:namedview
     id="namedview2"
     pagecolor="#ffffff"
     bordercolor="#000000"
     borderopacity="0.25"
     inkscape:showpageshadow="2"
     inkscape:pageopacity="0.0"
     inkscape:pagecheckerboard="0"
     inkscape:deskcolor="#d1d1d1"
     inkscape:zoom="9.279116"
     inkscape:cx="21.823199"
     inkscape:cy="29.47479"
     inkscape:window-width="1728"
     inkscape:window-height="962"
     inkscape:window-x="0"
     inkscape:window-y="38"
     inkscape:window-maximized="1"
     inkscape:current-layer="svg2" />
  <circle
     cx="20"
     cy="20"
     r="18"
     fill="#FF3B30"
     id="circle1"
     style="fill:#f59819;fill-opacity:1" />
  <path
     d="m 20.000016,25.000003 c 0.283334,0 0.520827,-0.09587 0.712494,-0.287467 0.191667,-0.191733 0.287507,-0.4292 0.287507,-0.712533 0,-0.283333 -0.09584,-0.5208 -0.287507,-0.712533 -0.191667,-0.1916 -0.42916,-0.287466 -0.712494,-0.287466 -0.283334,0 -0.520841,0.09587 -0.712507,0.287466 -0.191667,0.191733 -0.287494,0.4292 -0.287494,0.712533 0,0.283333 0.09583,0.5208 0.287494,0.712533 0.191666,0.1916 0.429173,0.287467 0.712507,0.287467 z m 0,-4.000012 c 0.283334,0 0.520827,-0.09583 0.712494,-0.287493 0.191667,-0.191666 0.287507,-0.429173 0.287507,-0.712506 v -3.999998 c 0,-0.283333 -0.09584,-0.520826 -0.287507,-0.712493 -0.191667,-0.191666 -0.42916,-0.287506 -0.712494,-0.287506 -0.283334,0 -0.520841,0.09584 -0.712507,0.287506 -0.191667,0.191667 -0.287494,0.42916 -0.287494,0.712493 v 3.999998 c 0,0.283333 0.09583,0.52084 0.287494,0.712506 0.191666,0.191667 0.429173,0.287493 0.712507,0.287493 z m 0,9.000009 c -1.383335,0 -2.683336,-0.262533 -3.900004,-0.787466 -1.216668,-0.525067 -2.275003,-1.2376 -3.175004,-2.137599 -0.900001,-0.9 -1.612508,-1.958266 -2.137508,-3.174932 C 10.2625,22.683337 10,21.383325 10,19.999992 c 0,-1.383333 0.2625,-2.683332 0.7875,-3.899998 0.525,-1.216666 1.237507,-2.274999 2.137508,-3.174998 0.900001,-0.9 1.958336,-1.612493 3.175004,-2.137492 1.216668,-0.525004 2.516669,-0.7875042 3.900004,-0.7875042 1.383335,0 2.68331,0.2625002 3.899977,0.7875042 1.216668,0.524999 2.27507,1.237492 3.175071,2.137492 0.900001,0.899999 1.612401,1.958332 2.137468,3.174998 C 29.737466,17.31666 30,18.616659 30,19.999992 c 0,1.383333 -0.262534,2.683345 -0.787468,3.900011 -0.525067,1.216666 -1.237467,2.274932 -2.137468,3.174932 -0.900001,0.899999 -1.958403,1.612532 -3.175071,2.137599 C 22.683326,29.737467 21.383351,30 20.000016,30 Z m 0,-1.999999 c 2.233336,0 4.125044,-0.775066 5.675046,-2.325065 1.550002,-1.55 2.324936,-3.441612 2.324936,-5.674944 0,-2.233332 -0.774934,-4.124998 -2.324936,-5.674997 -1.550002,-1.549999 -3.44171,-2.324999 -5.675046,-2.324999 -2.233336,0 -4.125004,0.775 -5.675006,2.324999 -1.550002,1.549999 -2.325003,3.441665 -2.325003,5.674997 0,2.233332 0.775001,4.124944 2.325003,5.674944 1.550002,1.549999 3.44167,2.325065 5.675006,2.325065 z"
     fill="#f59819"
     id="path1"
     style="stroke-width:1.33333;fill:#ffffff" />
</svg>
