<svg width="21" height="20" viewBox="0 0 21 20" fill="none" xmlns="http://www.w3.org/2000/svg">
<path d="M19.6903 5.54807L17.8894 7.34893C17.7058 7.53253 17.4089 7.53253 17.2253 7.34893L12.8892 3.01282C12.7056 2.82921 12.7056 2.53233 12.8892 2.34873L14.6901 0.547873C15.4206 -0.182624 16.6081 -0.182624 17.3425 0.547873L19.6903 2.89562C20.4247 3.62612 20.4247 4.81367 19.6903 5.54807ZM11.3423 3.89566L1.08407 14.1539L0.255911 18.9002C0.142625 19.5408 0.701241 20.0955 1.34189 19.9861L6.08817 19.1541L16.3464 8.89586C16.53 8.71226 16.53 8.41537 16.3464 8.23177L12.0103 3.89566C11.8228 3.71206 11.5259 3.71206 11.3423 3.89566V3.89566ZM5.08813 13.2749C4.87328 13.0601 4.87328 12.7163 5.08813 12.5015L11.104 6.48561C11.3189 6.27076 11.6626 6.27076 11.8775 6.48561C12.0923 6.70046 12.0923 7.04423 11.8775 7.25908L5.8616 13.2749C5.64675 13.4898 5.30299 13.4898 5.08813 13.2749V13.2749ZM3.67792 16.5602H5.553V17.9783L3.03337 18.4197L1.81847 17.2048L2.2599 14.6852H3.67792V16.5602Z" fill="#2E3134"/>
</svg>
