<svg width="24" height="24" viewBox="0 0 24 24" fill="none" xmlns="http://www.w3.org/2000/svg">
<path fill-rule="evenodd" clip-rule="evenodd" d="M8.38214 0.108733C8.57363 0.0113041 8.7914 -0.0218625 9.00321 0.0141454L23.1676 2.4221C23.6483 2.50382 24 2.92034 24 3.40796V19.013C24 19.3892 23.7888 19.7336 23.4535 19.9042L15.6179 23.8913C15.4264 23.9887 15.2086 24.0219 14.9968 23.9859L0.832391 21.5777C0.35168 21.496 0 21.0795 0 20.5919V4.98676C0 4.61052 0.211187 4.26612 0.546523 4.0955L8.38214 0.108733ZM8.99421 2.04131L4.14717 4.50748L15.0058 6.3536L19.8529 3.88729L8.99421 2.04131ZM22 5.03879L16.1644 8.0081V21.3692L22 18.3998V5.03879ZM14.1644 21.8156V18.0192V17.0049V8.23925L9.3358 7.41832L8.3358 7.24831L2 6.17113V19.7475L14.1644 21.8156Z" fill="currentColor"/>
<path fill-rule="evenodd" clip-rule="evenodd" d="M8.8358 3.10085C9.11195 3.10085 9.3358 3.3247 9.3358 3.60085V4.64119C9.3358 4.91733 9.11195 5.14119 8.8358 5.14119C8.55966 5.14119 8.3358 4.91733 8.3358 4.64119V3.60085C8.3358 3.3247 8.55966 3.10085 8.8358 3.10085ZM8.8358 9.34288C9.11195 9.34288 9.3358 9.56674 9.3358 9.84288V10.8832C9.3358 11.1594 9.11195 11.3832 8.8358 11.3832C8.55966 11.3832 8.3358 11.1594 8.3358 10.8832V9.84288C8.3358 9.56674 8.55966 9.34288 8.8358 9.34288ZM8.8358 12.4639C9.11195 12.4639 9.3358 12.6878 9.3358 12.9639V14.0042C9.3358 14.2804 9.11195 14.5042 8.8358 14.5042C8.55966 14.5042 8.3358 14.2804 8.3358 14.0042V12.9639C8.3358 12.6878 8.55966 12.4639 8.8358 12.4639ZM8.8358 15.5849C9.11195 15.5849 9.3358 15.8088 9.3358 16.0849V16.1839L9.39176 16.1934C9.66399 16.2397 9.84716 16.4979 9.80088 16.7702C9.75459 17.0424 9.49638 17.2256 9.22415 17.1793L8.9151 17.1268L8.62724 17.2732C8.38113 17.3985 8.0801 17.3005 7.95486 17.0543C7.82963 16.8082 7.92763 16.5072 8.17374 16.382L8.3358 16.2995V16.0849C8.3358 15.8088 8.55966 15.5849 8.8358 15.5849ZM10.7036 16.9237C10.7499 16.6514 11.0081 16.4682 11.2803 16.5145L12.2246 16.6751C12.4969 16.7214 12.68 16.9796 12.6338 17.2518C12.5875 17.524 12.3293 17.7072 12.057 17.6609L11.1127 17.5004C10.8405 17.4541 10.6573 17.1959 10.7036 16.9237ZM7.10487 17.4869C7.2301 17.733 7.13211 18.034 6.88599 18.1592L6.01537 18.6022C5.76926 18.7275 5.46822 18.6295 5.34299 18.3834C5.21776 18.1372 5.31576 17.8362 5.56187 17.711L6.43249 17.268C6.67861 17.1427 6.97964 17.2407 7.10487 17.4869ZM16.3694 17.8869C16.4156 17.6147 16.6739 17.4315 16.9461 17.4778L17.8904 17.6383C18.1626 17.6846 18.3458 17.9428 18.2995 18.2151C18.2532 18.4873 17.995 18.6705 17.7228 18.6242L16.7785 18.4636C16.5062 18.4174 16.3231 18.1591 16.3694 17.8869ZM19.2022 18.3685C19.2485 18.0963 19.5067 17.9131 19.779 17.9594L20.7233 18.12C20.9955 18.1662 21.1787 18.4245 21.1324 18.6967C21.0861 18.9689 20.8279 19.1521 20.5557 19.1058L19.6114 18.9453C19.3391 18.899 19.156 18.6408 19.2022 18.3685ZM4.493 18.8159C4.61823 19.062 4.52024 19.363 4.27412 19.4882L3.4035 19.9312C3.15738 20.0565 2.85635 19.9585 2.73112 19.7124C2.60589 19.4662 2.70388 19.1652 2.95 19.04L3.82062 18.597C4.06674 18.4718 4.36777 18.5697 4.493 18.8159Z" fill="currentColor"/>
<path d="M14.1132 16.9962C13.841 16.9499 13.5828 17.133 13.5365 17.4053C13.4902 17.6775 13.6734 17.9357 13.9456 17.982L14.1644 18.0192V17.0049L14.1132 16.9962Z" fill="currentColor"/>
<path d="M8.8358 8.2622C9.11195 8.2622 9.3358 8.03835 9.3358 7.7622V7.41832L8.3358 7.24831V7.7622C8.3358 8.03835 8.55966 8.2622 8.8358 8.2622Z" fill="currentColor"/>
</svg>
