<?xml version="1.0" encoding="utf-8"?>
<!-- Generator: Adobe Illustrator 25.2.3, SVG Export Plug-In . SVG Version: 6.00 Build 0)  -->
<svg version="1.1" id="Layer_1" xmlns="http://www.w3.org/2000/svg" xmlns:xlink="http://www.w3.org/1999/xlink" x="0px" y="0px"
	 viewBox="0 0 48 48" style="enable-background:new 0 0 48 48;" xml:space="preserve">
<style type="text/css">
	.st0{fill:#303030;stroke:#2E3134;stroke-width:0.65;stroke-miterlimit:10;}
</style>
<path class="st0" d="M24,43.7H4.6C3.3,43.9,2,43,1.9,41.6c0-0.2,0-0.4,0-0.6c0-11.3,0-22.7,0-34c0-0.5,0.1-1,0.3-1.4
	c0.4-0.9,1.2-1.4,2.2-1.4c2.9,0,5.8,0,8.7,0c1.1,0,2.2,0.4,3,1.2c0.5,0.4,1,0.9,1.6,1.4c0.5,0.5,1.2,0.7,1.9,0.7h23.9
	c1.9,0,2.8,0.9,2.8,2.8c0,10.2,0,20.5,0,30.7c0.1,0.6-0.1,1.2-0.5,1.8c-0.5,0.7-1.3,1.1-2.2,1L24,43.7L24,43.7z M43.7,41.3v-25H4.3
	v25H43.7z M4.3,6.7v7.1h39.4V9.9H43c-7.8,0-15.6,0-23.5,0c-0.8,0-1.6-0.2-2.3-0.5c-0.9-0.5-1.8-1.2-2.6-1.9C14,7,13.3,6.7,12.5,6.6
	c-2.6,0-5.2,0-7.7,0L4.3,6.7z"/>
<path class="st0" d="M22.7,33.4c0-0.2,0-0.4,0-0.6c0-4.2,0-8.3,0-12.5c-0.1-0.7,0.4-1.3,1.1-1.3c0.2,0,0.4,0,0.6,0.1
	c0.5,0.3,0.8,0.8,0.7,1.3c0,3.4,0,6.8,0,10.3c0,0.8,0,1.6,0,2.4c0,0.1,0.1,0.3,0.1,0.4c0.1,0,0.3-0.1,0.4-0.2l4.6-4.5
	c0.4-0.5,1.1-0.6,1.6-0.2l0.1,0.1c0.5,0.4,0.6,1.2,0.2,1.6c0,0.1-0.1,0.1-0.2,0.2l-4.2,4.3l-2.5,2.6c-0.5,0.7-1.4,0.8-2.1,0.3
	c-0.1-0.1-0.2-0.2-0.3-0.3c-2.3-2.3-4.5-4.6-6.8-6.9c-0.4-0.3-0.5-0.8-0.3-1.3c0.1-0.5,0.6-0.8,1.1-0.8c0.4,0,0.7,0.2,1,0.5
	c1.5,1.4,2.9,2.9,4.3,4.3c0.2,0.1,0.3,0.3,0.5,0.4L22.7,33.4z"/>
</svg>
