<svg viewBox="0 0 48 48" xmlns="http://www.w3.org/2000/svg"><g fill="#2e3134"><path d="m42.2 37.3c-.5-.5-1.4-.4-1.9 0-.3.3-.4.6-.4 1s.1.7.4 1l.7.7h-15.7l.7-.7c.3-.3.4-.6.4-1s-.1-.6-.4-1c-.3-.3-.6-.4-1-.4-.4 0-.7.1-1 .4l-3.1 3.1c-.2.2-.3.5-.3.9 0 .3.1.5.3.9l3.1 3.1c.3.3.6.4 1 .4.4 0 .7-.1 1-.4.2-.2.4-.5.4-1 0-.4-.1-.6-.4-1l-.7-.7h15.8l-.7.7c-.3.3-.4.6-.4 1s.1.6.4 1c.3.3.6.4 1 .4s.7-.1 1-.4l3.1-3.1c.2-.2.3-.6.3-.8 0-.3-.1-.5-.3-.8z"/><path d="m18.9 29.6v.2c-.3-.2-.7-.3-.8-.3h-.1c-.1 0-.1-.1-.2-.1-.8-.1-1.2.3-1.3.7s0 .1-.1.1l-.4 1-10.1-21.9 1 .3c.6.2 1.4-.1 1.7-.8s0-1.4-.8-1.7l-4.2-1.6c-.3-.1-.5-.1-.8 0-.3.2-.5.4-.6.8l-1.6 4.1c-.2.6.1 1.4.8 1.7.3.1.8.1 1-.1l.1-.1c.3-.2.5-.3.6-.7l.3-1 10.2 21.9-1-.3c-.3-.1-.7-.1-1 0-.3.2-.6.4-.7.7-.1.4-.1.7.1 1l.1.1c.2.3.3.4.7.6l4.1 1.6h.3c.1 0 .2 0 .3-.1h.3c.2 0 .3-.2.5-.4.1-.1.1-.2.2-.2l1.6-4.2v-.1s.1-.1.1-.2c.2-.3.1-.6 0-.8z"/><path d="m47.5 5.6c-.1-.2-.1-.2-.1-.3 0-1.5-1.2-2.8-2.8-2.8-.9 0-1.9.5-2.4 1.4h-28.3c-.5-.9-1.4-1.4-2.4-1.4-1.5 0-2.8 1.3-2.8 2.8 0 1.4 1.2 2.7 2.7 2.7l10.2 23c-.2.4-.4.8-.4 1.2-.1.6.1 1.4.6 2 .6.7 1.4 1 1.8 1h.2c.9 0 1.9-.5 2.4-1.3h15.1c.4.8 1.3 1.3 2.1 1.3h.3c1.4 0 2.7-1.2 2.8-2.5.1-1.1-.4-2-1.3-2.5l.8-22.3c.7-.5 1.2-1.2 1.4-2.1 0 0 0 0 0-.1h.2zm-4.3 2-.7 22.3c-.5.3-.8.7-1.1 1.1h-15c-.4-.8-1.3-1.3-2.1-1.3h-.2l-10.2-23.1h28.3c.3.5.7.8 1 1z"/></g></svg>