<svg width="22" height="22" viewBox="0 0 22 22" fill="none" xmlns="http://www.w3.org/2000/svg">
<path d="M6.92 1H3.54C2.13 1 1 2.15 1 3.561V6.97C1 8.39 2.13 9.53 3.54 9.53H6.92C8.32 9.53 9.46 8.39 9.46 6.97V3.561C9.46 2.15 8.32 1 6.92 1Z" fill="#2E3134"/>
<path d="M18.4801 1H15.1001C13.6901 1 12.5601 2.15 12.5601 3.561V6.97C12.5601 8.39 13.6901 9.53 15.1001 9.53H18.4801C19.8801 9.53 21.0201 8.39 21.0201 6.97V3.561C21.0201 2.15 19.8801 1 18.4801 1Z" fill="#2E3134"/>
<path d="M6.92 12.5298H3.54C2.13 12.5298 1 13.6798 1 15.0908V18.4998C1 19.9198 2.13 21.0598 3.54 21.0598H6.92C8.32 21.0598 9.46 19.9198 9.46 18.4998V15.0908C9.46 13.6798 8.32 12.5298 6.92 12.5298Z" fill="#2E3134"/>
<path d="M18.4801 12.5298H15.1001C13.6901 12.5298 12.5601 13.6798 12.5601 15.0908V18.4998C12.5601 19.9198 13.6901 21.0598 15.1001 21.0598H18.4801C19.8801 21.0598 21.0201 19.9198 21.0201 18.4998V15.0908C21.0201 13.6798 19.8801 12.5298 18.4801 12.5298Z" fill="#2E3134"/>
</svg>
