<?xml version="1.0" encoding="UTF-8"?>
<svg id="Layer_1" xmlns="http://www.w3.org/2000/svg" version="1.1" viewBox="0 0 22 22">
  <!-- Generator: Adobe Illustrator 29.1.0, SVG Export Plug-In . SVG Version: 2.1.0 Build 142)  -->
  <defs>
    <style>
      .st0 {
        fill: #34383c;
      }
    </style>
  </defs>
  <path class="st0" d="M20.08,12.25c-.35-.07-.7.15-.77.5-.82,3.9-4.32,6.74-8.31,6.74-4.46,0-8.13-3.46-8.47-7.84h3.1c.36,0,.65-.29.65-.65,0-2.6,2.11-4.71,4.71-4.71,1.17,0,2.26.42,3.11,1.17h-1.06c-.36,0-.65.29-.65.65s.29.65.65.65h2.48c.36,0,.65-.29.65-.65v-2.48c0-.36-.29-.65-.65-.65s-.65.29-.65.65v.76c-1.07-.9-2.45-1.41-3.87-1.41-3.1,0-5.65,2.35-5.98,5.36H1.85c-.36,0-.65.29-.65.65,0,5.4,4.4,9.8,9.8,9.8,4.61,0,8.64-3.27,9.59-7.77.07-.35-.15-.7-.5-.77h0Z"/>
  <path class="st0" d="M11,1.2C6.39,1.2,2.36,4.47,1.41,8.97c-.07.35.15.7.5.77.35.08.7-.15.77-.5.82-3.9,4.32-6.74,8.31-6.74,4.46,0,8.13,3.46,8.47,7.84h-3.1c-.36,0-.65.29-.65.65,0,2.6-2.11,4.71-4.71,4.71-1.17,0-2.26-.42-3.11-1.17h1.06c.36,0,.65-.29.65-.65s-.29-.65-.65-.65h-2.48c-.36,0-.65.29-.65.65v2.48c0,.36.29.65.65.65s.65-.29.65-.65v-.76c1.07.9,2.45,1.41,3.87,1.41,3.1,0,5.65-2.35,5.98-5.36h3.16c.36,0,.65-.29.65-.65,0-5.4-4.4-9.8-9.8-9.8h0Z"/>
</svg>