<svg viewBox="0 0 30 30" xmlns="http://www.w3.org/2000/svg"><g fill="currentColor"><circle cx="6.66" cy="19.51" r="1.66"/><circle cx="10.83" cy="11.57" r="1.66"/><circle cx="10.83" cy="16.66" r="1.66"/><circle cx="10.83" cy="21.49" r="1.66"/><circle cx="6.66" cy="14.56" r="1.66"/><path d="m14.99 4.64c-.92 0-1.66.74-1.66 1.66s.74 1.66 1.66 1.66 1.66-.74 1.66-1.66-.74-1.66-1.66-1.66z"/><path d="m21.7 10.14s0 .06.01.09c0 .03.01.06.02.08 0 .02.01.04.02.07 0 .03.02.06.03.09 0 .02.01.03.02.05.01.03.03.07.04.1 0 .01.01.02.02.03.02.04.04.07.06.11 0 0 0 .01.01.02.02.04.05.07.07.11.19.26.45.45.76.57h.02c.05.02.1.03.15.05h.03c.05.01.1.02.15.03h.04c.06 0 .12.01.19.01.06 0 .13 0 .19-.01h.04c.05 0 .1-.02.15-.03h.03c.05-.01.1-.03.15-.05h.02c.06-.02.11-.04.16-.07.54-.27.92-.83.92-1.48 0-.92-.74-1.66-1.66-1.66-.54 0-1.01.25-1.31.65 0 0 0 .01-.01.02-.04.05-.07.1-.1.15 0 0 0 .01-.01.02-.07.11-.12.24-.15.37 0 .02 0 .03-.01.05-.01.05-.02.1-.03.15v.06c0 .07-.01.13-.01.2v.16.06z"/><path d="m17.11 7.96 3.59 1.41c.1-.5.35-.96.69-1.32l-3.72-1.46c-.06.51-.26.98-.56 1.37z"/><path d="m22.6 12.5v4.42c.24-.07.48-.11.74-.11s.5.04.74.11v-4.42c-.24.07-.48.11-.74.11s-.5-.04-.74-.11z"/><path d="m24.99 19.31s-.01-.08-.02-.12c0-.01 0-.02 0-.03 0-.05-.02-.09-.04-.14 0-.01 0-.03-.01-.04-.01-.03-.02-.06-.03-.09 0-.02-.01-.03-.02-.05-.01-.03-.03-.06-.04-.09s-.03-.05-.04-.08c-.01-.02-.03-.04-.04-.06s-.03-.04-.04-.06c-.01-.01-.02-.03-.03-.04-.06-.08-.12-.15-.2-.22 0 0-.01-.01-.02-.02-.11-.1-.23-.18-.36-.25-.22-.11-.47-.18-.74-.18s-.52.06-.74.18c-.03.02-.07.04-.1.05-.09.06-.18.12-.26.19 0 0-.01.01-.02.02-.07.07-.14.14-.2.21-.01.01-.02.03-.03.04-.01.02-.03.04-.04.06s-.03.04-.04.06-.03.05-.04.07c-.02.03-.03.06-.04.09 0 .02-.01.03-.02.05-.01.03-.02.06-.03.09 0 .01 0 .03-.01.04-.01.04-.03.09-.04.14v.03c0 .04-.01.08-.02.12v.04.15c0 .54.26 1.02.67 1.32.13.1.27.18.43.23.01 0 .03.01.04.01.03 0 .05.02.08.02.02 0 .05.01.07.02.02 0 .05.01.07.01.03 0 .06.01.09.01h.06.15c.29 0 .56-.07.79-.2.05-.03.09-.05.14-.08.44-.3.73-.8.73-1.38 0-.05 0-.1 0-.15 0-.01 0-.03 0-.04z"/><path d="m15.99 22.37s-.08-.06-.12-.08c-.04-.03-.09-.05-.13-.07-.22-.11-.47-.18-.74-.18s-.52.06-.74.18c-.13.07-.26.15-.36.25 0 0-.01.01-.02.02-.07.07-.14.14-.2.22-.01.01-.02.03-.03.04-.01.02-.03.04-.04.06s-.03.04-.04.06-.03.05-.04.08c-.02.03-.03.06-.04.09 0 .02-.01.03-.02.05-.01.03-.02.06-.03.09 0 .01-.01.03-.01.04-.01.04-.03.09-.04.14v.03c0 .04-.01.08-.02.12v.04.15c0 .11.01.23.03.33.02.11.05.21.1.31.02.05.04.1.07.14.28.52.83.87 1.46.87.29 0 .56-.07.79-.2.52-.28.87-.83.87-1.46 0-.54-.26-1.02-.67-1.33z"/><path d="m15.99 16.99s-.08-.06-.12-.08c-.04-.03-.09-.05-.13-.07-.22-.11-.47-.18-.74-.18s-.52.06-.74.18c-.13.07-.26.15-.36.25 0 0-.01.01-.02.02-.07.07-.14.14-.2.22-.01.01-.02.03-.03.04-.01.02-.03.04-.04.06s-.03.04-.04.06-.03.05-.04.08c-.02.03-.03.06-.04.09 0 .02-.01.03-.02.05-.01.03-.02.06-.03.09 0 .01-.01.03-.01.04-.01.04-.03.09-.04.14v.03c0 .04-.01.08-.02.12v.04.15c0 .11.01.23.03.33.02.11.05.21.1.31.02.05.04.1.07.14.28.52.83.87 1.46.87.29 0 .56-.07.79-.2.52-.28.87-.83.87-1.46 0-.54-.26-1.02-.67-1.33z"/><path d="m16.97 21.88c.33.36.57.82.67 1.32l3.72-1.87c-.33-.36-.57-.82-.67-1.32z"/><path d="m21.14 11.45c-.28-.4-.45-.89-.48-1.41l-3.33 1.54c.23.4.36.86.36 1.35v.12z"/><path d="m16.26 11.86s0 0 0 0c-.04-.05-.08-.09-.13-.13 0 0-.02-.02-.03-.02-.04-.03-.08-.07-.12-.1-.01 0-.02-.02-.03-.02-.05-.04-.1-.07-.16-.1-.06-.03-.11-.06-.17-.08-.01 0-.03 0-.04-.01-.04-.02-.09-.03-.14-.05-.02 0-.04-.01-.06-.02-.04-.01-.09-.02-.13-.03-.02 0-.04 0-.06 0-.06 0-.13-.01-.2-.01s-.13 0-.2.01c-.02 0-.04 0-.06 0-.05 0-.09.02-.13.03-.02 0-.04 0-.06.02-.05.01-.09.03-.14.05-.01 0-.03 0-.04.02-.06.02-.12.05-.17.08-.05.03-.11.06-.16.1-.01 0-.02.02-.03.02-.04.03-.08.06-.12.1 0 0-.02.02-.03.03-.04.04-.09.09-.13.13-.04.05-.08.1-.12.16-.17.26-.27.57-.27.91 0 .23.05.46.14.66.04.09.08.17.14.25.02.03.05.07.07.1 0 0 .01.01.02.02.03.03.05.06.08.09 0 0 .01.01.02.02l.09.09s.01 0 .02.01c.03.03.07.06.1.08h.01c.04.03.07.05.11.08.04.02.08.05.12.07.22.11.47.18.74.18s.52-.06.74-.18c.04-.02.08-.04.12-.07.04-.02.08-.05.11-.08h.01c.03-.03.07-.05.1-.08 0 0 .01 0 .02-.01.03-.03.06-.06.09-.09 0 0 .01-.01.02-.02.03-.03.05-.06.08-.09 0 0 0-.01.01-.02.08-.11.16-.23.21-.36.09-.2.14-.42.14-.66 0-.34-.1-.65-.27-.91-.04-.06-.08-.11-.12-.16z"/><path d="m8.8 7.98c.3.39.49.86.54 1.38l3.55-1.39c-.3-.38-.51-.85-.56-1.37l-3.52 1.38z"/><path d="m7.77 8.39s-.07-.06-.11-.09c-.04-.03-.08-.06-.12-.08 0 0 0 0-.01 0-.04-.02-.08-.05-.12-.07 0 0-.02 0-.02-.01-.04-.02-.07-.03-.11-.05-.01 0-.03 0-.04-.01-.03-.01-.07-.02-.1-.04-.02 0-.04-.01-.06-.02-.03 0-.06-.02-.09-.02s-.06 0-.09-.01c-.02 0-.05 0-.07 0-.05 0-.11 0-.16 0s-.11 0-.17 0c-.56.06-1.03.39-1.29.86-.13.23-.2.5-.2.79s.07.56.2.79c.26.47.73.8 1.29.86h.17.16.05c.03 0 .07 0 .1-.01.02 0 .04 0 .07-.01.03 0 .05-.01.08-.02.02 0 .05-.01.07-.02.02 0 .05-.02.07-.02.03 0 .05-.02.08-.03.02 0 .03-.02.05-.02.03-.01.06-.03.08-.04.08-.04.15-.09.22-.15.38-.3.62-.77.62-1.29 0-.49-.21-.93-.55-1.23z"/></g></svg>