<svg width="24" height="24" viewBox="0 0 24 24" fill="none" xmlns="http://www.w3.org/2000/svg">
<path fill-rule="evenodd" clip-rule="evenodd" d="M14.9996 16.9534V18.95V18.9534H16.9996C17.5496 18.9534 18.0204 18.7575 18.4121 18.3659C18.8038 17.9742 18.9996 17.5034 18.9996 16.9534L19 16.95L17 14.95L16.9996 16.9534H16.2034H14.9996ZM7.00337 4.95337H4.99961L5 5.75L4.99961 7.95337H2.99961V4.95337C2.99961 4.40337 3.19544 3.93254 3.58711 3.54087C3.97878 3.1492 4.44961 2.95337 4.99961 2.95337H5.00337L7 4.95L7.00337 4.95337ZM7.82837 2.95337H16.9996C17.5496 2.95337 18.0204 3.1492 18.4121 3.54087C18.8038 3.93254 18.9996 4.40337 18.9996 4.95337V9.45337L22.9996 5.45337V16.4534L18.9996 12.4534L19 14.125L17 12.125V4.95H9.825L7.82837 2.95337ZM4.66211 21.7909C4.90378 21.8992 5.16628 21.9534 5.44961 21.9534H10.9996C11.5663 21.9534 12.0413 21.7575 12.4246 21.3659C12.8079 20.9742 12.9996 20.5034 12.9996 19.9534V18.95V16.95V11.7034C12.9996 11.4867 12.9288 11.3075 12.7871 11.1659C12.6454 11.0242 12.4663 10.9534 12.2496 10.9534C12.0496 10.9534 11.8746 11.0242 11.7246 11.1659C11.5746 11.3075 11.4996 11.4867 11.4996 11.7034V14.9534H10.4996V10.7034C10.4996 10.4867 10.4288 10.3075 10.2871 10.1659C10.1454 10.0242 9.96628 9.95337 9.74961 9.95337C9.54961 9.95337 9.37461 10.0242 9.22461 10.1659C9.07461 10.3075 8.99961 10.4867 8.99961 10.7034V14.9534H7.99961V9.70337C7.99961 9.4867 7.92878 9.30754 7.78711 9.16587C7.64544 9.0242 7.46628 8.95337 7.24961 8.95337C7.04961 8.95337 6.87461 9.0242 6.72461 9.16587C6.57461 9.30754 6.49961 9.4867 6.49961 9.70337V14.9534H5.49961V11.2034C5.49961 10.9867 5.42878 10.8075 5.28711 10.6659C5.20424 10.583 5.10854 10.5244 5 10.49C4.923 10.4656 4.83953 10.4534 4.74961 10.4534C4.54961 10.4534 4.37461 10.5242 4.22461 10.6659C4.07461 10.8075 3.99961 10.9867 3.99961 11.2034V18.5534L3.44961 18.0034C3.36569 17.909 3.27186 17.8294 3.16812 17.7647C3.10705 17.7266 3.04255 17.6937 2.97461 17.6659C2.79128 17.5909 2.59961 17.5534 2.39961 17.5534C2.21628 17.5534 2.03294 17.5909 1.84961 17.6659C1.66628 17.7409 1.49961 17.8534 1.34961 18.0034L0.999609 18.3534L4.02461 21.3534C4.20794 21.5367 4.42044 21.6825 4.66211 21.7909Z" fill="#2E3134"/>
<path fill-rule="evenodd" clip-rule="evenodd" d="M23 16.45L19 12.45V14.125L17 12.125V4.95H9.825L7.82837 2.95337L7.825 2.95H17C17.55 2.95 18.0208 3.14583 18.4125 3.5375C18.8042 3.92917 19 4.4 19 4.95V9.45L23 5.45V16.45ZM21.55 22.3L17.9591 18.7091C17.6719 18.8697 17.3522 18.95 17 18.95H14.9996V16.9534H16.2034L16.2 16.95L5 5.75L4.99961 7.95337H2.99961L3 4.95C3 4.59783 3.08029 4.27812 3.24087 3.99087L1.65 2.4L3.05 1L5 2.95L5.00337 2.95337L7 4.95L7.00337 4.95337L17 14.95L19 16.95L22.95 20.9L21.55 22.3ZM3.16812 17.7647C3.27186 17.8294 3.36569 17.909 3.44961 18.0034L3.99961 18.5534V11.2034C3.99961 10.9867 4.07461 10.8075 4.22461 10.6659C4.37461 10.5242 4.54961 10.4534 4.74961 10.4534C4.83953 10.4534 4.923 10.4656 5 10.49V16.95H12.9996V18.95H5C4.45 18.95 3.97917 18.7542 3.5875 18.3625C3.40535 18.1804 3.26556 17.9811 3.16812 17.7647Z" fill="#2E3134"/>
</svg>
