<?xml version="1.0" encoding="utf-8"?>
<!-- Generator: Adobe Illustrator 25.2.1, SVG Export Plug-In . SVG Version: 6.00 Build 0)  -->
<svg version="1.1" id="Layer_1" xmlns="http://www.w3.org/2000/svg" xmlns:xlink="http://www.w3.org/1999/xlink" x="0px" y="0px"
	 viewBox="0 0 48 48" style="enable-background:new 0 0 48 48;" xml:space="preserve">
<style type="text/css">
	.st0{fill:#2E3134;}
	.st1{fill:#2D3134;}
</style>
<g>
	<path class="st0" d="M17.4,41.9c0-0.8-0.7-1.7-1.7-1.7H5.8V30.1c0-0.9-0.7-1.7-1.6-1.7s-1.7,0.7-1.7,1.7v10.2v1.9v0.6
		c0,0.4,0.3,0.7,0.7,0.7h12.4C16.6,43.5,17.4,42.7,17.4,41.9z"/>
	<path class="st0" d="M4.1,18.6c0.8,0,1.7-0.7,1.7-1.7V7.1h10c0.9,0,1.7-0.7,1.7-1.6s-0.7-1.7-1.7-1.7H5.6H3.7H3.2
		c-0.4,0-0.7,0.3-0.7,0.7v12.4C2.5,17.8,3.3,18.6,4.1,18.6z"/>
	<path class="st0" d="M27.2,5.3C27.2,6.1,28,7,28.9,7h9.8v10c0,0.9,0.7,1.7,1.6,1.7c0.8,0,1.7-0.7,1.7-1.7V6.8V4.9V4.4
		c0-0.4-0.3-0.7-0.7-0.7H28.9C27.9,3.7,27.2,4.5,27.2,5.3z"/>
	<path class="st0" d="M13.1,14.9c1.9,0,3.4,1.6,3.4,3.4c0,1.9-1.6,3.4-3.4,3.4s-3.4-1.5-3.4-3.4C9.7,16.4,11.3,14.9,13.1,14.9
		L13.1,14.9z"/>
	<path class="st0" d="M34.9,28.4v-2.7c0-0.4-0.2-0.7-0.4-1l-6.5-6.6c-0.3-0.3-0.7-0.3-0.9,0l-8.8,8.6L16,24.4
		c-0.3-0.3-0.7-0.3-0.9,0l-4.8,4.8c-0.3,0.2-0.4,0.6-0.4,0.8v2c0,0.6,0.5,1.1,1.1,1.1h18.2C30.3,30.9,32.4,29.2,34.9,28.4z"/>
	<path class="st0" d="M38.7,30.5L38.7,30.5c-2.2,0-4.4,0.8-5.9,2.4s-2.4,3.6-2.4,5.9c0,4.6,3.7,8.3,8.3,8.3s8.3-3.7,8.3-8.3
		C46.9,34.2,43.2,30.5,38.7,30.5z M42.5,41.1L39,44.6c-0.1,0.1-0.3,0.2-0.5,0.2s-0.3-0.1-0.5-0.2l-3.4-3.4c-0.3-0.3-0.3-0.7,0-0.9
		c0.3-0.3,0.7-0.3,0.9,0l2.3,2.3v-8.8c0-0.4,0.3-0.7,0.7-0.7c0.4,0,0.7,0.3,0.7,0.7v8.8l2.3-2.3c0.3-0.3,0.7-0.3,0.9,0
		C42.7,40.5,42.7,40.9,42.5,41.1z"/>
</g>
</svg>
