<svg viewBox="0 0 24 24" xmlns="http://www.w3.org/2000/svg"><path d="m12 24c6.6274 0 12-5.3726 12-12 0-6.62744-5.3726-12-12-12-6.62744 0-12 5.37256-12 12 0 6.6274 5.37256 12 12 12zm1.541-18.85791c.0571.11914.0733.25391.0454.3833l-1.0439 4.87451h5.2578c.1157 0 .229.0337.3262.0967.0971.063.1738.1523.2212.2583.0473.1059.0629.2226.0454.3374-.0181.1142-.0684.2212-.146.3076l-6.7998 7.6001c-.0884.0981-.2066.165-.3365.189-.1298.0244-.2646.0053-.3823-.0547-.1177-.0601-.2124-.1572-.2695-.2764-.0571-.1196-.0728-.2544-.0454-.3838l1.0439-4.8745h-5.2573c-.11573 0-.2295-.0332-.32666-.0962-.09717-.063-.17383-.1528-.2212-.2588-.03369-.0747-.05127-.1552-.05224-.2368-.00049-.0337.00195-.0674.00732-.1006.01758-.1142.06836-.2212.14551-.3076l6.79977-7.5996c.0884-.09863.2066-.16504.3369-.18945.1299-.02442.2642-.00489.3819.05468.1181.06006.2129.15723.2695.27686z"/></svg>