<svg viewBox="0 0 15 24" fill="none" xmlns="http://www.w3.org/2000/svg">
<path fill-rule="evenodd" clip-rule="evenodd" d="M7.49985 13.2308C6.82011 13.2308 6.26908 12.6797 6.26908 12C6.26908 11.3202 6.82011 10.7692 7.49985 10.7692C8.17958 10.7692 8.73062 11.3202 8.73062 12C8.73062 12.6797 8.17958 13.2308 7.49985 13.2308ZM3.80754 12C3.80754 14.0392 5.46064 15.6923 7.49985 15.6923C9.53905 15.6923 11.1922 14.0392 11.1922 12C11.1922 9.96078 9.53905 8.30767 7.49985 8.30767C5.46064 8.30767 3.80754 9.96078 3.80754 12Z" fill="currentColor"/>
<path fill-rule="evenodd" clip-rule="evenodd" d="M3.80754 12C3.80754 14.0392 5.46064 15.6923 7.49985 15.6923C9.53905 15.6923 11.1922 14.0392 11.1922 12C11.1922 9.96078 9.53905 8.30767 7.49985 8.30767C5.46064 8.30767 3.80754 9.96078 3.80754 12ZM7.49985 13.2308C6.82011 13.2308 6.26908 12.6797 6.26908 12C6.26908 11.3202 6.82011 10.7692 7.49985 10.7692C8.17958 10.7692 8.73062 11.3202 8.73062 12C8.73062 12.6797 8.17958 13.2308 7.49985 13.2308Z" fill="currentColor"/>
<path fill-rule="evenodd" clip-rule="evenodd" d="M0.115234 21.8461C0.115234 22.5259 0.666268 23.0769 1.346 23.0769H13.6537C14.3334 23.0769 14.8845 22.5259 14.8845 21.8461L14.8845 2.15383C14.8845 1.47409 14.3334 0.923058 13.6537 0.923058H1.346C0.666268 0.923058 0.115234 1.47409 0.115234 2.15383L0.115234 21.8461ZM2.57677 20.6154H6.26908H8.73062H12.4229V18.1538V15.6923V13.2308V12V10.7692L12.4229 8.30767V5.84613V3.3846H8.73062H6.26908H2.57677L2.57677 5.84613V8.30767V10.7692L2.57677 13.2308V15.6923V18.1538L2.57677 20.6154Z" fill="currentColor"/>
</svg>
