<svg width="16" height="16" viewBox="0 0 16 16" fill="none" xmlns="http://www.w3.org/2000/svg">
<g clip-path="url(#clip0_134_583)">
<path d="M1.33325 1.33334L14.6666 14.6667" stroke="#2E3134" stroke-width="1.34" stroke-linecap="round" stroke-linejoin="round"/>
<path d="M2.39052 2.39052C2.14048 2.64057 2 2.97971 2 3.33333V8.11467C2.00008 8.46826 2.1406 8.80734 2.39067 9.05733L8.19333 14.86C8.49634 15.1611 8.90617 15.3301 9.33333 15.3301C9.7605 15.3301 10.1703 15.1611 10.4733 14.86L12.5 12.8333M5.66667 6C5.48257 6 5.33333 5.85076 5.33333 5.66667M14.3333 11L14.86 10.4733C15.1611 10.1703 15.3301 9.7605 15.3301 9.33333C15.3301 8.90617 15.1611 8.49634 14.86 8.19333L9.05733 2.39067C8.80734 2.1406 8.46826 2.00008 8.11467 2H5.33333" stroke="#2E3134" stroke-width="1.34" stroke-linecap="round" stroke-linejoin="round"/>
</g>
<defs>
<clipPath id="clip0_134_583">
<rect width="16" height="16" fill="white"/>
</clipPath>
</defs>
</svg>
