<svg width="24" height="24" viewBox="0 0 24 24" fill="none" xmlns="http://www.w3.org/2000/svg">
<path fill-rule="evenodd" clip-rule="evenodd" d="M9.40461 0.0297506C9.71968 -0.0522087 10.0546 0.0378594 10.2861 0.266785L11.5661 1.53271C11.6326 1.59847 11.6887 1.67395 11.7325 1.75656L12.9633 4.07743C12.9893 4.12664 13.0109 4.17811 13.0278 4.23122L13.9233 7.05915L15.9108 10.0219H16.5293C16.8668 10.0219 17.1773 10.2061 17.3392 10.5022L18.2316 12.1346L23.5628 15.4349C23.8346 15.6031 24 15.9 24 16.2197C24 16.5394 23.8346 16.8363 23.5628 17.0046L12.4859 23.8617C12.1882 24.046 11.8119 24.046 11.5142 23.8617L0.437333 17.0046C0.0369147 16.7567 -0.112704 16.2471 0.0901407 15.8221L2.27318 11.2481L4.36913 4.04113C4.44948 3.76486 4.65404 3.54186 4.92237 3.43803C5.1907 3.3342 5.49209 3.36142 5.73747 3.51166L6.94362 4.25011C7.07073 4.32794 7.17711 4.43539 7.25366 4.56329L7.54487 5.04981L7.85335 3.76665C7.85666 3.75289 7.86028 3.7392 7.86422 3.7256L8.75037 0.666276C8.84094 0.353576 9.08954 0.11171 9.40461 0.0297506ZM14.325 10.9719L12.3166 7.97796C12.2678 7.90521 12.2296 7.82589 12.2031 7.74239L11.293 4.86838L10.1676 2.74612L10.0917 2.67107L9.64338 4.21884L8.81143 7.67948C8.72377 8.04414 8.42418 8.31951 8.05344 8.37619C7.68269 8.43287 7.31451 8.2596 7.1219 7.93779L5.80054 5.7302L4.02492 11.8358C4.01097 11.8837 3.99314 11.9305 3.97162 11.9756L2.11271 15.8705L6.46163 18.5626L7.7644 17.7562L8.30777 16.0743V14.7692C8.30777 14.6812 8.32034 14.5937 8.34509 14.5094L8.75125 13.1247C8.82551 12.8716 9.00457 12.6623 9.2432 12.5497L9.7538 12.3089L9.99934 10.0539C10.0356 9.72129 10.2489 9.43432 10.557 9.30384C10.8651 9.17335 11.2196 9.21979 11.4837 9.4252L14.0532 11.4238L14.325 10.9719ZM8.21534 19.6483L12.0001 21.9912L21.3232 16.2197L17.0526 13.576C16.9168 13.492 16.8052 13.3741 16.7285 13.2339L15.9819 11.8681H15.9404L15.0987 13.267C14.9626 13.4932 14.7362 13.6503 14.4767 13.6986C14.2172 13.747 13.9494 13.6818 13.741 13.5198L11.6556 11.8977L11.5331 13.023C11.4983 13.3424 11.2999 13.6208 11.0093 13.7579L10.406 14.0424L10.1539 14.9018V16.2197C10.1539 16.3161 10.1388 16.4118 10.1092 16.5035L9.41691 18.6463C9.34962 18.8546 9.21051 19.0322 9.0244 19.1474L8.21534 19.6483Z" fill="currentColor"/>
</svg>
