<svg viewBox="0 0 22 22" xmlns="http://www.w3.org/2000/svg">
  <circle cx="11" cy="11" r="10" fill="currentColor" opacity="0.25"/>
  <path d="M13.01,4.71c.59,.3,1.05,.73,1.38,1.28,.33,.56,.49,1.2,.49,1.93,0,1.29-.4,2.24-1.19,2.84-.8,.6-1.88,.91-3.26,.91l-.05,1.97h-1.08l-.07-2.87h.47c1.23,0,2.2-.19,2.92-.58,.71-.39,1.07-1.15,1.07-2.27,0-.79-.25-1.42-.74-1.88-.5-.47-1.15-.7-1.96-.7s-1.46,.22-1.94,.66c-.48,.44-.72,1.05-.72,1.81h-1.2c0-.72,.16-1.34,.49-1.88,.33-.53,.78-.94,1.36-1.24,.58-.29,1.25-.44,2-.44s1.44,.15,2.04,.45Zm-3.82,12.08c-.17-.18-.26-.4-.26-.66s.09-.48,.26-.65c.17-.17,.39-.26,.65-.26s.46,.09,.64,.26c.17,.17,.26,.39,.26,.65s-.09,.48-.26,.66c-.17,.18-.39,.27-.64,.27s-.48-.09-.65-.27Z" fill="currentColor"/>
</svg>
