<svg width="16" height="16" viewBox="0 0 16 16" fill="none" xmlns="http://www.w3.org/2000/svg">
<g clip-path="url(#clip0_134_587)">
<path d="M1.33325 1.33334L14.6666 14.6667" stroke="#2E3134" stroke-width="1.34" stroke-linecap="round" stroke-linejoin="round"/>
<path d="M7.66667 1V2.33333M7.66667 13V14.3333M2.95329 2.95329L3.89329 3.89329M11.4399 11.4399L12.3799 12.3799M1 7.66667H2.33333M13 7.66667H14.3333M3.89329 11.4399L2.95329 12.3799M12.3799 2.95329L11.4399 3.89329M10.2493 7C9.98019 5.95434 9.09276 5.1569 8 5.02063M7.66667 10.3333C6.19391 10.3333 5 9.13943 5 7.66667C5 6.94474 5.28687 6.28982 5.75284 5.80968L9.5 9.60317C9.02211 10.0558 8.37681 10.3333 7.66667 10.3333Z" stroke="#2E3134" stroke-width="1.34" stroke-linecap="round" stroke-linejoin="round"/>
</g>
<defs>
<clipPath id="clip0_134_587">
<rect width="16" height="16" fill="white"/>
</clipPath>
</defs>
</svg>
