<svg id="Layer_1" data-name="Layer 1" xmlns="http://www.w3.org/2000/svg" viewBox="0 0 48 48"><defs><style>.cls-1{fill:#2e3134;}</style></defs><path class="cls-1" d="M45.6,40.54H5.07c-.24,0-.51-.34-.51-.8V5.86A2.26,2.26,0,0,0,2.33,3.63,2.18,2.18,0,0,0,.2,5.86V39.74a5,5,0,0,0,4.87,5.17H45.6a2.19,2.19,0,1,0,0-4.37Z"/><path class="cls-1" d="M9.84,37.46,21,37.37a2.85,2.85,0,0,0,2-.77,2.62,2.62,0,0,0,.85-1.87c.17-4.3,1.36-6.11,2.06-6.8a.64.64,0,0,1,.5-.16.8.8,0,0,1,.49.2c1.1,1.49,1.85,5,2.1,7.06l0,.21a2.85,2.85,0,0,0,2.76,2.22H43.15a2.81,2.81,0,0,0,2.19-1,2.94,2.94,0,0,0,.56-2.52c-3-11.33-6.83-19.5-11.29-24.3C31.24,6,28.56,5.49,27.84,5.42,13.79,3.56,8.06,29,7.05,34.14a2.77,2.77,0,0,0,.57,2.29A2.84,2.84,0,0,0,9.84,37.46Zm1.66-4.18C13,26.83,18,8.29,27.35,9.57h.08c.07,0,7.69,1.5,14,23.72H32.9c-.35-2.12-1.14-5.68-2.75-7.85A4.92,4.92,0,0,0,22.9,25c-1.23,1.23-2.76,3.64-3.19,8.23Z"/></svg>