<svg width="34" height="30" viewBox="0 0 34 30" fill="none" xmlns="http://www.w3.org/2000/svg">
<path fill-rule="evenodd" clip-rule="evenodd" d="M12.4191 4.91648C12.6907 4.89369 12.9125 5.10136 12.9125 5.35484V6.31425C12.9125 6.72315 13.4443 6.92793 13.7553 6.63879L16.1871 4.37828C16.3799 4.19904 16.3799 3.90844 16.1871 3.7292L13.7553 1.46868C13.4443 1.17955 12.9125 1.38433 12.9125 1.79322V2.75263C12.9125 3.00611 12.6907 3.20997 12.4187 3.22697C8.64498 3.46275 5.66504 6.38075 5.66504 9.94872C5.66504 10.665 5.66591 12 5.66591 12H7.4769C7.4769 12 7.4769 10.6775 7.4769 9.94872C7.4769 7.31581 9.65107 5.14873 12.4191 4.91648Z" fill="#2E3134"/>
<path fill-rule="evenodd" clip-rule="evenodd" d="M2.99967 13.3333C1.52691 13.3333 0.333008 14.4795 0.333008 15.8933V26.7733C0.333008 28.1872 1.52692 29.3333 2.99967 29.3333H21.6663C23.1391 29.3333 24.333 28.1872 24.333 26.7733V15.8933C24.333 14.4795 23.1391 13.3333 21.6663 13.3333H2.99967ZM2.99967 26.7733V15.8933H21.6663V26.7733H2.99967Z" fill="#2E3134"/>
<path fill-rule="evenodd" clip-rule="evenodd" d="M17.6663 12V2.66667C17.6663 1.19391 18.8125 0 20.2263 0H31.1063C32.5202 0 33.6663 1.19391 33.6663 2.66667V21.3333C33.6663 22.8061 32.5202 24 31.1063 24H25.6663V21.3333H31.1063V2.66667H20.2263V12H17.6663Z" fill="#2E3134"/>
</svg>
