<svg viewBox="0 0 15 24" fill="none" xmlns="http://www.w3.org/2000/svg">
<path fill-rule="evenodd" clip-rule="evenodd" d="M14.8845 21.4531C14.8845 22.3499 14.1986 23.0769 13.3526 23.0769L1.6468 23.0756C0.800895 23.0755 0.115234 22.3485 0.115234 21.4518L0.115234 2.54685C0.115234 1.65005 0.801071 0.923058 1.64709 0.923058H13.3526C14.1986 0.923058 14.8845 1.65006 14.8845 2.54686L14.8845 21.4531ZM8.73062 20.6118L12.4229 20.6119V18.1538V15.6924L12.4229 13.2307V10.7692V8.30767V5.84613V3.38809H8.73062L6.26908 3.3846H2.57677V5.84613L2.57677 8.30767V10.7692L2.57677 13.2308V15.6923L2.57677 18.1538V20.6108L6.33711 20.6115L8.73062 20.6118Z" fill="currentColor"/>
</svg>
