<?xml version="1.0" encoding="utf-8"?>
<!-- Generator: Adobe Illustrator 25.2.1, SVG Export Plug-In . SVG Version: 6.00 Build 0)  -->
<svg version="1.1" id="Layer_1" xmlns="http://www.w3.org/2000/svg" xmlns:xlink="http://www.w3.org/1999/xlink" x="0px" y="0px"
	 viewBox="0 0 48 48" style="enable-background:new 0 0 48 48;" xml:space="preserve">
<style type="text/css">
	.st0{fill:#2E3134;}
	.st1{fill:#2D3134;}
</style>
<g>
	<path class="st0" d="M24,43.3c-5.5,0-11,0-16.5,0c-1.8,0-2.7-1-2.7-2.8c0-11.4,0-22.8,0-34.2c0-1.8,1-2.8,2.7-2.8
		c7.6,0,15.1,0,22.7,0c1.8,0,3.3,0.7,4.6,2c2.2,2.3,4.4,4.6,6.6,6.9c1.2,1.3,1.9,2.9,1.9,4.7c0,7.8,0,15.7,0,23.5c0,1-1,2.8-2.7,2.8
		C35,43.3,29.5,43.3,24,43.3z M40.3,40.9c0-0.2,0-1,0-1.2c0-7.5,0-15.5,0-23c0-0.9-0.5-1.9-1.2-2.6c-1.8-1.8-3.5-3.6-5.3-5.5
		c-0.5-0.5-1-1-1.5-1.5c-0.5-0.5-1.2-0.7-1.9-0.9c0,0.2,0,0.8,0,0.9c0,3.3,0,6.7,0,10c0,1.8-1,2.8-2.7,2.8c-4.6,0-9.2,0-13.8,0
		c-1.7,0-2.7-1-2.7-2.8c0-3.3,0-6.7,0-10c0-0.1,0-0.7,0-0.8c-1.1,0-2.4,0-3.4,0c0,11.1,0,23.4,0,34.5c1.1,0,2.3,0,3.4,0
		c0-0.2,0-1.2,0-1.4c0-3.3,0-6.7,0-10c0-1.7,1-2.7,2.7-2.7c6.7,0,13.5,0,20.2,0c1.7,0,2.7,1,2.7,2.8c0,3.3,0,6.6,0,10
		c0,0.2,0,1.2,0,1.4C37.9,40.9,39.2,40.9,40.3,40.9z M14.4,30.1c0,3.3,0,7.5,0,10.8c6.4,0,12.8,0,19.2,0c0-3.3,0-7.5,0-10.8
		C27.2,30.1,20.8,30.1,14.4,30.1z M20.8,11.8c0,1.3,0,2.6,0,3.9c0,0.7,0.3,1.1,1,1.1c1.5,0,2.9,0,4.4,0c0.7,0,1-0.3,1-1.1
		c0-2.6,0-5.2,0-7.9c0-0.7-0.3-1-1-1c-1.5,0-2.9,0-4.4,0c-0.7,0-1,0.3-1,1.1C20.8,9.2,20.8,10.5,20.8,11.8z"/>
</g>
</svg>
