<svg id="Layer_1" data-name="Layer 1" xmlns="http://www.w3.org/2000/svg" fill="#2e3134" viewBox="0 0 48 48"><path class="cls-1" d="M13.41,25.43V8A5.21,5.21,0,0,1,14.7,4.25a5,5,0,0,1,4.83-1.64A4.78,4.78,0,0,1,23.3,5.85a6.74,6.74,0,0,1,.35,2.09c0,2.64,0,5.28,0,7.92v.53c.8,0,1.54,0,2.28,0a5,5,0,0,1,3.46,1.25,1,1,0,0,0,.69.13,7,7,0,0,1,4.95.69A6.66,6.66,0,0,1,36.4,19.7a1.16,1.16,0,0,0,.92.5,5.12,5.12,0,0,1,5.17,5.4c0,3.37,0,6.74,0,10.11a9.64,9.64,0,0,1-5,8.35,10.21,10.21,0,0,1-5.72,1.53c-2.87,0-5.74,0-8.61,0a12.68,12.68,0,0,1-10.56-5.26c-2.29-3-4.5-6-6.73-9a5,5,0,0,1-.07-6.24C7,23.24,11.08,22.49,13,24.89Zm2.64-6.87V29a5,5,0,0,1,0,.78,1.12,1.12,0,0,1-1.48,1,2.13,2.13,0,0,1-1-.68c-.79-1-1.54-2-2.26-3.08a2.15,2.15,0,0,0-2.19-.94A1.93,1.93,0,0,0,7.5,27.53a2,2,0,0,0,.44,2l6.76,9.12a9.86,9.86,0,0,0,8.44,4.24c2.88,0,5.78,0,8.66,0a7.94,7.94,0,0,0,6.71-3.37,5.52,5.52,0,0,0,1.26-3.25c.06-3.74,0-7.49,0-11.23a2.27,2.27,0,0,0-2-2.19c-.6-.06-1.2-.06-1.8-.08A1.47,1.47,0,0,1,34.69,22c-.17-.29-.34-.57-.54-.85-.82-1.14-3.1-1-4.15-.59a1.42,1.42,0,0,1-1.94-.52,2.56,2.56,0,0,0-1.2-.84,4.18,4.18,0,0,0-3.7.51,1.32,1.32,0,0,1-2.16-1c0-.19,0-.38,0-.57q0-5.3,0-10.61a2.4,2.4,0,0,0-4-1.79,2.64,2.64,0,0,0-1,2.28C16.06,11.52,16.05,15,16.05,18.56Z"/><path class="cls-1" d="M35.73,33.47c0,1.31,0,2.62,0,3.93a1.27,1.27,0,0,1-1.8,1.31,2.1,2.1,0,0,1-.75-.83,1.48,1.48,0,0,1-.1-.71c0-2.47,0-4.94,0-7.41a2.32,2.32,0,0,1,.19-1,1.3,1.3,0,0,1,2.4.32,2.9,2.9,0,0,1,.06.66Z"/><path class="cls-1" d="M22.35,33.42c0-1.28,0-2.55,0-3.82a1.37,1.37,0,0,1,.79-1.38,1.13,1.13,0,0,1,1.39.25A2,2,0,0,1,25,29.62c0,2.56,0,5.13,0,7.69a1.34,1.34,0,0,1-1.81,1.42c-.56-.19-.84-.66-.85-1.44C22.34,36,22.35,34.71,22.35,33.42Z"/><path class="cls-1" d="M30.18,33.35c0,1.29,0,2.58,0,3.87,0,1-.29,1.39-1,1.56a1.25,1.25,0,0,1-1.55-1,2.94,2.94,0,0,1,0-.51V29.65c0-.82.29-1.27.88-1.46a1.17,1.17,0,0,1,1.68,1.12c0,1.35,0,2.69,0,4Z"/></svg>