<?xml version="1.0" encoding="utf-8"?>
<!-- Generator: Adobe Illustrator 25.2.1, SVG Export Plug-In . SVG Version: 6.00 Build 0)  -->
<svg version="1.1" id="Layer_1" xmlns="http://www.w3.org/2000/svg" xmlns:xlink="http://www.w3.org/1999/xlink" x="0px" y="0px"
	 viewBox="0 0 14 14" style="enable-background:new 0 0 14 14;" xml:space="preserve">
<style type="text/css">
	.st0{fill:#2E3134;stroke:#2E3134;stroke-width:0.5;stroke-miterlimit:10;}
	.st1{fill:none;stroke:#2E3134;stroke-width:0.67;stroke-miterlimit:10;}
	.st2{fill:#2E3134;}
	.st3{fill:none;stroke:#2E3134;stroke-width:0.7;stroke-miterlimit:10;}
	.st4{fill:none;stroke:#2E3134;stroke-width:0.75;stroke-miterlimit:10;}
</style>
<path class="st2" d="M7.6,13.7c0,0-0.1,0-0.1,0c-0.4-0.1-0.7-0.4-0.7-0.8L6.1,7.9l-5-0.7C0.7,7.1,0.4,6.8,0.3,6.4s0.2-0.8,0.5-0.9
	l11.6-5.1c0.3-0.2,0.7-0.1,1,0.2c0.3,0.3,0.3,0.7,0.2,1L8.4,13.2C8.3,13.5,8,13.7,7.6,13.7z M8.2,12.7L8.2,12.7
	C8.2,12.7,8.2,12.7,8.2,12.7z M7.1,12.5C7.1,12.5,7.1,12.5,7.1,12.5L7.1,12.5z M3.4,6l3.3,0.5c0.4,0.1,0.7,0.4,0.8,0.8l0.4,3.3
	l3.7-8.1L3.4,6z M1.4,6.9L1.4,6.9C1.4,6.9,1.4,6.9,1.4,6.9z M1.3,5.7L1.3,5.7L1.3,5.7L1.3,5.7z"/>
</svg>
