<svg width="16" height="16" viewBox="0 0 16 16" fill="none" xmlns="http://www.w3.org/2000/svg">
<g clip-path="url(#clip0_134_560)">
<path d="M4.99992 5.33333C5.18401 5.33333 5.33325 5.18409 5.33325 5C5.33325 4.8159 5.18401 4.66666 4.99992 4.66666C4.81582 4.66666 4.66659 4.8159 4.66659 5C4.66659 5.18409 4.81582 5.33333 4.99992 5.33333Z" fill="#2E3134"/>
<path d="M8.39059 1.72399C8.1406 1.47393 7.80151 1.3334 7.44792 1.33333H2.66659C2.31296 1.33333 1.97382 1.4738 1.72378 1.72385C1.47373 1.9739 1.33325 2.31304 1.33325 2.66666V7.448C1.33333 7.80159 1.47385 8.14067 1.72392 8.39066L7.52659 14.1933C7.82959 14.4944 8.23942 14.6634 8.66659 14.6634C9.09375 14.6634 9.50358 14.4944 9.80659 14.1933L14.1933 9.80666C14.4943 9.50365 14.6633 9.09383 14.6633 8.66666C14.6633 8.23949 14.4943 7.82967 14.1933 7.52666L8.39059 1.72399Z" stroke="#2E3134" stroke-width="1.34" stroke-linecap="round" stroke-linejoin="round"/>
<path d="M4.99992 5.33333C5.18401 5.33333 5.33325 5.18409 5.33325 5C5.33325 4.8159 5.18401 4.66666 4.99992 4.66666C4.81582 4.66666 4.66659 4.8159 4.66659 5C4.66659 5.18409 4.81582 5.33333 4.99992 5.33333Z" stroke="#2E3134" stroke-width="1.34" stroke-linecap="round" stroke-linejoin="round"/>
</g>
<defs>
<clipPath id="clip0_134_560">
<rect width="16" height="16" fill="white"/>
</clipPath>
</defs>
</svg>
