<svg width="22" height="22" viewBox="0 0 22 22" fill="none" xmlns="http://www.w3.org/2000/svg">
<path d="M21.0001 5.37867C21.0001 4.56214 20.3246 3.89844 19.4934 3.89844H12.9179C12.0857 3.89844 11.4102 4.56214 11.4102 5.37867C11.4102 6.1963 12.0857 6.86 12.9179 6.86H19.4934C20.3246 6.86 21.0001 6.1963 21.0001 5.37867Z" fill="#2E3134"/>
<path d="M7.87774 5.37856C7.87774 7.24523 6.33886 8.75821 4.43887 8.75821C2.53999 8.75821 1 7.24523 1 5.37856C1 3.51298 2.53999 2 4.43887 2C6.33886 2 7.87774 3.51298 7.87774 5.37856Z" fill="#2E3134"/>
<path d="M21.0001 16.3787C21.0001 15.5621 20.3246 14.8984 19.4934 14.8984H12.9179C12.0857 14.8984 11.4102 15.5621 11.4102 16.3787C11.4102 17.1963 12.0857 17.86 12.9179 17.86H19.4934C20.3246 17.86 21.0001 17.1963 21.0001 16.3787Z" fill="#2E3134"/>
<path d="M7.87774 16.3786C7.87774 18.2452 6.33886 19.7582 4.43887 19.7582C2.53999 19.7582 1 18.2452 1 16.3786C1 14.513 2.53999 13 4.43887 13C6.33886 13 7.87774 14.513 7.87774 16.3786Z" fill="#2E3134"/>
</svg>
