<svg width="24" height="25" viewBox="0 0 24 25" fill="none" xmlns="http://www.w3.org/2000/svg">
<path d="M9.7679 1.08647C9.96692 0.80168 10.3886 0.80168 10.5876 1.08647L11.8769 2.93136C12.1568 3.33201 11.7336 3.91612 11.2496 3.84786C10.8992 3.79845 10.5411 3.77273 10.1777 3.77273C9.81442 3.77273 9.45624 3.79845 9.10592 3.84786C8.62193 3.91612 8.19864 3.33201 8.47863 2.93137L9.7679 1.08647ZM1.03389 6.60424C0.886687 6.28905 1.09835 5.92359 1.445 5.89443L3.71473 5.70347C4.19936 5.66269 4.48728 6.3096 4.18433 6.69006C3.95989 6.97192 3.7526 7.27245 3.56683 7.59091C3.37535 7.91295 3.21685 8.23846 3.0858 8.56814C2.90536 9.02204 2.19873 9.09844 1.99204 8.65587L1.03389 6.60424ZM1.46245 16.9271C1.11708 16.8962 0.907216 16.5318 1.05389 16.2176L2.00814 14.1735C2.2143 13.7319 2.92357 13.805 3.10477 14.2574C3.23714 14.5879 3.39433 14.9128 3.57774 15.2273C3.76428 15.5559 3.97251 15.8629 4.19729 16.1489C4.49732 16.5306 4.20731 17.1724 3.72369 17.1292L1.46245 16.9271ZM18.9017 5.89275C19.2477 5.92276 19.4585 6.28775 19.3115 6.60245L18.3525 8.65587C18.1458 9.09844 17.433 9.02373 17.252 8.57005C17.1194 8.23758 16.9617 7.91072 16.7777 7.59091C16.5931 7.27439 16.389 6.97381 16.1682 6.69132C15.8684 6.30759 16.1622 5.6551 16.6474 5.69719L18.9017 5.89275ZM23.2572 14.0907C23.2698 13.8149 23.0448 13.5909 22.7687 13.5909H21.5868C21.3107 13.5909 21.0883 13.8149 21.0727 14.0906C20.9553 16.1576 20.1091 18.1905 18.5341 19.7655C16.9491 21.3505 14.9249 22.1881 12.8593 22.3042C12.5836 22.3197 12.3596 22.542 12.3596 22.8182V24C12.3596 24.2761 12.5835 24.5012 12.8594 24.4884C15.4832 24.3662 18.072 23.2834 20.0723 21.3036C22.0727 19.3238 23.1373 16.7169 23.2572 14.0907ZM18.886 14.0904C18.907 13.8151 18.6812 13.5909 18.405 13.5909H17.2232C16.9471 13.5909 16.726 13.8155 16.6938 14.0898C16.5844 15.0225 16.1687 15.9563 15.4468 16.6782C14.725 17.4001 13.7911 17.8157 12.8584 17.9252C12.5841 17.9574 12.3596 18.1784 12.3596 18.4545V19.6364C12.3596 19.9125 12.5837 20.1383 12.8591 20.1174C14.3689 20.0025 15.8462 19.3661 16.9959 18.2164C18.1359 17.0764 18.7712 15.6001 18.886 14.0904ZM10.1777 8.13636C11.9777 8.13636 13.4505 9.60909 13.4505 11.4091C13.4505 13.2091 11.9777 14.6818 10.1777 14.6818C8.37774 14.6818 6.90501 13.2091 6.90501 11.4091C6.90501 9.60909 8.37774 8.13636 10.1777 8.13636ZM10.1777 5.95455C7.16683 5.95455 4.7232 8.39818 4.7232 11.4091C4.7232 14.42 7.16683 16.8636 10.1777 16.8636C13.1887 16.8636 15.6323 14.42 15.6323 11.4091C15.6323 8.39818 13.1887 5.95455 10.1777 5.95455Z" fill="currentColor"/>
</svg>
