<svg id="adminIcon" xmlns="http://www.w3.org/2000/svg" viewBox="0 0 20 22">
  <path fill="#34383c" d="M9.95,20.04h.04s.04,0,.06,0c.02,0,.05-.02,.08-.03l.05-.02h.02l.04-.02s.04-.01,.06-.02h.03s.03-.02,.05-.03h.03l.03-.02s.03-.01,.05-.02l.04-.02s.06-.03,.1-.04l.07-.03s.07-.03,.11-.05l.04-.02h.01c.07-.04,.14-.08,.22-.11,.09-.05,.19-.1,.29-.16,.02-.01,.04-.02,.06-.03l.07-.04,.05-.03,.03-.02h.02s.07-.05,.11-.08h.02s.04-.04,.06-.05c.19-.11,.37-.23,.54-.35l.03-.02c.06-.04,.11-.08,.17-.12l.03-.02h0c.27-.2,.54-.41,.8-.63h.02l.02-.03c.06-.05,.11-.1,.17-.15h.02l.02-.03s.04-.03,.06-.05c.04-.04,.09-.08,.13-.13h.01l.04-.05,.02-.02s.08-.07,.11-.11l.03-.03c.05-.05,.1-.1,.15-.15,.01-.02,.03-.03,.04-.04,.22-.24,.44-.48,.64-.73l.02-.02c1.67-2.11,2.52-4.74,2.52-7.8V3.36l-7.36-1.45L2.64,3.35v5.34c0,3.06,.85,5.68,2.52,7.8l.02,.02c.2,.25,.41,.49,.63,.72h0l.04,.05c.05,.05,.1,.11,.16,.16l.03,.03s.08,.08,.11,.11l.08,.08s.08,.08,.13,.12l.02,.02s.02,.02,.04,.03c.01,0,.02,.02,.03,.03,.06,.05,.11,.1,.17,.15l.03,.02h0c.26,.23,.53,.44,.81,.64h0l.02,.02c.06,.04,.11,.08,.17,.12h.02c.19,.14,.37,.26,.56,.37h.02l.05,.04s.07,.04,.11,.06l.04,.02s.07,.04,.11,.06l.06,.03c.1,.05,.2,.11,.3,.16,.07,.04,.14,.07,.21,.11l.04,.02h.01c.07,.04,.13,.07,.19,.1h.03s.04,.03,.07,.05h0l.14,.06s.05,.02,.07,.03c.03,.01,.05,.02,.08,.03h.04s.03,.03,.05,.03c.03,.01,.06,.02,.08,.03Z"/>
  <path fill="#fff" d="M14.6,16.61v-1.12c0-.88-.26-1.76-.73-2.49-.06-.09-.13-.19-.21-.3-.11-.15-.23-.29-.41-.47-.16-.16-.32-.3-.49-.42-.47-.36-1.01-.61-1.58-.76,1.15-.48,1.96-1.61,1.96-2.93,0-1.75-1.42-3.17-3.17-3.17s-3.17,1.42-3.17,3.17c0,1.33,.82,2.47,1.99,2.94-.56,.15-1.08,.4-1.55,.75-.32,.24-.62,.53-.87,.86-.07,.09-.15,.19-.23,.32h0c-.47,.74-.73,1.62-.73,2.49v1.27h0l.05,.9s4.62,3.16,4.66,3.14c.03-.02,4.59-3.45,4.59-3.45l-.09-.75Z"/>
  <path d="M17.85,2.54l-7.76-1.53c-.06-.01-.13-.01-.19,0L2.15,2.53c-.23,.05-.4,.25-.4,.49v5.67c0,3.26,.91,6.07,2.71,8.35l.02,.03c.22,.28,.46,.55,.71,.81,.01,.02,.03,.03,.05,.05,.05,.05,.1,.1,.15,.15l.04,.04s.09,.08,.13,.13l.05,.05,.02,.02h0c.05,.05,.09,.1,.14,.14,.01,.01,.03,.02,.04,.04h0s.03,.03,.04,.04h0c.06,.06,.13,.12,.19,.18h0s.02,.02,.03,.03c.28,.24,.57,.47,.86,.68,.01,0,.02,.02,.03,.02h0c.06,.05,.13,.09,.19,.14l.03,.02c.2,.14,.41,.27,.61,.39h.01l.03,.02,.03,.02s.07,.04,.11,.06h.02l.02,.02s.09,.05,.13,.07h.02l.03,.03h.01c.1,.06,.21,.12,.33,.18,.08,.04,.16,.08,.24,.12h.01s.03,.02,.04,.03c.06,.03,.12,.06,.18,.09l.06,.03c.05,.04,.12,.06,.18,.08h0l.06,.02,.04,.02s.08,.04,.12,.05h0l.03,.02,.05,.02s.04,.01,.05,.02h.03s.03,.02,.06,.03c.02,0,.03,.01,.05,.01l.04,.02,.21,.06,.12-.04h.01l.06-.02,.09-.03h0l.02-.02h.01l.03-.02h.02s.03-.02,.05-.03l.05-.02,.04-.02h.03s.05-.03,.08-.04c.02,0,.05-.02,.09-.04h.01c.06-.02,.12-.05,.18-.08l.06-.02s.05-.03,.08-.04c.04-.02,.08-.04,.13-.06l.04-.02c.08-.04,.16-.08,.24-.12,.1-.05,.21-.11,.32-.17l.05-.03s.05-.03,.08-.04l.06-.03,.04-.02s.08-.05,.13-.07l.06-.04c.21-.12,.41-.25,.6-.39l.03-.02c.06-.04,.12-.08,.18-.13l.04-.02c.3-.21,.59-.44,.87-.68h.01l.02-.03c.06-.05,.12-.11,.19-.17h.01l.03-.04s.02-.02,.03-.03l.02-.02s.09-.09,.14-.13l.04-.03,.02-.02,.03-.03s.08-.08,.13-.12l.03-.03s.09-.1,.14-.14l.05-.05c.25-.26,.49-.54,.72-.82l.02-.02c1.8-2.28,2.71-5.08,2.71-8.34V3.03c0-.24-.17-.44-.4-.49Zm-7.78-.65h0Zm4.31,16.43h0Zm2.97-9.61c0,3.06-.85,5.68-2.52,7.8l-.02,.02c-.2,.25-.41,.49-.64,.73-.02,.01-.03,.03-.04,.04-.05,.05-.1,.1-.15,.15l-.03,.03s-.08,.08-.11,.11l-.02,.02-.04,.04h-.01c-.04,.06-.09,.1-.13,.14-.02,.02-.04,.03-.06,.05h-.02l-.02,.03c-.06,.05-.11,.1-.17,.15l-.02,.02h-.02c-.26,.24-.53,.45-.8,.65h0l-.03,.02c-.06,.04-.11,.08-.17,.12l-.03,.02c-.17,.12-.36,.24-.54,.35-.03,.01-.05,.03-.06,.04h-.02s-.07,.06-.11,.08h-.02l-.03,.03-.05,.03-.07,.04s-.04,.02-.06,.03c-.1,.06-.2,.11-.29,.16-.08,.04-.15,.08-.22,.11h-.01l-.04,.02s-.08,.04-.11,.05l-.07,.03s-.08,.03-.1,.04l-.04,.02s-.03,.01-.05,.02h-.03l-.03,.02s-.03,.01-.05,.02h-.03s-.04,.03-.06,.04l-.04,.02h-.02l-.05,.03s-.05,.02-.08,.03c-.01,0-.03,.01-.06,.02h-.04s-.05-.03-.08-.05c-.02,0-.03-.01-.05-.02h-.04s-.05-.03-.08-.05c-.02-.01-.05-.02-.07-.03l-.14-.06h0s-.05-.03-.07-.03h-.03c-.06-.04-.12-.07-.19-.1h-.01l-.04-.03c-.07-.03-.14-.07-.21-.11-.11-.06-.21-.11-.3-.16l-.06-.03s-.07-.04-.11-.06l-.04-.02s-.07-.04-.11-.06l-.05-.03h-.02c-.19-.12-.37-.25-.56-.37h-.02c-.06-.05-.11-.09-.17-.13l-.02-.02h0c-.28-.21-.55-.42-.81-.65h0l-.03-.03c-.06-.05-.11-.1-.17-.15-.01,0-.02-.02-.03-.03-.01-.01-.02-.02-.04-.03l-.02-.02s-.09-.08-.13-.12l-.08-.08s-.08-.07-.11-.11l-.03-.03c-.05-.05-.1-.11-.16-.16l-.04-.04h0c-.22-.23-.43-.48-.63-.73v-.02c-1.69-2.11-2.54-4.74-2.54-7.8V3.35l7.36-1.45,7.36,1.45v5.34Z"/>
</svg>