<?xml version="1.0" encoding="utf-8"?>
<!-- Generator: Adobe Illustrator 28.0.0, SVG Export Plug-In . SVG Version: 6.00 Build 0)  -->
<svg version="1.1" id="Layer_1" xmlns="http://www.w3.org/2000/svg" xmlns:xlink="http://www.w3.org/1999/xlink" x="0px" y="0px"
	 viewBox="0 0 20 22" style="enable-background:new 0 0 20 22;" xml:space="preserve">
<style type="text/css">
	.st0{fill:#F7F7F7;}
	.st1{fill:#34383C;}
	.st2{fill:#FFFFFF;}
	.st3{fill-rule:evenodd;clip-rule:evenodd;fill:#34383C;}
	.st4{fill-rule:evenodd;clip-rule:evenodd;fill:#FFFFFF;}
	.st5{fill:#2E3134;}
	.st6{fill-rule:evenodd;clip-rule:evenodd;fill:#0A23F3;}
	.st7{fill:#2E3134;stroke:#2E3134;stroke-width:0.75;stroke-miterlimit:10;}
	.st8{fill:#0A23F3;}
	.st9{fill:#34383B;}
	.st10{fill:#0024FC;}
	.st11{fill:#0024FA;}
	.st12{fill:none;stroke:#0024FC;stroke-width:2;stroke-linecap:round;stroke-linejoin:round;stroke-miterlimit:10;}
	.st13{fill:#0025FC;}
	.st14{fill:#292B2E;stroke:#2E3134;stroke-miterlimit:10;}
	.st15{fill:#292B2E;stroke:#FFFFFF;stroke-width:0.2114;stroke-miterlimit:10;}
</style>
<path class="st1" d="M10,1.91L2.64,3.35v5.34c0,3.06,0.85,5.68,2.52,7.8l0.02,0.02c0.07,0.09,0.15,0.17,0.22,0.25v0c0,0,0,0,0,0
	v-1.27c0-0.87,0.26-1.75,0.73-2.49l0-0.01c0.09-0.13,0.16-0.23,0.23-0.32c0.25-0.33,0.55-0.62,0.87-0.86
	c0.47-0.35,0.99-0.6,1.55-0.75C7.62,10.59,6.8,9.45,6.8,8.12c0-1.75,1.42-3.17,3.17-3.17c1.75,0,3.17,1.42,3.17,3.17
	c0,1.32-0.81,2.45-1.96,2.93c0.57,0.15,1.1,0.4,1.58,0.76c0.17,0.12,0.33,0.26,0.49,0.42c0.18,0.18,0.31,0.33,0.41,0.47
	c0.08,0.1,0.15,0.2,0.21,0.3c0.47,0.72,0.73,1.61,0.73,2.49v1.12l0.02,0.14c0.06-0.08,0.13-0.15,0.19-0.22l0.02-0.02
	c1.67-2.11,2.52-4.74,2.52-7.8V3.36L10,1.91z"/>
<path class="st1" d="M17.85,2.54L10.1,1.01C10.03,1,9.97,1,9.9,1.01L2.15,2.53c-0.23,0.05-0.4,0.25-0.4,0.49v5.67
	c0,3.26,0.91,6.07,2.71,8.35c0.01,0.01,0.01,0.02,0.02,0.03c0.22,0.28,0.46,0.55,0.71,0.81c0.01,0.02,0.03,0.03,0.05,0.05
	c0.05,0.05,0.1,0.1,0.15,0.15l0.04,0.04c0.04,0.04,0.09,0.08,0.13,0.13l0.05,0.05c0.01,0.01,0.01,0.01,0.02,0.02l0.01,0.01
	c0.05,0.04,0.09,0.09,0.14,0.13c0.01,0.01,0.03,0.02,0.04,0.04l0.01,0.01c0.01,0.01,0.03,0.02,0.04,0.04l0,0
	c0.06,0.06,0.13,0.12,0.19,0.17l0,0c0.01,0.01,0.02,0.02,0.03,0.03c0.28,0.24,0.57,0.47,0.86,0.68c0.01,0.01,0.02,0.02,0.03,0.02
	l0,0c0.06,0.05,0.13,0.09,0.19,0.13c0.01,0.01,0.02,0.01,0.03,0.02c0.2,0.14,0.41,0.27,0.61,0.39l0.01,0.01
	c0.01,0,0.02,0.01,0.03,0.02l0.03,0.02c0.04,0.02,0.07,0.04,0.11,0.06c0.01,0,0.01,0.01,0.02,0.01l0.02,0.01
	c0.04,0.03,0.09,0.05,0.13,0.07l0.02,0.01c0.01,0.01,0.02,0.01,0.03,0.02l0.01,0.01c0.1,0.06,0.21,0.12,0.33,0.18
	c0.08,0.04,0.16,0.08,0.24,0.12l0.01,0.01c0,0,0,0,0,0c0.01,0.01,0.03,0.02,0.04,0.02c0.06,0.03,0.12,0.06,0.18,0.09l0.06,0.03
	c0.05,0.04,0.12,0.06,0.18,0.08l0,0l0.06,0.02c0.01,0.01,0.03,0.01,0.04,0.02c0.04,0.02,0.08,0.04,0.12,0.05l0.01,0
	c0.01,0,0.02,0.01,0.03,0.01l0.05,0.02c0.02,0.01,0.04,0.01,0.05,0.02l0.03,0.01c0.02,0.01,0.03,0.01,0.06,0.02
	c0.02,0.01,0.03,0.01,0.05,0.01c0.03,0.01,0.04,0.02,0.04,0.02L10,21l0.12-0.04h0.01l0.06-0.02l0.09-0.03l0.01-0.01
	c0.01,0,0.01-0.01,0.02-0.01l0.01-0.01c0.01,0,0.02-0.01,0.03-0.01l0.02-0.01c0.02-0.01,0.03-0.01,0.05-0.02l0.05-0.02
	c0.01,0,0.03-0.01,0.04-0.02l0.03-0.01c0.02-0.01,0.05-0.02,0.08-0.03c0.02-0.01,0.05-0.02,0.09-0.04c0,0,0.01,0,0.01,0
	c0.06-0.02,0.12-0.04,0.18-0.08l0.06-0.02c0.03-0.01,0.05-0.03,0.08-0.04c0.04-0.02,0.08-0.04,0.13-0.06l0.04-0.02
	c0.08-0.04,0.16-0.08,0.24-0.12c0.1-0.05,0.21-0.11,0.32-0.17l0.05-0.03c0.03-0.02,0.05-0.03,0.08-0.04
	c0.02-0.01,0.04-0.02,0.06-0.03l0.04-0.02c0.04-0.02,0.08-0.05,0.13-0.07l0.06-0.04c0.21-0.12,0.41-0.25,0.6-0.39
	c0.01-0.01,0.02-0.01,0.03-0.02c0.06-0.04,0.12-0.08,0.18-0.13l0.04-0.02c0.3-0.21,0.59-0.44,0.87-0.68c0,0,0.01-0.01,0.01-0.01
	l0.02-0.02c0.06-0.05,0.12-0.11,0.19-0.17c0,0,0.01-0.01,0.01-0.01l0.03-0.02c0.01-0.01,0.02-0.02,0.03-0.03l0.02-0.02
	c0.05-0.04,0.09-0.09,0.14-0.13l0.04-0.03c0.01-0.01,0.02-0.02,0.02-0.02c0.01-0.01,0.02-0.02,0.03-0.03
	c0.04-0.04,0.08-0.08,0.13-0.12l0.03-0.03c0.05-0.05,0.09-0.1,0.14-0.14l0.05-0.05c0.25-0.26,0.49-0.54,0.72-0.82
	c0.01-0.01,0.01-0.02,0.02-0.02c1.8-2.28,2.71-5.08,2.71-8.34V3.03C18.25,2.79,18.09,2.59,17.85,2.54z M10.08,1.89L10.08,1.89
	C10.08,1.89,10.08,1.89,10.08,1.89L10.08,1.89z M14.39,18.32C14.39,18.32,14.39,18.32,14.39,18.32L14.39,18.32
	C14.39,18.32,14.39,18.32,14.39,18.32z M17.36,8.7c0,3.06-0.85,5.68-2.52,7.8l-0.02,0.02c-0.2,0.25-0.41,0.49-0.64,0.73
	c-0.02,0.01-0.03,0.03-0.04,0.04c-0.05,0.05-0.1,0.1-0.15,0.15l-0.03,0.03c-0.04,0.04-0.08,0.08-0.11,0.11l-0.02,0.02
	c-0.01,0.01-0.03,0.02-0.04,0.04l-0.01,0.01c-0.04,0.04-0.09,0.08-0.13,0.13c-0.02,0.02-0.04,0.03-0.06,0.05
	c-0.01,0-0.01,0.01-0.02,0.01l-0.02,0.01c-0.06,0.05-0.11,0.1-0.17,0.15c-0.01,0.01-0.01,0.01-0.02,0.02l-0.02,0.01
	c-0.26,0.22-0.53,0.43-0.8,0.63c0,0,0,0,0,0l-0.03,0.02c-0.06,0.04-0.11,0.08-0.17,0.12c-0.01,0.01-0.02,0.01-0.03,0.02
	c-0.17,0.12-0.36,0.24-0.54,0.35c-0.03,0.01-0.05,0.03-0.06,0.04l-0.02,0.01c-0.04,0.02-0.07,0.04-0.11,0.06l-0.02,0.01
	c-0.01,0.01-0.02,0.01-0.03,0.02l-0.05,0.03c-0.02,0.01-0.05,0.03-0.07,0.04c-0.02,0.01-0.04,0.02-0.06,0.03
	c-0.1,0.06-0.2,0.11-0.29,0.16c-0.08,0.04-0.15,0.08-0.22,0.11l-0.01,0.01c-0.01,0.01-0.03,0.01-0.04,0.02
	c-0.04,0.02-0.08,0.04-0.11,0.05c-0.02,0.01-0.05,0.02-0.07,0.03c-0.04,0.02-0.08,0.03-0.1,0.04l-0.04,0.02
	c-0.02,0.01-0.03,0.01-0.05,0.02c-0.01,0-0.02,0.01-0.03,0.01l-0.03,0.01c-0.01,0.01-0.03,0.01-0.05,0.02l-0.03,0.01
	c-0.02,0.01-0.04,0.02-0.06,0.02c-0.02,0.01-0.03,0.01-0.04,0.02l-0.02,0.01c-0.02,0.01-0.03,0.01-0.05,0.02
	c-0.03,0.01-0.05,0.02-0.08,0.03c-0.01,0-0.03,0.01-0.06,0.02l-0.02-0.01l-0.03-0.01c-0.02-0.01-0.05-0.02-0.08-0.03
	C9.86,20,9.84,20,9.82,19.99l-0.04-0.01c-0.02-0.01-0.05-0.02-0.08-0.03c-0.02-0.01-0.05-0.02-0.07-0.03L9.5,19.86l0,0
	c-0.03-0.01-0.05-0.03-0.07-0.03c-0.01-0.01-0.02-0.01-0.03-0.01c-0.06-0.03-0.12-0.06-0.19-0.09L9.2,19.72v0
	c-0.01-0.01-0.03-0.01-0.04-0.02c-0.07-0.03-0.14-0.07-0.21-0.11c-0.11-0.06-0.21-0.11-0.3-0.16l-0.06-0.03
	c-0.03-0.02-0.07-0.04-0.11-0.06l-0.04-0.02c-0.04-0.02-0.07-0.04-0.11-0.06l-0.05-0.03c-0.01,0-0.01-0.01-0.02-0.01
	c-0.19-0.11-0.37-0.23-0.56-0.36l-0.02-0.01c-0.06-0.04-0.11-0.08-0.17-0.12c-0.01-0.01-0.02-0.01-0.02-0.02l-0.01,0
	c-0.28-0.2-0.55-0.42-0.81-0.64l0,0c-0.01-0.01-0.02-0.02-0.03-0.02c-0.06-0.05-0.11-0.1-0.17-0.15c-0.01-0.01-0.02-0.02-0.03-0.03
	c-0.01-0.01-0.02-0.02-0.04-0.03l-0.02-0.02c-0.04-0.04-0.09-0.08-0.13-0.12l-0.08-0.08c-0.04-0.04-0.08-0.07-0.11-0.11l-0.03-0.03
	c-0.05-0.05-0.1-0.11-0.16-0.16l-0.04-0.04l0,0C5.59,17,5.38,16.76,5.18,16.51l-0.01-0.02c-1.67-2.11-2.52-4.74-2.52-7.8V3.35
	L10,1.91l7.36,1.45V8.7z"/>
</svg>
