<svg fill="none" xmlns="http://www.w3.org/2000/svg" viewBox="0 0 16 16">
    <g clip-path="url(#a)" stroke="currentColor" stroke-width="1.34" stroke-linecap="round" stroke-linejoin="round">
        <path
            d="m1.333 1.333 13.334 13.334M2.39 2.39c-.25.25-.39.59-.39.943v4.782c0 .353.14.692.39.942l5.803 5.803a1.617 1.617 0 0 0 2.28 0l2.027-2.027M5.667 6a.333.333 0 0 1-.334-.333m9 5.333.527-.527a1.617 1.617 0 0 0 0-2.28L9.057 2.391A1.33 1.33 0 0 0 8.115 2H5.333" />
    </g>
    <defs>
        <clipPath id="a">
            <path fill="#fff" d="M0 0h16v16H0z" />
        </clipPath>
    </defs>
</svg>