<svg aria-hidden="true" xmlns="http://www.w3.org/2000/svg" viewBox="0 0 10 10" style="enable-background:new 0 0 10 10;">
  <g fill="currentColor">
		<path d="M5.4,2.5c-0.2-0.2-0.6-0.2-0.7,0L3,4.7C2.8,4.9,2.9,5.1,3,5.2c0.1,0.1,0.3,0.1,0.5-0.1l1.2-1.6v3.8
		c0,0.2,0.1,0.3,0.3,0.3s0.3-0.1,0.3-0.3V3.5l1.2,1.6c0.1,0.1,0.2,0.1,0.3,0.1c0.1,0,0.1,0,0.2-0.1c0.1-0.1,0.2-0.3,0.1-0.5L5.4,2.5
		z"/>
		<path d="M5,0.5c-2.5,0-4.5,2-4.5,4.5s2,4.5,4.5,4.5s4.5-2,4.5-4.5S7.5,0.5,5,0.5z M5,8.9C2.9,8.9,1.1,7.1,1.1,5
		S2.9,1.1,5,1.1S8.9,2.9,8.9,5S7.1,8.9,5,8.9z"/>
  </g>
</svg>
