<svg width="15" height="13" viewBox="0 0 15 13" fill="none" xmlns="http://www.w3.org/2000/svg">
<g clip-path="url(#clip0_187_794)">
<path d="M9.34413 5.78109C9.34413 5.82631 9.34413 5.87153 9.34413 5.91675C9.34413 7.88935 9.33181 9.86196 9.3503 11.8346C9.35645 12.5298 8.86364 12.9481 8.22914 12.9763C7.71785 12.9989 7.2004 13.0046 6.6891 12.965C6.03612 12.9141 5.64803 12.4902 5.64803 11.8911C5.64803 9.90718 5.64803 7.92892 5.64803 5.94501C5.64803 5.88848 5.64803 5.83762 5.64803 5.75283C5.59259 5.79805 5.56179 5.82631 5.53099 5.85457C4.6008 6.7024 3.67678 7.55022 2.74043 8.38675C2.34618 8.74283 1.65008 8.77675 1.23119 8.44327C0.910858 8.19457 0.60901 7.92327 0.331802 7.63501C-0.136372 7.14892 -0.10557 6.51588 0.387244 6.04675C0.535089 5.90544 0.682932 5.77544 0.830776 5.63414C2.74043 3.88196 4.65008 2.13544 6.55974 0.383267C7.02175 -0.0406465 7.58849 -0.119777 8.13058 0.162832C8.24146 0.219354 8.34003 0.298484 8.43243 0.377614C10.4899 2.26544 12.5351 4.14761 14.5803 6.02979C15.0361 6.44805 15.1224 6.96805 14.8144 7.44283C14.7836 7.48805 14.7528 7.53327 14.7158 7.56718C14.414 7.84979 14.1244 8.1437 13.8041 8.40935C13.3914 8.75414 12.7261 8.75414 12.2887 8.42631C12.2148 8.36979 12.1409 8.30761 12.0731 8.24544C11.2107 7.45414 10.3544 6.66848 9.49198 5.87718C9.45502 5.84327 9.42422 5.7924 9.38726 5.75283C9.3811 5.76414 9.36261 5.77544 9.34413 5.78109Z" fill="#2E3134"/>
</g>
<defs>
<clipPath id="clip0_187_794">
<rect width="13" height="15" fill="white" transform="translate(15) rotate(90)"/>
</clipPath>
</defs>
</svg>
