<svg width="574" height="180" viewBox="0 0 574 180" fill="none" xmlns="http://www.w3.org/2000/svg">
<path fill-rule="evenodd" clip-rule="evenodd" d="M280.5 4.43596C280.442 4.43801 280.385 4.44015 280.327 4.44238C279.231 4.48485 278.144 4.55926 277.07 4.6643C262.197 6.11765 249.415 13.4454 240.342 23.2669C231.248 33.1099 226 45.3224 226 56.4004V72.4004H268.125V46.2754C268.125 40.6863 271.315 35.8457 275.965 33.4689C277.182 32.8465 278.501 32.3923 279.889 32.1373C280.091 32.1002 280.295 32.0672 280.5 32.0387V4.43596ZM284.5 4.43596V32.0387C284.705 32.0672 284.909 32.1002 285.111 32.1373C286.499 32.3923 287.818 32.8465 289.035 33.4689C293.685 35.8457 296.875 40.6863 296.875 46.2754V72.4004H339V56.4004C339 45.3224 333.752 33.1099 324.658 23.2669C315.585 13.4454 302.803 6.11765 287.93 4.6643C286.856 4.55926 285.769 4.48485 284.673 4.44238C284.615 4.44015 284.558 4.43801 284.5 4.43596ZM339 76.4004H296.875V80.0254C296.875 87.9645 290.439 94.4004 282.5 94.4004C274.561 94.4004 268.125 87.9645 268.125 80.0254V76.4004H226V119.4C226 150.604 251.296 175.9 282.5 175.9C313.704 175.9 339 150.604 339 119.4V76.4004ZM343 119.4C343 152.814 315.913 179.9 282.5 179.9C249.087 179.9 222 152.814 222 119.4V56.4004C222 44.1251 227.769 30.9811 237.404 20.5525C247.058 10.1024 260.714 2.24351 276.68 0.68326C277.833 0.570636 278.997 0.490885 280.173 0.445373C280.944 0.415512 281.72 0.400391 282.5 0.400391C283.28 0.400391 284.056 0.415512 284.827 0.445373C286.003 0.490885 287.167 0.570636 288.32 0.68326C304.286 2.24351 317.942 10.1024 327.596 20.5525C337.231 30.9811 343 44.1251 343 56.4004V119.4ZM292.875 46.2754C292.875 42.2465 290.579 38.7503 287.215 37.0305C286.337 36.5821 285.388 36.2551 284.389 36.0715C283.778 35.9593 283.147 35.9004 282.5 35.9004C281.853 35.9004 281.222 35.9593 280.611 36.0715C279.612 36.2551 278.663 36.5821 277.785 37.0305C274.421 38.7503 272.125 42.2465 272.125 46.2754V80.0254C272.125 85.7553 276.77 90.4004 282.5 90.4004C288.23 90.4004 292.875 85.7553 292.875 80.0254V46.2754Z" fill="#6A6F83"/>
<path d="M65 30.4004H207.654M207.654 30.4004L250.5 47.2615C250.733 47.3533 250.981 47.4004 251.232 47.4004H283M207.654 30.4004H254.5" stroke="#0024FC" stroke-width="2"/>
<path d="M499 30.4004H311" stroke="#0024FC" stroke-width="2"/>
<path d="M283 79.4004V109.506C283 110.344 282.478 111.093 281.691 111.382L208.679 138.277C208.457 138.359 208.223 138.4 207.987 138.4L66 138.4" stroke="#0024FC" stroke-width="2"/>
<path d="M514.459 35.4004L511.612 30.2329H510.812V35.4004H507.478V21.7114H513.074C514.153 21.7114 515.07 21.8999 515.824 22.2769C516.591 22.6539 517.163 23.1739 517.54 23.8369C517.917 24.4869 518.105 25.2149 518.105 26.0209C518.105 26.9309 517.845 27.7434 517.325 28.4584C516.818 29.1734 516.064 29.6804 515.063 29.9794L518.222 35.4004H514.459ZM510.812 27.8734H512.879C513.49 27.8734 513.945 27.7239 514.244 27.4249C514.556 27.1259 514.712 26.7034 514.712 26.1574C514.712 25.6374 514.556 25.2279 514.244 24.9289C513.945 24.6299 513.49 24.4804 512.879 24.4804H510.812V27.8734ZM525.451 35.5564C524.385 35.5564 523.423 35.3289 522.565 34.8739C521.72 34.4189 521.051 33.7689 520.557 32.9239C520.076 32.0789 519.835 31.0909 519.835 29.9599C519.835 28.8419 520.082 27.8604 520.576 27.0154C521.07 26.1574 521.746 25.5009 522.604 25.0459C523.462 24.5909 524.424 24.3634 525.49 24.3634C526.556 24.3634 527.518 24.5909 528.376 25.0459C529.234 25.5009 529.91 26.1574 530.404 27.0154C530.898 27.8604 531.145 28.8419 531.145 29.9599C531.145 31.0779 530.892 32.0659 530.385 32.9239C529.891 33.7689 529.208 34.4189 528.337 34.8739C527.479 35.3289 526.517 35.5564 525.451 35.5564ZM525.451 32.6704C526.088 32.6704 526.628 32.4364 527.07 31.9684C527.525 31.5004 527.752 30.8309 527.752 29.9599C527.752 29.0889 527.531 28.4194 527.089 27.9514C526.66 27.4834 526.127 27.2494 525.49 27.2494C524.84 27.2494 524.301 27.4834 523.872 27.9514C523.443 28.4064 523.228 29.0759 523.228 29.9599C523.228 30.8309 523.436 31.5004 523.852 31.9684C524.281 32.4364 524.814 32.6704 525.451 32.6704ZM539.279 32.5729V35.4004H537.582C536.373 35.4004 535.431 35.1079 534.755 34.5229C534.079 33.9249 533.741 32.9564 533.741 31.6174V27.2884H532.415V24.5194H533.741V21.8674H537.075V24.5194H539.259V27.2884H537.075V31.6564C537.075 31.9814 537.153 32.2154 537.309 32.3584C537.465 32.5014 537.725 32.5729 538.089 32.5729H539.279ZM540.773 29.9404C540.773 28.8224 540.981 27.8409 541.397 26.9959C541.826 26.1509 542.405 25.5009 543.133 25.0459C543.861 24.5909 544.673 24.3634 545.57 24.3634C546.337 24.3634 547.007 24.5194 547.579 24.8314C548.164 25.1434 548.612 25.5529 548.924 26.0599V24.5194H552.259V35.4004H548.924V33.8599C548.599 34.3669 548.144 34.7764 547.559 35.0884C546.987 35.4004 546.318 35.5564 545.551 35.5564C544.667 35.5564 543.861 35.3289 543.133 34.8739C542.405 34.4059 541.826 33.7494 541.397 32.9044C540.981 32.0464 540.773 31.0584 540.773 29.9404ZM548.924 29.9599C548.924 29.1279 548.69 28.4714 548.222 27.9904C547.767 27.5094 547.208 27.2689 546.545 27.2689C545.882 27.2689 545.317 27.5094 544.849 27.9904C544.394 28.4584 544.166 29.1084 544.166 29.9404C544.166 30.7724 544.394 31.4354 544.849 31.9294C545.317 32.4104 545.882 32.6509 546.545 32.6509C547.208 32.6509 547.767 32.4104 548.222 31.9294C548.69 31.4484 548.924 30.7919 548.924 29.9599ZM561.036 32.5729V35.4004H559.339C558.13 35.4004 557.188 35.1079 556.512 34.5229C555.836 33.9249 555.498 32.9564 555.498 31.6174V27.2884H554.172V24.5194H555.498V21.8674H558.832V24.5194H561.016V27.2884H558.832V31.6564C558.832 31.9814 558.91 32.2154 559.066 32.3584C559.222 32.5014 559.482 32.5729 559.846 32.5729H561.036ZM573.45 29.7844C573.45 30.0964 573.43 30.4214 573.391 30.7594H565.845C565.897 31.4354 566.111 31.9554 566.488 32.3194C566.878 32.6704 567.353 32.8459 567.912 32.8459C568.744 32.8459 569.322 32.4949 569.647 31.7929H573.196C573.014 32.5079 572.683 33.1514 572.202 33.7234C571.734 34.2954 571.142 34.7439 570.427 35.0689C569.712 35.3939 568.913 35.5564 568.029 35.5564C566.963 35.5564 566.014 35.3289 565.182 34.8739C564.35 34.4189 563.7 33.7689 563.232 32.9239C562.764 32.0789 562.53 31.0909 562.53 29.9599C562.53 28.8289 562.757 27.8409 563.212 26.9959C563.68 26.1509 564.33 25.5009 565.162 25.0459C565.994 24.5909 566.95 24.3634 568.029 24.3634C569.082 24.3634 570.018 24.5844 570.837 25.0264C571.656 25.4684 572.293 26.0989 572.748 26.9179C573.216 27.7369 573.45 28.6924 573.45 29.7844ZM570.037 28.9069C570.037 28.3349 569.842 27.8799 569.452 27.5419C569.062 27.2039 568.575 27.0349 567.99 27.0349C567.431 27.0349 566.956 27.1974 566.566 27.5224C566.189 27.8474 565.955 28.3089 565.864 28.9069H570.037ZM477.004 50.4004L475.344 47.5504H474.244V50.4004H473.334V43.4304H475.584C476.111 43.4304 476.554 43.5204 476.914 43.7004C477.281 43.8804 477.554 44.1237 477.734 44.4304C477.914 44.7371 478.004 45.0871 478.004 45.4804C478.004 45.9604 477.864 46.3837 477.584 46.7504C477.311 47.1171 476.898 47.3604 476.344 47.4804L478.094 50.4004H477.004ZM474.244 46.8204H475.584C476.078 46.8204 476.448 46.7004 476.694 46.4604C476.941 46.2137 477.064 45.8871 477.064 45.4804C477.064 45.0671 476.941 44.7471 476.694 44.5204C476.454 44.2937 476.084 44.1804 475.584 44.1804H474.244V46.8204ZM479.888 44.0304C479.715 44.0304 479.568 43.9704 479.448 43.8504C479.328 43.7304 479.268 43.5837 479.268 43.4104C479.268 43.2371 479.328 43.0904 479.448 42.9704C479.568 42.8504 479.715 42.7904 479.888 42.7904C480.055 42.7904 480.195 42.8504 480.308 42.9704C480.428 43.0904 480.488 43.2371 480.488 43.4104C480.488 43.5837 480.428 43.7304 480.308 43.8504C480.195 43.9704 480.055 44.0304 479.888 44.0304ZM480.328 44.9204V50.4004H479.418V44.9204H480.328ZM484.139 44.8304C484.613 44.8304 485.026 44.9337 485.379 45.1404C485.739 45.3471 486.006 45.6071 486.179 45.9204V44.9204H487.099V50.5204C487.099 51.0204 486.993 51.4637 486.779 51.8504C486.566 52.2437 486.259 52.5504 485.859 52.7704C485.466 52.9904 485.006 53.1004 484.479 53.1004C483.759 53.1004 483.159 52.9304 482.679 52.5904C482.199 52.2504 481.916 51.7871 481.829 51.2004H482.729C482.829 51.5337 483.036 51.8004 483.349 52.0004C483.663 52.2071 484.039 52.3104 484.479 52.3104C484.979 52.3104 485.386 52.1537 485.699 51.8404C486.019 51.5271 486.179 51.0871 486.179 50.5204V49.3704C485.999 49.6904 485.733 49.9571 485.379 50.1704C485.026 50.3837 484.613 50.4904 484.139 50.4904C483.653 50.4904 483.209 50.3704 482.809 50.1304C482.416 49.8904 482.106 49.5537 481.879 49.1204C481.653 48.6871 481.539 48.1937 481.539 47.6404C481.539 47.0804 481.653 46.5904 481.879 46.1704C482.106 45.7437 482.416 45.4137 482.809 45.1804C483.209 44.9471 483.653 44.8304 484.139 44.8304ZM486.179 47.6504C486.179 47.2371 486.096 46.8771 485.929 46.5704C485.763 46.2637 485.536 46.0304 485.249 45.8704C484.969 45.7037 484.659 45.6204 484.319 45.6204C483.979 45.6204 483.669 45.7004 483.389 45.8604C483.109 46.0204 482.886 46.2537 482.719 46.5604C482.553 46.8671 482.469 47.2271 482.469 47.6404C482.469 48.0604 482.553 48.4271 482.719 48.7404C482.886 49.0471 483.109 49.2837 483.389 49.4504C483.669 49.6104 483.979 49.6904 484.319 49.6904C484.659 49.6904 484.969 49.6104 485.249 49.4504C485.536 49.2837 485.763 49.0471 485.929 48.7404C486.096 48.4271 486.179 48.0637 486.179 47.6504ZM491.357 44.8204C491.771 44.8204 492.144 44.9104 492.477 45.0904C492.811 45.2637 493.071 45.5271 493.257 45.8804C493.451 46.2337 493.547 46.6637 493.547 47.1704V50.4004H492.647V47.3004C492.647 46.7537 492.511 46.3371 492.237 46.0504C491.964 45.7571 491.591 45.6104 491.117 45.6104C490.637 45.6104 490.254 45.7604 489.967 46.0604C489.687 46.3604 489.547 46.7971 489.547 47.3704V50.4004H488.637V43.0004H489.547V45.7004C489.727 45.4204 489.974 45.2037 490.287 45.0504C490.607 44.8971 490.964 44.8204 491.357 44.8204ZM496.144 45.6704V48.9004C496.144 49.1671 496.2 49.3571 496.314 49.4704C496.427 49.5771 496.624 49.6304 496.904 49.6304H497.574V50.4004H496.754C496.247 50.4004 495.867 50.2837 495.614 50.0504C495.36 49.8171 495.234 49.4337 495.234 48.9004V45.6704H494.524V44.9204H495.234V43.5404H496.144V44.9204H497.574V45.6704H496.144ZM501.002 46.9104C501.002 46.2304 501.156 45.6204 501.462 45.0804C501.769 44.5337 502.186 44.1071 502.712 43.8004C503.246 43.4937 503.836 43.3404 504.482 43.3404C505.242 43.3404 505.906 43.5237 506.472 43.8904C507.039 44.2571 507.452 44.7771 507.712 45.4504H506.622C506.429 45.0304 506.149 44.7071 505.782 44.4804C505.422 44.2537 504.989 44.1404 504.482 44.1404C503.996 44.1404 503.559 44.2537 503.172 44.4804C502.786 44.7071 502.482 45.0304 502.262 45.4504C502.042 45.8637 501.932 46.3504 501.932 46.9104C501.932 47.4637 502.042 47.9504 502.262 48.3704C502.482 48.7837 502.786 49.1037 503.172 49.3304C503.559 49.5571 503.996 49.6704 504.482 49.6704C504.989 49.6704 505.422 49.5604 505.782 49.3404C506.149 49.1137 506.429 48.7904 506.622 48.3704H507.712C507.452 49.0371 507.039 49.5537 506.472 49.9204C505.906 50.2804 505.242 50.4604 504.482 50.4604C503.836 50.4604 503.246 50.3104 502.712 50.0104C502.186 49.7037 501.769 49.2804 501.462 48.7404C501.156 48.2004 501.002 47.5904 501.002 46.9104ZM509.977 43.0004V50.4004H509.067V43.0004H509.977ZM511.998 44.0304C511.824 44.0304 511.678 43.9704 511.558 43.8504C511.438 43.7304 511.378 43.5837 511.378 43.4104C511.378 43.2371 511.438 43.0904 511.558 42.9704C511.678 42.8504 511.824 42.7904 511.998 42.7904C512.164 42.7904 512.304 42.8504 512.418 42.9704C512.538 43.0904 512.598 43.2371 512.598 43.4104C512.598 43.5837 512.538 43.7304 512.418 43.8504C512.304 43.9704 512.164 44.0304 511.998 44.0304ZM512.438 44.9204V50.4004H511.528V44.9204H512.438ZM513.649 47.6504C513.649 47.0837 513.762 46.5904 513.989 46.1704C514.215 45.7437 514.529 45.4137 514.929 45.1804C515.335 44.9471 515.799 44.8304 516.319 44.8304C516.992 44.8304 517.545 44.9937 517.979 45.3204C518.419 45.6471 518.709 46.1004 518.849 46.6804H517.869C517.775 46.3471 517.592 46.0837 517.319 45.8904C517.052 45.6971 516.719 45.6004 516.319 45.6004C515.799 45.6004 515.379 45.7804 515.059 46.1404C514.739 46.4937 514.579 46.9971 514.579 47.6504C514.579 48.3104 514.739 48.8204 515.059 49.1804C515.379 49.5404 515.799 49.7204 516.319 49.7204C516.719 49.7204 517.052 49.6271 517.319 49.4404C517.585 49.2537 517.769 48.9871 517.869 48.6404H518.849C518.702 49.2004 518.409 49.6504 517.969 49.9904C517.529 50.3237 516.979 50.4904 516.319 50.4904C515.799 50.4904 515.335 50.3737 514.929 50.1404C514.529 49.9071 514.215 49.5771 513.989 49.1504C513.762 48.7237 513.649 48.2237 513.649 47.6504ZM523.123 50.4004L520.973 47.9804V50.4004H520.063V43.0004H520.973V47.3504L523.083 44.9204H524.353L521.773 47.6504L524.363 50.4004H523.123ZM527.535 47.6404C527.535 47.0804 527.649 46.5904 527.875 46.1704C528.102 45.7437 528.412 45.4137 528.805 45.1804C529.205 44.9471 529.649 44.8304 530.135 44.8304C530.615 44.8304 531.032 44.9337 531.385 45.1404C531.739 45.3471 532.002 45.6071 532.175 45.9204V44.9204H533.095V50.4004H532.175V49.3804C531.995 49.7004 531.725 49.9671 531.365 50.1804C531.012 50.3871 530.599 50.4904 530.125 50.4904C529.639 50.4904 529.199 50.3704 528.805 50.1304C528.412 49.8904 528.102 49.5537 527.875 49.1204C527.649 48.6871 527.535 48.1937 527.535 47.6404ZM532.175 47.6504C532.175 47.2371 532.092 46.8771 531.925 46.5704C531.759 46.2637 531.532 46.0304 531.245 45.8704C530.965 45.7037 530.655 45.6204 530.315 45.6204C529.975 45.6204 529.665 45.7004 529.385 45.8604C529.105 46.0204 528.882 46.2537 528.715 46.5604C528.549 46.8671 528.465 47.2271 528.465 47.6404C528.465 48.0604 528.549 48.4271 528.715 48.7404C528.882 49.0471 529.105 49.2837 529.385 49.4504C529.665 49.6104 529.975 49.6904 530.315 49.6904C530.655 49.6904 530.965 49.6104 531.245 49.4504C531.532 49.2837 531.759 49.0471 531.925 48.7404C532.092 48.4271 532.175 48.0637 532.175 47.6504ZM537.303 44.8204C537.97 44.8204 538.51 45.0237 538.923 45.4304C539.337 45.8304 539.543 46.4104 539.543 47.1704V50.4004H538.643V47.3004C538.643 46.7537 538.507 46.3371 538.233 46.0504C537.96 45.7571 537.587 45.6104 537.113 45.6104C536.633 45.6104 536.25 45.7604 535.963 46.0604C535.683 46.3604 535.543 46.7971 535.543 47.3704V50.4004H534.633V44.9204H535.543V45.7004C535.723 45.4204 535.967 45.2037 536.273 45.0504C536.587 44.8971 536.93 44.8204 537.303 44.8204ZM540.69 47.6404C540.69 47.0804 540.803 46.5904 541.03 46.1704C541.256 45.7437 541.566 45.4137 541.96 45.1804C542.36 44.9471 542.806 44.8304 543.3 44.8304C543.726 44.8304 544.123 44.9304 544.49 45.1304C544.856 45.3237 545.136 45.5804 545.33 45.9004V43.0004H546.25V50.4004H545.33V49.3704C545.15 49.6971 544.883 49.9671 544.53 50.1804C544.176 50.3871 543.763 50.4904 543.29 50.4904C542.803 50.4904 542.36 50.3704 541.96 50.1304C541.566 49.8904 541.256 49.5537 541.03 49.1204C540.803 48.6871 540.69 48.1937 540.69 47.6404ZM545.33 47.6504C545.33 47.2371 545.246 46.8771 545.08 46.5704C544.913 46.2637 544.686 46.0304 544.4 45.8704C544.12 45.7037 543.81 45.6204 543.47 45.6204C543.13 45.6204 542.82 45.7004 542.54 45.8604C542.26 46.0204 542.036 46.2537 541.87 46.5604C541.703 46.8671 541.62 47.2271 541.62 47.6404C541.62 48.0604 541.703 48.4271 541.87 48.7404C542.036 49.0471 542.26 49.2837 542.54 49.4504C542.82 49.6104 543.13 49.6904 543.47 49.6904C543.81 49.6904 544.12 49.6104 544.4 49.4504C544.686 49.2837 544.913 49.0471 545.08 48.7404C545.246 48.4271 545.33 48.0637 545.33 47.6504ZM552.624 43.4304C553.384 43.4304 554.04 43.5737 554.594 43.8604C555.154 44.1404 555.58 44.5437 555.874 45.0704C556.174 45.5971 556.324 46.2171 556.324 46.9304C556.324 47.6437 556.174 48.2637 555.874 48.7904C555.58 49.3104 555.154 49.7104 554.594 49.9904C554.04 50.2637 553.384 50.4004 552.624 50.4004H550.454V43.4304H552.624ZM552.624 49.6504C553.524 49.6504 554.21 49.4137 554.684 48.9404C555.157 48.4604 555.394 47.7904 555.394 46.9304C555.394 46.0637 555.154 45.3871 554.674 44.9004C554.2 44.4137 553.517 44.1704 552.624 44.1704H551.364V49.6504H552.624ZM558.434 45.8104C558.594 45.4971 558.821 45.2537 559.114 45.0804C559.414 44.9071 559.777 44.8204 560.204 44.8204V45.7604H559.964C558.944 45.7604 558.434 46.3137 558.434 47.4204V50.4004H557.524V44.9204H558.434V45.8104ZM560.914 47.6404C560.914 47.0804 561.028 46.5904 561.254 46.1704C561.481 45.7437 561.791 45.4137 562.184 45.1804C562.584 44.9471 563.028 44.8304 563.514 44.8304C563.994 44.8304 564.411 44.9337 564.764 45.1404C565.118 45.3471 565.381 45.6071 565.554 45.9204V44.9204H566.474V50.4004H565.554V49.3804C565.374 49.7004 565.104 49.9671 564.744 50.1804C564.391 50.3871 563.978 50.4904 563.504 50.4904C563.018 50.4904 562.578 50.3704 562.184 50.1304C561.791 49.8904 561.481 49.5537 561.254 49.1204C561.028 48.6871 560.914 48.1937 560.914 47.6404ZM565.554 47.6504C565.554 47.2371 565.471 46.8771 565.304 46.5704C565.138 46.2637 564.911 46.0304 564.624 45.8704C564.344 45.7037 564.034 45.6204 563.694 45.6204C563.354 45.6204 563.044 45.7004 562.764 45.8604C562.484 46.0204 562.261 46.2537 562.094 46.5604C561.928 46.8671 561.844 47.2271 561.844 47.6404C561.844 48.0604 561.928 48.4271 562.094 48.7404C562.261 49.0471 562.484 49.2837 562.764 49.4504C563.044 49.6104 563.354 49.6904 563.694 49.6904C564.034 49.6904 564.344 49.6104 564.624 49.4504C564.911 49.2837 565.138 49.0471 565.304 48.7404C565.471 48.4271 565.554 48.0637 565.554 47.6504ZM570.272 44.8304C570.746 44.8304 571.159 44.9337 571.512 45.1404C571.872 45.3471 572.139 45.6071 572.312 45.9204V44.9204H573.232V50.5204C573.232 51.0204 573.126 51.4637 572.912 51.8504C572.699 52.2437 572.392 52.5504 571.992 52.7704C571.599 52.9904 571.139 53.1004 570.612 53.1004C569.892 53.1004 569.292 52.9304 568.812 52.5904C568.332 52.2504 568.049 51.7871 567.962 51.2004H568.862C568.962 51.5337 569.169 51.8004 569.482 52.0004C569.796 52.2071 570.172 52.3104 570.612 52.3104C571.112 52.3104 571.519 52.1537 571.832 51.8404C572.152 51.5271 572.312 51.0871 572.312 50.5204V49.3704C572.132 49.6904 571.866 49.9571 571.512 50.1704C571.159 50.3837 570.746 50.4904 570.272 50.4904C569.786 50.4904 569.342 50.3704 568.942 50.1304C568.549 49.8904 568.239 49.5537 568.012 49.1204C567.786 48.6871 567.672 48.1937 567.672 47.6404C567.672 47.0804 567.786 46.5904 568.012 46.1704C568.239 45.7437 568.549 45.4137 568.942 45.1804C569.342 44.9471 569.786 44.8304 570.272 44.8304ZM572.312 47.6504C572.312 47.2371 572.229 46.8771 572.062 46.5704C571.896 46.2637 571.669 46.0304 571.382 45.8704C571.102 45.7037 570.792 45.6204 570.452 45.6204C570.112 45.6204 569.802 45.7004 569.522 45.8604C569.242 46.0204 569.019 46.2537 568.852 46.5604C568.686 46.8671 568.602 47.2271 568.602 47.6404C568.602 48.0604 568.686 48.4271 568.852 48.7404C569.019 49.0471 569.242 49.2837 569.522 49.4504C569.802 49.6104 570.112 49.6904 570.452 49.6904C570.792 49.6904 571.102 49.6104 571.382 49.4504C571.669 49.2837 571.896 49.0471 572.062 48.7404C572.229 48.4271 572.312 48.0637 572.312 47.6504Z" fill="#2E3134"/>
<path d="M4.758 139.67H10.647V142.4H0.975V139.865L6.825 131.441H0.975V128.711H10.647V131.246L4.758 139.67ZM18.0782 142.556C17.0122 142.556 16.0502 142.329 15.1922 141.874C14.3472 141.419 13.6777 140.769 13.1837 139.924C12.7027 139.079 12.4622 138.091 12.4622 136.96C12.4622 135.842 12.7092 134.86 13.2032 134.015C13.6972 133.157 14.3732 132.501 15.2312 132.046C16.0892 131.591 17.0512 131.363 18.1172 131.363C19.1832 131.363 20.1452 131.591 21.0032 132.046C21.8612 132.501 22.5372 133.157 23.0312 134.015C23.5252 134.86 23.7722 135.842 23.7722 136.96C23.7722 138.078 23.5187 139.066 23.0117 139.924C22.5177 140.769 21.8352 141.419 20.9642 141.874C20.1062 142.329 19.1442 142.556 18.0782 142.556ZM18.0782 139.67C18.7152 139.67 19.2547 139.436 19.6967 138.968C20.1517 138.5 20.3792 137.831 20.3792 136.96C20.3792 136.089 20.1582 135.419 19.7162 134.951C19.2872 134.483 18.7542 134.249 18.1172 134.249C17.4672 134.249 16.9277 134.483 16.4987 134.951C16.0697 135.406 15.8552 136.076 15.8552 136.96C15.8552 137.831 16.0632 138.5 16.4792 138.968C16.9082 139.436 17.4412 139.67 18.0782 139.67ZM30.7942 142.556C29.7282 142.556 28.7662 142.329 27.9082 141.874C27.0632 141.419 26.3937 140.769 25.8997 139.924C25.4187 139.079 25.1782 138.091 25.1782 136.96C25.1782 135.842 25.4252 134.86 25.9192 134.015C26.4132 133.157 27.0892 132.501 27.9472 132.046C28.8052 131.591 29.7672 131.363 30.8332 131.363C31.8992 131.363 32.8612 131.591 33.7192 132.046C34.5772 132.501 35.2532 133.157 35.7472 134.015C36.2412 134.86 36.4882 135.842 36.4882 136.96C36.4882 138.078 36.2347 139.066 35.7277 139.924C35.2337 140.769 34.5512 141.419 33.6802 141.874C32.8222 142.329 31.8602 142.556 30.7942 142.556ZM30.7942 139.67C31.4312 139.67 31.9707 139.436 32.4127 138.968C32.8677 138.5 33.0952 137.831 33.0952 136.96C33.0952 136.089 32.8742 135.419 32.4322 134.951C32.0032 134.483 31.4702 134.249 30.8332 134.249C30.1832 134.249 29.6437 134.483 29.2147 134.951C28.7857 135.406 28.5712 136.076 28.5712 136.96C28.5712 137.831 28.7792 138.5 29.1952 138.968C29.6242 139.436 30.1572 139.67 30.7942 139.67ZM52.4412 131.402C53.7932 131.402 54.8657 131.812 55.6587 132.631C56.4647 133.45 56.8677 134.587 56.8677 136.043V142.4H53.5527V136.492C53.5527 135.79 53.3642 135.25 52.9872 134.873C52.6232 134.483 52.1162 134.288 51.4662 134.288C50.8162 134.288 50.3027 134.483 49.9257 134.873C49.5617 135.25 49.3797 135.79 49.3797 136.492V142.4H46.0647V136.492C46.0647 135.79 45.8762 135.25 45.4992 134.873C45.1352 134.483 44.6282 134.288 43.9782 134.288C43.3282 134.288 42.8147 134.483 42.4377 134.873C42.0737 135.25 41.8917 135.79 41.8917 136.492V142.4H38.5572V131.519H41.8917V132.884C42.2297 132.429 42.6717 132.072 43.2177 131.812C43.7637 131.539 44.3812 131.402 45.0702 131.402C45.8892 131.402 46.6172 131.578 47.2542 131.929C47.9042 132.28 48.4112 132.78 48.7752 133.43C49.1522 132.832 49.6657 132.345 50.3157 131.968C50.9657 131.591 51.6742 131.402 52.4412 131.402ZM7.84 150.48V157.4H6.93V152.24L4.63 157.4H3.99L1.68 152.23V157.4H0.77V150.48H1.75L4.31 156.2L6.87 150.48H7.84ZM11.7733 157.49C11.2599 157.49 10.7933 157.374 10.3733 157.14C9.95995 156.907 9.63328 156.577 9.39328 156.15C9.15995 155.717 9.04328 155.217 9.04328 154.65C9.04328 154.09 9.16328 153.597 9.40328 153.17C9.64995 152.737 9.98328 152.407 10.4033 152.18C10.8233 151.947 11.2933 151.83 11.8133 151.83C12.3333 151.83 12.8033 151.947 13.2233 152.18C13.6433 152.407 13.9733 152.734 14.2133 153.16C14.4599 153.587 14.5833 154.084 14.5833 154.65C14.5833 155.217 14.4566 155.717 14.2033 156.15C13.9566 156.577 13.6199 156.907 13.1933 157.14C12.7666 157.374 12.2933 157.49 11.7733 157.49ZM11.7733 156.69C12.0999 156.69 12.4066 156.614 12.6933 156.46C12.9799 156.307 13.2099 156.077 13.3833 155.77C13.5633 155.464 13.6533 155.09 13.6533 154.65C13.6533 154.21 13.5666 153.837 13.3933 153.53C13.2199 153.224 12.9933 152.997 12.7133 152.85C12.4333 152.697 12.1299 152.62 11.8033 152.62C11.4699 152.62 11.1633 152.697 10.8833 152.85C10.6099 152.997 10.3899 153.224 10.2233 153.53C10.0566 153.837 9.97328 154.21 9.97328 154.65C9.97328 155.097 10.0533 155.474 10.2133 155.78C10.3799 156.087 10.5999 156.317 10.8733 156.47C11.1466 156.617 11.4466 156.69 11.7733 156.69ZM20.6398 151.92V157.4H19.7298V156.59C19.5564 156.87 19.3131 157.09 18.9998 157.25C18.6931 157.404 18.3531 157.48 17.9798 157.48C17.5531 157.48 17.1698 157.394 16.8298 157.22C16.4898 157.04 16.2198 156.774 16.0198 156.42C15.8264 156.067 15.7298 155.637 15.7298 155.13V151.92H16.6298V155.01C16.6298 155.55 16.7664 155.967 17.0398 156.26C17.3131 156.547 17.6864 156.69 18.1598 156.69C18.6464 156.69 19.0298 156.54 19.3098 156.24C19.5898 155.94 19.7298 155.504 19.7298 154.93V151.92H20.6398ZM24.1163 157.49C23.6963 157.49 23.3196 157.42 22.9863 157.28C22.6529 157.134 22.3896 156.934 22.1963 156.68C22.0029 156.42 21.8963 156.124 21.8763 155.79H22.8163C22.8429 156.064 22.9696 156.287 23.1963 156.46C23.4296 156.634 23.7329 156.72 24.1063 156.72C24.4529 156.72 24.7263 156.644 24.9263 156.49C25.1263 156.337 25.2263 156.144 25.2263 155.91C25.2263 155.67 25.1196 155.494 24.9063 155.38C24.6929 155.26 24.3629 155.144 23.9163 155.03C23.5096 154.924 23.1763 154.817 22.9163 154.71C22.6629 154.597 22.4429 154.434 22.2563 154.22C22.0763 154 21.9863 153.714 21.9863 153.36C21.9863 153.08 22.0696 152.824 22.2363 152.59C22.4029 152.357 22.6396 152.174 22.9463 152.04C23.2529 151.9 23.6029 151.83 23.9963 151.83C24.6029 151.83 25.0929 151.984 25.4663 152.29C25.8396 152.597 26.0396 153.017 26.0663 153.55H25.1563C25.1363 153.264 25.0196 153.034 24.8063 152.86C24.5996 152.687 24.3196 152.6 23.9663 152.6C23.6396 152.6 23.3796 152.67 23.1863 152.81C22.9929 152.95 22.8963 153.134 22.8963 153.36C22.8963 153.54 22.9529 153.69 23.0663 153.81C23.1863 153.924 23.3329 154.017 23.5063 154.09C23.6863 154.157 23.9329 154.234 24.2463 154.32C24.6396 154.427 24.9596 154.534 25.2063 154.64C25.4529 154.74 25.6629 154.894 25.8363 155.1C26.0163 155.307 26.1096 155.577 26.1163 155.91C26.1163 156.21 26.0329 156.48 25.8663 156.72C25.6996 156.96 25.4629 157.15 25.1563 157.29C24.8563 157.424 24.5096 157.49 24.1163 157.49ZM32.4009 154.45C32.4009 154.624 32.3909 154.807 32.3709 155H27.9909C28.0242 155.54 28.2075 155.964 28.5409 156.27C28.8809 156.57 29.2909 156.72 29.7709 156.72C30.1642 156.72 30.4909 156.63 30.7509 156.45C31.0175 156.264 31.2042 156.017 31.3109 155.71H32.2909C32.1442 156.237 31.8509 156.667 31.4109 157C30.9709 157.327 30.4242 157.49 29.7709 157.49C29.2509 157.49 28.7842 157.374 28.3709 157.14C27.9642 156.907 27.6442 156.577 27.4109 156.15C27.1775 155.717 27.0609 155.217 27.0609 154.65C27.0609 154.084 27.1742 153.587 27.4009 153.16C27.6275 152.734 27.9442 152.407 28.3509 152.18C28.7642 151.947 29.2375 151.83 29.7709 151.83C30.2909 151.83 30.7509 151.944 31.1509 152.17C31.5509 152.397 31.8575 152.71 32.0709 153.11C32.2909 153.504 32.4009 153.95 32.4009 154.45ZM31.4609 154.26C31.4609 153.914 31.3842 153.617 31.2309 153.37C31.0775 153.117 30.8675 152.927 30.6009 152.8C30.3409 152.667 30.0509 152.6 29.7309 152.6C29.2709 152.6 28.8775 152.747 28.5509 153.04C28.2309 153.334 28.0475 153.74 28.0009 154.26H31.4609ZM45.028 150.43L43.008 157.4H41.988L40.368 151.79L38.688 157.4L37.678 157.41L35.728 150.43H36.698L38.218 156.34L39.898 150.43H40.918L42.518 156.32L44.048 150.43H45.028ZM48.7439 151.82C49.1572 151.82 49.5306 151.91 49.8639 152.09C50.1972 152.264 50.4572 152.527 50.6439 152.88C50.8372 153.234 50.9339 153.664 50.9339 154.17V157.4H50.0339V154.3C50.0339 153.754 49.8972 153.337 49.6239 153.05C49.3506 152.757 48.9772 152.61 48.5039 152.61C48.0239 152.61 47.6406 152.76 47.3539 153.06C47.0739 153.36 46.9339 153.797 46.9339 154.37V157.4H46.0239V150H46.9339V152.7C47.1139 152.42 47.3606 152.204 47.6739 152.05C47.9939 151.897 48.3506 151.82 48.7439 151.82ZM57.4204 154.45C57.4204 154.624 57.4104 154.807 57.3904 155H53.0104C53.0437 155.54 53.2271 155.964 53.5604 156.27C53.9004 156.57 54.3104 156.72 54.7904 156.72C55.1837 156.72 55.5104 156.63 55.7704 156.45C56.0371 156.264 56.2237 156.017 56.3304 155.71H57.3104C57.1637 156.237 56.8704 156.667 56.4304 157C55.9904 157.327 55.4437 157.49 54.7904 157.49C54.2704 157.49 53.8037 157.374 53.3904 157.14C52.9837 156.907 52.6637 156.577 52.4304 156.15C52.1971 155.717 52.0804 155.217 52.0804 154.65C52.0804 154.084 52.1937 153.587 52.4204 153.16C52.6471 152.734 52.9637 152.407 53.3704 152.18C53.7837 151.947 54.2571 151.83 54.7904 151.83C55.3104 151.83 55.7704 151.944 56.1704 152.17C56.5704 152.397 56.8771 152.71 57.0904 153.11C57.3104 153.504 57.4204 153.95 57.4204 154.45ZM56.4804 154.26C56.4804 153.914 56.4037 153.617 56.2504 153.37C56.0971 153.117 55.8871 152.927 55.6204 152.8C55.3604 152.667 55.0704 152.6 54.7504 152.6C54.2904 152.6 53.8971 152.747 53.5704 153.04C53.2504 153.334 53.0671 153.74 53.0204 154.26H56.4804ZM63.6216 154.45C63.6216 154.624 63.6116 154.807 63.5916 155H59.2116C59.2449 155.54 59.4282 155.964 59.7616 156.27C60.1016 156.57 60.5116 156.72 60.9916 156.72C61.3849 156.72 61.7116 156.63 61.9716 156.45C62.2382 156.264 62.4249 156.017 62.5316 155.71H63.5116C63.3649 156.237 63.0716 156.667 62.6316 157C62.1916 157.327 61.6449 157.49 60.9916 157.49C60.4716 157.49 60.0049 157.374 59.5916 157.14C59.1849 156.907 58.8649 156.577 58.6316 156.15C58.3982 155.717 58.2816 155.217 58.2816 154.65C58.2816 154.084 58.3949 153.587 58.6216 153.16C58.8482 152.734 59.1649 152.407 59.5716 152.18C59.9849 151.947 60.4582 151.83 60.9916 151.83C61.5116 151.83 61.9716 151.944 62.3716 152.17C62.7716 152.397 63.0782 152.71 63.2916 153.11C63.5116 153.504 63.6216 153.95 63.6216 154.45ZM62.6816 154.26C62.6816 153.914 62.6049 153.617 62.4516 153.37C62.2982 153.117 62.0882 152.927 61.8216 152.8C61.5616 152.667 61.2716 152.6 60.9516 152.6C60.4916 152.6 60.0982 152.747 59.7716 153.04C59.4516 153.334 59.2682 153.74 59.2216 154.26H62.6816ZM65.7327 150V157.4H64.8227V150H65.7327ZM74.8097 151.92V157.4H73.8997V156.59C73.7264 156.87 73.483 157.09 73.1697 157.25C72.863 157.404 72.523 157.48 72.1497 157.48C71.723 157.48 71.3397 157.394 70.9997 157.22C70.6597 157.04 70.3897 156.774 70.1897 156.42C69.9964 156.067 69.8997 155.637 69.8997 155.13V151.92H70.7997V155.01C70.7997 155.55 70.9364 155.967 71.2097 156.26C71.483 156.547 71.8564 156.69 72.3297 156.69C72.8164 156.69 73.1997 156.54 73.4797 156.24C73.7597 155.94 73.8997 155.504 73.8997 154.93V151.92H74.8097ZM77.2562 152.93C77.4362 152.617 77.7028 152.357 78.0562 152.15C78.4162 151.937 78.8328 151.83 79.3062 151.83C79.7928 151.83 80.2328 151.947 80.6262 152.18C81.0262 152.414 81.3395 152.744 81.5662 153.17C81.7928 153.59 81.9062 154.08 81.9062 154.64C81.9062 155.194 81.7928 155.687 81.5662 156.12C81.3395 156.554 81.0262 156.89 80.6262 157.13C80.2328 157.37 79.7928 157.49 79.3062 157.49C78.8395 157.49 78.4262 157.387 78.0662 157.18C77.7128 156.967 77.4428 156.704 77.2562 156.39V160H76.3462V151.92H77.2562V152.93ZM80.9762 154.64C80.9762 154.227 80.8928 153.867 80.7262 153.56C80.5595 153.254 80.3328 153.02 80.0462 152.86C79.7662 152.7 79.4562 152.62 79.1162 152.62C78.7828 152.62 78.4728 152.704 78.1862 152.87C77.9062 153.03 77.6795 153.267 77.5062 153.58C77.3395 153.887 77.2562 154.244 77.2562 154.65C77.2562 155.064 77.3395 155.427 77.5062 155.74C77.6795 156.047 77.9062 156.284 78.1862 156.45C78.4728 156.61 78.7828 156.69 79.1162 156.69C79.4562 156.69 79.7662 156.61 80.0462 156.45C80.3328 156.284 80.5595 156.047 80.7262 155.74C80.8928 155.427 80.9762 155.06 80.9762 154.64ZM86.504 147.98L83.764 159.1H82.864L85.594 147.98H86.504ZM87.5198 154.64C87.5198 154.08 87.6332 153.59 87.8598 153.17C88.0865 152.744 88.3965 152.414 88.7898 152.18C89.1898 151.947 89.6365 151.83 90.1298 151.83C90.5565 151.83 90.9532 151.93 91.3198 152.13C91.6865 152.324 91.9665 152.58 92.1598 152.9V150H93.0798V157.4H92.1598V156.37C91.9798 156.697 91.7132 156.967 91.3598 157.18C91.0065 157.387 90.5932 157.49 90.1198 157.49C89.6332 157.49 89.1898 157.37 88.7898 157.13C88.3965 156.89 88.0865 156.554 87.8598 156.12C87.6332 155.687 87.5198 155.194 87.5198 154.64ZM92.1598 154.65C92.1598 154.237 92.0765 153.877 91.9098 153.57C91.7432 153.264 91.5165 153.03 91.2298 152.87C90.9498 152.704 90.6398 152.62 90.2998 152.62C89.9598 152.62 89.6498 152.7 89.3698 152.86C89.0898 153.02 88.8665 153.254 88.6998 153.56C88.5332 153.867 88.4498 154.227 88.4498 154.64C88.4498 155.06 88.5332 155.427 88.6998 155.74C88.8665 156.047 89.0898 156.284 89.3698 156.45C89.6498 156.61 89.9598 156.69 90.2998 156.69C90.6398 156.69 90.9498 156.61 91.2298 156.45C91.5165 156.284 91.7432 156.047 91.9098 155.74C92.0765 155.427 92.1598 155.064 92.1598 154.65ZM97.0077 157.49C96.4943 157.49 96.0277 157.374 95.6077 157.14C95.1943 156.907 94.8677 156.577 94.6277 156.15C94.3943 155.717 94.2777 155.217 94.2777 154.65C94.2777 154.09 94.3977 153.597 94.6377 153.17C94.8843 152.737 95.2177 152.407 95.6377 152.18C96.0577 151.947 96.5277 151.83 97.0477 151.83C97.5677 151.83 98.0377 151.947 98.4577 152.18C98.8777 152.407 99.2077 152.734 99.4477 153.16C99.6943 153.587 99.8177 154.084 99.8177 154.65C99.8177 155.217 99.691 155.717 99.4377 156.15C99.191 156.577 98.8543 156.907 98.4277 157.14C98.001 157.374 97.5277 157.49 97.0077 157.49ZM97.0077 156.69C97.3343 156.69 97.641 156.614 97.9277 156.46C98.2143 156.307 98.4443 156.077 98.6177 155.77C98.7977 155.464 98.8877 155.09 98.8877 154.65C98.8877 154.21 98.801 153.837 98.6277 153.53C98.4543 153.224 98.2277 152.997 97.9477 152.85C97.6677 152.697 97.3643 152.62 97.0377 152.62C96.7043 152.62 96.3977 152.697 96.1177 152.85C95.8443 152.997 95.6243 153.224 95.4577 153.53C95.291 153.837 95.2077 154.21 95.2077 154.65C95.2077 155.097 95.2877 155.474 95.4477 155.78C95.6143 156.087 95.8343 156.317 96.1077 156.47C96.381 156.617 96.681 156.69 97.0077 156.69ZM108.314 151.92L106.604 157.4H105.664L104.344 153.05L103.024 157.4H102.084L100.364 151.92H101.294L102.554 156.52L103.914 151.92H104.844L106.174 156.53L107.414 151.92H108.314ZM111.887 151.82C112.554 151.82 113.094 152.024 113.507 152.43C113.921 152.83 114.127 153.41 114.127 154.17V157.4H113.227V154.3C113.227 153.754 113.091 153.337 112.817 153.05C112.544 152.757 112.171 152.61 111.697 152.61C111.217 152.61 110.834 152.76 110.547 153.06C110.267 153.36 110.127 153.797 110.127 154.37V157.4H109.217V151.92H110.127V152.7C110.307 152.42 110.551 152.204 110.857 152.05C111.171 151.897 111.514 151.82 111.887 151.82Z" fill="#2E3134"/>
<path d="M19.2115 21.311V35H15.877V26.7905L12.8155 35H10.1245L7.0435 26.771V35H3.709V21.311H7.648L11.4895 30.788L15.292 21.311H19.2115ZM26.8624 35.156C25.7964 35.156 24.8344 34.9285 23.9764 34.4735C23.1314 34.0185 22.4619 33.3685 21.9679 32.5235C21.4869 31.6785 21.2464 30.6905 21.2464 29.5595C21.2464 28.4415 21.4934 27.46 21.9874 26.615C22.4814 25.757 23.1574 25.1005 24.0154 24.6455C24.8734 24.1905 25.8354 23.963 26.9014 23.963C27.9674 23.963 28.9294 24.1905 29.7874 24.6455C30.6454 25.1005 31.3214 25.757 31.8154 26.615C32.3094 27.46 32.5564 28.4415 32.5564 29.5595C32.5564 30.6775 32.3029 31.6655 31.7959 32.5235C31.3019 33.3685 30.6194 34.0185 29.7484 34.4735C28.8904 34.9285 27.9284 35.156 26.8624 35.156ZM26.8624 32.27C27.4994 32.27 28.0389 32.036 28.4809 31.568C28.9359 31.1 29.1634 30.4305 29.1634 29.5595C29.1634 28.6885 28.9424 28.019 28.5004 27.551C28.0714 27.083 27.5384 26.849 26.9014 26.849C26.2514 26.849 25.7119 27.083 25.2829 27.551C24.8539 28.006 24.6394 28.6755 24.6394 29.5595C24.6394 30.4305 24.8474 31.1 25.2634 31.568C25.6924 32.036 26.2254 32.27 26.8624 32.27ZM39.5199 31.88L41.8794 24.119H45.4284L41.5674 35H37.4529L33.5919 24.119H37.1604L39.5199 31.88ZM57.389 29.384C57.389 29.696 57.3695 30.021 57.3305 30.359H49.784C49.836 31.035 50.0505 31.555 50.4275 31.919C50.8175 32.27 51.292 32.4455 51.851 32.4455C52.683 32.4455 53.2615 32.0945 53.5865 31.3925H57.1355C56.9535 32.1075 56.622 32.751 56.141 33.323C55.673 33.895 55.0815 34.3435 54.3665 34.6685C53.6515 34.9935 52.852 35.156 51.968 35.156C50.902 35.156 49.953 34.9285 49.121 34.4735C48.289 34.0185 47.639 33.3685 47.171 32.5235C46.703 31.6785 46.469 30.6905 46.469 29.5595C46.469 28.4285 46.6965 27.4405 47.1515 26.5955C47.6195 25.7505 48.2695 25.1005 49.1015 24.6455C49.9335 24.1905 50.889 23.963 51.968 23.963C53.021 23.963 53.957 24.184 54.776 24.626C55.595 25.068 56.232 25.6985 56.687 26.5175C57.155 27.3365 57.389 28.292 57.389 29.384ZM53.9765 28.5065C53.9765 27.9345 53.7815 27.4795 53.3915 27.1415C53.0015 26.8035 52.514 26.6345 51.929 26.6345C51.37 26.6345 50.8955 26.797 50.5055 27.122C50.1285 27.447 49.8945 27.9085 49.8035 28.5065H53.9765ZM5.48 50.07C5.02 50.07 4.60667 49.99 4.24 49.83C3.88 49.6633 3.59667 49.4367 3.39 49.15C3.18333 48.8567 3.07667 48.52 3.07 48.14H4.04C4.07333 48.4667 4.20667 48.7433 4.44 48.97C4.68 49.19 5.02667 49.3 5.48 49.3C5.91333 49.3 6.25333 49.1933 6.5 48.98C6.75333 48.76 6.88 48.48 6.88 48.14C6.88 47.8733 6.80667 47.6567 6.66 47.49C6.51333 47.3233 6.33 47.1967 6.11 47.11C5.89 47.0233 5.59333 46.93 5.22 46.83C4.76 46.71 4.39 46.59 4.11 46.47C3.83667 46.35 3.6 46.1633 3.4 45.91C3.20667 45.65 3.11 45.3033 3.11 44.87C3.11 44.49 3.20667 44.1533 3.4 43.86C3.59333 43.5667 3.86333 43.34 4.21 43.18C4.56333 43.02 4.96667 42.94 5.42 42.94C6.07333 42.94 6.60667 43.1033 7.02 43.43C7.44 43.7567 7.67667 44.19 7.73 44.73H6.73C6.69667 44.4633 6.55667 44.23 6.31 44.03C6.06333 43.8233 5.73667 43.72 5.33 43.72C4.95 43.72 4.64 43.82 4.4 44.02C4.16 44.2133 4.04 44.4867 4.04 44.84C4.04 45.0933 4.11 45.3 4.25 45.46C4.39667 45.62 4.57333 45.7433 4.78 45.83C4.99333 45.91 5.29 46.0033 5.67 46.11C6.13 46.2367 6.5 46.3633 6.78 46.49C7.06 46.61 7.3 46.8 7.5 47.06C7.7 47.3133 7.8 47.66 7.8 48.1C7.8 48.44 7.71 48.76 7.53 49.06C7.35 49.36 7.08333 49.6033 6.73 49.79C6.37667 49.9767 5.96 50.07 5.48 50.07ZM10.0491 45.53C10.2291 45.2167 10.4958 44.9567 10.8491 44.75C11.2091 44.5367 11.6258 44.43 12.0991 44.43C12.5858 44.43 13.0258 44.5467 13.4191 44.78C13.8191 45.0133 14.1325 45.3433 14.3591 45.77C14.5858 46.19 14.6991 46.68 14.6991 47.24C14.6991 47.7933 14.5858 48.2867 14.3591 48.72C14.1325 49.1533 13.8191 49.49 13.4191 49.73C13.0258 49.97 12.5858 50.09 12.0991 50.09C11.6325 50.09 11.2191 49.9867 10.8591 49.78C10.5058 49.5667 10.2358 49.3033 10.0491 48.99V52.6H9.13914V44.52H10.0491V45.53ZM13.7691 47.24C13.7691 46.8267 13.6858 46.4667 13.5191 46.16C13.3525 45.8533 13.1258 45.62 12.8391 45.46C12.5591 45.3 12.2491 45.22 11.9091 45.22C11.5758 45.22 11.2658 45.3033 10.9791 45.47C10.6991 45.63 10.4725 45.8667 10.2991 46.18C10.1325 46.4867 10.0491 46.8433 10.0491 47.25C10.0491 47.6633 10.1325 48.0267 10.2991 48.34C10.4725 48.6467 10.6991 48.8833 10.9791 49.05C11.2658 49.21 11.5758 49.29 11.9091 49.29C12.2491 49.29 12.5591 49.21 12.8391 49.05C13.1258 48.8833 13.3525 48.6467 13.5191 48.34C13.6858 48.0267 13.7691 47.66 13.7691 47.24ZM15.557 47.24C15.557 46.68 15.6703 46.19 15.897 45.77C16.1236 45.3433 16.4336 45.0133 16.827 44.78C17.227 44.5467 17.6703 44.43 18.157 44.43C18.637 44.43 19.0536 44.5333 19.407 44.74C19.7603 44.9467 20.0236 45.2067 20.197 45.52V44.52H21.117V50H20.197V48.98C20.017 49.3 19.747 49.5667 19.387 49.78C19.0336 49.9867 18.6203 50.09 18.147 50.09C17.6603 50.09 17.2203 49.97 16.827 49.73C16.4336 49.49 16.1236 49.1533 15.897 48.72C15.6703 48.2867 15.557 47.7933 15.557 47.24ZM20.197 47.25C20.197 46.8367 20.1136 46.4767 19.947 46.17C19.7803 45.8633 19.5536 45.63 19.267 45.47C18.987 45.3033 18.677 45.22 18.337 45.22C17.997 45.22 17.687 45.3 17.407 45.46C17.127 45.62 16.9036 45.8533 16.737 46.16C16.5703 46.4667 16.487 46.8267 16.487 47.24C16.487 47.66 16.5703 48.0267 16.737 48.34C16.9036 48.6467 17.127 48.8833 17.407 49.05C17.687 49.21 17.997 49.29 18.337 49.29C18.677 49.29 18.987 49.21 19.267 49.05C19.5536 48.8833 19.7803 48.6467 19.947 48.34C20.1136 48.0267 20.197 47.6633 20.197 47.25ZM22.3148 47.25C22.3148 46.6833 22.4281 46.19 22.6548 45.77C22.8814 45.3433 23.1948 45.0133 23.5948 44.78C24.0014 44.5467 24.4648 44.43 24.9848 44.43C25.6581 44.43 26.2114 44.5933 26.6448 44.92C27.0848 45.2467 27.3748 45.7 27.5148 46.28H26.5348C26.4414 45.9467 26.2581 45.6833 25.9848 45.49C25.7181 45.2967 25.3848 45.2 24.9848 45.2C24.4648 45.2 24.0448 45.38 23.7248 45.74C23.4048 46.0933 23.2448 46.5967 23.2448 47.25C23.2448 47.91 23.4048 48.42 23.7248 48.78C24.0448 49.14 24.4648 49.32 24.9848 49.32C25.3848 49.32 25.7181 49.2267 25.9848 49.04C26.2514 48.8533 26.4348 48.5867 26.5348 48.24H27.5148C27.3681 48.8 27.0748 49.25 26.6348 49.59C26.1948 49.9233 25.6448 50.09 24.9848 50.09C24.4648 50.09 24.0014 49.9733 23.5948 49.74C23.1948 49.5067 22.8814 49.1767 22.6548 48.75C22.4281 48.3233 22.3148 47.8233 22.3148 47.25ZM33.729 47.05C33.729 47.2233 33.719 47.4067 33.699 47.6H29.319C29.3523 48.14 29.5357 48.5633 29.869 48.87C30.209 49.17 30.619 49.32 31.099 49.32C31.4923 49.32 31.819 49.23 32.079 49.05C32.3457 48.8633 32.5323 48.6167 32.639 48.31H33.619C33.4723 48.8367 33.179 49.2667 32.739 49.6C32.299 49.9267 31.7523 50.09 31.099 50.09C30.579 50.09 30.1123 49.9733 29.699 49.74C29.2923 49.5067 28.9723 49.1767 28.739 48.75C28.5057 48.3167 28.389 47.8167 28.389 47.25C28.389 46.6833 28.5023 46.1867 28.729 45.76C28.9557 45.3333 29.2723 45.0067 29.679 44.78C30.0923 44.5467 30.5657 44.43 31.099 44.43C31.619 44.43 32.079 44.5433 32.479 44.77C32.879 44.9967 33.1857 45.31 33.399 45.71C33.619 46.1033 33.729 46.55 33.729 47.05ZM32.789 46.86C32.789 46.5133 32.7123 46.2167 32.559 45.97C32.4057 45.7167 32.1957 45.5267 31.929 45.4C31.669 45.2667 31.379 45.2 31.059 45.2C30.599 45.2 30.2057 45.3467 29.879 45.64C29.559 45.9333 29.3757 46.34 29.329 46.86H32.789ZM35.8402 45.54C36.0268 45.2133 36.3002 44.9467 36.6602 44.74C37.0202 44.5333 37.4302 44.43 37.8902 44.43C38.3835 44.43 38.8268 44.5467 39.2202 44.78C39.6135 45.0133 39.9235 45.3433 40.1502 45.77C40.3768 46.19 40.4902 46.68 40.4902 47.24C40.4902 47.7933 40.3768 48.2867 40.1502 48.72C39.9235 49.1533 39.6102 49.49 39.2102 49.73C38.8168 49.97 38.3768 50.09 37.8902 50.09C37.4168 50.09 37.0002 49.9867 36.6402 49.78C36.2868 49.5733 36.0202 49.31 35.8402 48.99V50H34.9302V42.6H35.8402V45.54ZM39.5602 47.24C39.5602 46.8267 39.4768 46.4667 39.3102 46.16C39.1435 45.8533 38.9168 45.62 38.6302 45.46C38.3502 45.3 38.0402 45.22 37.7002 45.22C37.3668 45.22 37.0568 45.3033 36.7702 45.47C36.4902 45.63 36.2635 45.8667 36.0902 46.18C35.9235 46.4867 35.8402 46.8433 35.8402 47.25C35.8402 47.6633 35.9235 48.0267 36.0902 48.34C36.2635 48.6467 36.4902 48.8833 36.7702 49.05C37.0568 49.21 37.3668 49.29 37.7002 49.29C38.0402 49.29 38.3502 49.21 38.6302 49.05C38.9168 48.8833 39.1435 48.6467 39.3102 48.34C39.4768 48.0267 39.5602 47.66 39.5602 47.24ZM41.348 47.24C41.348 46.68 41.4613 46.19 41.688 45.77C41.9146 45.3433 42.2246 45.0133 42.618 44.78C43.018 44.5467 43.4613 44.43 43.948 44.43C44.428 44.43 44.8446 44.5333 45.198 44.74C45.5513 44.9467 45.8146 45.2067 45.988 45.52V44.52H46.908V50H45.988V48.98C45.808 49.3 45.538 49.5667 45.178 49.78C44.8246 49.9867 44.4113 50.09 43.938 50.09C43.4513 50.09 43.0113 49.97 42.618 49.73C42.2246 49.49 41.9146 49.1533 41.688 48.72C41.4613 48.2867 41.348 47.7933 41.348 47.24ZM45.988 47.25C45.988 46.8367 45.9046 46.4767 45.738 46.17C45.5713 45.8633 45.3446 45.63 45.058 45.47C44.778 45.3033 44.468 45.22 44.128 45.22C43.788 45.22 43.478 45.3 43.198 45.46C42.918 45.62 42.6946 45.8533 42.528 46.16C42.3613 46.4667 42.278 46.8267 42.278 47.24C42.278 47.66 42.3613 48.0267 42.528 48.34C42.6946 48.6467 42.918 48.8833 43.198 49.05C43.478 49.21 43.788 49.29 44.128 49.29C44.468 49.29 44.778 49.21 45.058 49.05C45.3446 48.8833 45.5713 48.6467 45.738 48.34C45.9046 48.0267 45.988 47.6633 45.988 47.25ZM49.3558 45.41C49.5158 45.0967 49.7424 44.8533 50.0358 44.68C50.3358 44.5067 50.6991 44.42 51.1258 44.42V45.36H50.8858C49.8658 45.36 49.3558 45.9133 49.3558 47.02V50H48.4458V44.52H49.3558V45.41ZM60.0423 46.73H57.9123V48.89H57.0623V46.73H54.9423V45.96H57.0623V43.79H57.9123V45.96H60.0423V46.73ZM65.2445 49.26H67.6845V50H64.3345V43.03H65.2445V49.26ZM73.6509 47.05C73.6509 47.2233 73.6409 47.4067 73.6209 47.6H69.2409C69.2742 48.14 69.4575 48.5633 69.7909 48.87C70.1309 49.17 70.5409 49.32 71.0209 49.32C71.4142 49.32 71.7409 49.23 72.0009 49.05C72.2675 48.8633 72.4542 48.6167 72.5609 48.31H73.5409C73.3942 48.8367 73.1009 49.2667 72.6609 49.6C72.2209 49.9267 71.6742 50.09 71.0209 50.09C70.5009 50.09 70.0342 49.9733 69.6209 49.74C69.2142 49.5067 68.8942 49.1767 68.6609 48.75C68.4275 48.3167 68.3109 47.8167 68.3109 47.25C68.3109 46.6833 68.4242 46.1867 68.6509 45.76C68.8775 45.3333 69.1942 45.0067 69.6009 44.78C70.0142 44.5467 70.4875 44.43 71.0209 44.43C71.5409 44.43 72.0009 44.5433 72.4009 44.77C72.8009 44.9967 73.1075 45.31 73.3209 45.71C73.5409 46.1033 73.6509 46.55 73.6509 47.05ZM72.7109 46.86C72.7109 46.5133 72.6342 46.2167 72.4809 45.97C72.3275 45.7167 72.1175 45.5267 71.8509 45.4C71.5909 45.2667 71.3009 45.2 70.9809 45.2C70.5209 45.2 70.1275 45.3467 69.8009 45.64C69.4809 45.9333 69.2975 46.34 69.2509 46.86H72.7109ZM77.082 45.27H75.932V50H75.022V45.27H74.312V44.52H75.022V44.13C75.022 43.5167 75.1787 43.07 75.492 42.79C75.812 42.5033 76.322 42.36 77.022 42.36V43.12C76.622 43.12 76.3387 43.2 76.172 43.36C76.012 43.5133 75.932 43.77 75.932 44.13V44.52H77.082V45.27ZM79.253 45.27V48.5C79.253 48.7667 79.3097 48.9567 79.423 49.07C79.5364 49.1767 79.733 49.23 80.013 49.23H80.683V50H79.863C79.3564 50 78.9764 49.8833 78.723 49.65C78.4697 49.4167 78.343 49.0333 78.343 48.5V45.27H77.633V44.52H78.343V43.14H79.253V44.52H80.683V45.27H79.253ZM84.1116 46.51C84.1116 45.83 84.265 45.22 84.5716 44.68C84.8783 44.1333 85.295 43.7067 85.8216 43.4C86.355 43.0933 86.945 42.94 87.5916 42.94C88.3516 42.94 89.015 43.1233 89.5816 43.49C90.1483 43.8567 90.5616 44.3767 90.8216 45.05H89.7316C89.5383 44.63 89.2583 44.3067 88.8916 44.08C88.5316 43.8533 88.0983 43.74 87.5916 43.74C87.105 43.74 86.6683 43.8533 86.2816 44.08C85.895 44.3067 85.5916 44.63 85.3716 45.05C85.1516 45.4633 85.0416 45.95 85.0416 46.51C85.0416 47.0633 85.1516 47.55 85.3716 47.97C85.5916 48.3833 85.895 48.7033 86.2816 48.93C86.6683 49.1567 87.105 49.27 87.5916 49.27C88.0983 49.27 88.5316 49.16 88.8916 48.94C89.2583 48.7133 89.5383 48.39 89.7316 47.97H90.8216C90.5616 48.6367 90.1483 49.1533 89.5816 49.52C89.015 49.88 88.3516 50.06 87.5916 50.06C86.945 50.06 86.355 49.91 85.8216 49.61C85.295 49.3033 84.8783 48.88 84.5716 48.34C84.265 47.8 84.1116 47.19 84.1116 46.51ZM93.0863 42.6V50H92.1763V42.6H93.0863ZM95.1072 43.63C94.9339 43.63 94.7872 43.57 94.6672 43.45C94.5472 43.33 94.4872 43.1833 94.4872 43.01C94.4872 42.8367 94.5472 42.69 94.6672 42.57C94.7872 42.45 94.9339 42.39 95.1072 42.39C95.2739 42.39 95.4139 42.45 95.5272 42.57C95.6472 42.69 95.7072 42.8367 95.7072 43.01C95.7072 43.1833 95.6472 43.33 95.5272 43.45C95.4139 43.57 95.2739 43.63 95.1072 43.63ZM95.5472 44.52V50H94.6372V44.52H95.5472ZM96.7581 47.25C96.7581 46.6833 96.8715 46.19 97.0981 45.77C97.3248 45.3433 97.6381 45.0133 98.0381 44.78C98.4448 44.5467 98.9081 44.43 99.4281 44.43C100.101 44.43 100.655 44.5933 101.088 44.92C101.528 45.2467 101.818 45.7 101.958 46.28H100.978C100.885 45.9467 100.701 45.6833 100.428 45.49C100.161 45.2967 99.8281 45.2 99.4281 45.2C98.9081 45.2 98.4881 45.38 98.1681 45.74C97.8481 46.0933 97.6881 46.5967 97.6881 47.25C97.6881 47.91 97.8481 48.42 98.1681 48.78C98.4881 49.14 98.9081 49.32 99.4281 49.32C99.8281 49.32 100.161 49.2267 100.428 49.04C100.695 48.8533 100.878 48.5867 100.978 48.24H101.958C101.811 48.8 101.518 49.25 101.078 49.59C100.638 49.9233 100.088 50.09 99.4281 50.09C98.9081 50.09 98.4448 49.9733 98.0381 49.74C97.6381 49.5067 97.3248 49.1767 97.0981 48.75C96.8715 48.3233 96.7581 47.8233 96.7581 47.25ZM106.232 50L104.082 47.58V50H103.172V42.6H104.082V46.95L106.192 44.52H107.462L104.882 47.25L107.472 50H106.232ZM110.645 47.24C110.645 46.68 110.758 46.19 110.985 45.77C111.212 45.3433 111.522 45.0133 111.915 44.78C112.315 44.5467 112.758 44.43 113.245 44.43C113.725 44.43 114.142 44.5333 114.495 44.74C114.848 44.9467 115.112 45.2067 115.285 45.52V44.52H116.205V50H115.285V48.98C115.105 49.3 114.835 49.5667 114.475 49.78C114.122 49.9867 113.708 50.09 113.235 50.09C112.748 50.09 112.308 49.97 111.915 49.73C111.522 49.49 111.212 49.1533 110.985 48.72C110.758 48.2867 110.645 47.7933 110.645 47.24ZM115.285 47.25C115.285 46.8367 115.202 46.4767 115.035 46.17C114.868 45.8633 114.642 45.63 114.355 45.47C114.075 45.3033 113.765 45.22 113.425 45.22C113.085 45.22 112.775 45.3 112.495 45.46C112.215 45.62 111.992 45.8533 111.825 46.16C111.658 46.4667 111.575 46.8267 111.575 47.24C111.575 47.66 111.658 48.0267 111.825 48.34C111.992 48.6467 112.215 48.8833 112.495 49.05C112.775 49.21 113.085 49.29 113.425 49.29C113.765 49.29 114.075 49.21 114.355 49.05C114.642 48.8833 114.868 48.6467 115.035 48.34C115.202 48.0267 115.285 47.6633 115.285 47.25ZM120.413 44.42C121.079 44.42 121.619 44.6233 122.033 45.03C122.446 45.43 122.653 46.01 122.653 46.77V50H121.753V46.9C121.753 46.3533 121.616 45.9367 121.343 45.65C121.069 45.3567 120.696 45.21 120.223 45.21C119.743 45.21 119.359 45.36 119.073 45.66C118.793 45.96 118.653 46.3967 118.653 46.97V50H117.743V44.52H118.653V45.3C118.833 45.02 119.076 44.8033 119.383 44.65C119.696 44.4967 120.039 44.42 120.413 44.42ZM123.799 47.24C123.799 46.68 123.912 46.19 124.139 45.77C124.366 45.3433 124.676 45.0133 125.069 44.78C125.469 44.5467 125.916 44.43 126.409 44.43C126.836 44.43 127.232 44.53 127.599 44.73C127.966 44.9233 128.246 45.18 128.439 45.5V42.6H129.359V50H128.439V48.97C128.259 49.2967 127.992 49.5667 127.639 49.78C127.286 49.9867 126.872 50.09 126.399 50.09C125.912 50.09 125.469 49.97 125.069 49.73C124.676 49.49 124.366 49.1533 124.139 48.72C123.912 48.2867 123.799 47.7933 123.799 47.24ZM128.439 47.25C128.439 46.8367 128.356 46.4767 128.189 46.17C128.022 45.8633 127.796 45.63 127.509 45.47C127.229 45.3033 126.919 45.22 126.579 45.22C126.239 45.22 125.929 45.3 125.649 45.46C125.369 45.62 125.146 45.8533 124.979 46.16C124.812 46.4667 124.729 46.8267 124.729 47.24C124.729 47.66 124.812 48.0267 124.979 48.34C125.146 48.6467 125.369 48.8833 125.649 49.05C125.929 49.21 126.239 49.29 126.579 49.29C126.919 49.29 127.229 49.21 127.509 49.05C127.796 48.8833 128.022 48.6467 128.189 48.34C128.356 48.0267 128.439 47.6633 128.439 47.25ZM135.733 43.03C136.493 43.03 137.15 43.1733 137.703 43.46C138.263 43.74 138.69 44.1433 138.983 44.67C139.283 45.1967 139.433 45.8167 139.433 46.53C139.433 47.2433 139.283 47.8633 138.983 48.39C138.69 48.91 138.263 49.31 137.703 49.59C137.15 49.8633 136.493 50 135.733 50H133.563V43.03H135.733ZM135.733 49.25C136.633 49.25 137.32 49.0133 137.793 48.54C138.266 48.06 138.503 47.39 138.503 46.53C138.503 45.6633 138.263 44.9867 137.783 44.5C137.31 44.0133 136.626 43.77 135.733 43.77H134.473V49.25H135.733ZM141.543 45.41C141.703 45.0967 141.93 44.8533 142.223 44.68C142.523 44.5067 142.887 44.42 143.313 44.42V45.36H143.073C142.053 45.36 141.543 45.9133 141.543 47.02V50H140.633V44.52H141.543V45.41ZM144.024 47.24C144.024 46.68 144.137 46.19 144.364 45.77C144.59 45.3433 144.9 45.0133 145.294 44.78C145.694 44.5467 146.137 44.43 146.624 44.43C147.104 44.43 147.52 44.5333 147.874 44.74C148.227 44.9467 148.49 45.2067 148.664 45.52V44.52H149.584V50H148.664V48.98C148.484 49.3 148.214 49.5667 147.854 49.78C147.5 49.9867 147.087 50.09 146.614 50.09C146.127 50.09 145.687 49.97 145.294 49.73C144.9 49.49 144.59 49.1533 144.364 48.72C144.137 48.2867 144.024 47.7933 144.024 47.24ZM148.664 47.25C148.664 46.8367 148.58 46.4767 148.414 46.17C148.247 45.8633 148.02 45.63 147.734 45.47C147.454 45.3033 147.144 45.22 146.804 45.22C146.464 45.22 146.154 45.3 145.874 45.46C145.594 45.62 145.37 45.8533 145.204 46.16C145.037 46.4667 144.954 46.8267 144.954 47.24C144.954 47.66 145.037 48.0267 145.204 48.34C145.37 48.6467 145.594 48.8833 145.874 49.05C146.154 49.21 146.464 49.29 146.804 49.29C147.144 49.29 147.454 49.21 147.734 49.05C148.02 48.8833 148.247 48.6467 148.414 48.34C148.58 48.0267 148.664 47.6633 148.664 47.25ZM153.382 44.43C153.855 44.43 154.268 44.5333 154.622 44.74C154.982 44.9467 155.248 45.2067 155.422 45.52V44.52H156.342V50.12C156.342 50.62 156.235 51.0633 156.022 51.45C155.808 51.8433 155.502 52.15 155.102 52.37C154.708 52.59 154.248 52.7 153.722 52.7C153.002 52.7 152.402 52.53 151.922 52.19C151.442 51.85 151.158 51.3867 151.072 50.8H151.972C152.072 51.1333 152.278 51.4 152.592 51.6C152.905 51.8067 153.282 51.91 153.722 51.91C154.222 51.91 154.628 51.7533 154.942 51.44C155.262 51.1267 155.422 50.6867 155.422 50.12V48.97C155.242 49.29 154.975 49.5567 154.622 49.77C154.268 49.9833 153.855 50.09 153.382 50.09C152.895 50.09 152.452 49.97 152.052 49.73C151.658 49.49 151.348 49.1533 151.122 48.72C150.895 48.2867 150.782 47.7933 150.782 47.24C150.782 46.68 150.895 46.19 151.122 45.77C151.348 45.3433 151.658 45.0133 152.052 44.78C152.452 44.5467 152.895 44.43 153.382 44.43ZM155.422 47.25C155.422 46.8367 155.338 46.4767 155.172 46.17C155.005 45.8633 154.778 45.63 154.492 45.47C154.212 45.3033 153.902 45.22 153.562 45.22C153.222 45.22 152.912 45.3 152.632 45.46C152.352 45.62 152.128 45.8533 151.962 46.16C151.795 46.4667 151.712 46.8267 151.712 47.24C151.712 47.66 151.795 48.0267 151.962 48.34C152.128 48.6467 152.352 48.8833 152.632 49.05C152.912 49.21 153.222 49.29 153.562 49.29C153.902 49.29 154.212 49.21 154.492 49.05C154.778 48.8833 155.005 48.6467 155.172 48.34C155.338 48.0267 155.422 47.6633 155.422 47.25ZM6.43 65.07C5.78333 65.07 5.19333 64.92 4.66 64.62C4.12667 64.3133 3.70333 63.89 3.39 63.35C3.08333 62.8033 2.93 62.19 2.93 61.51C2.93 60.83 3.08333 60.22 3.39 59.68C3.70333 59.1333 4.12667 58.71 4.66 58.41C5.19333 58.1033 5.78333 57.95 6.43 57.95C7.08333 57.95 7.67667 58.1033 8.21 58.41C8.74333 58.71 9.16333 59.13 9.47 59.67C9.77667 60.21 9.93 60.8233 9.93 61.51C9.93 62.1967 9.77667 62.81 9.47 63.35C9.16333 63.89 8.74333 64.3133 8.21 64.62C7.67667 64.92 7.08333 65.07 6.43 65.07ZM6.43 64.28C6.91667 64.28 7.35333 64.1667 7.74 63.94C8.13333 63.7133 8.44 63.39 8.66 62.97C8.88667 62.55 9 62.0633 9 61.51C9 60.95 8.88667 60.4633 8.66 60.05C8.44 59.63 8.13667 59.3067 7.75 59.08C7.36333 58.8533 6.92333 58.74 6.43 58.74C5.93667 58.74 5.49667 58.8533 5.11 59.08C4.72333 59.3067 4.41667 59.63 4.19 60.05C3.97 60.4633 3.86 60.95 3.86 61.51C3.86 62.0633 3.97 62.55 4.19 62.97C4.41667 63.39 4.72333 63.7133 5.11 63.94C5.50333 64.1667 5.94333 64.28 6.43 64.28ZM14.8013 65L13.1413 62.15H12.0413V65H11.1313V58.03H13.3813C13.908 58.03 14.3513 58.12 14.7113 58.3C15.078 58.48 15.3513 58.7233 15.5313 59.03C15.7113 59.3367 15.8013 59.6867 15.8013 60.08C15.8013 60.56 15.6613 60.9833 15.3813 61.35C15.108 61.7167 14.6947 61.96 14.1413 62.08L15.8913 65H14.8013ZM12.0413 61.42H13.3813C13.8747 61.42 14.2447 61.3 14.4913 61.06C14.738 60.8133 14.8613 60.4867 14.8613 60.08C14.8613 59.6667 14.738 59.3467 14.4913 59.12C14.2513 58.8933 13.8813 58.78 13.3813 58.78H12.0413V61.42ZM26.9513 58.08V65H26.0413V59.84L23.7413 65H23.1013L20.7913 59.83V65H19.8813V58.08H20.8613L23.4213 63.8L25.9813 58.08H26.9513ZM28.9646 58.63C28.7913 58.63 28.6446 58.57 28.5246 58.45C28.4046 58.33 28.3446 58.1833 28.3446 58.01C28.3446 57.8367 28.4046 57.69 28.5246 57.57C28.6446 57.45 28.7913 57.39 28.9646 57.39C29.1313 57.39 29.2713 57.45 29.3846 57.57C29.5046 57.69 29.5646 57.8367 29.5646 58.01C29.5646 58.1833 29.5046 58.33 29.3846 58.45C29.2713 58.57 29.1313 58.63 28.9646 58.63ZM29.4046 59.52V65H28.4946V59.52H29.4046ZM30.6155 62.24C30.6155 61.68 30.7289 61.19 30.9555 60.77C31.1822 60.3433 31.4922 60.0133 31.8855 59.78C32.2855 59.5467 32.7322 59.43 33.2255 59.43C33.6522 59.43 34.0489 59.53 34.4155 59.73C34.7822 59.9233 35.0622 60.18 35.2555 60.5V57.6H36.1755V65H35.2555V63.97C35.0755 64.2967 34.8089 64.5667 34.4555 64.78C34.1022 64.9867 33.6889 65.09 33.2155 65.09C32.7289 65.09 32.2855 64.97 31.8855 64.73C31.4922 64.49 31.1822 64.1533 30.9555 63.72C30.7289 63.2867 30.6155 62.7933 30.6155 62.24ZM35.2555 62.25C35.2555 61.8367 35.1722 61.4767 35.0055 61.17C34.8389 60.8633 34.6122 60.63 34.3255 60.47C34.0455 60.3033 33.7355 60.22 33.3955 60.22C33.0555 60.22 32.7455 60.3 32.4655 60.46C32.1855 60.62 31.9622 60.8533 31.7955 61.16C31.6289 61.4667 31.5455 61.8267 31.5455 62.24C31.5455 62.66 31.6289 63.0267 31.7955 63.34C31.9622 63.6467 32.1855 63.8833 32.4655 64.05C32.7455 64.21 33.0555 64.29 33.3955 64.29C33.7355 64.29 34.0455 64.21 34.3255 64.05C34.6122 63.8833 34.8389 63.6467 35.0055 63.34C35.1722 63.0267 35.2555 62.6633 35.2555 62.25ZM37.3734 62.24C37.3734 61.68 37.4867 61.19 37.7134 60.77C37.94 60.3433 38.25 60.0133 38.6434 59.78C39.0434 59.5467 39.49 59.43 39.9834 59.43C40.41 59.43 40.8067 59.53 41.1734 59.73C41.54 59.9233 41.82 60.18 42.0134 60.5V57.6H42.9334V65H42.0134V63.97C41.8334 64.2967 41.5667 64.5667 41.2134 64.78C40.86 64.9867 40.4467 65.09 39.9734 65.09C39.4867 65.09 39.0434 64.97 38.6434 64.73C38.25 64.49 37.94 64.1533 37.7134 63.72C37.4867 63.2867 37.3734 62.7933 37.3734 62.24ZM42.0134 62.25C42.0134 61.8367 41.93 61.4767 41.7634 61.17C41.5967 60.8633 41.37 60.63 41.0834 60.47C40.8034 60.3033 40.4934 60.22 40.1534 60.22C39.8134 60.22 39.5034 60.3 39.2234 60.46C38.9434 60.62 38.72 60.8533 38.5534 61.16C38.3867 61.4667 38.3034 61.8267 38.3034 62.24C38.3034 62.66 38.3867 63.0267 38.5534 63.34C38.72 63.6467 38.9434 63.8833 39.2234 64.05C39.5034 64.21 39.8134 64.29 40.1534 64.29C40.4934 64.29 40.8034 64.21 41.0834 64.05C41.37 63.8833 41.5967 63.6467 41.7634 63.34C41.93 63.0267 42.0134 62.6633 42.0134 62.25ZM45.3812 57.6V65H44.4712V57.6H45.3812ZM51.9321 62.05C51.9321 62.2233 51.9221 62.4067 51.9021 62.6H47.5221C47.5554 63.14 47.7388 63.5633 48.0721 63.87C48.4121 64.17 48.8221 64.32 49.3021 64.32C49.6954 64.32 50.0221 64.23 50.2821 64.05C50.5488 63.8633 50.7354 63.6167 50.8421 63.31H51.8221C51.6754 63.8367 51.3821 64.2667 50.9421 64.6C50.5021 64.9267 49.9554 65.09 49.3021 65.09C48.7821 65.09 48.3154 64.9733 47.9021 64.74C47.4954 64.5067 47.1754 64.1767 46.9421 63.75C46.7088 63.3167 46.5921 62.8167 46.5921 62.25C46.5921 61.6833 46.7054 61.1867 46.9321 60.76C47.1588 60.3333 47.4754 60.0067 47.8821 59.78C48.2954 59.5467 48.7688 59.43 49.3021 59.43C49.8221 59.43 50.2821 59.5433 50.6821 59.77C51.0821 59.9967 51.3888 60.31 51.6021 60.71C51.8221 61.1033 51.9321 61.55 51.9321 62.05ZM50.9921 61.86C50.9921 61.5133 50.9154 61.2167 50.7621 60.97C50.6088 60.7167 50.3988 60.5267 50.1321 60.4C49.8721 60.2667 49.5821 60.2 49.2621 60.2C48.8021 60.2 48.4088 60.3467 48.0821 60.64C47.7621 60.9333 47.5788 61.34 47.5321 61.86H50.9921ZM55.4593 61.51C55.4593 60.83 55.6126 60.22 55.9193 59.68C56.226 59.1333 56.6426 58.7067 57.1693 58.4C57.7026 58.0933 58.2926 57.94 58.9393 57.94C59.6993 57.94 60.3626 58.1233 60.9293 58.49C61.496 58.8567 61.9093 59.3767 62.1693 60.05H61.0793C60.886 59.63 60.606 59.3067 60.2393 59.08C59.8793 58.8533 59.446 58.74 58.9393 58.74C58.4526 58.74 58.016 58.8533 57.6293 59.08C57.2426 59.3067 56.9393 59.63 56.7193 60.05C56.4993 60.4633 56.3893 60.95 56.3893 61.51C56.3893 62.0633 56.4993 62.55 56.7193 62.97C56.9393 63.3833 57.2426 63.7033 57.6293 63.93C58.016 64.1567 58.4526 64.27 58.9393 64.27C59.446 64.27 59.8793 64.16 60.2393 63.94C60.606 63.7133 60.886 63.39 61.0793 62.97H62.1693C61.9093 63.6367 61.496 64.1533 60.9293 64.52C60.3626 64.88 59.6993 65.06 58.9393 65.06C58.2926 65.06 57.7026 64.91 57.1693 64.61C56.6426 64.3033 56.226 63.88 55.9193 63.34C55.6126 62.8 55.4593 62.19 55.4593 61.51ZM64.4339 57.6V65H63.5239V57.6H64.4339ZM66.4548 58.63C66.2815 58.63 66.1348 58.57 66.0148 58.45C65.8948 58.33 65.8348 58.1833 65.8348 58.01C65.8348 57.8367 65.8948 57.69 66.0148 57.57C66.1348 57.45 66.2815 57.39 66.4548 57.39C66.6215 57.39 66.7615 57.45 66.8748 57.57C66.9948 57.69 67.0548 57.8367 67.0548 58.01C67.0548 58.1833 66.9948 58.33 66.8748 58.45C66.7615 58.57 66.6215 58.63 66.4548 58.63ZM66.8948 59.52V65H65.9848V59.52H66.8948ZM68.1058 62.25C68.1058 61.6833 68.2191 61.19 68.4458 60.77C68.6724 60.3433 68.9858 60.0133 69.3858 59.78C69.7924 59.5467 70.2558 59.43 70.7758 59.43C71.4491 59.43 72.0024 59.5933 72.4358 59.92C72.8758 60.2467 73.1658 60.7 73.3058 61.28H72.3258C72.2324 60.9467 72.0491 60.6833 71.7758 60.49C71.5091 60.2967 71.1758 60.2 70.7758 60.2C70.2558 60.2 69.8358 60.38 69.5158 60.74C69.1958 61.0933 69.0358 61.5967 69.0358 62.25C69.0358 62.91 69.1958 63.42 69.5158 63.78C69.8358 64.14 70.2558 64.32 70.7758 64.32C71.1758 64.32 71.5091 64.2267 71.7758 64.04C72.0424 63.8533 72.2258 63.5867 72.3258 63.24H73.3058C73.1591 63.8 72.8658 64.25 72.4258 64.59C71.9858 64.9233 71.4358 65.09 70.7758 65.09C70.2558 65.09 69.7924 64.9733 69.3858 64.74C68.9858 64.5067 68.6724 64.1767 68.4458 63.75C68.2191 63.3233 68.1058 62.8233 68.1058 62.25ZM77.58 65L75.43 62.58V65H74.52V57.6H75.43V61.95L77.54 59.52H78.81L76.23 62.25L78.82 65H77.58ZM81.9925 62.24C81.9925 61.68 82.1058 61.19 82.3325 60.77C82.5592 60.3433 82.8692 60.0133 83.2625 59.78C83.6625 59.5467 84.1058 59.43 84.5925 59.43C85.0725 59.43 85.4892 59.5333 85.8425 59.74C86.1958 59.9467 86.4592 60.2067 86.6325 60.52V59.52H87.5525V65H86.6325V63.98C86.4525 64.3 86.1825 64.5667 85.8225 64.78C85.4692 64.9867 85.0558 65.09 84.5825 65.09C84.0958 65.09 83.6558 64.97 83.2625 64.73C82.8692 64.49 82.5592 64.1533 82.3325 63.72C82.1058 63.2867 81.9925 62.7933 81.9925 62.24ZM86.6325 62.25C86.6325 61.8367 86.5492 61.4767 86.3825 61.17C86.2158 60.8633 85.9892 60.63 85.7025 60.47C85.4225 60.3033 85.1125 60.22 84.7725 60.22C84.4325 60.22 84.1225 60.3 83.8425 60.46C83.5625 60.62 83.3392 60.8533 83.1725 61.16C83.0058 61.4667 82.9225 61.8267 82.9225 62.24C82.9225 62.66 83.0058 63.0267 83.1725 63.34C83.3392 63.6467 83.5625 63.8833 83.8425 64.05C84.1225 64.21 84.4325 64.29 84.7725 64.29C85.1125 64.29 85.4225 64.21 85.7025 64.05C85.9892 63.8833 86.2158 63.6467 86.3825 63.34C86.5492 63.0267 86.6325 62.6633 86.6325 62.25ZM91.7603 59.42C92.427 59.42 92.967 59.6233 93.3803 60.03C93.7936 60.43 94.0003 61.01 94.0003 61.77V65H93.1003V61.9C93.1003 61.3533 92.9636 60.9367 92.6903 60.65C92.417 60.3567 92.0436 60.21 91.5703 60.21C91.0903 60.21 90.707 60.36 90.4203 60.66C90.1403 60.96 90.0003 61.3967 90.0003 61.97V65H89.0903V59.52H90.0003V60.3C90.1803 60.02 90.4236 59.8033 90.7303 59.65C91.0436 59.4967 91.387 59.42 91.7603 59.42ZM95.1468 62.24C95.1468 61.68 95.2601 61.19 95.4868 60.77C95.7135 60.3433 96.0235 60.0133 96.4168 59.78C96.8168 59.5467 97.2635 59.43 97.7568 59.43C98.1835 59.43 98.5801 59.53 98.9468 59.73C99.3135 59.9233 99.5935 60.18 99.7868 60.5V57.6H100.707V65H99.7868V63.97C99.6068 64.2967 99.3401 64.5667 98.9868 64.78C98.6335 64.9867 98.2201 65.09 97.7468 65.09C97.2601 65.09 96.8168 64.97 96.4168 64.73C96.0235 64.49 95.7135 64.1533 95.4868 63.72C95.2601 63.2867 95.1468 62.7933 95.1468 62.24ZM99.7868 62.25C99.7868 61.8367 99.7035 61.4767 99.5368 61.17C99.3701 60.8633 99.1435 60.63 98.8568 60.47C98.5768 60.3033 98.2668 60.22 97.9268 60.22C97.5868 60.22 97.2768 60.3 96.9968 60.46C96.7168 60.62 96.4935 60.8533 96.3268 61.16C96.1601 61.4667 96.0768 61.8267 96.0768 62.24C96.0768 62.66 96.1601 63.0267 96.3268 63.34C96.4935 63.6467 96.7168 63.8833 96.9968 64.05C97.2768 64.21 97.5868 64.29 97.9268 64.29C98.2668 64.29 98.5768 64.21 98.8568 64.05C99.1435 63.8833 99.3701 63.6467 99.5368 63.34C99.7035 63.0267 99.7868 62.6633 99.7868 62.25ZM107.081 58.03C107.841 58.03 108.497 58.1733 109.051 58.46C109.611 58.74 110.037 59.1433 110.331 59.67C110.631 60.1967 110.781 60.8167 110.781 61.53C110.781 62.2433 110.631 62.8633 110.331 63.39C110.037 63.91 109.611 64.31 109.051 64.59C108.497 64.8633 107.841 65 107.081 65H104.911V58.03H107.081ZM107.081 64.25C107.981 64.25 108.667 64.0133 109.141 63.54C109.614 63.06 109.851 62.39 109.851 61.53C109.851 60.6633 109.611 59.9867 109.131 59.5C108.657 59.0133 107.974 58.77 107.081 58.77H105.821V64.25H107.081ZM112.891 60.41C113.051 60.0967 113.278 59.8533 113.571 59.68C113.871 59.5067 114.234 59.42 114.661 59.42V60.36H114.421C113.401 60.36 112.891 60.9133 112.891 62.02V65H111.981V59.52H112.891V60.41ZM115.371 62.24C115.371 61.68 115.485 61.19 115.711 60.77C115.938 60.3433 116.248 60.0133 116.641 59.78C117.041 59.5467 117.485 59.43 117.971 59.43C118.451 59.43 118.868 59.5333 119.221 59.74C119.575 59.9467 119.838 60.2067 120.011 60.52V59.52H120.931V65H120.011V63.98C119.831 64.3 119.561 64.5667 119.201 64.78C118.848 64.9867 118.435 65.09 117.961 65.09C117.475 65.09 117.035 64.97 116.641 64.73C116.248 64.49 115.938 64.1533 115.711 63.72C115.485 63.2867 115.371 62.7933 115.371 62.24ZM120.011 62.25C120.011 61.8367 119.928 61.4767 119.761 61.17C119.595 60.8633 119.368 60.63 119.081 60.47C118.801 60.3033 118.491 60.22 118.151 60.22C117.811 60.22 117.501 60.3 117.221 60.46C116.941 60.62 116.718 60.8533 116.551 61.16C116.385 61.4667 116.301 61.8267 116.301 62.24C116.301 62.66 116.385 63.0267 116.551 63.34C116.718 63.6467 116.941 63.8833 117.221 64.05C117.501 64.21 117.811 64.29 118.151 64.29C118.491 64.29 118.801 64.21 119.081 64.05C119.368 63.8833 119.595 63.6467 119.761 63.34C119.928 63.0267 120.011 62.6633 120.011 62.25ZM124.729 59.43C125.203 59.43 125.616 59.5333 125.969 59.74C126.329 59.9467 126.596 60.2067 126.769 60.52V59.52H127.689V65.12C127.689 65.62 127.583 66.0633 127.369 66.45C127.156 66.8433 126.849 67.15 126.449 67.37C126.056 67.59 125.596 67.7 125.069 67.7C124.349 67.7 123.749 67.53 123.269 67.19C122.789 66.85 122.506 66.3867 122.419 65.8H123.319C123.419 66.1333 123.626 66.4 123.939 66.6C124.253 66.8067 124.629 66.91 125.069 66.91C125.569 66.91 125.976 66.7533 126.289 66.44C126.609 66.1267 126.769 65.6867 126.769 65.12V63.97C126.589 64.29 126.323 64.5567 125.969 64.77C125.616 64.9833 125.203 65.09 124.729 65.09C124.243 65.09 123.799 64.97 123.399 64.73C123.006 64.49 122.696 64.1533 122.469 63.72C122.243 63.2867 122.129 62.7933 122.129 62.24C122.129 61.68 122.243 61.19 122.469 60.77C122.696 60.3433 123.006 60.0133 123.399 59.78C123.799 59.5467 124.243 59.43 124.729 59.43ZM126.769 62.25C126.769 61.8367 126.686 61.4767 126.519 61.17C126.353 60.8633 126.126 60.63 125.839 60.47C125.559 60.3033 125.249 60.22 124.909 60.22C124.569 60.22 124.259 60.3 123.979 60.46C123.699 60.62 123.476 60.8533 123.309 61.16C123.143 61.4667 123.059 61.8267 123.059 62.24C123.059 62.66 123.143 63.0267 123.309 63.34C123.476 63.6467 123.699 63.8833 123.979 64.05C124.259 64.21 124.569 64.29 124.909 64.29C125.249 64.29 125.559 64.21 125.839 64.05C126.126 63.8833 126.353 63.6467 126.519 63.34C126.686 63.0267 126.769 62.6633 126.769 62.25Z" fill="#2E3134"/>
<circle cx="283" cy="79.4004" r="5" fill="white" stroke="#0024FC" stroke-width="2"/>
<circle cx="283" cy="47.4004" r="5" fill="white" stroke="#0024FC" stroke-width="2"/>
<circle cx="311" cy="30.4004" r="5" fill="white" stroke="#0024FC" stroke-width="2"/>
<circle cx="254" cy="30.4004" r="5" fill="white" stroke="#0024FC" stroke-width="2"/>
</svg>
