<svg id="billingIcon" xmlns="http://www.w3.org/2000/svg" viewBox="0 0 50 30" aria-labelledby="billing-icon"  aria-describedby="billing-icon-desc">
	<title id="billing-icon">Billing</title>
	<desc id="billing-icon-desc">Icon that links to billing and credits information.</desc>
<defs>
  <style>.blue--fill,.cls-3{fill-rule:evenodd;}.cls-3{fill:#fff;}</style>
</defs>
<g>
  <path class="cls-3" d="M7.02,6.41c-1.06,.23-1.73,1.27-1.51,2.33l2.66,12.47c.23,1.06,1.27,1.73,2.33,1.51l22.19-4.74c1.06-.23,1.74-1.27,1.51-2.33l-2.66-12.47c-.23-1.06-1.27-1.74-2.33-1.51L7.02,6.41h0Z"/>
  <path d="M10.09,23.23c-.46,0-.92-.13-1.32-.39-.55-.35-.92-.9-1.06-1.53l-2.66-12.47c-.14-.63-.02-1.28,.34-1.83,.35-.55,.9-.92,1.53-1.06L29.11,1.21c.63-.14,1.28-.02,1.83,.34,.55,.35,.92,.9,1.06,1.53l2.66,12.47c.28,1.31-.56,2.61-1.87,2.89l-22.19,4.74c-.17,.04-.34,.05-.51,.05ZM7.12,6.87c-.39,.08-.72,.31-.94,.65-.22,.34-.29,.73-.21,1.12l2.66,12.47c.08,.39,.31,.72,.65,.94,.34,.22,.73,.29,1.12,.21l22.19-4.74c.8-.17,1.32-.96,1.15-1.77l-2.66-12.47c-.08-.39-.31-.72-.65-.94-.34-.22-.74-.29-1.12-.21L7.12,6.87Z"/>
</g>
<path class="blue--fill" d="M31.9,6.93l-.54-2.54c-.04-.17-.19-.27-.34-.23L6.46,9.4c-.15,.03-.25,.19-.22,.35l.54,2.54c.03,.16,.19,.27,.34,.23L31.68,7.29c.15-.03,.25-.19,.22-.36h0Z"/>
<g>
  <path class="cls-3" d="M19.87,11.7c-1.08,0-1.96,.88-1.96,1.96v12.75c0,1.08,.88,1.96,1.96,1.96h22.69c1.08,0,1.96-.88,1.96-1.96V13.66c0-1.08-.88-1.96-1.96-1.96H19.87Z"/>
  <path d="M42.56,28.85H19.87c-1.34,0-2.43-1.09-2.43-2.43V13.66c0-1.34,1.09-2.44,2.43-2.44h22.69c1.34,0,2.44,1.09,2.44,2.44v12.75c0,1.34-1.09,2.43-2.44,2.43ZM19.87,12.17c-.82,0-1.49,.67-1.49,1.49v12.75c0,.82,.67,1.49,1.49,1.49h22.69c.82,0,1.49-.67,1.49-1.49V13.66c0-.82-.67-1.49-1.49-1.49H19.87Z"/>
</g>
<g class="blue--fill">
  <path d="M42.09,17.41v-2.6c0-.17-.13-.3-.3-.3h-5.81c-.17,0-.3,.14-.3,.3v2.6c0,.17,.14,.3,.3,.3h5.81c.16,0,.3-.13,.3-.3h0Z"/>
  <path d="M37.81,25.28c-.17,0-.31-.14-.31-.3v-.6c0-.17,.14-.3,.31-.3h3.97c.17,0,.3,.14,.3,.3v.6c0,.17-.14,.3-.3,.3h-3.97Z"/>
  <path d="M32.26,25.28c-.17,0-.3-.14-.3-.3v-.6c0-.17,.14-.3,.3-.3h3.98c.17,0,.3,.14,.3,.3v.6c0,.17-.14,.3-.3,.3h-3.98Z"/>
  <path d="M26.72,25.28c-.17,0-.3-.14-.3-.3v-.6c0-.17,.14-.3,.3-.3h3.98c.17,0,.3,.14,.3,.3v.6c0,.17-.14,.3-.3,.3h-3.98Z"/>
</g>
<rect class="blue--fill" x="20.87" y="24.08" width="4.58" height="1.2" rx=".3" ry=".3"/>
</svg>