<svg width="40" height="40" viewBox="0 0 40 40" fill="none" xmlns="http://www.w3.org/2000/svg">
<circle cx="20" cy="20" r="20" fill="white"/>
<g clip-path="url(#clip0_192_2299)">
<path d="M21.119 16.0173C18.8884 16.0173 16.9515 17.3057 15.9727 19.1971C14.9939 17.3056 13.0571 16.0174 10.8266 16.0174C9.51554 16.0174 8.30574 16.4624 7.33233 17.2134V12.1724H7.33179C7.31817 11.5228 6.80221 11 6.16655 11C5.53083 11 5.015 11.5228 5.00152 12.1724H5.00098V22.1012H5.0034C5.05519 25.3604 7.64156 27.9869 10.8265 27.9869C13.057 27.9869 14.9939 26.6983 15.9727 24.8068C16.9515 26.6984 18.8884 27.9868 21.1189 27.9868C24.3363 27.9868 26.9445 25.3071 26.9445 22.0021C26.9446 18.6966 24.3362 16.0173 21.119 16.0173ZM10.8265 25.5917C8.89661 25.5917 7.33226 23.9846 7.33226 22.0021C7.33226 20.0194 8.89668 18.4123 10.8265 18.4123C12.7564 18.4123 14.3208 20.0194 14.3208 22.0021C14.3208 23.9846 12.7564 25.5917 10.8265 25.5917ZM21.119 25.5917C19.1891 25.5917 17.6248 23.9846 17.6248 22.002C17.6248 20.0193 19.1892 18.4123 21.119 18.4123C23.0488 18.4123 24.6133 20.0193 24.6133 22.002C24.6133 23.9846 23.0488 25.5917 21.119 25.5917Z" fill="#0075C9"/>
<path d="M34.7808 26.1032L31.7974 22.0063L34.7808 17.9094L34.7803 17.9089C35.1493 17.3811 35.0424 16.6448 34.534 16.2524C34.0258 15.8605 33.3077 15.96 32.9171 16.4711L32.9168 16.471L30.3419 20.0071L27.7669 16.471L27.7665 16.4716C27.3759 15.96 26.6579 15.8605 26.1495 16.2527C25.6411 16.6451 25.5342 17.3813 25.9034 17.909L25.9029 17.9094L28.8863 22.0063L25.9029 26.1032L25.9034 26.1036C25.5341 26.6314 25.6411 27.3675 26.1495 27.7598C26.6579 28.1521 27.3759 28.0524 27.7665 27.5412L27.7669 27.5417L30.3419 24.0055L32.9168 27.5417L32.9171 27.5416C33.3078 28.0526 34.0258 28.1521 34.534 27.76C35.0424 27.3678 35.1493 26.6315 34.7803 26.1038L34.7808 26.1032Z" fill="#0075C9"/>
</g>
<defs>
<clipPath id="clip0_192_2299">
<rect width="30" height="17" fill="white" transform="translate(5 11)"/>
</clipPath>
</defs>
</svg>
