<svg viewBox="0 0 34 30" fill="none" xmlns="http://www.w3.org/2000/svg">
    <path fill-rule="evenodd" clip-rule="evenodd" fill="currentColor"
        d="M12.42 4.916a.45.45 0 0 1 .492.439v.96c0 .408.532.613.843.324l2.432-2.26a.436.436 0 0 0 0-.65l-2.432-2.26c-.31-.29-.843-.085-.843.324v.96c0 .253-.221.457-.493.474-3.774.236-6.754 3.154-6.754 6.722V12h1.812V9.949c0-2.633 2.174-4.8 4.942-5.033M3 13.333c-1.473 0-2.667 1.146-2.667 2.56v10.88c0 1.414 1.194 2.56 2.667 2.56h18.666c1.473 0 2.667-1.146 2.667-2.56v-10.88c0-1.414-1.194-2.56-2.667-2.56zm0 13.44v-10.88h18.666v10.88z" />
    <path fill-rule="evenodd" clip-rule="evenodd" fill="currentColor"
        d="M17.666 12V2.667c0-1.473 1.146-2.667 2.56-2.667h10.88c1.414 0 2.56 1.194 2.56 2.667v18.666c0 1.473-1.146 2.667-2.56 2.667h-5.44v-2.667h5.44V2.667h-10.88V12z" />
</svg>