<?xml version="1.0" encoding="utf-8"?>
<svg xmlns="http://www.w3.org/2000/svg" viewBox="0.027 0.027 23.946 23.946" width="23.946px" height="23.946px" fill="#FFFFFF">
    <path d="M 10.324 14.155 L 7.75 11.581 C 7.53 11.361 7.251 11.252 6.911 11.252 C 6.573 11.252 6.293 11.361 6.073 11.581 C 5.854 11.8 5.745 12.08 5.745 12.419 C 5.745 12.758 5.854 13.038 6.073 13.257 L 9.486 16.67 C 9.725 16.908 10.004 17.029 10.324 17.029 C 10.643 17.029 10.923 16.908 11.162 16.67 L 17.927 9.905 C 18.146 9.685 18.255 9.406 18.255 9.067 C 18.255 8.727 18.146 8.448 17.927 8.228 C 17.707 8.009 17.427 7.9 17.089 7.9 C 16.749 7.9 16.47 8.009 16.25 8.228 L 10.324 14.155 Z M 12 23.973 C 10.344 23.973 8.788 23.659 7.33 23.029 C 5.874 22.402 4.607 21.549 3.53 20.47 C 2.451 19.393 1.598 18.126 0.971 16.67 C 0.341 15.212 0.027 13.656 0.027 12 C 0.027 10.344 0.341 8.788 0.971 7.33 C 1.598 5.874 2.451 4.607 3.53 3.53 C 4.607 2.451 5.874 1.598 7.33 0.971 C 8.788 0.341 10.344 0.027 12 0.027 C 13.656 0.027 15.212 0.341 16.67 0.971 C 18.126 1.598 19.393 2.451 20.47 3.53 C 21.549 4.607 22.402 5.874 23.029 7.33 C 23.659 8.788 23.973 10.344 23.973 12 C 23.973 13.656 23.659 15.212 23.029 16.67 C 22.402 18.126 21.549 19.393 20.47 20.47 C 19.393 21.549 18.126 22.402 16.67 23.029 C 15.212 23.659 13.656 23.973 12 23.973 Z M 12 21.579 C 14.674 21.579 16.938 20.651 18.795 18.795 C 20.651 16.938 21.579 14.674 21.579 12 C 21.579 9.326 20.651 7.062 18.795 5.205 C 16.938 3.349 14.674 2.421 12 2.421 C 9.326 2.421 7.062 3.349 5.205 5.205 C 3.349 7.062 2.421 9.326 2.421 12 C 2.421 14.674 3.349 16.938 5.205 18.795 C 7.062 20.651 9.326 21.579 12 21.579 Z"/>
</svg>