<?xml version="1.0" encoding="UTF-8"?><svg id="Layer_1" xmlns="http://www.w3.org/2000/svg" viewBox="0 0 12.7 21.87"><defs><style>.checklist-template-battery-cls-1{fill:#34383c;stroke-width:0px;}</style></defs><path class="checklist-template-battery-cls-1" d="M10.65,2.77h-1.6v-.44c0-.57-.49-1.03-1.08-1.03h-3.25c-.6,0-1.08.46-1.08,1.03v.44h-1.6c-.6,0-1.08.49-1.08,1.08v15.65c0,.6.49,1.08,1.08,1.08h8.61c.6,0,1.08-.49,1.08-1.08V3.85c0-.6-.49-1.08-1.08-1.08ZM9.85,9.51l-5.94,7.95c-.06.08-.15.12-.24.12h0s-.09-.01-.13-.03c-.13-.06-.19-.21-.15-.35l1.68-5.48h-1.99c-.11,0-.21-.06-.26-.16-.05-.1-.04-.22.02-.31l4.85-6.83c.08-.12.24-.16.37-.1.13.06.2.21.16.35l-1.2,4.34,2.6.03c.11,0,.21.06.26.16.05.1.04.22-.03.31ZM4.23,2.32c0-.24.22-.44.49-.44h3.25c.27,0,.49.2.49.44v.44h-4.23v-.44Z"/></svg>
