<?xml version="1.0" encoding="utf-8"?>
<!-- Generator: Adobe Illustrator 28.0.0, SVG Export Plug-In . SVG Version: 6.00 Build 0)  -->
<svg version="1.1" id="Layer_1" xmlns="http://www.w3.org/2000/svg" xmlns:xlink="http://www.w3.org/1999/xlink" x="0px" y="0px"
	 viewBox="0 0 75 75" style="enable-background:new 0 0 75 75;" xml:space="preserve">
<style type="text/css">
	.st0{fill:#F7F7F7;}
	.st1{fill:#34383C;}
	.st2{fill:#FFFFFF;}
	.st3{fill-rule:evenodd;clip-rule:evenodd;fill:#34383C;}
	.st4{fill-rule:evenodd;clip-rule:evenodd;fill:#FFFFFF;}
	.st5{fill:#2E3134;}
	.st6{fill-rule:evenodd;clip-rule:evenodd;fill:#0A23F3;}
	.st7{fill:#2E3134;stroke:#2E3134;stroke-width:0.75;stroke-miterlimit:10;}
	.st8{fill:#0A23F3;}
	.st9{fill:#34383B;}
	.st10{fill:#0024FC;}
	.st11{fill:#0024FA;}
	.st12{fill:none;stroke:#0024FC;stroke-width:2;stroke-linecap:round;stroke-linejoin:round;stroke-miterlimit:10;}
	.st13{fill:#0025FC;}
	.st14{fill:#292B2E;stroke:#2E3134;stroke-miterlimit:10;}
	.st15{fill:#292B2E;stroke:#FFFFFF;stroke-width:0.2114;stroke-miterlimit:10;}
</style>
<g>
	<path class="st5" d="M15.6,68.77c-5.17,0-9.37-4.2-9.37-9.37V15.6c0-5.17,4.2-9.37,9.37-9.37h43.8c5.17,0,9.37,4.2,9.37,9.37v43.8
		c0,5.17-4.2,9.37-9.37,9.37H15.6z M21.67,50.56c-0.16,0-0.4,0.04-0.62,0.25c-0.37,0.34-0.4,0.93-0.06,1.31
		c4.13,4.55,10.01,7.16,16.14,7.16c12.01,0,21.78-9.77,21.78-21.78c0-12-9.77-21.76-21.78-21.76c0,0,0,0,0,0
		c-6.8,0-13.07,3.06-17.19,8.39l-1.97,2.55v-7.71c0-0.52-0.41-0.92-0.92-0.92s-0.92,0.41-0.92,0.92v9.64c0,0.52,0.41,0.93,0.92,0.93
		h9.64c0.52,0,0.92-0.41,0.92-0.93c0-0.52-0.41-0.92-0.92-0.92h-7.02l1.23-1.74c3.71-5.24,9.78-8.37,16.23-8.37
		c10.99,0,19.93,8.93,19.93,19.91c0,10.99-8.94,19.93-19.93,19.93c-5.62,0-11-2.39-14.77-6.55C22.17,50.67,21.93,50.56,21.67,50.56z
		 M38.18,23.95c-0.52,0-0.93,0.41-0.93,0.92v13.32l-7.01,6.6c-0.18,0.17-0.28,0.39-0.29,0.64c-0.01,0.25,0.08,0.49,0.25,0.67
		c0.17,0.18,0.42,0.29,0.67,0.29c0.23,0,0.47-0.1,0.65-0.26l7.29-6.86c0.18-0.17,0.29-0.42,0.29-0.67V24.87
		C39.1,24.35,38.7,23.95,38.18,23.95z"/>
	<path class="st2" d="M59.4,7.33c4.56,0,8.27,3.71,8.27,8.27v43.8c0,4.56-3.71,8.27-8.27,8.27H15.6c-4.56,0-8.27-3.71-8.27-8.27
		V15.6c0-4.56,3.71-8.27,8.27-8.27H59.4 M19.05,23.45v-4.48c0-1.12-0.9-2.03-2.03-2.03S15,17.84,15,18.97v9.64
		c0,1.12,0.9,2.03,2.03,2.03h9.64c1.12,0,2.03-0.9,2.03-2.03c0-1.12-0.9-2.03-2.03-2.03h-4.89c3.5-4.93,9.13-7.9,15.34-7.9
		c10.39,0,18.83,8.44,18.83,18.81c0,10.39-8.44,18.83-18.83,18.83c-5.3,0-10.39-2.25-13.95-6.19c-0.4-0.45-0.95-0.67-1.5-0.67
		c-0.48,0-0.97,0.18-1.36,0.53c-0.82,0.76-0.89,2.04-0.14,2.87c4.34,4.78,10.51,7.52,16.96,7.52C49.74,60.37,60,50.11,60,37.49
		c0-12.6-10.26-22.87-22.88-22.87l0,0C29.91,14.63,23.33,17.92,19.05,23.45 M30.88,47.48c0.49,0,1-0.19,1.39-0.55l0,0l7.3-6.87
		c0.4-0.38,0.63-0.92,0.63-1.47V24.87c0-1.12-0.9-2.03-2.03-2.03c-1.12,0-2.03,0.9-2.03,2.03l0,12.84l-6.67,6.27
		c-0.81,0.76-0.85,2.04-0.08,2.87C29.8,47.26,30.34,47.48,30.88,47.48 M59.4,5.13H15.6c-5.77,0-10.47,4.7-10.47,10.47v43.8
		c0,5.77,4.7,10.47,10.47,10.47h43.8c5.77,0,10.47-4.7,10.47-10.47V15.6C69.87,9.82,65.18,5.13,59.4,5.13L59.4,5.13z"/>
</g>
</svg>
