<svg width="19" height="20" viewBox="0 0 19 20" fill="none" xmlns="http://www.w3.org/2000/svg">
<path d="M1.68767 5.00049C1.28436 5.00049 0.90626 5.00049 0.52816 5.00049C0.158463 5.00049 0.015625 4.85902 0.015625 4.50118C0.015625 4.2765 0.015625 4.06013 0.015625 3.83544C0.0240272 3.47761 0.158463 3.34446 0.536562 3.34446C1.76329 3.34446 2.98161 3.33614 4.20833 3.35278C4.43519 3.35278 4.51921 3.27789 4.59483 3.08649C4.8721 2.4041 5.13257 1.7134 5.46866 1.05598C5.81315 0.381914 6.41811 0.0240781 7.18271 0.0157563C8.55227 -0.000887176 9.92184 -0.00920894 11.2914 0.0157563C12.14 0.0323999 12.7534 0.473453 13.1063 1.24738C13.3919 1.87983 13.6524 2.52061 13.9213 3.16138C13.9801 3.29453 14.0473 3.34446 14.1986 3.34446C15.4253 3.33614 16.6604 3.34446 17.8871 3.34446C18.3493 3.34446 18.4669 3.46097 18.4669 3.92698C18.4669 4.11838 18.4669 4.31811 18.4669 4.50951C18.4585 4.85902 18.3156 5.00049 17.9628 5.00881C17.5763 5.00881 17.1982 5.00881 16.7864 5.00881C16.7864 5.10035 16.7864 5.18357 16.7864 5.26679C16.7864 9.25291 16.7864 13.239 16.7864 17.2335C16.7864 18.024 16.5764 18.7231 16.0639 19.3306C15.6942 19.7633 15.232 19.9963 14.6607 19.9963C11.0477 19.9963 7.43478 20.0046 3.82183 19.9963C2.99001 19.9963 2.45227 19.5303 2.05736 18.8479C1.77169 18.3569 1.68767 17.8243 1.68767 17.2668C1.68767 13.2723 1.68767 9.27788 1.68767 5.28343C1.68767 5.19189 1.68767 5.10867 1.68767 5.00049ZM3.35971 5.00881C3.35971 5.09203 3.35971 5.15028 3.35971 5.21686C3.35971 8.34584 3.35971 11.4748 3.35971 14.6038C3.35971 15.5026 3.35971 16.393 3.35971 17.2917C3.35971 17.608 3.41852 17.9159 3.62017 18.1738C3.68739 18.2571 3.82183 18.332 3.93106 18.332C7.46839 18.3403 11.0057 18.3403 14.5431 18.332C14.6523 18.332 14.7867 18.2571 14.8539 18.1738C15.0724 17.8992 15.1144 17.5747 15.1144 17.2335C15.1144 13.2224 15.1144 9.21962 15.1144 5.20853C15.1144 5.15028 15.106 5.09203 15.106 5.02546C11.1822 5.00881 7.28354 5.00881 3.35971 5.00881ZM12.1736 3.32782C11.9636 2.82019 11.7787 2.33753 11.5603 1.87151C11.5183 1.77997 11.3586 1.68011 11.2494 1.68011C9.91343 1.66346 8.58588 1.67179 7.24993 1.68011C7.1407 1.68011 6.98106 1.76333 6.93905 1.84654C6.71219 2.32921 6.51894 2.82019 6.30048 3.32782C8.2666 3.32782 10.1991 3.32782 12.1736 3.32782Z" fill="#2E3134"/>
<path d="M6.71991 11.6661C6.71991 12.8561 6.71991 14.0544 6.71991 15.2444C6.71991 15.7021 6.59387 15.827 6.14015 15.827C5.9469 15.827 5.74525 15.827 5.552 15.827C5.1907 15.8186 5.04787 15.6772 5.04787 15.3193C5.04787 15.0863 5.04787 14.845 5.04787 14.612C5.04787 12.44 5.04787 10.268 5.04787 8.10436C5.04787 7.63002 5.1655 7.51352 5.63602 7.51352C5.82087 7.51352 6.01412 7.51352 6.19897 7.51352C6.57707 7.51352 6.71991 7.65499 6.71991 8.02947C6.71991 9.23612 6.71991 10.4511 6.71991 11.6661Z" fill="#2E3134"/>
<path d="M8.40033 11.6495C8.40033 10.4595 8.40033 9.26118 8.40033 8.07117C8.40033 7.62179 8.52636 7.50529 8.97168 7.49696C9.16493 7.49696 9.36658 7.49696 9.55983 7.49696C9.93793 7.49696 10.0724 7.63844 10.0724 8.02124C10.0724 9.2695 10.0724 10.5178 10.0724 11.766C10.0724 12.9228 10.0724 14.0795 10.0724 15.2362C10.0724 15.6939 9.94633 15.8187 9.49262 15.8187C9.30777 15.8187 9.13132 15.8187 8.94647 15.8187C8.53477 15.8187 8.40033 15.6856 8.40033 15.2695C8.40033 14.6037 8.40033 13.938 8.40033 13.2723C8.40033 12.7313 8.40033 12.1904 8.40033 11.6495Z" fill="#2E3134"/>
<path d="M11.7528 11.6494C11.7528 10.4594 11.7528 9.2611 11.7528 8.07108C11.7528 7.62171 11.8789 7.5052 12.3242 7.5052C12.5174 7.5052 12.7191 7.5052 12.9123 7.5052C13.2904 7.5052 13.4249 7.64667 13.4249 8.02947C13.4249 9.51075 13.4249 11.0003 13.4249 12.4816C13.4249 13.4137 13.4249 14.3374 13.4249 15.2694C13.4249 15.7021 13.2904 15.827 12.8619 15.827C12.7023 15.827 12.5426 15.827 12.383 15.827C11.8621 15.827 11.7528 15.7188 11.7528 15.2112C11.7528 14.0211 11.7528 12.8311 11.7528 11.6494Z" fill="#2E3134"/>
</svg>
