<svg width="30" height="30" viewBox="0 0 30 30" fill="none"
    xmlns="http://www.w3.org/2000/svg">
    <path d="M3.75 26.25C3.39583 26.25 3.09896 26.1302 2.85938 25.8906C2.61979 25.651 2.5 25.3542 2.5 25C2.5 24.6458 2.61979 24.349 2.85938 24.1094C3.09896 23.8698 3.39583 23.75 3.75 23.75H13.75V9.78125C13.2083 9.59375 12.7396 9.30208 12.3438 8.90625C11.9479 8.51042 11.6562 8.04167 11.4688 7.5H7.5L10.9375 15.5625C11.0417 15.7917 11.1042 16.026 11.125 16.2656C11.1458 16.5052 11.1354 16.75 11.0938 17C10.9062 17.9583 10.3906 18.6979 9.54688 19.2188C8.70312 19.7396 7.8125 20 6.875 20C5.9375 20 5.04688 19.7396 4.20312 19.2188C3.35938 18.6979 2.84375 17.9583 2.65625 17C2.61458 16.75 2.60417 16.5052 2.625 16.2656C2.64583 16.026 2.70833 15.7917 2.8125 15.5625L6.25 7.5H5C4.64583 7.5 4.34896 7.38021 4.10938 7.14062C3.86979 6.90104 3.75 6.60417 3.75 6.25C3.75 5.89583 3.86979 5.59896 4.10938 5.35938C4.34896 5.11979 4.64583 5 5 5H11.4688C11.7188 4.27083 12.1667 3.67188 12.8125 3.20312C13.4583 2.73438 14.1875 2.5 15 2.5C15.8125 2.5 16.5417 2.73438 17.1875 3.20312C17.8333 3.67188 18.2812 4.27083 18.5312 5H25C25.3542 5 25.651 5.11979 25.8906 5.35938C26.1302 5.59896 26.25 5.89583 26.25 6.25C26.25 6.60417 26.1302 6.90104 25.8906 7.14062C25.651 7.38021 25.3542 7.5 25 7.5H23.75L27.1875 15.5625C27.2917 15.7917 27.3542 16.026 27.375 16.2656C27.3958 16.5052 27.3854 16.75 27.3438 17C27.1562 17.9583 26.6406 18.6979 25.7969 19.2188C24.9531 19.7396 24.0625 20 23.125 20C22.1875 20 21.2969 19.7396 20.4531 19.2188C19.6094 18.6979 19.0938 17.9583 18.9062 17C18.8646 16.75 18.8542 16.5052 18.875 16.2656C18.8958 16.026 18.9583 15.7917 19.0625 15.5625L22.5 7.5H18.5312C18.3438 8.04167 18.0521 8.51042 17.6562 8.90625C17.2604 9.30208 16.7917 9.59375 16.25 9.78125V23.75H26.25C26.6042 23.75 26.901 23.8698 27.1406 24.1094C27.3802 24.349 27.5 24.6458 27.5 25C27.5 25.3542 27.3802 25.651 27.1406 25.8906C26.901 26.1302 26.6042 26.25 26.25 26.25H3.75ZM20.7812 16.25H25.4688L23.125 10.8125L20.7812 16.25ZM4.53125 16.25H9.21875L6.875 10.8125L4.53125 16.25ZM15 7.5C15.3542 7.5 15.651 7.38021 15.8906 7.14062C16.1302 6.90104 16.25 6.60417 16.25 6.25C16.25 5.89583 16.1302 5.59896 15.8906 5.35938C15.651 5.11979 15.3542 5 15 5C14.6458 5 14.349 5.11979 14.1094 5.35938C13.8698 5.59896 13.75 5.89583 13.75 6.25C13.75 6.60417 13.8698 6.90104 14.1094 7.14062C14.349 7.38021 14.6458 7.5 15 7.5Z" fill="#2E3134"/>
</svg>
