<svg width="100" height="100" viewBox="0 0 100 100" fill="none" xmlns="http://www.w3.org/2000/svg">
  <path d="M43.73 59.1207L49.18 58.0307C49.58 57.9507 49.92 57.7207 50.15 57.3807L53.99 51.6207C55.29 49.8407 54.84 47.5807 54.25 45.6207C53.92 44.6707 54.84 43.3407 55.22 42.5207C56.05 40.8507 55.93 38.8507 54.9 37.3007C54.47 36.6507 54.42 35.8307 54.77 35.1307C55.83 33.3807 56.39 31.1807 55.36 29.2907C54.49 27.0707 52.67 25.3007 50.17 25.3507H40.06C37.82 25.2007 38.61 22.3507 38.96 20.9107C39.91 17.6107 41.63 12.9707 40.35 9.67066C38.97 5.03066 33.53 1.89066 31.58 6.48066L28.58 16.4807C28.51 16.7107 28.43 16.9207 28.35 17.0707L23.31 26.1007L16.27 31.3407L6.36001 32.4807C5.59001 32.5707 5.01001 33.2207 5.01001 33.9907V55.6407C5.01001 56.4307 5.61001 57.0907 6.40001 57.1607L16.68 58.0507L27.36 59.2407C27.42 59.2407 27.47 59.2407 27.53 59.2407C27.79 59.2007 44.19 59.3607 43.74 59.1107L43.73 59.1207ZM16.98 55.0207L8.05001 54.2507V35.3607C8.35001 35.2507 17.88 34.4407 17.76 34.0407L25.4 28.3607C25.57 28.2307 25.72 28.0707 25.82 27.8807L31.05 18.5107C31.29 18.3907 34.35 7.86066 34.56 7.30066C37.54 8.38066 38.31 12.3007 37.4 15.2807C36.82 17.6507 35.37 21.4007 35.5 23.8507C35.5 26.3707 37.55 28.4207 40.06 28.4207H50.17C50.99 28.4207 51.73 28.8807 52.1 29.6107L52.63 30.6707C53.23 31.6807 52.51 32.8807 52.04 33.7807C51.21 35.4507 51.33 37.4507 52.37 39.0007C52.8 39.6407 52.85 40.4707 52.5 41.1607C51.65 42.7007 50.75 44.5807 51.3 46.3707C51.5 47.3607 52.23 49.0107 51.46 49.9307L47.97 55.1707L43.14 56.1407C42.92 56.1807 42.69 56.2107 42.46 56.2107H27.62L16.99 55.0307L16.98 55.0207ZM95 34.7507C94 10.4707 59.39 10.4707 58.39 34.7507C58.36 45.1107 67.18 53.6007 77.55 53.0107V64.6807C77.3 64.7707 69.36 65.6307 69.46 65.9107L63.16 69.9807C62.4 70.5507 61.78 71.3207 61.33 72.1207L56.08 81.5307C55.88 81.5907 52.77 92.2007 52.59 92.7107C49.61 91.6207 48.84 87.7107 49.76 84.7307C50.37 82.3907 51.78 78.5807 51.65 76.1507C51.65 73.6407 49.6 71.5907 47.09 71.5907H36.99C36.17 71.5907 35.41 71.1207 35.05 70.4207C34.59 69.5307 33.94 68.3907 34.53 67.3907L35.1 66.2207C35.95 64.5407 35.83 62.5307 34.77 60.9807C33.65 59.3407 31.13 61.0307 32.25 62.6907C32.68 63.3207 32.73 64.1507 32.37 64.8607C31.34 66.6107 30.77 68.8007 31.79 70.6807C32.62 72.9007 34.51 74.6907 36.99 74.6407H47.09C49.33 74.7907 48.53 77.6407 48.2 79.0907C47.25 82.4007 45.53 87.0107 46.79 90.3207C48.17 94.9407 53.6 98.1007 55.57 93.5207L58.57 83.5107C58.64 83.2807 58.73 83.0507 58.79 82.9207C59.31 82.1807 64.22 72.7007 64.9 72.4807L70.83 68.6507L79.28 67.5207C80.04 67.4207 80.6 66.7707 80.6 66.0107V52.6107C88.82 50.8107 95 43.4907 95 34.7307V34.7507ZM76.69 50.0107C68.28 50.0107 61.44 43.1707 61.44 34.7507C62.28 14.5107 91.11 14.5207 91.95 34.7507C91.95 43.1607 85.11 50.0107 76.7 50.0107H76.69ZM76.69 31.7007C75.85 31.7007 75.16 32.3807 75.16 33.2307V43.9107C75.16 44.7507 75.84 45.4407 76.69 45.4407C77.54 45.4407 78.22 44.7607 78.22 43.9107V33.2307C78.22 32.3907 77.54 31.7007 76.69 31.7007ZM76.69 25.6007C75.85 25.6007 75.16 26.2807 75.16 27.1307V28.6607C75.16 29.5007 75.84 30.1907 76.69 30.1907C77.54 30.1907 78.22 29.5107 78.22 28.6607V27.1307C78.22 26.2907 77.54 25.6007 76.69 25.6007Z" fill="#34383C"/>
  <g class="blue--fill">
    <path d="M76.6899 31.6875C75.8499 31.6875 75.1599 32.3675 75.1599 33.2175V43.8975C75.1599 44.7375 75.8399 45.4275 76.6899 45.4275C77.5399 45.4275 78.2199 44.7475 78.2199 43.8975V33.2175C78.2199 32.3775 77.5399 31.6875 76.6899 31.6875Z"/>
    <path d="M58.39 34.7491C58.36 45.1091 67.18 53.5991 77.55 53.0091V53.0991C78.59 53.0591 79.61 52.9391 80.6 52.7491V52.6291C88.82 50.8291 95 43.5091 95 34.7491C94 10.4691 59.39 10.4691 58.39 34.7491ZM76.7 50.0091C68.29 50.0091 61.45 43.1691 61.45 34.7491C62.29 14.5091 91.12 14.5191 91.96 34.7491C91.96 43.1591 85.12 50.0091 76.71 50.0091H76.7Z" />
    <path d="M76.6899 25.5898C75.8499 25.5898 75.1599 26.2698 75.1599 27.1198V28.6498C75.1599 29.4898 75.8399 30.1798 76.6899 30.1798C77.5399 30.1798 78.2199 29.4998 78.2199 28.6498V27.1198C78.2199 26.2798 77.5399 25.5898 76.6899 25.5898Z"/>
  </g>
</svg>
