<svg viewBox="0 0 48 48" xmlns="http://www.w3.org/2000/svg">
    <path
        d="M42.2 37.3c-.5-.5-1.4-.4-1.9 0-.3.3-.4.6-.4 1s.1.7.4 1l.7.7H25.3l.7-.7c.3-.3.4-.6.4-1s-.1-.6-.4-1c-.3-.3-.6-.4-1-.4s-.7.1-1 .4l-3.1 3.1q-.3.3-.3.9c0 .3.1.5.3.9l3.1 3.1c.3.3.6.4 1 .4s.7-.1 1-.4c.2-.2.4-.5.4-1 0-.4-.1-.6-.4-1l-.7-.7h15.8l-.7.7c-.3.3-.4.6-.4 1s.1.6.4 1c.3.3.6.4 1 .4s.7-.1 1-.4l3.1-3.1c.2-.2.3-.6.3-.8 0-.3-.1-.5-.3-.8zm-23.3-7.7v.2c-.3-.2-.7-.3-.8-.3H18c-.1 0-.1-.1-.2-.1-.8-.1-1.2.3-1.3.7s0 .1-.1.1l-.4 1L5.9 9.3l1 .3c.6.2 1.4-.1 1.7-.8s0-1.4-.8-1.7L3.6 5.5c-.3-.1-.5-.1-.8 0-.3.2-.5.4-.6.8L.6 10.4c-.2.6.1 1.4.8 1.7.3.1.8.1 1-.1l.1-.1c.3-.2.5-.3.6-.7l.3-1 10.2 21.9-1-.3c-.3-.1-.7-.1-1 0-.3.2-.6.4-.7.7-.1.4-.1.7.1 1l.1.1c.2.3.3.4.7.6l4.1 1.6h.3c.1 0 .2 0 .3-.1h.3c.2 0 .3-.2.5-.4.1-.1.1-.2.2-.2l1.6-4.2v-.1s.1-.1.1-.2c.2-.3.1-.6 0-.8zm28.6-24c-.1-.2-.1-.2-.1-.3 0-1.5-1.2-2.8-2.8-2.8-.9 0-1.9.5-2.4 1.4H13.9c-.5-.9-1.4-1.4-2.4-1.4-1.5 0-2.8 1.3-2.8 2.8C8.7 6.7 9.9 8 11.4 8l10.2 23c-.2.4-.4.8-.4 1.2-.1.6.1 1.4.6 2 .6.7 1.4 1 1.8 1h.2c.9 0 1.9-.5 2.4-1.3h15.1c.4.8 1.3 1.3 2.1 1.3h.3c1.4 0 2.7-1.2 2.8-2.5.1-1.1-.4-2-1.3-2.5L46 7.9c.7-.5 1.2-1.2 1.4-2.1v-.1h.2zm-4.3 2-.7 22.3c-.5.3-.8.7-1.1 1.1h-15c-.4-.8-1.3-1.3-2.1-1.3h-.2L13.9 6.6h28.3c.3.5.7.8 1 1"
        fill="currentColor" />
</svg>