<svg width="90" height="23" viewBox="0 0 90 23" fill="none" xmlns="http://www.w3.org/2000/svg">
<path d="M13.8955 11.2668C13.9051 10.5264 14.1017 9.80041 14.4672 9.15643C14.8327 8.51245 15.3552 7.97138 15.986 7.58356C15.5852 7.01125 15.0566 6.54025 14.442 6.20799C13.8274 5.87572 13.1438 5.69133 12.4455 5.66947C10.9558 5.51307 9.51167 6.56083 8.75249 6.56083C7.97876 6.56083 6.81001 5.68499 5.55148 5.7109C4.73741 5.73718 3.94403 5.97389 3.24864 6.39797C2.55325 6.82204 1.97957 7.41901 1.58349 8.13072C-0.132158 11.1012 1.14757 15.4666 2.7911 17.8676C3.61335 19.0434 4.57425 20.3566 5.83172 20.3101C7.06212 20.259 7.52164 19.5254 9.007 19.5254C10.4785 19.5254 10.9096 20.3101 12.1926 20.2804C13.5129 20.259 14.3448 19.0995 15.1382 17.9127C15.729 17.0749 16.1836 16.149 16.4851 15.1693C15.7181 14.8449 15.0635 14.3018 14.603 13.6078C14.1424 12.9139 13.8964 12.0997 13.8955 11.2668ZM11.4723 4.09035C12.1922 3.22613 12.5469 2.11533 12.461 0.993839C11.3611 1.10935 10.3452 1.63501 9.61555 2.46607C9.25881 2.87206 8.98558 3.34439 8.81149 3.85604C8.63741 4.36769 8.56587 4.90864 8.60097 5.44796C9.1511 5.45363 9.69535 5.33439 10.1927 5.09923C10.6901 4.86407 11.1276 4.51911 11.4723 4.09035ZM29.4494 17.3337H25.2504L24.242 20.3111H22.4634L26.4407 9.29513H28.2885L32.2657 20.3111H30.4569L29.4494 17.3337ZM25.6852 15.9596H29.0136L27.3729 11.1274H27.3269L25.6852 15.9596ZM40.8552 16.2958C40.8552 18.7916 39.5193 20.3951 37.5034 20.3951C36.9928 20.4219 36.4849 20.3042 36.038 20.0557C35.591 19.8072 35.2231 19.4379 34.9764 18.99H34.9382V22.9681H33.2896V12.2796H34.8854V13.6155H34.9158C35.1739 13.1697 35.548 12.8023 35.9983 12.5523C36.4486 12.3023 36.9583 12.179 37.4731 12.1956C39.5115 12.1956 40.8552 13.807 40.8552 16.2958ZM39.1606 16.2958C39.1606 14.6698 38.3204 13.6008 37.0382 13.6008C35.7786 13.6008 34.9314 14.6922 34.9314 16.2958C34.9314 17.9141 35.7786 18.9979 37.0382 18.9979C38.3204 18.9979 39.1606 17.9367 39.1606 16.2958ZM49.6949 16.2958C49.6949 18.7916 48.3591 20.3951 46.3432 20.3951C45.8325 20.4218 45.3247 20.3042 44.8778 20.0557C44.4309 19.8072 44.063 19.4378 43.8162 18.99H43.7781V22.9681H42.1295V12.2796H43.7252V13.6155H43.7555C44.0136 13.1697 44.3877 12.8023 44.8381 12.5523C45.2884 12.3023 45.7981 12.179 46.3129 12.1956C48.3513 12.1956 49.6949 13.807 49.6949 16.2958ZM48.0005 16.2958C48.0005 14.6698 47.1601 13.6008 45.878 13.6008C44.6183 13.6008 43.7711 14.6922 43.7711 16.2958C43.7711 17.9141 44.6183 18.9979 45.878 18.9979C47.1601 18.9979 48.0005 17.9367 48.0005 16.2958ZM55.5374 17.2418C55.6595 18.3342 56.7207 19.0515 58.1709 19.0515C59.5604 19.0515 60.5602 18.3342 60.5602 17.3492C60.5602 16.4941 59.9572 15.9822 58.5296 15.6313L57.1018 15.2874C55.0791 14.7988 54.14 13.8528 54.14 12.3177C54.14 10.417 55.7964 9.1115 58.1483 9.1115C60.4761 9.1115 62.0719 10.417 62.1256 12.3177H60.4614C60.3617 11.2184 59.453 10.5547 58.1249 10.5547C56.7969 10.5547 55.8882 11.2262 55.8882 12.2033C55.8882 12.9822 56.4686 13.4405 57.8884 13.7912L59.1022 14.0893C61.3623 14.6238 62.3015 15.5317 62.3015 17.1429C62.3015 19.2039 60.6598 20.4947 58.0487 20.4947C55.6057 20.4947 53.9563 19.2342 53.8497 17.2418L55.5374 17.2418ZM65.8594 10.379V12.2796H67.3867V13.5851H65.8594V18.0128C65.8594 18.7007 66.1651 19.0212 66.8366 19.0212C67.0179 19.018 67.1989 19.0053 67.3789 18.983V20.2809C67.077 20.3372 66.7702 20.3627 66.4632 20.357C64.8372 20.357 64.203 19.7463 64.203 18.1886V13.5851H63.0352V12.2796H64.203V10.379H65.8594ZM68.2712 16.2958C68.2712 13.7688 69.7595 12.1809 72.0804 12.1809C74.409 12.1809 75.8904 13.7688 75.8904 16.2958C75.8904 18.8298 74.4168 20.4107 72.0803 20.4107C69.7448 20.4107 68.2712 18.8298 68.2712 16.2958ZM74.2106 16.2958C74.2106 14.5624 73.4162 13.5392 72.0803 13.5392C70.7445 13.5392 69.9509 14.5701 69.9509 16.2958C69.9509 18.0362 70.7445 19.0515 72.0803 19.0515C73.4162 19.0515 74.2106 18.0362 74.2106 16.2958ZM77.2495 12.2796H78.8219V13.6466H78.8601C78.9664 13.2197 79.2166 12.8424 79.5684 12.5781C79.9202 12.3139 80.3523 12.1788 80.792 12.1956C80.982 12.1949 81.1714 12.2155 81.3568 12.2571V13.7991C81.117 13.7258 80.8668 13.6922 80.6161 13.6995C80.3766 13.6898 80.1378 13.732 79.9162 13.8233C79.6945 13.9145 79.4953 14.0527 79.3321 14.2282C79.1689 14.4038 79.0456 14.6126 78.9707 14.8403C78.8958 15.068 78.8711 15.3092 78.8982 15.5473V20.3111H77.2495V12.2796ZM88.9577 17.9521C88.7359 19.4102 87.3161 20.4107 85.4995 20.4107C83.163 20.4107 81.7128 18.8454 81.7128 16.3339C81.7128 13.8147 83.1708 12.1809 85.4301 12.1809C87.6523 12.1809 89.0495 13.7073 89.0495 16.1425V16.7073H83.377V16.8069C83.3508 17.1025 83.3878 17.4003 83.4855 17.6804C83.5833 17.9606 83.7395 18.2168 83.9438 18.432C84.1482 18.6471 84.396 18.8164 84.6707 18.9284C84.9455 19.0405 85.241 19.0928 85.5375 19.0819C85.9271 19.1184 86.3181 19.0282 86.6523 18.8246C86.9865 18.6211 87.246 18.3151 87.3923 17.9521H88.9577ZM83.3848 15.5551H87.4001C87.4149 15.2893 87.3746 15.0234 87.2817 14.7739C87.1889 14.5244 87.0454 14.2969 86.8605 14.1055C86.6755 13.914 86.4529 13.7629 86.2068 13.6616C85.9606 13.5603 85.6962 13.5109 85.4301 13.5167C85.1616 13.5151 84.8955 13.5666 84.6471 13.6684C84.3987 13.7702 84.1729 13.9202 83.9827 14.1097C83.7926 14.2993 83.6418 14.5246 83.5392 14.7726C83.4366 15.0207 83.3841 15.2867 83.3848 15.5551ZM25.4786 1.00333C25.8243 0.978523 26.1711 1.03074 26.4941 1.1562C26.8171 1.28167 27.1083 1.47726 27.3465 1.72887C27.5848 1.98048 27.7642 2.28184 27.8719 2.6112C27.9796 2.94056 28.0129 3.28972 27.9693 3.63349C27.9693 5.32448 27.0553 6.29656 25.4786 6.29656H23.5667V1.00324L25.4786 1.00333ZM24.3888 5.54794H25.3868C25.6338 5.56269 25.8809 5.52218 26.1103 5.42937C26.3396 5.33657 26.5454 5.19379 26.7126 5.01143C26.8798 4.82908 27.0042 4.61174 27.0768 4.37523C27.1495 4.13871 27.1684 3.88899 27.1324 3.64422C27.1658 3.40042 27.1449 3.15224 27.0712 2.91746C26.9975 2.68268 26.8727 2.46712 26.7059 2.28621C26.5391 2.10531 26.3343 1.96354 26.1063 1.87107C25.8782 1.77859 25.6325 1.73771 25.3868 1.75133H24.3888V5.54794ZM28.898 4.29748C28.8728 4.03497 28.9029 3.77011 28.9861 3.51989C29.0693 3.26966 29.204 3.0396 29.3813 2.84445C29.5587 2.6493 29.7749 2.49338 30.0161 2.38668C30.2572 2.27998 30.518 2.22487 30.7817 2.22487C31.0454 2.22487 31.3062 2.27998 31.5474 2.38668C31.7885 2.49338 32.0047 2.6493 32.1821 2.84445C32.3595 3.0396 32.4941 3.26966 32.5773 3.51989C32.6606 3.77011 32.6906 4.03497 32.6655 4.29748C32.6911 4.5603 32.6615 4.82558 32.5785 5.07626C32.4955 5.32695 32.361 5.5575 32.1836 5.75308C32.0062 5.94867 31.7898 6.10496 31.5484 6.21193C31.3069 6.31889 31.0458 6.37414 30.7817 6.37414C30.5176 6.37414 30.2565 6.31889 30.0151 6.21193C29.7736 6.10496 29.5573 5.94867 29.3798 5.75308C29.2024 5.5575 29.0679 5.32695 28.9849 5.07626C28.9019 4.82558 28.8723 4.5603 28.898 4.29748ZM31.8547 4.29748C31.8547 3.43159 31.4657 2.92523 30.783 2.92523C30.0978 2.92523 29.7123 3.43159 29.7123 4.29748C29.7123 5.1703 30.0979 5.67275 30.783 5.67275C31.4657 5.67275 31.8547 5.16684 31.8547 4.29748ZM37.6737 6.29647H36.8558L36.0302 3.3545H35.9679L35.1458 6.29647H34.3358L33.2347 2.30187H34.0343L34.7499 5.34994H34.8088L35.6301 2.30187H36.3863L37.2076 5.34994H37.27L37.982 2.30187H38.7704L37.6737 6.29647ZM39.6964 2.30195H40.4553V2.9365H40.5142C40.6142 2.70857 40.7827 2.51749 40.9964 2.38992C41.2101 2.26234 41.4583 2.20461 41.7063 2.22478C41.9007 2.21017 42.0959 2.23948 42.2773 2.31053C42.4588 2.38159 42.622 2.49257 42.7548 2.63525C42.8876 2.77793 42.9866 2.94866 43.0444 3.13479C43.1023 3.32092 43.1175 3.51768 43.089 3.71049V6.29638H42.3006V3.90849C42.3006 3.26659 42.0216 2.94732 41.4386 2.94732C41.3066 2.94118 41.1749 2.96365 41.0525 3.01318C40.93 3.06271 40.8197 3.13813 40.7291 3.23427C40.6385 3.33042 40.5698 3.44501 40.5276 3.5702C40.4854 3.6954 40.4708 3.82822 40.4848 3.95959V6.29647H39.6964V2.30195ZM44.3451 0.742524H45.1334V6.29647H44.3451V0.742524ZM46.2293 4.29748C46.2042 4.03494 46.2342 3.77004 46.3175 3.51978C46.4007 3.26952 46.5354 3.03943 46.7127 2.84425C46.8901 2.64908 47.1064 2.49314 47.3475 2.38642C47.5887 2.27971 47.8496 2.22459 48.1133 2.22459C48.3771 2.22459 48.6379 2.27971 48.8791 2.38642C49.1203 2.49314 49.3365 2.64908 49.5139 2.84425C49.6913 3.03943 49.8259 3.26952 49.9092 3.51978C49.9924 3.77004 50.0225 4.03494 49.9973 4.29748C50.0229 4.56026 49.9931 4.82547 49.9101 5.07607C49.827 5.32668 49.6924 5.55714 49.515 5.75264C49.3376 5.94815 49.1212 6.10437 48.8798 6.21128C48.6384 6.31819 48.3773 6.37342 48.1133 6.37342C47.8493 6.37342 47.5882 6.31819 47.3468 6.21128C47.1054 6.10437 46.889 5.94815 46.7116 5.75264C46.5342 5.55714 46.3996 5.32668 46.3166 5.07607C46.2335 4.82547 46.2038 4.56026 46.2293 4.29748ZM49.186 4.29748C49.186 3.43159 48.797 2.92523 48.1144 2.92523C47.4291 2.92523 47.0436 3.43159 47.0436 4.29748C47.0436 5.1703 47.4292 5.67275 48.1144 5.67275C48.797 5.67275 49.186 5.16684 49.186 4.29748ZM50.8272 5.16684C50.8272 4.44776 51.3626 4.03322 52.3129 3.97431L53.3949 3.91195V3.56713C53.3949 3.14523 53.116 2.90704 52.5772 2.90704C52.1371 2.90704 51.8321 3.06858 51.7446 3.35104H50.9814C51.0619 2.66487 51.7074 2.22487 52.6136 2.22487C53.615 2.22487 54.1798 2.72341 54.1798 3.56713V6.29647H53.4209V5.73511H53.3586C53.2319 5.93647 53.0542 6.10063 52.8434 6.21081C52.6326 6.321 52.3963 6.37327 52.1587 6.36229C51.9911 6.37973 51.8216 6.36184 51.6612 6.30977C51.5009 6.2577 51.3532 6.17261 51.2278 6.05998C51.1023 5.94734 51.0019 5.80968 50.9329 5.65584C50.8639 5.50201 50.8279 5.33543 50.8272 5.16684ZM53.3949 4.82548V4.49149L52.4195 4.55385C51.8694 4.59067 51.6198 4.77785 51.6198 5.12994C51.6198 5.48948 51.9317 5.69874 52.3606 5.69874C52.4862 5.71147 52.6132 5.69878 52.7338 5.66144C52.8545 5.6241 52.9664 5.56287 53.0629 5.4814C53.1594 5.39992 53.2385 5.29987 53.2956 5.18718C53.3526 5.0745 53.3864 4.95149 53.3949 4.82548ZM55.216 4.29748C55.216 3.03523 55.8648 2.23569 56.874 2.23569C57.1237 2.22418 57.3715 2.28397 57.5884 2.40807C57.8053 2.53217 57.9824 2.71545 58.099 2.9365H58.1579V0.742435H58.9462V6.29638H58.1908V5.66521H58.1285C58.0029 5.88476 57.8196 6.06577 57.5985 6.18863C57.3774 6.31148 57.1269 6.37151 56.8741 6.36221C55.8579 6.36221 55.216 5.56266 55.216 4.29748ZM56.0303 4.29748C56.0303 5.14466 56.4297 5.65457 57.0975 5.65457C57.7619 5.65457 58.1727 5.13739 58.1727 4.30085C58.1727 3.4684 57.7577 2.94386 57.0975 2.94386C56.4339 2.94386 56.0303 3.45713 56.0303 4.29748ZM62.2079 4.29748C62.1828 4.03497 62.2128 3.77011 62.296 3.51989C62.3793 3.26966 62.5139 3.0396 62.6913 2.84445C62.8686 2.6493 63.0848 2.49338 63.326 2.38668C63.5671 2.27998 63.8279 2.22487 64.0916 2.22487C64.3554 2.22487 64.6161 2.27998 64.8573 2.38668C65.0985 2.49338 65.3147 2.6493 65.492 2.84445C65.6694 3.0396 65.804 3.26966 65.8873 3.51989C65.9705 3.77011 66.0005 4.03497 65.9754 4.29748C66.0011 4.5603 65.9714 4.82558 65.8885 5.07626C65.8055 5.32695 65.6709 5.5575 65.4935 5.75308C65.3161 5.94867 65.0997 6.10496 64.8583 6.21193C64.6168 6.31889 64.3557 6.37414 64.0916 6.37414C63.8276 6.37414 63.5664 6.31889 63.325 6.21193C63.0836 6.10496 62.8672 5.94867 62.6898 5.75308C62.5123 5.5575 62.3778 5.32695 62.2948 5.07626C62.2118 4.82558 62.1822 4.5603 62.2079 4.29748ZM65.1646 4.29748C65.1646 3.43159 64.7756 2.92523 64.093 2.92523C63.4077 2.92523 63.0222 3.43159 63.0222 4.29748C63.0222 5.1703 63.4078 5.67275 64.093 5.67275C64.7756 5.67275 65.1646 5.16684 65.1646 4.29748ZM67.0332 2.30195H67.7921V2.9365H67.851C67.9509 2.70857 68.1195 2.51749 68.3332 2.38992C68.5468 2.26234 68.795 2.20461 69.0431 2.22478C69.2374 2.21017 69.4326 2.23948 69.6141 2.31053C69.7956 2.38159 69.9588 2.49257 70.0915 2.63525C70.2243 2.77793 70.3233 2.94866 70.3811 3.13479C70.439 3.32092 70.4542 3.51768 70.4257 3.71049V6.29638H69.6373V3.90849C69.6373 3.26659 69.3583 2.94732 68.7753 2.94732C68.6434 2.94118 68.5117 2.96365 68.3892 3.01318C68.2667 3.06271 68.1564 3.13813 68.0658 3.23427C67.9752 3.33042 67.9065 3.44501 67.8643 3.5702C67.8222 3.6954 67.8076 3.82822 67.8215 3.95959V6.29647H67.0333L67.0332 2.30195ZM74.8803 1.30743V2.32014H75.7457V2.98413H74.8803V5.03812C74.8803 5.45657 75.0526 5.63984 75.4451 5.63984C75.5455 5.63949 75.6459 5.63339 75.7456 5.62157V6.27828C75.6041 6.30361 75.4606 6.31708 75.3168 6.31856C74.4402 6.31856 74.091 6.01012 74.091 5.24003V2.98413H73.4569V2.32005H74.091V1.30752L74.8803 1.30743ZM76.8225 0.742524H77.6039V2.94386H77.6663C77.7711 2.71381 77.9443 2.52166 78.1622 2.3936C78.3802 2.26554 78.6323 2.20779 78.8843 2.22824C79.0776 2.21771 79.2709 2.24999 79.4504 2.32278C79.6298 2.39556 79.791 2.50705 79.9224 2.6493C80.0538 2.79154 80.1522 2.96103 80.2105 3.14568C80.2689 3.33033 80.2858 3.52558 80.26 3.7175V6.29647H79.4708V3.91195C79.4708 3.27386 79.1736 2.95078 78.6166 2.95078C78.4811 2.93967 78.3449 2.95831 78.2173 3.00537C78.0898 3.05244 77.9741 3.1268 77.8783 3.22326C77.7825 3.31972 77.7089 3.43595 77.6627 3.56381C77.6165 3.69167 77.5988 3.82808 77.6108 3.96349V6.29647H76.8225V0.742524ZM84.8567 5.21785C84.7496 5.58294 84.5175 5.89875 84.2011 6.11003C83.8847 6.3213 83.504 6.41459 83.1258 6.37356C82.8626 6.38051 82.6011 6.33011 82.3593 6.22585C82.1176 6.12159 81.9014 5.96598 81.7259 5.76981C81.5503 5.57364 81.4195 5.34161 81.3426 5.08983C81.2657 4.83805 81.2445 4.57256 81.2805 4.31176C81.2454 4.05016 81.267 3.78408 81.3437 3.53154C81.4204 3.279 81.5505 3.04588 81.7252 2.84799C81.8998 2.65009 82.1149 2.49203 82.356 2.38451C82.597 2.27699 82.8584 2.22251 83.1223 2.22478C84.2337 2.22478 84.9043 2.98413 84.9043 4.23849V4.51358H82.0836V4.55776C82.0713 4.70434 82.0897 4.85189 82.1377 4.99095C82.1857 5.13 82.2622 5.25748 82.3624 5.36522C82.4626 5.47297 82.5841 5.55859 82.7193 5.61661C82.8545 5.67462 83.0003 5.70375 83.1474 5.70211C83.336 5.72476 83.527 5.69081 83.6963 5.60457C83.8655 5.51834 84.0052 5.38373 84.0977 5.21785H84.8567ZM82.0836 3.93058H84.1012C84.1111 3.79651 84.0929 3.66185 84.0477 3.53525C84.0025 3.40865 83.9313 3.2929 83.8387 3.19545C83.7461 3.098 83.6342 3.02099 83.51 2.96938C83.3859 2.91777 83.2523 2.8927 83.118 2.89578C82.9816 2.89406 82.8463 2.91966 82.72 2.97106C82.5937 3.02246 82.479 3.09863 82.3826 3.19507C82.2862 3.29151 82.2101 3.40627 82.1587 3.53259C82.1074 3.65891 82.0818 3.79423 82.0836 3.93058Z" fill="white"/>
</svg>
