<svg width="20" height="20" viewBox="0 0 20 20" fill="none" xmlns="http://www.w3.org/2000/svg">
<path d="M1.67499 5.4917H7.73332" stroke="currentColor" stroke-width="1.5" stroke-linecap="round"/>
<path d="M12.275 5.4917H18.3333" stroke="currentColor" stroke-width="1.5" stroke-linecap="round"/>
<path d="M4.70001 5.49161V3.98328" stroke="currentColor" stroke-width="1.5" stroke-linecap="round"/>
<path d="M15.3 5.49161V3.98328" stroke="currentColor" stroke-width="1.5" stroke-linecap="round"/>
<path d="M4.70001 7.69165V9.55832C4.70001 9.75832 4.74168 9.94998 4.81668 10.1333C4.89168 10.3167 5.00001 10.4833 5.14168 10.625L7.79168 13.3C8.07501 13.5833 8.46668 13.75 8.86668 13.75H11.1417C11.5417 13.75 11.9333 13.5917 12.2167 13.3L14.8667 10.625C15.15 10.3417 15.3083 9.95832 15.3083 9.55832V7.69165" stroke="currentColor" stroke-width="1.5" stroke-linecap="round"/>
<path d="M5.45834 9.9583C9.24168 8.44163 10.7583 8.44163 14.5417 9.9583" stroke="currentColor" stroke-width="1.5" stroke-linecap="round"/>
<path d="M5.67501 15.5166C5.81668 15.9083 6.25001 16.1166 6.64168 15.975C7.03335 15.8333 7.24168 15.4 7.10001 15.0083L5.67501 15.5166ZM7.10001 15.0083C6.80001 14.175 6.85001 13.675 6.94168 13.3916C7.03335 13.1166 7.20835 12.9666 7.34168 12.8916L6.60001 11.575C6.20001 11.8 5.74168 12.2166 5.50835 12.9083C5.27501 13.5916 5.30001 14.4583 5.67501 15.5166L7.10001 15.0083Z" fill="currentColor"/>
<path d="M14.325 15.5166C14.1833 15.9083 13.75 16.1166 13.3583 15.975C12.9667 15.8333 12.7583 15.4 12.9 15.0083L14.325 15.5166ZM12.9 15.0083C13.2 14.175 13.15 13.675 13.0583 13.3916C12.9667 13.1166 12.7917 12.9666 12.6583 12.8916L13.4 11.575C13.8 11.8 14.2583 12.2166 14.4917 12.9083C14.725 13.5916 14.7 14.4583 14.325 15.5166L12.9 15.0083Z" fill="currentColor"/>
<path d="M5.24167 10L9.68334 8.96667L14.7583 10.2667L11.6667 13.5417L8.26667 13.4L5.24167 10Z" fill="currentColor"/>
</svg>
