<?xml version="1.0" encoding="utf-8"?>
<!-- Generator: Adobe Illustrator 25.2.1, SVG Export Plug-In . SVG Version: 6.00 Build 0)  -->
<svg version="1.1" id="Layer_1" xmlns="http://www.w3.org/2000/svg" xmlns:xlink="http://www.w3.org/1999/xlink" x="0px" y="0px"
	 viewBox="0 0 48 48" style="enable-background:new 0 0 48 48;" xml:space="preserve">
<style type="text/css">
	.st0{fill:#2D3134;}
	.st1{fill:none;stroke:#2D3134;stroke-width:2.75;stroke-miterlimit:10;}
	.st2{fill:none;stroke:#2D3134;stroke-width:2.75;stroke-linecap:round;stroke-linejoin:round;stroke-miterlimit:10;}
</style>
<g>
	<path class="st0" d="M15,11.7c2.4,0,4.3,1.9,4.3,4.3c0,2.4-1.9,4.3-4.3,4.3c-2.4,0-4.3-1.9-4.3-4.3C10.7,13.6,12.6,11.7,15,11.7z"
		/>
</g>
<path class="st0" d="M10.8,30.7v2.5c0,0.7,0.6,1.4,1.4,1.4h28.6c0.7,0,1.4-0.6,1.4-1.4v-7.9c0-0.5-0.2-0.9-0.5-1.3l-8.2-8.2
	c-0.3-0.3-0.8-0.3-1.1,0l-11,10.8l-2.9-2.9c-0.3-0.3-0.8-0.3-1.1,0l-6.1,6C11,30,10.8,30.3,10.8,30.7z"/>
<path class="st1" d="M43.3,39H9.8c-1.8,0-3.3-1.5-3.3-3.3V9.9c0-1.8,1.5-3.3,3.3-3.3h33.5c1.8,0,3.3,1.5,3.3,3.3v25.9
	C46.5,37.6,45.1,39,43.3,39z"/>
<path class="st2" d="M1.5,13.3v25.4c0,3,2.4,5.4,5.4,5.4h29.7"/>
</svg>
