<svg viewBox="0 0 98 42" id="droneIcon" fill="none" xmlns="http://www.w3.org/2000/svg"  aria-labelledby="drone-icon"  aria-describedby="drone-icon-desc">
	<title id="drone-icon">Drone icon</title>
	<desc id="drone-icon-desc">Drone icon that indicates success</desc>
  <path d="M5 22.6973L6.68 29.5673L9.3 28.4873L7.72 22.0273L5 22.6973Z" fill="#34383C"/>
  <path d="M84.6707 1.88923C84.4307 0.929234 83.4607 0.339234 82.5007 0.569234L72.9007 2.91923C72.4307 3.02923 72.0407 3.31923 71.7907 3.72923C71.5407 4.13923 71.4707 4.61924 71.5807 5.08923C71.6907 5.55923 71.9807 5.94924 72.3907 6.19924C72.6707 6.36924 72.9907 6.45923 73.3207 6.45923C73.4607 6.45923 73.6107 6.43923 73.7507 6.40923L77.3307 5.53924L78.7907 11.5092L81.6107 11.2592L80.0507 4.87924L83.3607 4.06923C84.3207 3.82923 84.9107 2.85923 84.6807 1.89923L84.6707 1.88923Z" fill="#34383C"/>
  <path d="M67.8204 4.34016C67.4604 4.12016 67.0404 4.06016 66.6404 4.16016L58.8304 6.07016C58.4204 6.17016 58.0804 6.42016 57.8704 6.78016C57.6504 7.14016 57.5904 7.56016 57.6904 7.96016C57.7904 8.37016 58.0404 8.71015 58.4004 8.92015C58.6504 9.07015 58.9304 9.15016 59.2104 9.15016C59.3304 9.15016 59.4604 9.13016 59.5804 9.10015L62.3504 8.42015L63.9404 14.9202L66.2804 14.6602L64.6204 7.87016L67.3904 7.19016C67.7904 7.09016 68.1404 6.84016 68.3504 6.48016C68.5704 6.12016 68.6304 5.70016 68.5304 5.30016C68.4304 4.89016 68.1804 4.55016 67.8204 4.34016Z" fill="#34383C"/>
  <path d="M12.2102 19.599C12.0402 18.919 11.3602 18.509 10.6902 18.679L1.09024 21.029C0.410245 21.199 0.000244647 21.879 0.170245 22.549C0.340245 23.229 1.02024 23.639 1.69024 23.469L11.2902 21.119C11.9702 20.949 12.3802 20.269 12.2102 19.599Z" fill="#34383C"/>
  <path d="M25.3706 15.8479C25.2406 15.2979 24.6806 14.9579 24.1306 15.0979L16.3206 17.0079C15.7706 17.1379 15.4306 17.6979 15.5706 18.2479C15.7006 18.7979 16.2606 19.1379 16.8106 18.9979L19.5806 18.3179L21.5106 26.2179L23.5806 24.8479L21.8506 17.7679L20.7106 18.0479L24.6106 17.0979C25.1606 16.9679 25.5006 16.4079 25.3606 15.8579L25.3706 15.8479Z" fill="#34383C"/>
  <path d="M97.4101 21.8788H97.3801L81.2701 20.6888C81.0201 20.6688 80.8301 20.4488 80.8501 20.1988C80.8701 19.9488 81.0901 19.7588 81.3401 19.7788L97.4501 20.9688C97.7001 20.9888 97.8901 21.2088 97.8701 21.4588C97.8501 21.6988 97.6501 21.8788 97.4101 21.8788Z" fill="#34383C"/>
  <path d="M78.7398 20.5006H78.7098L75.5298 20.2606C75.2798 20.2406 75.0898 20.0206 75.1098 19.7706C75.1298 19.5206 75.3498 19.3206 75.5998 19.3506L78.7798 19.5906C79.0298 19.6106 79.2198 19.8306 79.1998 20.0806C79.1798 20.3206 78.9798 20.5006 78.7398 20.5006Z" fill="#34383C"/>
  <path d="M85.39 26.3675H85.36L68.98 25.1575C68.73 25.1375 68.54 24.9175 68.56 24.6675C68.58 24.4175 68.8 24.2275 69.05 24.2475L85.43 25.4575C85.68 25.4775 85.87 25.6975 85.85 25.9475C85.83 26.1875 85.63 26.3675 85.39 26.3675Z" fill="#34383C"/>
  <path d="M65.1499 24.8689H65.1199L64.8199 24.8489C64.5699 24.8289 64.3799 24.6089 64.3999 24.3589C64.4199 24.1089 64.6399 23.9189 64.8899 23.9389L65.1899 23.9589C65.4399 23.9789 65.6299 24.1989 65.6099 24.4489C65.5899 24.6889 65.3899 24.8689 65.1499 24.8689Z" fill="#34383C"/>
  <path d="M91.6394 32.1703H91.6094L76.3394 31.0404C76.0894 31.0204 75.8994 30.8003 75.9194 30.5503C75.9394 30.3003 76.1594 30.1104 76.4094 30.1304L91.6794 31.2603C91.9294 31.2803 92.1194 31.5004 92.0994 31.7504C92.0794 31.9904 91.8794 32.1703 91.6394 32.1703Z" fill="#34383C"/>
  <path d="M72.7495 30.7683H72.7195L67.1695 30.3583C66.9195 30.3383 66.7295 30.1183 66.7495 29.8683C66.7695 29.6183 66.9895 29.4183 67.2395 29.4483L72.7895 29.8583C73.0395 29.8783 73.2295 30.0983 73.2095 30.3483C73.1895 30.5883 72.9895 30.7683 72.7495 30.7683Z" fill="#34383C"/>
  <path d="M64.6996 30.1697H64.6696L61.0797 29.8997C60.8297 29.8797 60.6396 29.6597 60.6596 29.4097C60.6796 29.1597 60.8996 28.9697 61.1496 28.9897L64.7396 29.2597C64.9896 29.2797 65.1797 29.4997 65.1597 29.7497C65.1397 29.9897 64.9396 30.1697 64.6996 30.1697Z" fill="#34383C"/>
  <path d="M60.0604 22.7517L82.1004 13.3217L81.6004 11.2617L57.6904 13.0617" fill="white"/>
  <path d="M60.2704 23.2503L59.8504 22.2603L81.4804 13.0003L81.1904 11.8303L57.7304 13.5903L57.6504 12.5203L81.5604 10.7203C81.8204 10.7003 82.0604 10.8703 82.1204 11.1303L82.6204 13.1903C82.6804 13.4503 82.5504 13.7103 82.3104 13.8103L60.2604 23.2403L60.2704 23.2503Z" fill="#34383C"/>
  <path d="M60.4201 24.8203L56.5201 33.7903C56.4601 33.9103 56.3501 34.0103 56.2201 34.0403L47.9401 36.0603L39.6601 38.0803C39.5301 38.1103 39.3801 38.0803 39.2801 38.0003L31.5801 31.7403" fill="white"/>
  <path d="M39.5502 38.6398C39.3302 38.6398 39.1202 38.5698 38.9502 38.4298L31.2402 32.1598L31.9202 31.3198L39.5802 37.5398L56.0602 33.5098L59.9402 24.5898L60.9302 25.0198L57.0302 33.9898C56.9002 34.2798 56.6602 34.4798 56.3602 34.5498L39.8002 38.5998C39.7202 38.6198 39.6402 38.6298 39.5602 38.6298L39.5502 38.6398Z" fill="#34383C"/>
  <path d="M31.0997 29.8289L7.18969 31.6289L6.67969 29.5689L28.7297 20.1289" fill="white"/>
  <path d="M7.18982 32.1684C6.93982 32.1684 6.72982 31.9984 6.66982 31.7584L6.16982 29.6984C6.10982 29.4384 6.23982 29.1784 6.47982 29.0784L28.5298 19.6484L28.9498 20.6384L7.31982 29.8984L7.60982 31.0684L31.0698 29.3084L31.1498 30.3784L7.23982 32.1784C7.23982 32.1784 7.20982 32.1784 7.19982 32.1784L7.18982 32.1684Z" fill="#34383C"/>
  <path d="M56.4989 10.4192L28.483 17.2643C28.2416 17.3233 28.0937 17.5668 28.1527 17.8082L31.5278 31.6219C31.5868 31.8633 31.8303 32.0112 32.0717 31.9522L60.0876 25.1072C60.329 25.0482 60.4769 24.8046 60.418 24.5632L57.0429 10.7495C56.9839 10.5081 56.7404 10.3602 56.4989 10.4192Z" fill="white"/>
  <path d="M31.9695 32.4986C31.7895 32.4986 31.6195 32.4486 31.4595 32.3586C31.2295 32.2186 31.0795 32.0086 31.0095 31.7486L27.6295 17.9286C27.5695 17.6686 27.6095 17.4086 27.7495 17.1786C27.8895 16.9486 28.0995 16.7986 28.3595 16.7286L56.3795 9.87856C56.6395 9.81856 56.8995 9.85856 57.1295 9.99856C57.3595 10.1386 57.5095 10.3486 57.5795 10.6086L60.9595 24.4286C61.0895 24.9586 60.7595 25.4886 60.2395 25.6186L32.2195 32.4686C32.1395 32.4886 32.0595 32.4986 31.9795 32.4986H31.9695ZM28.6995 17.7586L32.0295 31.4086L59.8795 24.5986L56.5495 10.9586L28.6995 17.7686V17.7586Z" fill="#34383C"/>
  <path d="M47.3503 40.9331C51.3489 40.9331 54.5904 37.6917 54.5904 33.6931C54.5904 29.6946 51.3489 26.4531 47.3503 26.4531C43.3518 26.4531 40.1104 29.6946 40.1104 33.6931C40.1104 37.6917 43.3518 40.9331 47.3503 40.9331Z" fill="white"/>
  <path d="M47.3399 41.4817C45.9299 41.4817 44.5499 41.1017 43.3199 40.3517C41.5399 39.2717 40.2899 37.5617 39.7999 35.5517C39.3099 33.5317 39.6299 31.4417 40.7099 29.6617C41.7899 27.8817 43.4999 26.6317 45.5099 26.1417C47.5299 25.6517 49.6199 25.9717 51.3999 27.0517C53.1799 28.1317 54.4299 29.8317 54.9199 31.8517C55.4099 33.8717 55.0899 35.9617 54.0099 37.7417C52.9299 39.5217 51.2199 40.7717 49.2099 41.2617C48.5899 41.4117 47.9699 41.4917 47.3499 41.4917L47.3399 41.4817ZM47.3699 26.9917C46.8399 26.9917 46.2999 27.0517 45.7699 27.1817C44.0299 27.6017 42.5599 28.6817 41.6299 30.2117C40.6999 31.7417 40.4199 33.5417 40.8499 35.2817C41.2799 37.0217 42.3499 38.4917 43.8799 39.4217C45.4099 40.3517 47.2099 40.6317 48.9499 40.2017C50.6899 39.7817 52.1599 38.7017 53.0899 37.1717C54.0199 35.6417 54.2999 33.8417 53.8699 32.1017C53.4399 30.3617 52.3699 28.8917 50.8399 27.9617C49.7799 27.3117 48.5799 26.9817 47.3699 26.9817V26.9917Z" fill="#34383C"/>
  <path d="M47.3503 39.0111C50.2884 39.0111 52.6703 36.6292 52.6703 33.6911C52.6703 30.7529 50.2884 28.3711 47.3503 28.3711C44.4121 28.3711 42.0303 30.7529 42.0303 33.6911C42.0303 36.6292 44.4121 39.0111 47.3503 39.0111Z" class="blue--fill"/>
  <path d="M60.0604 22.7517L82.1004 13.3217L81.6004 11.2617L57.6904 13.0617" fill="white"/>
  <path d="M60.2704 23.2503L59.8504 22.2603L81.4804 13.0003L81.1904 11.8303L57.7304 13.5903L57.6504 12.5203L81.5604 10.7203C81.8204 10.7003 82.0604 10.8703 82.1204 11.1303L82.6204 13.1903C82.6804 13.4503 82.5504 13.7103 82.3104 13.8103L60.2604 23.2403L60.2704 23.2503Z" fill="#34383C"/>
  <path d="M60.4201 24.8203L56.5201 33.7903C56.4601 33.9103 56.3501 34.0103 56.2201 34.0403L47.9401 36.0603L39.6601 38.0803C39.5301 38.1103 39.3801 38.0803 39.2801 38.0003L31.5801 31.7403" fill="white"/>
  <path d="M39.5502 38.6398C39.3302 38.6398 39.1202 38.5698 38.9502 38.4298L31.2402 32.1598L31.9202 31.3198L39.5802 37.5398L56.0602 33.5098L59.9402 24.5898L60.9302 25.0198L57.0302 33.9898C56.9002 34.2798 56.6602 34.4798 56.3602 34.5498L39.8002 38.5998C39.7202 38.6198 39.6402 38.6298 39.5602 38.6298L39.5502 38.6398Z" fill="#34383C"/>
  <path d="M31.0997 29.8289L7.18969 31.6289L6.67969 29.5689L28.7297 20.1289" fill="white"/>
  <path d="M7.18982 32.1684C6.93982 32.1684 6.72982 31.9984 6.66982 31.7584L6.16982 29.6984C6.10982 29.4384 6.23982 29.1784 6.47982 29.0784L28.5298 19.6484L28.9498 20.6384L7.31982 29.8984L7.60982 31.0684L31.0698 29.3084L31.1498 30.3784L7.23982 32.1784C7.23982 32.1784 7.20982 32.1784 7.19982 32.1784L7.18982 32.1684Z" fill="#34383C"/>
  <path d="M56.4989 10.4192L28.483 17.2643C28.2416 17.3233 28.0937 17.5668 28.1527 17.8082L31.5278 31.6219C31.5868 31.8633 31.8303 32.0112 32.0717 31.9522L60.0876 25.1072C60.329 25.0482 60.4769 24.8046 60.418 24.5632L57.0429 10.7495C56.9839 10.5081 56.7404 10.3602 56.4989 10.4192Z" fill="white"/>
  <path d="M31.9695 32.4986C31.7895 32.4986 31.6195 32.4486 31.4595 32.3586C31.2295 32.2186 31.0795 32.0086 31.0095 31.7486L27.6295 17.9286C27.5695 17.6686 27.6095 17.4086 27.7495 17.1786C27.8895 16.9486 28.0995 16.7986 28.3595 16.7286L56.3795 9.87856C56.6395 9.81856 56.8995 9.85856 57.1295 9.99856C57.3595 10.1386 57.5095 10.3486 57.5795 10.6086L60.9595 24.4286C61.0895 24.9586 60.7595 25.4886 60.2395 25.6186L32.2195 32.4686C32.1395 32.4886 32.0595 32.4986 31.9795 32.4986H31.9695ZM28.6995 17.7586L32.0295 31.4086L59.8795 24.5986L56.5495 10.9586L28.6995 17.7686V17.7586Z" fill="#34383C"/>
  <path d="M47.3503 40.9331C51.3489 40.9331 54.5904 37.6917 54.5904 33.6931C54.5904 29.6946 51.3489 26.4531 47.3503 26.4531C43.3518 26.4531 40.1104 29.6946 40.1104 33.6931C40.1104 37.6917 43.3518 40.9331 47.3503 40.9331Z" fill="white"/>
  <path d="M47.3399 41.4817C45.9299 41.4817 44.5499 41.1017 43.3199 40.3517C41.5399 39.2717 40.2899 37.5617 39.7999 35.5517C39.3099 33.5317 39.6299 31.4417 40.7099 29.6617C41.7899 27.8817 43.4999 26.6317 45.5099 26.1417C47.5299 25.6517 49.6199 25.9717 51.3999 27.0517C53.1799 28.1317 54.4299 29.8317 54.9199 31.8517C55.4099 33.8717 55.0899 35.9617 54.0099 37.7417C52.9299 39.5217 51.2199 40.7717 49.2099 41.2617C48.5899 41.4117 47.9699 41.4917 47.3499 41.4917L47.3399 41.4817ZM47.3699 26.9917C46.8399 26.9917 46.2999 27.0517 45.7699 27.1817C44.0299 27.6017 42.5599 28.6817 41.6299 30.2117C40.6999 31.7417 40.4199 33.5417 40.8499 35.2817C41.2799 37.0217 42.3499 38.4917 43.8799 39.4217C45.4099 40.3517 47.2099 40.6317 48.9499 40.2017C50.6899 39.7817 52.1599 38.7017 53.0899 37.1717C54.0199 35.6417 54.2999 33.8417 53.8699 32.1017C53.4399 30.3617 52.3699 28.8917 50.8399 27.9617C49.7799 27.3117 48.5799 26.9817 47.3699 26.9817V26.9917Z" fill="#34383C"/>
  <path d="M47.3503 39.0111C50.2884 39.0111 52.6703 36.6292 52.6703 33.6911C52.6703 30.7529 50.2884 28.3711 47.3503 28.3711C44.4121 28.3711 42.0303 30.7529 42.0303 33.6911C42.0303 36.6292 44.4121 39.0111 47.3503 39.0111Z" class="blue--fill"/>
</svg>
