<svg viewBox="0 0 24 24" xmlns="http://www.w3.org/2000/svg">
	<g fill="none" stroke="currentColor" stroke-width="2" stroke-linecap="round">
		<path d="M2.01 6.59h7.27" />
		<path d="M14.73 6.59h7.27" />
		<path d="M5.64 6.59V4.78" />
		<path d="M18.36 6.59V4.78" />
		<path
			d="M5.64 9.23v2.24c0 .24.05.47.14.69.09.22.22.42.39.59l3.18 3.21c.34.34.81.54 1.29.54h2.73c.48 0 .95-.19 1.29-.54l3.18-3.21c.34-.34.53-.8.53-1.28V9.23" />
		<path d="M6.55 11.95c4.54-1.82 6.36-1.82 10.9 0" />
	</g>
	<path fill="currentColor"
		d="M6.81 18.62c.17.47.69.72 1.16.55.47-.17.72-.69.55-1.16zm1.71-.61c-.36-1-.3-1.6-.19-1.94.11-.33.32-.51.48-.6l-.89-1.58c-.48.27-1.03.77-1.31 1.6-.28.82-.25 1.86.2 3.13z" />
	<path fill="currentColor"
		d="M17.19 18.62c-.17.47-.69.72-1.16.55-.47-.17-.72-.69-.55-1.16zm-1.71-.61c.36-1 .3-1.6.19-1.94-.11-.33-.32-.51-.48-.6l.89-1.58c.48.27 1.03.77 1.31 1.6.28.82.25 1.86-.2 3.13z" />
</svg>