<svg viewBox="0 0 18 18" fill="none" xmlns="http://www.w3.org/2000/svg">
    <path
        d="m17.504 4.996-1.62 1.62a.42.42 0 0 1-.598 0l-3.902-3.902a.42.42 0 0 1 0-.598l1.62-1.62a1.69 1.69 0 0 1 2.388 0l2.112 2.112a1.685 1.685 0 0 1 0 2.388M9.992 3.508.76 12.74l-.746 4.272a.845.845 0 0 0 .978.977l4.271-.749 9.232-9.232a.42.42 0 0 0 0-.597l-3.902-3.903a.426.426 0 0 0-.601 0M4.363 11.95a.49.49 0 0 1 0-.696L9.777 5.84a.49.49 0 0 1 .696 0 .49.49 0 0 1 0 .696L5.06 11.95a.49.49 0 0 1-.696 0m-1.27 2.957h1.688v1.276l-2.267.398-1.094-1.094.398-2.267h1.276z"
        fill="currentColor" />
</svg>