<svg width="24" height="24" viewBox="0 0 24 24" fill="none" xmlns="http://www.w3.org/2000/svg">
<path d="M15 18.95V16.95H17V4.94995H5V7.94995H3V4.94995C3 4.39995 3.19583 3.92912 3.5875 3.53745C3.97917 3.14578 4.45 2.94995 5 2.94995H17C17.55 2.94995 18.0208 3.14578 18.4125 3.53745C18.8042 3.92912 19 4.39995 19 4.94995V9.44995L23 5.44995V16.45L19 12.45V16.95C19 17.5 18.8042 17.9708 18.4125 18.3625C18.0208 18.7541 17.55 18.95 17 18.95H15ZM5.45 21.95C5.16667 21.95 4.90417 21.8958 4.6625 21.7875C4.42083 21.6791 4.20833 21.5333 4.025 21.35L1 18.35L1.35 18C1.5 17.85 1.66667 17.7375 1.85 17.6625C2.03333 17.5875 2.21667 17.55 2.4 17.55C2.6 17.55 2.79167 17.5875 2.975 17.6625C3.15833 17.7375 3.31667 17.85 3.45 18L4 18.55V11.2C4 10.9833 4.075 10.8041 4.225 10.6625C4.375 10.5208 4.55 10.45 4.75 10.45C4.96667 10.45 5.14583 10.5208 5.2875 10.6625C5.42917 10.8041 5.5 10.9833 5.5 11.2V14.95H6.5V9.69995C6.5 9.48328 6.575 9.30412 6.725 9.16245C6.875 9.02078 7.05 8.94995 7.25 8.94995C7.46667 8.94995 7.64583 9.02078 7.7875 9.16245C7.92917 9.30412 8 9.48328 8 9.69995V14.95H9V10.7C9 10.4833 9.075 10.3041 9.225 10.1625C9.375 10.0208 9.55 9.94995 9.75 9.94995C9.96667 9.94995 10.1458 10.0208 10.2875 10.1625C10.4292 10.3041 10.5 10.4833 10.5 10.7V14.95H11.5V11.7C11.5 11.4833 11.575 11.3041 11.725 11.1625C11.875 11.0208 12.05 10.95 12.25 10.95C12.4667 10.95 12.6458 11.0208 12.7875 11.1625C12.9292 11.3041 13 11.4833 13 11.7V19.95C13 20.5 12.8083 20.9708 12.425 21.3625C12.0417 21.7541 11.5667 21.95 11 21.95H5.45Z" fill="#2E3134"/>
</svg>
