<svg width="26" height="26" viewBox="0 0 26 26" fill="none" xmlns="http://www.w3.org/2000/svg">
<rect width="26" height="26" rx="7" fill="#6A6F83"/>
<path d="M13.332 12.0467C11.3995 11.5353 10.778 11.0067 10.778 10.1833C10.778 9.23866 11.6378 8.58 13.0766 8.58C14.592 8.58 15.1539 9.31666 15.205 10.4H17.0864C17.0268 8.90933 16.1329 7.54 14.3536 7.098V5.2H11.7996V7.072C10.148 7.436 8.8199 8.528 8.8199 10.2007C8.8199 12.2027 10.446 13.1993 12.8212 13.78C14.9496 14.3 15.3752 15.0627 15.3752 15.8687C15.3752 16.4667 14.9581 17.42 13.0766 17.42C11.3228 17.42 10.6333 16.6227 10.5396 15.6H8.66666C8.76882 17.498 10.165 18.564 11.7996 18.9193V20.8H14.3536V18.9367C16.0137 18.616 17.3333 17.6367 17.3333 15.86C17.3333 13.3987 15.2646 12.558 13.332 12.0467Z" fill="white"/>
</svg>
