<svg width="18" height="18" viewBox="0 0 18 18" fill="none" aria-label="full screen" xmlns="http://www.w3.org/2000/svg">
  <path fill-rule="evenodd" clip-rule="evenodd" d="M5.25002 0.666504C2.71871 0.666504 0.666687 2.71853 0.666687 5.24984V12.7498C0.666687 15.2811 2.71872 17.3332 5.25002 17.3332H12.75C15.2813 17.3332 17.3334 15.2811 17.3334 12.7498V5.24984C17.3334 2.71853 15.2813 0.666504 12.75 0.666504H5.25002ZM10.528 3.89571C10.2403 3.89571 10.0071 4.1289 10.0071 4.41654C10.0071 4.70419 10.2403 4.93738 10.528 4.93738H12.3261L9.65042 7.61307C9.44702 7.81647 9.44702 8.14625 9.65042 8.34964C9.85382 8.55304 10.1836 8.55304 10.387 8.34964L13.0627 5.67395V7.4721C13.0627 7.75975 13.2959 7.99293 13.5835 7.99293C13.8712 7.99293 14.1043 7.75975 14.1043 7.4721V4.41654C14.1043 4.1289 13.8712 3.89571 13.5835 3.89571H10.528ZM8.34995 10.3867C8.55335 10.1833 8.55335 9.85351 8.34995 9.65011C8.14655 9.44671 7.81678 9.44671 7.61338 9.65011L4.93768 12.3258V10.5277C4.93768 10.24 4.7045 10.0068 4.41685 10.0068C4.1292 10.0068 3.89602 10.24 3.89602 10.5277V13.5832C3.89602 13.8709 4.1292 14.104 4.41685 14.104H7.4724C7.76005 14.104 7.99324 13.8709 7.99324 13.5832C7.99324 13.2956 7.76005 13.0624 7.4724 13.0624H5.67425L8.34995 10.3867Z" fill="#2E3134"/>
</svg>
