<svg width="20" height="20" viewbox="0 0 15 15" fill="none" aria-hidden="true" xmlns="http://www.w3.org/2000/svg">
  <path d="M1.528 5.889a2.18 2.18 0 0 0 .639-1.542 2.18 2.18 0 0 1 2.18-2.18 2.18 2.18 0 0 0 1.542-.639l.069-.07a2.417 2.417 0 0 1 3.418 0 2.417 2.417 0 0 0 1.708.709h.098a2.652 2.652 0 0 1 2.651 2.651v.236c0 .552.22 1.082.61 1.473a2.083 2.083 0 0 1 0 2.946c-.39.39-.61.92-.61 1.473v.236a2.652 2.652 0 0 1-2.651 2.651h-.098c-.64 0-1.255.255-1.708.708a2.417 2.417 0 0 1-3.418 0l-.07-.07a2.18 2.18 0 0 0-1.541-.638 2.18 2.18 0 0 1-2.18-2.18 2.18 2.18 0 0 0-.639-1.542l-.167-.166a2.75 2.75 0 0 1 0-3.89l.167-.166zM8 10.5c1.417 0 2.5-1.083 2.5-2.5S9.417 5.5 8 5.5 5.5 6.583 5.5 8s1.083 2.5 2.5 2.5z" fill="currentColor"/>
</svg>
