<svg width="22" height="22" fill="none" xmlns="http://www.w3.org/2000/svg" aria-labelledby="gridview-icon"  aria-describedby="gridview-icon-desc">
	<title id="gridview-icon">Grid View</title>
	<desc id="gridview-icon-desc">Icon to display data in grid view</desc>
  <path d="M6.92 1H3.54C2.13 1 1 2.15 1 3.561V6.97c0 1.42 1.13 2.56 2.54 2.56h3.38c1.4 0 2.54-1.14 2.54-2.56V3.561C9.46 2.15 8.32 1 6.92 1zm11.56 0H15.1c-1.41 0-2.54 1.15-2.54 2.561V6.97c0 1.42 1.13 2.56 2.54 2.56h3.38c1.4 0 2.54-1.14 2.54-2.56V3.561C21.02 2.15 19.88 1 18.48 1zM6.92 12.53H3.54C2.13 12.53 1 13.68 1 15.09v3.41c0 1.42 1.13 2.56 2.54 2.56h3.38c1.4 0 2.54-1.14 2.54-2.56v-3.41c0-1.41-1.14-2.56-2.54-2.56zm11.56 0H15.1c-1.41 0-2.54 1.15-2.54 2.56v3.41c0 1.42 1.13 2.56 2.54 2.56h3.38c1.4 0 2.54-1.14 2.54-2.56v-3.41c0-1.41-1.14-2.56-2.54-2.56z" fill="currentColor"/>
</svg>