<svg xmlns="http://www.w3.org/2000/svg" viewBox="0 0 22 22">
  <path fill="currentColor"
    d="M11.01 20.66h-.34c-2.47-.08-4.84-1.14-6.68-2.98s-2.9-4.22-2.98-6.69c-.09-2.79.95-5.42 2.93-7.4S8.54.57 11.33.67c2.47.08 4.84 1.14 6.68 2.98s2.9 4.22 2.98 6.68c.09 2.79-.95 5.42-2.93 7.4s-4.4 2.93-7.06 2.93Z" />
  <path fill="#fff"
    d="M13.01 4.71c.59.3 1.05.73 1.38 1.28.33.56.49 1.2.49 1.93 0 1.29-.4 2.24-1.19 2.84-.8.6-1.88.91-3.26.91l-.05 1.97H9.3l-.07-2.87h.47c1.23 0 2.2-.19 2.92-.58.71-.39 1.07-1.15 1.07-2.27 0-.79-.25-1.42-.74-1.88-.5-.47-1.15-.7-1.96-.7s-1.46.22-1.94.66-.72 1.05-.72 1.81h-1.2c0-.72.16-1.34.49-1.88a3.4 3.4 0 0 1 1.36-1.24c.58-.29 1.25-.44 2-.44s1.44.15 2.04.45ZM9.19 16.79a.93.93 0 0 1-.26-.66.89.89 0 0 1 .91-.91.89.89 0 0 1 .9.91c0 .26-.09.48-.26.66s-.39.27-.64.27-.48-.09-.65-.27" />
</svg>