<svg width="26" height="27" viewBox="0 0 26 27" fill="none" xmlns="http://www.w3.org/2000/svg">
<path fill-rule="evenodd" clip-rule="evenodd" d="M16.8035 20.7C17.3534 20.7 17.7992 20.2275 17.7992 19.6445V7.35547C17.7992 6.77255 17.3534 6.3 16.8035 6.3H9.19493C8.64501 6.3 8.19922 6.77255 8.19922 7.35546L8.19922 19.6437C8.19922 20.2266 8.6449 20.6991 9.19474 20.6992L16.8035 20.7ZM13.7992 19.0977V17.5L16.1992 17.5V19.0977L13.7992 19.0977ZM16.1992 15.9L13.7992 15.9V14.3H16.1992V15.9ZM16.1992 12.7H13.7992V11.1H16.1992V12.7ZM16.1992 9.5H13.7992V7.90227H16.1992V9.5ZM12.1992 7.9V9.5H9.79922V7.9H12.1992ZM9.79922 11.1H12.1992V12.7H9.79922V11.1ZM9.79922 14.3L12.1992 14.3V15.9005L9.79922 15.9V14.3ZM9.79922 17.5L12.2434 17.5005V19.0975L9.79922 19.097V17.5Z" fill="#2E3134"/>
<path d="M4.21604 22.11L4.43027 21.9L4.21604 22.11C4.27345 22.1686 4.33143 22.2265 4.38999 22.284C4.68325 22.5714 4.99085 22.8444 5.31163 23.1015C7.41744 24.7899 10.0912 25.8 13 25.8C19.7931 25.8 25.3 20.2931 25.3 13.5C25.3 10.5912 24.2899 7.91744 22.6015 5.81163C22.3444 5.49085 22.0714 5.18325 21.784 4.88999C21.7265 4.83143 21.6686 4.77345 21.61 4.71604L21.4 4.93027L21.61 4.71604C21.3755 4.48619 21.1319 4.26565 20.8797 4.05501C18.7457 2.27277 15.9977 1.2 13 1.2C6.2069 1.2 0.7 6.7069 0.7 13.5C0.7 16.4977 1.77277 19.2457 3.55501 21.3797C3.76565 21.6319 3.98619 21.8755 4.21604 22.11ZM13 4.2C15.0717 4.2 16.9821 4.87503 18.5281 6.02029L5.52029 19.0281C4.37503 17.4821 3.7 15.5717 3.7 13.5C3.7 8.36375 7.86375 4.2 13 4.2ZM13 22.8C11.0153 22.8 9.17905 22.1806 7.66916 21.1219L20.6219 8.16916C21.6806 9.67905 22.3 11.5153 22.3 13.5C22.3 18.6362 18.1362 22.8 13 22.8Z" fill="#2E3134" stroke="white" stroke-width="0.6"/>
</svg>
