<svg width="90" height="90" viewBox="0 0 90 90" fill="none" xmlns="http://www.w3.org/2000/svg" aria-labelledby="inprogress-icon"  aria-describedby="inprogress-icon-desc">
	<title id="inprogress-icon">In progress</title>
	<desc id="inprogress-icon-desc">Icon to indicate a process is in progress</desc>
  <path d="M45 22.4591C46.24 22.4591 47.25 21.4491 47.25 20.2091V2.78906C47.25 1.54906 46.24 0.539062 45 0.539062C43.76 0.539062 42.75 1.54906 42.75 2.78906V20.2091C42.75 21.4491 43.76 22.4591 45 22.4591Z" class="blue--fill"/>
  <g fill="#34383C">
    <path d="M30.6202 24.7104C31.0202 25.4004 31.7702 25.8404 32.5702 25.8404C32.9602 25.8404 33.3502 25.7404 33.6902 25.5404C34.2102 25.2404 34.5802 24.7504 34.7402 24.1704C34.9002 23.5904 34.8202 22.9804 34.5102 22.4604L25.8002 7.38037C25.5002 6.86037 25.0102 6.49037 24.4302 6.33037C23.8502 6.17037 23.2402 6.25037 22.7202 6.56037C22.2002 6.86037 21.8302 7.35037 21.6702 7.93037C21.5102 8.51037 21.5902 9.12037 21.9002 9.64037L30.6102 24.7204L30.6202 24.7104Z"/>
    <path d="M7.28997 25.9715L22.37 34.6815C22.71 34.8815 23.1 34.9815 23.49 34.9815C24.29 34.9815 25.04 34.5515 25.44 33.8515C25.74 33.3315 25.82 32.7215 25.67 32.1415C25.51 31.5615 25.14 31.0715 24.62 30.7715L9.53997 22.0615C9.01997 21.7615 8.40997 21.6815 7.82997 21.8315C7.24997 21.9915 6.75997 22.3615 6.45997 22.8815C6.15997 23.4015 6.07997 24.0115 6.22997 24.5915C6.38997 25.1715 6.75997 25.6615 7.27997 25.9615L7.28997 25.9715Z"/>
    <path d="M22.45 45.1914C22.45 43.9514 21.44 42.9414 20.2 42.9414H2.79004C1.55004 42.9414 0.540039 43.9514 0.540039 45.1914C0.540039 46.4314 1.55004 47.4414 2.79004 47.4414H20.2C21.44 47.4414 22.45 46.4314 22.45 45.1914Z"/>
    <path d="M25.5296 56.5015C25.2296 55.9815 24.7496 55.6115 24.1596 55.4515C23.5796 55.2915 22.9696 55.3715 22.4496 55.6815L7.36963 64.3915C6.84963 64.6915 6.47963 65.1815 6.31963 65.7615C6.15963 66.3415 6.23963 66.9515 6.54963 67.4715C6.94963 68.1615 7.69963 68.6015 8.49963 68.6015C8.88963 68.6015 9.27963 68.5015 9.61963 68.3015L24.6996 59.5915C25.7696 58.9715 26.1396 57.5915 25.5196 56.5215L25.5296 56.5015Z"/>
    <path d="M33.8496 64.749C33.3296 64.449 32.7296 64.369 32.1396 64.519C31.5596 64.679 31.0696 65.049 30.7696 65.569L22.0596 80.649C21.4396 81.729 21.8096 83.099 22.8796 83.719C23.2196 83.919 23.6096 84.019 23.9996 84.019C24.7996 84.019 25.5496 83.589 25.9496 82.899L34.6596 67.819C35.2796 66.739 34.9096 65.369 33.8396 64.749H33.8496Z"/>
    <path d="M45.1904 67.7305C43.9504 67.7305 42.9404 68.7405 42.9404 69.9805V87.3905C42.9404 88.6305 43.9504 89.6405 45.1904 89.6405C46.4304 89.6405 47.4404 88.6305 47.4404 87.3905V69.9805C47.4404 68.7405 46.4304 67.7305 45.1904 67.7305Z"/>
    <path d="M59.5698 65.4819C59.2698 64.9619 58.7798 64.5919 58.1998 64.4319C57.6198 64.2719 57.0098 64.3519 56.4898 64.6619C55.9698 64.9619 55.5997 65.4519 55.4397 66.0319C55.2797 66.6119 55.3597 67.2219 55.6697 67.7419L64.3797 82.8219C64.7797 83.5119 65.5298 83.9519 66.3298 83.9519C66.7198 83.9519 67.1097 83.8519 67.4497 83.6519C68.5197 83.0319 68.8897 81.6519 68.2697 80.5819L59.5597 65.5019L59.5698 65.4819Z"/>
    <path d="M82.9 64.2217L67.82 55.5117C67.3 55.2117 66.69 55.1317 66.11 55.2917C65.53 55.4517 65.04 55.8217 64.75 56.3417C64.13 57.4217 64.5 58.7917 65.57 59.4117L80.65 68.1217C80.99 68.3217 81.38 68.4217 81.77 68.4217C82.57 68.4217 83.32 67.9917 83.72 67.3017C84.02 66.7817 84.1 66.1717 83.95 65.5917C83.79 65.0117 83.42 64.5217 82.9 64.2217V64.2217Z"/>
  </g>
  <g class="blue--fill">
    <path d="M87.4002 42.75H69.9902C68.7502 42.75 67.7402 43.76 67.7402 45C67.7402 46.24 68.7502 47.25 69.9902 47.25H87.4002C88.6402 47.25 89.6502 46.24 89.6502 45C89.6502 43.76 88.6402 42.75 87.4002 42.75Z"/>
    <path d="M64.43 31.9898C64.27 32.5698 64.35 33.1797 64.66 33.6997C65.06 34.3897 65.81 34.8298 66.61 34.8298C67 34.8298 67.39 34.7297 67.73 34.5297L82.81 25.8197C83.33 25.5197 83.7 25.0297 83.86 24.4497C84.02 23.8697 83.94 23.2597 83.63 22.7397C83.33 22.2197 82.85 21.8497 82.27 21.6897C81.69 21.5297 81.08 21.6097 80.56 21.9197L65.48 30.6298C64.96 30.9298 64.59 31.4197 64.43 31.9997V31.9898Z"/>
    <path d="M56.33 25.4383C56.67 25.6383 57.06 25.7383 57.45 25.7383C58.25 25.7383 59 25.3083 59.4 24.6083L68.11 9.52825C68.41 9.00825 68.49 8.39825 68.34 7.81825C68.18 7.23825 67.81 6.74825 67.29 6.44825C66.77 6.14825 66.17 6.06825 65.58 6.21825C65 6.37825 64.51 6.74825 64.21 7.26825L55.5 22.3483C55.2 22.8683 55.12 23.4783 55.27 24.0583C55.43 24.6383 55.8 25.1283 56.32 25.4283L56.33 25.4383Z"/>
  </g>
</svg>
