<svg viewBox="0 0 40 40" fill="none" xmlns="http://www.w3.org/2000/svg">
   <circle cx="20" cy="20" r="18" fill="#f59819" />
   <path
      d="M20 25q.424 0 .713-.287A.97.97 0 0 0 21 24a.97.97 0 0 0-.287-.713A.97.97 0 0 0 20 23a.97.97 0 0 0-.712.287A.97.97 0 0 0 19 24q0 .424.288.713.287.287.712.287m0-4q.424 0 .713-.288A.97.97 0 0 0 21 20v-4a.97.97 0 0 0-.287-.712A.97.97 0 0 0 20 15a.97.97 0 0 0-.712.288A.97.97 0 0 0 19 16v4q0 .424.288.712.287.288.712.288m0 9a9.7 9.7 0 0 1-3.9-.787 10.1 10.1 0 0 1-3.175-2.138q-1.35-1.35-2.138-3.175A9.7 9.7 0 0 1 10 20q0-2.075.788-3.9a10.1 10.1 0 0 1 2.137-3.175q1.35-1.35 3.175-2.137A9.7 9.7 0 0 1 20 10q2.075 0 3.9.788a10.1 10.1 0 0 1 3.175 2.137 10.1 10.1 0 0 1 2.138 3.175A9.7 9.7 0 0 1 30 20a9.7 9.7 0 0 1-.787 3.9 10.1 10.1 0 0 1-2.138 3.175 10.1 10.1 0 0 1-3.175 2.138A9.7 9.7 0 0 1 20 30m0-2q3.35 0 5.675-2.325T28 20t-2.325-5.675T20 12t-5.675 2.325T12 20t2.325 5.675T20 28"
      fill="#fff" />
</svg>