<svg xmlns="http://www.w3.org/2000/svg" viewBox="0 0 22 22" fill="currentColor">
  <path
    d="M20.08 12.25c-.35-.07-.7.15-.77.5-.82 3.9-4.32 6.74-8.31 6.74-4.46 0-8.13-3.46-8.47-7.84h3.1c.36 0 .65-.29.65-.65 0-2.6 2.11-4.71 4.71-4.71 1.17 0 2.26.42 3.11 1.17h-1.06c-.36 0-.65.29-.65.65s.29.65.65.65h2.48c.36 0 .65-.29.65-.65V5.63c0-.36-.29-.65-.65-.65s-.65.29-.65.65v.76A6.04 6.04 0 0 0 11 4.98c-3.1 0-5.65 2.35-5.98 5.36H1.85c-.36 0-.65.29-.65.65 0 5.4 4.4 9.8 9.8 9.8 4.61 0 8.64-3.27 9.59-7.77.07-.35-.15-.7-.5-.77Z" />
  <path
    d="M11 1.2c-4.61 0-8.64 3.27-9.59 7.77-.07.35.15.7.5.77.35.08.7-.15.77-.5C3.5 5.34 7 2.5 10.99 2.5c4.46 0 8.13 3.46 8.47 7.84h-3.1c-.36 0-.65.29-.65.65 0 2.6-2.11 4.71-4.71 4.71a4.67 4.67 0 0 1-3.11-1.17h1.06c.36 0 .65-.29.65-.65s-.29-.65-.65-.65H6.47c-.36 0-.65.29-.65.65v2.48c0 .36.29.65.65.65s.65-.29.65-.65v-.76c1.07.9 2.45 1.41 3.87 1.41 3.1 0 5.65-2.35 5.98-5.36h3.16c.36 0 .65-.29.65-.65 0-5.4-4.4-9.8-9.8-9.8Z" />
</svg>