<svg viewBox="0 0 30 30" xmlns="http://www.w3.org/2000/svg">
    <path
        d="m22.93 8.25-7.78-3.06a.34.34 0 0 0-.28 0l-7.8 3.06c-.32.12-.33.57-.02.71l7.79 3.61c.1.05.22.05.33 0l7.79-3.61c.31-.14.3-.59-.02-.71zM5.56 21.11l7.18 3.61c.67.34 1.46-.15 1.46-.9v-9.14c0-.39-.23-.75-.58-.92l-7.18-3.33c-.67-.31-1.43.18-1.43.92v8.87c0 .38.22.73.56.9zm17.99-10.67-7.16 3.31c-.36.17-.59.53-.59.93v9.12c0 .76.8 1.25 1.48.91l7.16-3.6c.35-.17.56-.53.56-.91v-8.84c0-.75-.77-1.24-1.45-.93z"
        fill="currentColor" />
</svg>