<svg viewBox="0 0 30 30" xmlns="http://www.w3.org/2000/svg">
    <g fill="currentColor">
        <circle cx="6.66" cy="19.51" r="1.66" />
        <circle cx="10.83" cy="11.57" r="1.66" />
        <circle cx="10.83" cy="16.66" r="1.66" />
        <circle cx="10.83" cy="21.49" r="1.66" />
        <circle cx="6.66" cy="14.56" r="1.66" />
        <path
            d="M14.99 4.64c-.92 0-1.66.74-1.66 1.66s.74 1.66 1.66 1.66 1.66-.74 1.66-1.66-.74-1.66-1.66-1.66m6.71 5.5s0 .06.01.09c0 .03.01.06.02.08 0 .02.01.04.02.07 0 .03.02.06.03.09 0 .02.01.03.02.05.01.03.03.07.04.1 0 .01.01.02.02.03.02.04.04.07.06.11 0 0 0 .01.01.02.02.04.05.07.07.11.19.26.45.45.76.57h.02c.05.02.1.03.15.05h.03l.15.03h.04c.06 0 .12.01.19.01.06 0 .13 0 .19-.01h.04c.05 0 .1-.02.15-.03h.03c.05-.01.1-.03.15-.05h.02c.06-.02.11-.04.16-.07a1.656 1.656 0 0 0-.74-3.14c-.54 0-1.01.25-1.31.65 0 0 0 .01-.01.02-.04.05-.07.1-.1.15 0 0 0 .01-.01.02a1.2 1.2 0 0 0-.15.37c0 .02 0 .03-.01.05l-.03.15v.06c0 .07-.01.13-.01.2v.22zm-4.59-2.18 3.59 1.41c.1-.5.35-.96.69-1.32l-3.72-1.46c-.06.51-.26.98-.56 1.37m5.49 4.54v4.42c.24-.07.48-.11.74-.11s.5.04.74.11V12.5c-.24.07-.48.11-.74.11s-.5-.04-.74-.11m2.39 6.81s-.01-.08-.02-.12v-.03c0-.05-.02-.09-.04-.14 0-.01 0-.03-.01-.04l-.03-.09c0-.02-.01-.03-.02-.05-.01-.03-.03-.06-.04-.09s-.03-.05-.04-.08c-.01-.02-.03-.04-.04-.06s-.03-.04-.04-.06c-.01-.01-.02-.03-.03-.04-.06-.08-.12-.15-.2-.22l-.02-.02a1.65 1.65 0 0 0-1.1-.43c-.27 0-.52.06-.74.18-.03.02-.07.04-.1.05-.09.06-.18.12-.26.19l-.02.02c-.07.07-.14.14-.2.21-.01.01-.02.03-.03.04-.01.02-.03.04-.04.06s-.03.04-.04.06-.03.05-.04.07c-.02.03-.03.06-.04.09 0 .02-.01.03-.02.05l-.03.09c0 .01 0 .03-.01.04-.01.04-.03.09-.04.14v.03c0 .04-.01.08-.02.12v.19c0 .54.26 1.02.67 1.32.13.1.27.18.43.23.01 0 .03.01.04.01.03 0 .05.02.08.02.02 0 .05.01.07.02.02 0 .05.01.07.01.03 0 .06.01.09.01h.21c.29 0 .56-.07.79-.2.05-.03.09-.05.14-.08.44-.3.73-.8.73-1.38v-.19zm-9 3.06s-.08-.06-.12-.08c-.04-.03-.09-.05-.13-.07-.22-.11-.47-.18-.74-.18s-.52.06-.74.18c-.13.07-.26.15-.36.25l-.02.02c-.07.07-.14.14-.2.22-.01.01-.02.03-.03.04-.01.02-.03.04-.04.06s-.03.04-.04.06-.03.05-.04.08c-.02.03-.03.06-.04.09 0 .02-.01.03-.02.05l-.03.09c0 .01-.01.03-.01.04-.01.04-.03.09-.04.14v.03c0 .04-.01.08-.02.12v.19c0 .11.01.23.03.33.02.11.05.21.1.31.02.05.04.1.07.14.28.52.83.87 1.46.87.29 0 .56-.07.79-.2a1.655 1.655 0 0 0 .2-2.79zm0-5.38s-.08-.06-.12-.08c-.04-.03-.09-.05-.13-.07-.22-.11-.47-.18-.74-.18s-.52.06-.74.18c-.13.07-.26.15-.36.25l-.02.02c-.07.07-.14.14-.2.22-.01.01-.02.03-.03.04-.01.02-.03.04-.04.06s-.03.04-.04.06-.03.05-.04.08c-.02.03-.03.06-.04.09 0 .02-.01.03-.02.05l-.03.09c0 .01-.01.03-.01.04-.01.04-.03.09-.04.14v.03c0 .04-.01.08-.02.12v.19c0 .11.01.23.03.33.02.11.05.21.1.31.02.05.04.1.07.14.28.52.83.87 1.46.87.29 0 .56-.07.79-.2a1.655 1.655 0 0 0 .2-2.79zm.98 4.89c.33.36.57.82.67 1.32l3.72-1.87a2.77 2.77 0 0 1-.67-1.32zm4.17-10.43c-.28-.4-.45-.89-.48-1.41l-3.33 1.54c.23.4.36.86.36 1.35v.12zm-4.88.41a.8.8 0 0 0-.13-.13s-.02-.02-.03-.02c-.04-.03-.08-.07-.12-.1-.01 0-.02-.02-.03-.02a1 1 0 0 0-.16-.1c-.06-.03-.11-.06-.17-.08-.01 0-.03 0-.04-.01-.04-.02-.09-.03-.14-.05-.02 0-.04-.01-.06-.02l-.13-.03h-.06c-.06 0-.13-.01-.2-.01s-.13 0-.2.01h-.06c-.05 0-.09.02-.13.03-.02 0-.04 0-.06.02-.05.01-.09.03-.14.05-.01 0-.03 0-.04.02-.06.02-.12.05-.17.08s-.11.06-.16.1c-.01 0-.02.02-.03.02-.04.03-.08.06-.12.1l-.03.03-.13.13c-.04.05-.08.1-.12.16a1.65 1.65 0 0 0-.13 1.57c.04.09.08.17.14.25l.07.1.02.02c.03.03.05.06.08.09l.02.02.09.09s.01 0 .02.01a1 1 0 0 0 .1.08h.01l.11.08c.04.02.08.05.12.07.22.11.47.18.74.18a1.53 1.53 0 0 0 .86-.25c.04-.02.08-.05.11-.08h.01c.03-.03.07-.05.1-.08 0 0 .01 0 .02-.01l.09-.09.02-.02c.03-.03.05-.06.08-.09 0 0 0-.01.01-.02.08-.11.16-.23.21-.36a1.65 1.65 0 0 0-.13-1.57c-.04-.06-.08-.11-.12-.16zM8.8 7.98c.3.39.49.86.54 1.38l3.55-1.39c-.3-.38-.51-.85-.56-1.37L8.81 7.98zm-1.03.41s-.07-.06-.11-.09a1 1 0 0 0-.12-.08h-.01c-.04-.02-.08-.05-.12-.07 0 0-.02 0-.02-.01-.04-.02-.07-.03-.11-.05-.01 0-.03 0-.04-.01-.03-.01-.07-.02-.1-.04-.02 0-.04-.01-.06-.02-.03 0-.06-.02-.09-.02s-.06 0-.09-.01h-.4c-.56.06-1.03.39-1.29.86-.13.23-.2.5-.2.79s.07.56.2.79c.26.47.73.8 1.29.86h.38c.03 0 .07 0 .1-.01.02 0 .04 0 .07-.01.03 0 .05-.01.08-.02.02 0 .05-.01.07-.02.02 0 .05-.02.07-.02.03 0 .05-.02.08-.03.02 0 .03-.02.05-.02.03-.01.06-.03.08-.04.08-.04.15-.09.22-.15.38-.3.62-.77.62-1.29 0-.49-.21-.93-.55-1.23z" />
    </g>
</svg>