<svg fill="none" xmlns="http://www.w3.org/2000/svg" viewBox="0 0 24 24">
    <path fill-rule="evenodd" clip-rule="evenodd"
        d="M9.405.03a.92.92 0 0 1 .881.237l1.28 1.266a1 1 0 0 1 .166.224l1.231 2.32q.04.075.065.154l.895 2.828 1.988 2.963h.618c.338 0 .648.184.81.48l.893 1.633 5.33 3.3a.923.923 0 0 1 0 1.57l-11.076 6.857a.92.92 0 0 1-.972 0L.437 17.005a.923.923 0 0 1-.347-1.183l2.183-4.574L4.37 4.041a.923.923 0 0 1 1.368-.53l1.207.74a.9.9 0 0 1 .31.312l.29.487.31-1.283.01-.041.886-3.06A.92.92 0 0 1 9.405.03m4.92 10.942-2.008-2.994a1 1 0 0 1-.114-.236l-.91-2.874-1.125-2.122-.076-.075-.449 1.548-.832 3.46a.923.923 0 0 1-1.69.259L5.802 5.73l-1.776 6.106a1 1 0 0 1-.053.14l-1.86 3.894 4.35 2.693 1.302-.807.544-1.682V14.77q0-.132.037-.26l.406-1.384a.92.92 0 0 1 .492-.575l.51-.241.246-2.255a.923.923 0 0 1 1.485-.629l2.57 1.999zm-6.11 8.676L12 21.991l9.323-5.771-4.27-2.644a.9.9 0 0 1-.325-.342l-.746-1.366h-.042l-.841 1.399a.923.923 0 0 1-1.358.253l-2.085-1.622-.123 1.125a.92.92 0 0 1-.524.735l-.603.284-.252.86v1.318a1 1 0 0 1-.045.284l-.692 2.142a.92.92 0 0 1-.393.501z"
        fill="currentColor" />
</svg>