<svg width="22" height="22" fill="none" aria-hidden="true" xmlns="http://www.w3.org/2000/svg">
  <path d="M21 5.379c0-.817-.676-1.48-1.507-1.48h-6.575c-.832 0-1.508.663-1.508 1.48s.676 1.481 1.508 1.481h6.575c.831 0 1.507-.664 1.507-1.481zm-13.122 0c0 1.866-1.54 3.38-3.44 3.38C2.54 8.758 1 7.244 1 5.378 1 3.513 2.54 2 4.439 2c1.9 0 3.439 1.513 3.439 3.379zm13.122 11c0-.817-.676-1.48-1.507-1.48h-6.575c-.832 0-1.508.663-1.508 1.48s.676 1.481 1.508 1.481h6.575c.831 0 1.507-.664 1.507-1.481zm-13.122 0c0 1.866-1.54 3.38-3.44 3.38C2.54 19.758 1 18.244 1 16.378 1 14.513 2.54 13 4.439 13c1.9 0 3.439 1.513 3.439 3.379z" fill="currentColor"/>
</svg>
