<svg width="30" height="30" viewBox="0 0 30 30" fill="none" xmlns="http://www.w3.org/2000/svg">
<path d="M18.75 26.25L11.25 23.625L5.4375 25.875C5.02083 26.0417 4.63542 25.9948 4.28125 25.7344C3.92708 25.474 3.75 25.125 3.75 24.6875V7.1875C3.75 6.91667 3.82812 6.67708 3.98438 6.46875C4.14062 6.26042 4.35417 6.10417 4.625 6L11.25 3.75L18.75 6.375L24.5625 4.125C24.9792 3.95833 25.3646 4.00521 25.7188 4.26562C26.0729 4.52604 26.25 4.875 26.25 5.3125V22.8125C26.25 23.0833 26.1719 23.3229 26.0156 23.5312C25.8594 23.7396 25.6458 23.8958 25.375 24L18.75 26.25ZM17.5 23.1875V8.5625L12.5 6.8125V21.4375L17.5 23.1875ZM20 23.1875L23.75 21.9375V7.125L20 8.5625V23.1875ZM6.25 22.875L10 21.4375V6.8125L6.25 8.0625V22.875Z" fill="#2E3134"/>
</svg>
