<svg xmlns="http://www.w3.org/2000/svg" viewBox="0 0 360 360">
	<path
		d="M182.5 195.99v71.82h50.83V182.5h-37.34zM127.88 15.1h49.62v81.37h-49.62zm0 167.4v85.31h49.62v-71.82l-13.49-13.49zm105.45-85.02H182.5v66.53l13.49 13.49h37.34zm-55.83 0h-49.62v80.02h36.13l13.49-13.49zm56.83-82.38H282v81.37h-47.67zM78 182.5h48.88v85.31H78zm0-85.02h48.88v80.02H78zm156.33 171.33H282v76.09h-47.67zM78 15.1h48.88v81.37H78zm0 253.71h48.88v76.09H78zm49.88 0h49.62v76.09h-49.62zM234.33 97.48H282v80.02h-47.67zM182.5 268.81h50.83v76.09H182.5zm0-253.71h50.83v81.37H182.5zm51.83 167.4H282v85.31h-47.67z"
		fill="currentColor" />
	<path fill="currentColor" d="M46.1 62.61h262.8v69.73H46.1z" />
	<path
		d="M116.25 81.39v32.22h-6.46V92.65l-8.63 20.96h-4.89l-8.68-20.96v20.96h-6.46V81.39h7.34l10.25 23.95 10.25-23.95zm26.13 26.08h-12.83l-2.12 6.14h-6.79l11.59-32.26h7.52l11.58 32.26h-6.83zm-1.76-5.17-4.66-13.48-4.66 13.48zm34.34 11.31-6.97-10.85-6.33 10.85h-7.29l10.15-16.25-10.29-15.97h7.43l6.97 10.8 6.28-10.8h7.29l-10.11 16.2 10.3 16.02zm43.25-32.22v5.22h-13.43v8.26h10.29v5.12h-10.29v13.62h-6.46V81.39zm11.03 0v32.22h-6.46V81.39zm12.83 27.1h10.62v5.12h-17.08V81.39h6.46zm21.19 0h10.62v5.12H256.8V81.39h6.46z"
		fill="#fff" />
</svg>