<svg width="22" height="22" viewBox="0 0 22 22" fill="none" xmlns="http://www.w3.org/2000/svg">
<path d="M17 20.25V18.75H15.5C14.9477 18.75 14.5 18.3023 14.5 17.75C14.5 17.1977 14.9477 16.75 15.5 16.75H17V15.25C17 14.6977 17.4477 14.25 18 14.25C18.5523 14.25 19 14.6977 19 15.25V16.75H20.5C21.0523 16.75 21.5 17.1977 21.5 17.75C21.5 18.3023 21.0523 18.75 20.5 18.75H19V20.25C19 20.8023 18.5523 21.25 18 21.25C17.4477 21.25 17 20.8023 17 20.25ZM17 11.75V10.9814L13.5996 4.04102L10.2725 10.9785V16.75H12C12.5523 16.75 13 17.1977 13 17.75C13 18.3023 12.5523 18.75 12 18.75H2.5C1.46435 18.75 0.613005 17.9628 0.510742 16.9541L0.5 16.75V10.75C0.5 10.6003 0.533856 10.4524 0.598633 10.3174L4.64453 1.88477L4.71094 1.75781C5.06494 1.13789 5.72614 0.750095 6.44727 0.75H13.5908L13.7324 0.759766C14.0569 0.806079 14.3423 1.00985 14.4893 1.30957L18.7959 10.1016L18.8848 10.3125C18.9608 10.5268 19 10.753 19 10.9814V11.75C19 12.3023 18.5523 12.75 18 12.75C17.4477 12.75 17 12.3023 17 11.75ZM6.97559 9.75H8.64355L9.84277 7.25H8.1748L6.97559 9.75ZM3.08887 9.75H4.75684L5.95605 7.25H4.28809L3.08887 9.75ZM9.13477 5.25H10.8027L12.002 2.75H10.334L9.13477 5.25ZM5.24805 5.25H6.91602L8.11523 2.75H6.44727L5.24805 5.25ZM8.27246 16.75V11.75H2.5V16.75H8.27246Z" fill="#2E3134"/>
</svg>
