<svg width="25" height="24" viewBox="0 0 25 24" fill="none" xmlns="http://www.w3.org/2000/svg">
  <g clip-path="url(#clip0_1928_39609)">
  <path d="M25 11.1019C25 12.8889 24.9904 14.6759 25 16.463C25.0096 17.3056 24.6244 17.8981 23.8636 18.2963C20.416 20.1019 16.9684 21.9074 13.5304 23.713C12.8274 24.0833 12.1629 24.0833 11.4599 23.713C8.02196 21.8981 4.57435 20.0926 1.12673 18.2963C0.365948 17.8981 0 17.2963 0 16.463C0 12.8704 0 9.26852 0 5.67593C0 4.71296 0.452619 4.08333 1.38675 3.75926C4.83436 2.55556 8.28197 1.35185 11.7296 0.138889C12.2496 -0.0462963 12.76 -0.0462963 13.28 0.138889C16.7373 1.35185 20.1849 2.55556 23.6421 3.76852C24.5474 4.08333 25.0096 4.72222 25.0096 5.65741C25 7.46296 25 9.28704 25 11.1019ZM13.4726 21.6389C13.5593 21.5926 13.6364 21.5648 13.7038 21.5278C16.7662 19.9259 19.8286 18.3148 22.891 16.7222C23.0451 16.6389 23.0836 16.5556 23.0836 16.3981C23.0836 13.4815 23.0836 10.5648 23.0836 7.64815C23.0836 7.58333 23.0836 7.52778 23.0836 7.44445C22.9969 7.47222 22.9295 7.49074 22.8621 7.50926C19.7997 8.58333 16.7277 9.65741 13.6653 10.7222C13.5112 10.7778 13.463 10.8426 13.463 11C13.4727 14.4722 13.463 17.9444 13.463 21.4167C13.463 21.4815 13.463 21.5463 13.4726 21.6389ZM2.03197 5.5C2.08012 5.52778 2.08975 5.53704 2.10901 5.53704C5.52773 6.73148 8.93683 7.92593 12.3555 9.11111C12.4518 9.14815 12.5963 9.12963 12.6926 9.10185C15.6394 8.08333 18.5767 7.05556 21.5139 6.02778C21.9954 5.86111 22.4769 5.68519 22.9969 5.50926C22.9102 5.47222 22.8717 5.4537 22.8236 5.44444C19.4434 4.25926 16.0632 3.07407 12.6733 1.89815C12.5578 1.86111 12.4037 1.87037 12.2881 1.91667C10.1406 2.65741 8.0027 3.40741 5.86479 4.16667C4.59361 4.59259 3.32242 5.0463 2.03197 5.5Z" fill="#2E3134"/>
  </g>
  <defs>
  <clipPath id="clip0_1928_39609">
  <rect width="25" height="24" fill="white"/>
  </clipPath>
  </defs>
</svg>
