<svg fill="none" xmlns="http://www.w3.org/2000/svg" viewBox="0 0 25 25">
    <path fill-rule="evenodd" clip-rule="evenodd"
        d="M16.304 19.7c.55 0 .995-.473.995-1.055V6.355c0-.582-.446-1.055-.995-1.055h-7.61c-.549 0-.995.473-.995 1.055v12.289c0 .583.446 1.055.996 1.055zm-3.005-1.602V16.5h2.4v1.598zm2.4-3.198h-2.4v-1.6h2.4zm0-3.2h-2.4v-1.6h2.4zm0-3.2h-2.4V6.902h2.4zm-4-1.6v1.6H9.3V6.9zm-2.4 3.2h2.4v1.6H9.3zm0 3.2h2.4v1.6H9.3zm0 3.2h2.444v1.598L9.3 18.097z"
        fill="currentColor" />
</svg>