<?xml version="1.0" encoding="utf-8"?>
<!-- Generator: Adobe Illustrator 25.2.1, SVG Export Plug-In . SVG Version: 6.00 Build 0)  -->
<svg version="1.1" id="Layer_1" xmlns="http://www.w3.org/2000/svg" xmlns:xlink="http://www.w3.org/1999/xlink" x="0px" y="0px"
	 viewBox="0 0 48 48" style="enable-background:new 0 0 48 48;" xml:space="preserve">
<style type="text/css">
	.st0{fill:#2E3134;}
	.st1{fill:#2D3134;}
</style>
<g>
	<path class="st1" d="M42,13.6v1.8h-1.8l-1.9,1.9h3.8v8.8H32v-1.9L30,24.6v1.6H19.9v-8.9h3.9l0,0c0.1-0.4,0.4-0.8,0.7-1.2l0,0
		l0.8-0.8h-5.5V6.5h10.1v4.4l1.9-1.9V6.5h2.3l2-1.9H8.6c-1.5,0-2.5,1.2-2.5,2.5v29c0,1.5,1.2,2.5,2.5,2.5h32.7
		c1.5,0,2.5-1.2,2.6-2.5l0,0V11.7L42,13.6z M17.8,36.7H8.6c-0.3,0-0.6-0.3-0.6-0.6v-7.8h9.9L17.8,36.7z M17.8,26.3H7.9v-8.8h9.9
		V26.3z M17.8,15.4H7.9V7.1c0-0.3,0.3-0.6,0.6-0.6l0,0h9.3L17.8,15.4z M30,36.7H19.9v-8.4H30C30,28.2,30,36.7,30,36.7z M42,36.1
		c0,0.3-0.3,0.6-0.6,0.6H32v-8.4h10.1L42,36.1L42,36.1z"/>
	<path class="st1" d="M41.6,39H8.7c-1.7,0-3-1.3-3-3l0,0V6.8c0-1.7,1.3-3,3-3h28.7l-2.8,2.8h-2v2.1l-2.8,2.6V6.7h-9.4V15h5.9
		l-1.2,1.2l0,0l-0.3,0.2c-0.3,0.3-0.5,0.6-0.6,1l0,0l-0.1,0.3h-3.8v8.2h9.4v-1.2l2.8-1.8V26h9.3v-8.3h-4.4l2.7-2.8h1.6v-1.6l2.8-2.8
		V36C44.6,37.7,43.4,39,41.6,39L41.6,39z M8.7,4.6c-1.3,0-2.3,1-2.3,2.3v29.2c0,1.3,1,2.3,2.3,2.3h32.9c1.3,0,2.3-1,2.3-2.3l0,0
		V12.3l-1.3,1.3v2.1h-2L39.4,17h3.3v9.6H32v-2.1l-1.3,0.6v1.5H19.6v-9.6h4c0.1-0.3,0.3-0.6,0.5-0.8l0,0l0.5-0.5h-4.9V5.9h10.8v3.8
		l1.3-1.3V5.8h2.6l1.3-1.3C35.8,4.6,8.7,4.6,8.7,4.6z M41.6,37.1h-9.8v-9.3h10.8v8.3C42.6,36.5,42.2,37.1,41.6,37.1z M32.6,36.3h9.2
		c0.1,0,0.2-0.1,0.2-0.3v-7.5h-9.3C32.6,28.6,32.6,36.3,32.6,36.3z M30.5,37.1H19.6v-9.3h10.8C30.5,27.7,30.5,37.1,30.5,37.1z
		 M20.3,36.3h9.4v-7.8h-9.4C20.3,28.5,20.3,36.3,20.3,36.3z M18.3,37.1H8.7c-0.6,0-1-0.5-1-1v-8.3h10.7L18.3,37.1L18.3,37.1z
		 M8.4,28.6v7.5c0,0.1,0.1,0.3,0.2,0.3l0,0h9v-7.7L8.4,28.6L8.4,28.6z M18.3,26.5H7.7v-9.5h10.6V26.5z M8.4,25.8h9.2v-8.1H8.4V25.8z
		 M18.3,15.7H7.7V6.9c0-0.6,0.5-1,1-1h9.6V15.7z M8.4,15h9.2V6.7h-9c-0.1,0-0.2,0.1-0.2,0.2C8.4,6.9,8.4,15,8.4,15z"/>
	<path class="st1" d="M25.3,41.4h10.7c0.6,0,1,0.5,1,1l0,0c0,0.6-0.5,1-1,1H6.4c-2.7,0-5-2.1-5-5c0,0,0,0,0-0.1V12.6
		c0-0.6,0.5-1,1-1l0,0c0.6,0,1,0.5,1,1v7.3l0,0c0,0.7,0-0.7,0,0v10.9l0,0c0,0.7,0-0.7,0,0v6.5c0,2.1,1.8,3.9,3.9,3.9h7.9"/>
	<path class="st1" d="M36.3,43.6H6.4c-3,0-5.4-2.4-5.4-5.4l0,0V12.4c0-0.8,0.6-1.4,1.4-1.4s1.5,0.6,1.5,1.4v24.9
		c0,1.9,1.6,3.6,3.6,3.6h29c0.8,0,1.4,0.6,1.4,1.4C37.6,43,37,43.6,36.3,43.6z M2.4,11.9c-0.4,0-0.6,0.3-0.6,0.6v25.8
		c0,2.6,2,4.6,4.6,4.6h29.9c0.4,0,0.6-0.3,0.6-0.6s-0.3-0.6-0.6-0.6l0,0H7.3c-2.4,0-4.3-1.9-4.3-4.3V31c0-0.1,0-0.1,0-0.2
		c0-0.1,0-0.2,0-0.3V20.2v-0.1l0,0v-0.6l0,0v-7.1C3,12.1,2.8,11.9,2.4,11.9L2.4,11.9z"/>
	<g id="mRLM6N.tif">
		<path class="st1" d="M38.6,4.7l4.9,4.9L31,22.2l-5-5L38.6,4.7z"/>
		<path class="st1" d="M44.7,8.7l-5-5c0.8-0.9,1.2-1.3,2-2c0.9-0.7,2-0.6,2.7,0.2s1.7,1.6,2.4,2.4C47.6,5,47.6,6,46.9,6.7l0,0
			C46,7.6,45.5,8,44.7,8.7z"/>
		<path class="st1" d="M24.6,18.9l5,4.9l-1.9,0.5l-3.6,0.9c-0.5,0.1-0.9-0.2-0.8-0.7C23.7,22.5,24.1,20.6,24.6,18.9L24.6,18.9z"/>
	</g>
	<polyline class="st1" points="24,17.8 26.1,15.1 24.2,15.8 	"/>
</g>
</svg>
