<svg width="18" height="16" viewBox="0 0 18 16" fill="none" xmlns="http://www.w3.org/2000/svg">
<path d="M7.0761 15.9998C5.71129 15.9998 4.34648 15.9998 2.97524 15.9998C2.38297 15.9998 1.82932 15.8729 1.33361 15.5255C0.470953 14.9109 0.00743369 14.0758 0.00743369 12.9869C0.000995925 10.1075 -0.00544184 7.22821 0.00743369 4.34888C0.0138714 3.04617 0.644772 2.13093 1.7585 1.56976C2.12546 1.38938 2.5246 1.33594 2.93018 1.33594C5.24133 1.33594 7.55893 1.33594 9.87008 1.33594C10.1791 1.33594 10.2821 1.44283 10.2821 1.77018C10.2821 1.94387 10.2821 2.11757 10.2821 2.28458C10.2757 2.54512 10.1662 2.65869 9.91515 2.66537C9.77996 2.67205 9.64476 2.66537 9.51601 2.66537C7.33361 2.66537 5.15764 2.66537 2.97524 2.66537C2.27996 2.66537 1.75207 2.97936 1.44949 3.62738C1.34649 3.84784 1.29499 4.11506 1.29499 4.36224C1.28211 7.22821 1.28855 10.0875 1.28855 12.9468C1.28855 13.9422 1.98383 14.6637 2.94305 14.6637C5.69841 14.6704 8.44734 14.6704 11.2027 14.6637C12.1684 14.6637 12.8572 13.9422 12.8572 12.9334C12.8636 11.8913 12.8572 10.8424 12.8572 9.80024C12.8572 9.43281 12.9473 9.3326 13.3014 9.3326C13.4688 9.3326 13.6362 9.32592 13.7971 9.3326C14.016 9.33928 14.1319 9.45285 14.1319 9.67331C14.1319 10.8825 14.1576 12.0984 14.0997 13.3075C14.0482 14.3631 13.4688 15.1113 12.6126 15.6391C12.1619 15.913 11.6598 15.9998 11.1448 15.9998C9.79927 15.9998 8.4409 15.9998 7.0761 15.9998Z" fill="current"/>
<path d="M13.5717 2.94614C13.5009 2.89937 13.443 2.87265 13.4043 2.82589C12.8829 2.28476 12.3614 1.74363 11.8335 1.20251C11.6275 0.988727 11.5052 0.748225 11.6211 0.440919C11.7305 0.153653 11.9752 0 12.3164 0C13.9644 0 15.6189 0 17.267 0C17.7305 0 18.0009 0.273904 18.0009 0.748225C18.0009 2.47182 18.0009 4.19541 18.0009 5.919C18.0009 6.41336 17.6082 6.76743 17.1962 6.62714C17.0674 6.58038 16.9387 6.48685 16.8421 6.38664C16.3207 5.85219 15.7992 5.31106 15.2842 4.77662C15.2455 4.73653 15.2134 4.68309 15.1619 4.61628C15.0975 4.68309 15.0524 4.72317 15.0073 4.76994C12.9022 6.94781 10.8035 9.13236 8.69833 11.3102C8.6597 11.3503 8.61463 11.3971 8.56957 11.4372C8.4215 11.5574 8.28631 11.5708 8.15111 11.4372C7.75197 11.0363 7.36571 10.6355 6.97944 10.2213C6.84425 10.0743 6.85712 9.92735 6.97944 9.7737C7.01807 9.72693 7.06313 9.68685 7.10176 9.64008C9.20047 7.46221 11.2992 5.28434 13.3979 3.11315C13.4365 3.06639 13.4816 3.0263 13.5717 2.94614Z" fill="current"/>
</svg>
