<svg fill="none" xmlns="http://www.w3.org/2000/svg" viewBox="0 0 26 27">
    <path fill-rule="evenodd" clip-rule="evenodd"
        d="M16.804 20.7c.55 0 .995-.473.995-1.055V7.355c0-.582-.446-1.055-.995-1.055h-7.61c-.549 0-.995.473-.995 1.055v12.289c0 .583.446 1.055.996 1.055zm-3.005-1.602V17.5h2.4v1.598zm2.4-3.198h-2.4v-1.6h2.4zm0-3.2h-2.4v-1.6h2.4zm0-3.2h-2.4V7.902h2.4zm-4-1.6v1.6H9.8V7.9zm-2.4 3.2h2.4v1.6H9.8zm0 3.2h2.4v1.6H9.8zm0 3.2h2.444v1.598L9.8 19.097z"
        fill="currentColor" />
    <path
        d="m4.216 22.11.214-.21-.214.21a13 13 0 0 0 1.096.992A12.25 12.25 0 0 0 13 25.8c6.793 0 12.3-5.507 12.3-12.3a12.25 12.25 0 0 0-3.69-8.784l-.21.214.21-.214q-.352-.345-.73-.661A12.25 12.25 0 0 0 13 1.2C6.207 1.2.7 6.707.7 13.5a12.25 12.25 0 0 0 3.516 8.61ZM13 4.2a9.25 9.25 0 0 1 5.528 1.82L5.52 19.028A9.25 9.25 0 0 1 3.7 13.5 9.3 9.3 0 0 1 13 4.2Zm0 18.6a9.25 9.25 0 0 1-5.33-1.678L20.621 8.169A9.25 9.25 0 0 1 22.3 13.5a9.3 9.3 0 0 1-9.3 9.3Z"
        fill="currentColor" stroke="#fff" stroke-width=".6" />
</svg>