<svg width="15" height="15" viewBox="0 0 15 15"  xmlns="http://www.w3.org/2000/svg">
<g clip-path="url(#clip0_4407_3821)">
<path d="M7.5 1.25C4.05 1.25 1.25 4.05 1.25 7.5C1.25 10.95 4.05 13.75 7.5 13.75C10.95 13.75 13.75 10.95 13.75 7.5C13.75 4.05 10.95 1.25 7.5 1.25ZM7.5 12.5C4.7375 12.5 2.5 10.2625 2.5 7.5C2.5 6.34375 2.89375 5.28125 3.55625 4.4375L10.5625 11.4437C9.71875 12.1062 8.65625 12.5 7.5 12.5ZM11.4437 10.5625L4.4375 3.55625C5.28125 2.89375 6.34375 2.5 7.5 2.5C10.2625 2.5 12.5 4.7375 12.5 7.5C12.5 8.65625 12.1062 9.71875 11.4437 10.5625Z" />
</g>
<defs>
<clipPath id="clip0_4407_3821">
<rect width="15" height="15" fill="white"/>
</clipPath>
</defs>
</svg>
