<svg width="16" height="16" viewBox="0 0 16 16" fill="none" xmlns="http://www.w3.org/2000/svg">
<g clip-path="url(#clip0_134_579)">
<path d="M2 1L15.3333 14.3333" stroke="#2E3134" stroke-width="1.34" stroke-linecap="round" stroke-linejoin="round"/>
<path d="M10 13.6663V8.97306M6 13.6663V8.33301C6 8.1562 6.07024 7.98663 6.19526 7.8616C6.32029 7.73658 6.48986 7.66634 6.66667 7.66634H8.70827M14 10V6.33299C14 6.13903 13.9578 5.9474 13.8761 5.77146C13.7945 5.59553 13.6755 5.43952 13.5273 5.31432L8.86067 1.31499C8.62001 1.11159 8.3151 1 8 1C7.6849 1 7.37999 1.11159 7.13933 1.31499L6.34002 2M8.70827 7.66634L4.58973 3.5L2.47267 5.31432C2.32453 5.43952 2.20549 5.59553 2.12386 5.77146C2.04222 5.9474 1.99995 6.13903 2 6.33299V12.333C2 12.6866 2.14048 13.0257 2.39052 13.2758C2.64057 13.5258 2.97971 13.6663 3.33333 13.6663H12.6667C13.0203 13.6663 13.3594 13.5258 13.6095 13.2758C13.7211 13.1641 13.8109 13.0347 13.8761 12.8942L10 8.97306M8.70827 7.66634L10 8.97306" stroke="#2E3134" stroke-width="1.34" stroke-linecap="round" stroke-linejoin="round"/>
</g>
<defs>
<clipPath id="clip0_134_579">
<rect width="16" height="16" fill="white"/>
</clipPath>
</defs>
</svg>
