<svg width="16" height="16" viewBox="0 0 16 16" fill="none" xmlns="http://www.w3.org/2000/svg">
<path d="M10 14V8.66666C10 8.48985 9.92976 8.32028 9.80474 8.19525C9.67971 8.07023 9.51014 7.99999 9.33333 7.99999H6.66667C6.48986 7.99999 6.32029 8.07023 6.19526 8.19525C6.07024 8.32028 6 8.48985 6 8.66666V14M2 6.66663C1.99995 6.47268 2.04222 6.28105 2.12386 6.10511C2.20549 5.92917 2.32453 5.77317 2.47267 5.64797L7.13933 1.64864C7.37999 1.44524 7.6849 1.33365 8 1.33365C8.3151 1.33365 8.62001 1.44524 8.86067 1.64864L13.5273 5.64797C13.6755 5.77317 13.7945 5.92917 13.8761 6.10511C13.9578 6.28105 14 6.47268 14 6.66663V12.6666C14 13.0203 13.8595 13.3594 13.6095 13.6094C13.3594 13.8595 13.0203 14 12.6667 14H3.33333C2.97971 14 2.64057 13.8595 2.39052 13.6094C2.14048 13.3594 2 13.0203 2 12.6666V6.66663Z" stroke="#2E3134" stroke-width="1.34" stroke-linecap="round" stroke-linejoin="round"/>
</svg>
