<svg id="photosAndStories" xmlns="http://www.w3.org/2000/svg" viewBox="0 0 500 500" aria-labelledby="photos-and-stories-icon"  aria-describedby="photos-and-stories-icon-desc">
	<title id="photos-and-stories-icon">Albums</title>
	<desc id="photos-and-stories-icon-desc">Icon that indicates a link to the project's album section</desc>
	<style type="text/css">
		.st0{fill:#FFFFFF;}
		.st2{opacity:0.4;fill:#2E3134;enable-background:new    ;}
		.st4{opacity:0.2;enable-background:new    ;}
	</style>
	<g>
		<ellipse class="st0" cx="234.7" cy="208" rx="18" ry="18"/>
		<path class="blue--fill" d="M233.5,172.3l214.7-0.8c9-0.1,16.2,7.1,16.2,16l0.9,191c0.1,9-7.1,16.2-16,16.2l-214.7,0.8
			c-9,0.1-16.2-7.1-16.2-16l-0.9-191C217.4,179.6,224.6,172.3,233.5,172.3z"/>
		<path class="st0" d="M307.1,252v69c0,2.7,2.9,4.5,5.3,3.2l66.9-34.5c2.6-1.4,2.6-5.1,0-6.5l-66.9-34.5
			C310,247.5,307.1,249.3,307.1,252z"/>
	</g>
	<path class="st0" d="M273.6,189.5h-12.4c-2.1,0-3.7-1.6-3.7-3.7v-5.5c0-2.1,1.6-3.7,3.7-3.7h12.4c2.1,0,3.7,1.6,3.7,3.7v5.5
		C277.2,187.7,275.6,189.5,273.6,189.5z"/>
	<g>
		<ellipse class="st0" cx="52.5" cy="140.9" rx="18" ry="18"/>
		<path class="st2" d="M288.6,172.1c-8.7-0.3-27,3.1-27.4-5.4c-0.2-4.1,13.4-3.4,16.2-6.3c-2.3-3.6-3.1-8.2-2.6-12.5
			c0-0.1-0.1-0.2-0.1-0.4c-1.2-2.9-1.8-5.8-2-8.9c-0.1-0.9-0.2-1.8-0.2-2.6c-0.2-0.1-0.3-0.1-0.5-0.2c-2.4-0.7-4.7-1.5-7-2.2
			c-4.4-1.3-9-2.3-13.6-3.3c-2.5-0.6-5-1.1-7.6-1.7c-6.1-0.2-12.3-0.5-18.4-1c-6.1-0.5-12.2-1.1-18.3-1.7c-6.8-0.7-14.1-1.7-19.7-5.8
			c-0.6-0.4-1.2-0.9-1.7-1.4c-11.2-1.4-22.3-3-33.3-4.6c-7.2-1-14.3-2.1-21.3-3.1c-0.7,0.3-1.4,0.5-2.1,0.6c-20.4,4-40.4,1.5-61,1.4
			c-4.2,0-8.1-1.7-10.8-4.3c-0.4,0.2-0.8,0.4-1.1,0.7c-1.1,0.7-2.8,2.5-1.1,0.7c-0.8,0.9-1.7,1.7-2.6,2.5c0.6-0.5,0.1,0.1-0.4,0.4
			c-0.2,3.4-0.5,6.8-0.5,10.3c0,8,0.5,16.1,0.5,24.1c0,8.1-6,14.2-13.6,15.6l0.7,149.7c0,8.9,7.4,16.2,16.4,16.1l217.6-0.8
			c9,0,16.3-7.3,16.2-16.3L288.6,172.1z"/>
		<path class="lightblue--fill" d="M51.4,105.2l214.7-0.8c9-0.1,16.2,7.1,16.2,16l0.9,191c0.1,9-7.1,16.2-16,16.2l-214.7,0.8
			c-9,0.1-16.2-7.1-16.2-16l-0.9-191C35.3,112.6,42.5,105.2,51.4,105.2z"/>
		<path class="st0" d="M183.4,270.8L62,270.4h-0.4l57.7-99.3c1-1.8,3.7-2.6,5.5-1.5l0,0c0.6,0.4,1.2,0.9,1.5,1.5l38.4,66.8l1.9,3.2
			L183.4,270.8z"/>
		<polygon class="st4" points="183.4,270.8 141.9,270.7 162.4,241.1 163.7,239.1 164.5,237.9 166.4,241.1 	"/>
		<path class="st0" d="M250.9,271L146,270.8l20.3-29.5l1.4-2.1l26.6-38.4c1.8-2.4,5.3-2.6,7.5-0.8c0.1,0.1,0.3,0.2,0.5,0.4
			c0.1,0.1,0.3,0.3,0.3,0.4L250.9,271z"/>
		<ellipse class="st0" cx="244" cy="151.1" rx="17.9" ry="17.9"/>
	</g>
	<path class="st0" d="M448.8,189.5h-11.9c-2,0-3.6-1.2-3.6-2.8v-4.1c0-1.6,1.5-2.8,3.6-2.8h11.9c2,0,3.6,1.2,3.6,2.8v4.1
		C452.3,188.1,450.7,189.5,448.8,189.5z"/>
	<path class="st0" d="M420,189.5h-11.9c-2,0-3.6-1.2-3.6-2.8v-4.1c0-1.6,1.5-2.8,3.6-2.8H420c2,0,3.6,1.2,3.6,2.8v4.1
		C423.6,188.1,422,189.5,420,189.5z"/>
	<path class="st0" d="M391.3,189.5h-11.9c-2,0-3.6-1.2-3.6-2.8v-4.1c0-1.6,1.5-2.8,3.6-2.8h11.9c2,0,3.6,1.2,3.6,2.8v4.1
		C394.7,188.1,393.2,189.5,391.3,189.5z"/>
	<path class="st0" d="M362.5,189.5h-11.9c-2,0-3.6-1.2-3.6-2.8v-4.1c0-1.6,1.5-2.8,3.6-2.8h11.9c2,0,3.6,1.2,3.6,2.8v4.1
		C366.1,188.1,364.4,189.5,362.5,189.5z"/>
	<path class="st0" d="M333.7,189.5h-11.9c-2,0-3.6-1.2-3.6-2.8v-4.1c0-1.6,1.5-2.8,3.6-2.8h11.9c2,0,3.6,1.2,3.6,2.8v4.1
		C337.2,188.1,335.7,189.5,333.7,189.5z"/>
	<path class="st0" d="M305,189.5h-12c-2,0-3.6-1.2-3.6-2.8v-4.1c0-1.6,1.5-2.8,3.6-2.8h12c2,0,3.6,1.2,3.6,2.8v4.1
		C308.5,188.1,307,189.5,305,189.5z"/>
	<path class="st0" d="M448.8,386.9h-11.9c-2,0-3.6-1.2-3.6-2.8V380c0-1.6,1.5-2.8,3.6-2.8h11.9c2,0,3.6,1.2,3.6,2.8v4.1
		C452.3,385.5,450.7,386.9,448.8,386.9z"/>
	<path class="st0" d="M420,386.9h-11.9c-2,0-3.6-1.2-3.6-2.8V380c0-1.6,1.5-2.8,3.6-2.8H420c2,0,3.6,1.2,3.6,2.8v4.1
		C423.6,385.5,422,386.9,420,386.9z"/>
	<path class="st0" d="M391.3,386.9h-11.9c-2,0-3.6-1.2-3.6-2.8V380c0-1.6,1.5-2.8,3.6-2.8h11.9c2,0,3.6,1.2,3.6,2.8v4.1
		C394.7,385.5,393.2,386.9,391.3,386.9z"/>
	<path class="st0" d="M362.5,386.9h-11.9c-2,0-3.6-1.2-3.6-2.8V380c0-1.6,1.5-2.8,3.6-2.8h11.9c2,0,3.6,1.2,3.6,2.8v4.1
		C366.1,385.5,364.4,386.9,362.5,386.9z"/>
	<path class="st0" d="M333.7,386.9h-11.9c-2,0-3.6-1.2-3.6-2.8V380c0-1.6,1.5-2.8,3.6-2.8h11.9c2,0,3.6,1.2,3.6,2.8v4.1
		C337.2,385.5,335.7,386.9,333.7,386.9z"/>
	<path class="st0" d="M305,386.9h-12c-2,0-3.6-1.2-3.6-2.8V380c0-1.6,1.5-2.8,3.6-2.8h12c2,0,3.6,1.2,3.6,2.8v4.1
		C308.5,385.5,307,386.9,305,386.9z"/>
	<path class="st0" d="M276,386.9h-12c-2,0-3.6-1.2-3.6-2.8V380c0-1.6,1.5-2.8,3.6-2.8h12c2,0,3.6,1.2,3.6,2.8v4.1
		C279.4,385.5,277.9,386.9,276,386.9z"/>
	<path class="st0" d="M247.2,386.9h-11.9c-2,0-3.6-1.2-3.6-2.8V380c0-1.6,1.5-2.8,3.6-2.8h11.9c2,0,3.6,1.2,3.6,2.8v4.1
		C250.8,385.5,249.2,386.9,247.2,386.9z"/>
</svg>
