<svg width="75" height="75" viewBox="0 0 75 75" fill="none" xmlns="http://www.w3.org/2000/svg">
    <path d="M21.9736 26.3572L21.9736 26.3572C22.4037 25.6121 23.3572 25.3561 24.1034 25.7865C24.1034 25.7866 24.1035 25.7866 24.1036 25.7867L55.8288 44.1028L56.5788 42.8038L55.8288 44.1028C56.574 44.5331 56.8299 45.4867 56.3993 46.2329L51.5924 54.5586C51.5923 54.5586 51.5923 54.5586 51.5923 54.5587C46.1031 64.0651 33.9477 67.3221 24.4413 61.8336C14.9349 56.3451 11.6779 44.1897 17.1664 34.6833C17.1664 34.6833 17.1664 34.6833 17.1664 34.6833L21.9736 26.3572Z" fill="white" stroke="#2E3134" stroke-width="3"/>
    <path d="M36.2083 28L31.4917 25.2768L39.7478 10.9763C40.2867 10.0429 41.4803 9.72282 42.4137 10.2617L43.7499 11.0335C44.6833 11.5724 45.0033 12.766 44.4644 13.6994L36.2083 28Z" fill="#2E3134"/>
    <path d="M52.4866 37.1222L48 34.5318L55.8535 20.9286C56.3661 20.0408 57.5015 19.7363 58.3894 20.249L59.6604 20.9831C60.5482 21.4957 60.8527 22.6312 60.34 23.519L52.4866 37.1222Z" fill="#2E3134"/>
    <path d="M37.7501 49.0413L33.2379 46.4358L38.1165 38L26.5427 47.9587L31.0555 50.5642L26.1763 59L37.7501 49.0413Z" fill="#0A23F3"/>
    <path d="M23.3425 61.4666L18.7525 69.4331C18.3194 70.1848 18.4986 71.14 19.1748 71.6835C20.0287 72.3699 21.2954 72.1178 21.8214 71.1568L26.2359 63.0917C26.6629 62.3114 26.3988 61.3332 25.637 60.8739C24.8412 60.3941 23.8064 60.6614 23.3425 61.4666Z" fill="#2E3134"/>
</svg>
