<svg width="22" height="24"  xmlns="http://www.w3.org/2000/svg" viewBox="0 0 22 22" aria-labelledby="admin-icon"  aria-describedby="admin-icon-desc">
	<title id="admin-icon">Emoji</title>
	<desc id="admin-icon-desc">Icon to open up the emoji picker tool to add emoji to the content</desc>
  <path fill="#2E3134" d="M8.4,10.8c-0.6,0-1.1,0.5-1.1,1.1c0,0.6,0.5,1.1,1.1,1.1c0.6,0,1.1-0.5,1.1-1.1C9.5,11.3,9,10.8,8.4,10.8z
	 M13.6,10.8c-0.6,0-1.1,0.5-1.1,1.1c0,0.6,0.5,1.1,1.1,1.1c0.6,0,1.1-0.5,1.1-1.1C14.7,11.3,14.2,10.8,13.6,10.8z M11,2.2
	c-4.9,0-8.8,3.9-8.8,8.8s3.9,8.8,8.8,8.8s8.8-3.9,8.8-8.8S15.9,2.2,11,2.2z M11,18c-3.9,0-7-3.2-7-7c0-0.3,0-0.5,0-0.8
	c2.1-0.9,3.7-2.6,4.6-4.7c1.6,2.3,4.2,3.7,7.2,3.7c0.7,0,1.3-0.1,2-0.2c0.2,0.6,0.3,1.3,0.3,2C18,14.9,14.9,18,11,18z"/>
</svg>
