<svg id="notes" xmlns="http://www.w3.org/2000/svg" viewBox="0 0 500 500" aria-labelledby="notes-icon"  aria-describedby="notes-icon-desc">
	<title id="notes-icon">Comments</title>
	<desc id="notes-icon-desc">Icon to indicate a link to project's comments section</desc>
	<path fill="#dde3e6" d="M345.6,456.8H92.5c-11,0-20-9-20-20V89.5c0-11,9-20,20-20h253.1c11,0,20,9,20,20v347.3
		C365.6,447.9,356.7,456.8,345.6,456.8z"/>
	<path class="lightblue--fill" d="M365.6,89.5c0-11-9-20-20-20H92.5c-11,0-20,9-20,20v41h293.1V89.5z"/>
	<g class="yellow--fill">
		<path d="M411,450.9c-1.2,4.2-5.8,4.2-7.1,0"/>
		<path d="M427.7,405.1c0.5-1.5,0.8-3,0.8-4.5V138.4c0-4.4-2.7-7.9-6.1-7.9h-30c-3.4,0-6.1,3.5-6.1,7.9v262.2
			c0,1.5,0.3,3,0.8,4.5l16.4,44.9h7.3L427.7,405.1z"/>
	</g>
	<path fill="#FFFFFF" fill-opacity="0.4" d="M403.6,450h7.3l16.7-44.9c0.4-1,0.6-2.1,0.7-3.2h-41.9c0.1,1.1,0.3,2.1,0.7,3.1L403.6,450z"/>
	<path fill="#2E3134" d="M413.5,443.2l-3.7,11.6c-0.8,2.7-4,2.7-4.8,0l-3.9-11.6L413.5,443.2z"/>
	<path fill="#dde3e6" d="M422.4,130.5h-30c-3.4,0-6.1,2.7-6.1,5.9v37.9h42.1v-37.9C428.5,133.2,425.8,130.5,422.4,130.5z"/>
	<path class="red--fill" d="M422.4,130.5h-30c-3.4,0-6.1,2.7-6.1,5.9v23.3h42.1v-23.3C428.5,133.2,425.8,130.5,422.4,130.5z"/>
	<g fill="#dde3e6">
		<path d="M121.4,94.8h-1.5c-4.5,0-8.1-3.6-8.1-8.1V52.3c0-4.5,3.6-8.1,8.1-8.1h1.5c4.5,0,8.1,3.6,8.1,8.1v34.4
			C129.5,91.2,125.9,94.8,121.4,94.8z"/>
		<path d="M170.6,94.8h-1.5c-4.5,0-8.1-3.6-8.1-8.1V52.3c0-4.5,3.6-8.1,8.1-8.1h1.5c4.5,0,8.1,3.6,8.1,8.1v34.4
			C178.7,91.2,175.1,94.8,170.6,94.8z"/>
		<path d="M219.8,94.8h-1.5c-4.5,0-8.1-3.6-8.1-8.1V52.3c0-4.5,3.6-8.1,8.1-8.1h1.5c4.5,0,8.1,3.6,8.1,8.1v34.4
			C227.9,91.2,224.3,94.8,219.8,94.8z"/>
		<path d="M269,94.8h-1.5c-4.5,0-8.1-3.6-8.1-8.1V52.3c0-4.5,3.6-8.1,8.1-8.1h1.5c4.5,0,8.1,3.6,8.1,8.1v34.4
			C277.1,91.2,273.5,94.8,269,94.8z"/>
		<path d="M318.2,94.8h-1.5c-4.5,0-8.1-3.6-8.1-8.1V52.3c0-4.5,3.6-8.1,8.1-8.1h1.5c4.5,0,8.1,3.6,8.1,8.1v34.4
			C326.3,91.2,322.7,94.8,318.2,94.8z"/>
	</g>
	<g fill="#2E3134">
		<path d="M182.3,218.6h-77c-1.8,0-3.3-1.5-3.3-3.3c0-1.8,1.5-3.3,3.3-3.3h227.4c1.8,0,3.3,1.5,3.3,3.3
			c0,1.8-1.5,3.3-3.3,3.3C332.8,218.6,182.4,218.6,182.3,218.6z"/>
		<path d="M182.3,255.3h-77c-1.8,0-3.3-1.5-3.3-3.3c0-1.8,1.5-3.3,3.3-3.3h227.4c1.8,0,3.3,1.5,3.3,3.3
			c0,1.8-1.5,3.3-3.3,3.3C332.8,255.3,182.4,255.3,182.3,255.3z"/>
		<path d="M182.3,292h-77c-1.8,0-3.3-1.5-3.3-3.3c0-1.8,1.5-3.3,3.3-3.3h227.4c1.8,0,3.3,1.5,3.3,3.3
			c0,1.8-1.5,3.3-3.3,3.3C332.8,292,182.4,292,182.3,292z"/>
		<path d="M182.3,328.6h-77c-1.8,0-3.3-1.5-3.3-3.3c0-1.8,1.5-3.3,3.3-3.3h227.4c1.8,0,3.3,1.5,3.3,3.3
			c0,1.8-1.5,3.3-3.3,3.3C332.8,328.6,182.4,328.6,182.3,328.6z"/>
		<path d="M182.3,365.3h-77c-1.8,0-3.3-1.5-3.3-3.3c0-1.8,1.5-3.3,3.3-3.3h227.4c1.8,0,3.3,1.5,3.3,3.3
			c0,1.8-1.5,3.3-3.3,3.3C332.8,365.3,182.4,365.3,182.3,365.3z"/>
		<path d="M182.3,181.8h-77c-1.8,0-3.3-1.5-3.3-3.3c0-1.8,1.5-3.3,3.3-3.3h109.9c1.8,0,3.3,1.5,3.3,3.3
			c0,1.8-1.5,3.3-3.3,3.3C215.3,181.8,182.4,181.8,182.3,181.8z"/>
	</g>
</svg>
