<svg width="17" height="17" viewBox="0 0 17 17" fill="none" xmlns="http://www.w3.org/2000/svg">
<rect x="0.5" y="0.5" width="16" height="16" rx="2.5" fill="white" stroke="black"/>
<path d="M11.5414 7.084C11.5414 7.78 11.3014 8.36 10.8214 8.824C10.3494 9.28 9.62539 9.508 8.64939 9.508H7.04139V13H5.94939V4.636H8.64939C9.59339 4.636 10.3094 4.864 10.7974 5.32C11.2934 5.776 11.5414 6.364 11.5414 7.084ZM8.64939 8.608C9.25739 8.608 9.70539 8.476 9.99339 8.212C10.2814 7.948 10.4254 7.572 10.4254 7.084C10.4254 6.052 9.83339 5.536 8.64939 5.536H7.04139V8.608H8.64939Z" fill="black"/>
</svg>
