<svg width="13" height="14" viewBox="0 0 13 14" xmlns="http://www.w3.org/2000/svg">
<path d="M0 5.38461C4.29106 5.38461 8.58212 5.38461 12.9231 5.38461C12.9231 5.43118 12.9231 5.52432 12.9231 5.57089C12.9231 7.89937 12.9231 10.2744 12.9231 12.6029C12.9231 13.4412 12.3243 14 11.4761 14C8.13306 14 4.83992 14 1.49688 14C0.598753 14 0 13.4412 0 12.6495C0 10.2744 0 7.89937 0 5.47775C0 5.47775 0 5.43118 0 5.38461Z" />
<path d="M12.9009 4.30769C8.61723 4.30769 4.33352 4.30769 0 4.30769C0 4.21566 0 4.16965 0 4.07762C0 3.70951 -1.21615e-05 3.29539 0.0497984 2.92727C0.14942 2.19105 0.697348 1.77693 1.49432 1.73091C1.8928 1.73091 2.34109 1.73091 2.78938 1.73091C2.78938 1.45483 2.78938 1.22475 2.78938 0.994685C2.78938 0.764615 2.8392 0.580562 2.98864 0.350492C3.23769 0.0744085 3.58636 -0.0636355 3.98485 0.0283924C4.33352 0.12042 4.58257 0.396503 4.63238 0.764615C4.63238 0.994685 4.63238 1.27077 4.63238 1.50084C4.63238 1.54686 4.63238 1.63888 4.63238 1.68489C5.87764 1.68489 7.07309 1.68489 8.31836 1.68489C8.31836 1.45482 8.31836 1.22475 8.31836 0.994685C8.31836 0.856643 8.31836 0.718604 8.36817 0.580562C8.5176 0.21245 8.91609 -0.0176215 9.31457 0.0283924C9.81268 0.0744064 10.1115 0.350492 10.1115 0.810632C10.1115 1.13273 10.1115 1.40881 10.1115 1.73091C10.2112 1.73091 10.261 1.73091 10.3606 1.73091C10.8089 1.73091 11.307 1.73091 11.7553 1.77692C12.353 1.82294 12.8511 2.28308 12.9009 2.88126C12.9507 3.3414 12.9009 3.80154 12.9009 4.30769Z" />
</svg>
