<?xml version="1.0" encoding="UTF-8"?><svg id="Layer_1" xmlns="http://www.w3.org/2000/svg" viewBox="0 0 22.41 21.87"><defs><style>.checklist-template-design-cls-1{stroke:#fff;stroke-miterlimit:10;stroke-width:.11px;}.checklist-template-design-cls-1,.checklist-template-design-cls-2{fill:#34383c;}.checklist-template-design-cls-2,.checklist-template-design-cls-3{stroke-width:0px;}.checklist-template-design-cls-3{fill:#fff;}</style></defs><path class="checklist-template-design-cls-2" d="M20.24,1.25H2.17c-.66,0-1.2.54-1.2,1.2v13c0,.66.54,1.2,1.2,1.2h6.89c0,.49-.05,2.06-.43,2.97H3.92v.99h14.56v-.99h-4.85c-.38-.92-.43-2.48-.43-2.97h7.04c.66,0,1.2-.54,1.2-1.2V2.46c0-.66-.54-1.2-1.2-1.2Z"/><rect class="checklist-template-design-cls-3" x="1.68" y="1.78" width="19.06" height="14.28"/><path class="checklist-template-design-cls-1" d="M18.73,8.95l-2.32-4.78c-.03-.06-.09-.1-.16-.1H6.16c-.07,0-.13.04-.16.1l-2.32,4.78c-.03.05-.02.12,0,.17.03.05.09.08.15.08h1.61v4.38h-1.08c-.1,0-.17.08-.17.17s.08.17.17.17h13.67c.1,0,.17-.08.17-.17s-.08-.17-.17-.17h-1.08v-4.38h1.61c.06,0,.11-.03.15-.08.03-.05.04-.11,0-.17h0ZM16.14,4.42l.99,2.04h-3.77l-.36-2.04h3.13ZM13.43,8.85h-4.45l.36-2.04h3.74l.36,2.04ZM12.66,4.42l.36,2.04h-3.61l.36-2.04h2.9ZM6.27,4.42h3.13l-.36,2.04h-3.77l.99-2.04ZM4.11,8.85l.99-2.04h3.88l-.36,2.04h-4.52ZM12.33,13.58h-2.24v-2.96h2.24v2.96ZM16.61,13.58h-3.94v-3.13c0-.1-.08-.17-.17-.17h-2.59c-.1,0-.17.08-.17.17v3.13h-3.94v-4.38h10.82v4.38ZM13.78,8.85l-.36-2.04h3.88l.99,2.04h-4.52Z"/><path class="checklist-template-design-cls-2" d="M16.61,9.2v4.38h-3.94v-3.13c0-.1-.08-.17-.17-.17h-2.59c-.1,0-.17.08-.17.17v3.13h-3.94v-4.38h-.35v4.38h-1.08c-.1,0-.17.08-.17.17s.08.17.17.17h13.67c.1,0,.17-.08.17-.17s-.08-.17-.17-.17h-1.08v-4.38h-.35Z"/><polygon class="checklist-template-design-cls-1" points="16.09 4.47 17.03 6.41 13.45 6.41 13.11 4.47 16.09 4.47"/><polygon class="checklist-template-design-cls-1" points="13.32 8.8 9.09 8.8 9.43 6.86 12.98 6.86 13.32 8.8"/><polygon class="checklist-template-design-cls-1" points="12.58 4.47 12.92 6.41 9.49 6.41 9.83 4.47 12.58 4.47"/><polygon class="checklist-template-design-cls-1" points="6.32 4.47 9.29 4.47 8.96 6.41 5.38 6.41 6.32 4.47"/><polygon class="checklist-template-design-cls-1" points="4.24 8.8 5.18 6.86 8.86 6.86 8.53 8.8 4.24 8.8"/><polygon class="checklist-template-design-cls-1" points="13.88 8.8 13.54 6.86 17.23 6.86 18.17 8.8 13.88 8.8"/></svg>
