<svg id="companySettings" xmlns="http://www.w3.org/2000/svg" viewBox="0 0 43 43" aria-labelledby="company-settings-icon"  aria-describedby="company-settings-icon-desc">
	<title id="company-settings-icon">Company Settings</title>
	<desc id="company-settings-icon-desc">Icon that links to company settings page.</desc>
  <path fill="#2e3134" d="M21.5,41.5C10.47,41.5,1.5,32.53,1.5,21.5S10.47,1.5,21.5,1.5s20,8.97,20,20-8.97,20-20,20Zm0-38.42C11.34,3.08,3.08,11.34,3.08,21.5s8.26,18.42,18.42,18.42,18.42-8.26,18.42-18.42S31.66,3.08,21.5,3.08Z"/>
  <path class="blue--fill" d="M18.78,37.14h0c-1.03,0-1.91-.77-2.07-1.78l-.37-2.53c-.74-.33-1.44-.74-2.09-1.2l-2.37,.94c-.92,.37-2.08-.03-2.58-.9l-2.72-4.71c-.51-.89-.29-2.04,.51-2.68l2-1.59c-.04-.42-.07-.81-.07-1.2s.02-.78,.07-1.2l-2-1.59c-.81-.64-1.03-1.8-.51-2.69l2.72-4.71c.49-.86,1.65-1.27,2.58-.9l2.37,.94c.65-.46,1.35-.87,2.09-1.2l.37-2.53c.15-1.02,1.04-1.78,2.07-1.78h5.44c1.03,0,1.92,.77,2.07,1.78l.37,2.53c.74,.33,1.44,.74,2.09,1.2l2.37-.94c.93-.37,2.08,.03,2.58,.9l2.72,4.71c.51,.89,.29,2.04-.51,2.68l-2,1.59c.04,.42,.07,.82,.07,1.2s-.02,.78-.07,1.2l2,1.59c.8,.63,1.02,1.81,.51,2.68l-2.72,4.71c-.49,.85-1.65,1.26-2.58,.9l-2.37-.94c-.65,.46-1.35,.87-2.09,1.2l-.37,2.53c-.15,1.02-1.04,1.78-2.07,1.78h-5.45Zm-4.28-7.31l.36,.27c.76,.58,1.6,1.07,2.5,1.44l.42,.17,.5,3.41c.03,.23,.27,.43,.5,.43h5.45c.24,0,.47-.2,.5-.43l.5-3.41,.42-.17c.9-.37,1.74-.85,2.5-1.44l.36-.27,3.2,1.26c.21,.08,.51-.02,.62-.22l2.72-4.72c.12-.21,.06-.5-.12-.65l-2.7-2.15,.06-.45c.07-.53,.11-.98,.11-1.44s-.03-.91-.11-1.44l-.06-.45,2.7-2.14c.19-.15,.24-.45,.12-.65l-2.72-4.71c-.11-.19-.43-.3-.62-.22l-3.2,1.27-.36-.28c-.76-.59-1.6-1.07-2.5-1.44l-.42-.17-.5-3.41c-.03-.23-.27-.43-.5-.43h-5.44c-.24,0-.47,.2-.5,.44l-.5,3.41-.42,.17c-.9,.37-1.74,.85-2.51,1.44l-.36,.27-3.2-1.26c-.2-.08-.52,.03-.63,.22l-2.72,4.72c-.12,.21-.06,.51,.12,.65l2.7,2.14-.06,.45c-.07,.53-.11,1-.11,1.44s.03,.91,.11,1.44l.06,.45-2.7,2.14c-.18,.15-.24,.45-.12,.65l2.72,4.71c.11,.19,.43,.3,.62,.22l3.2-1.27Zm7.01-.92c-4.1,0-7.43-3.33-7.43-7.43s3.33-7.43,7.43-7.43,7.43,3.33,7.43,7.43-3.33,7.43-7.43,7.43Zm0-13.28c-3.22,0-5.85,2.62-5.85,5.85s2.62,5.85,5.85,5.85,5.85-2.62,5.85-5.85-2.62-5.85-5.85-5.85Z"/>
</svg>