<?xml version="1.0" encoding="UTF-8"?><svg id="Layer_1" xmlns="http://www.w3.org/2000/svg" viewBox="0 0 22.27 16.15"><defs><style>.checklist-template-final-cls-1{stroke-width:.1px;}.checklist-template-final-cls-1,.checklist-template-final-cls-2{stroke:#fff;stroke-miterlimit:10;}.checklist-template-final-cls-1,.checklist-template-final-cls-3{fill:#34383c;}.checklist-template-final-cls-2{fill:#282223;stroke-width:.95px;}.checklist-template-final-cls-3,.cls-4{stroke-width:0px;}.cls-4{fill:#fff;}</style></defs><polygon class="cls-4" points="4.35 1.63 1.27 8.07 20.9 8.07 17.9 1.63 4.35 1.63"/><path class="checklist-template-final-cls-3" d="M21.19,8.01l-3.11-6.39c-.04-.08-.12-.13-.21-.13H4.39c-.09,0-.17.05-.21.13l-3.11,6.39c-.03.07-.03.16.01.22.04.07.12.11.2.11h2.16v5.86h-1.44c-.13,0-.23.1-.23.23s.1.23.23.23h18.28c.13,0,.23-.1.23-.23s-.1-.23-.23-.23h-1.44v-5.86h2.16c.08,0,.15-.04.2-.11.04-.07.05-.15.01-.22h0ZM12.63,14.2h-3v-3.96h3v3.96ZM18.37,14.2h-5.27v-4.19c0-.13-.1-.23-.23-.23h-3.46c-.13,0-.23.1-.23.23v4.19H3.9v-5.86h14.47v5.86Z"/><path class="checklist-template-final-cls-3" d="M18.37,8.34v5.86h-5.27v-4.19c0-.13-.1-.23-.23-.23h-3.46c-.13,0-.23.1-.23.23v4.19H3.9v-5.86h-.46v5.86h-1.44c-.13,0-.23.1-.23.23s.1.23.23.23h18.28c.13,0,.23-.1.23-.23s-.1-.23-.23-.23h-1.44v-5.86h-.46Z"/><polygon class="checklist-template-final-cls-1" points="17.69 1.93 18.96 4.53 14.17 4.53 13.71 1.93 17.69 1.93"/><polygon class="checklist-template-final-cls-1" points="13.99 7.72 8.34 7.72 8.79 5.13 13.54 5.13 13.99 7.72"/><polygon class="checklist-template-final-cls-1" points="13.01 1.93 13.46 4.53 8.87 4.53 9.32 1.93 13.01 1.93"/><polygon class="checklist-template-final-cls-1" points="4.64 1.93 8.61 1.93 8.16 4.52 3.38 4.52 4.64 1.93"/><polygon class="checklist-template-final-cls-1" points="1.85 7.72 3.11 5.13 8.04 5.13 7.58 7.72 1.85 7.72"/><polygon class="checklist-template-final-cls-1" points="14.75 7.72 14.3 5.13 19.22 5.13 20.48 7.72 14.75 7.72"/><path class="cls-4" d="M11.25,4.27l-.71.48-.85-.17-.47.72-.85.16-.16.85-.72.47.17.85-.48.71.48.71-.17.85.72.47.16.85.85.16.47.72.85-.17.71.48.71-.48.85.17.47-.72.85-.16.16-.85.72-.47-.17-.85.48-.71-.48-.71.17-.85-.72-.47-.16-.85-.85-.16-.47-.72-.85.17-.71-.48ZM11.25,4.95c1.87,0,3.39,1.52,3.39,3.39s-1.52,3.39-3.39,3.39-3.39-1.52-3.39-3.39,1.52-3.39,3.39-3.39ZM11.25,5.8c-1.41,0-2.54,1.13-2.54,2.54s1.13,2.54,2.54,2.54,2.54-1.13,2.54-2.54-1.13-2.54-2.54-2.54ZM12.48,7.06l.56.52-1.91,2.03-.25.27-.28-.25-1.14-1.02.51-.57.87.77,1.65-1.76h0Z"/><path class="checklist-template-final-cls-2" d="M11.25,4.27l-.71.48-.85-.17-.47.72-.85.16-.16.85-.72.47.17.85-.48.71.48.71-.17.85.72.47.16.85.85.16.47.72.85-.17.71.48.71-.48.85.17.47-.72.85-.16.16-.85.72-.47-.17-.85.48-.71-.48-.71.17-.85-.72-.47-.16-.85-.85-.16-.47-.72-.85.17-.71-.48ZM11.25,4.95c1.87,0,3.39,1.52,3.39,3.39s-1.52,3.39-3.39,3.39-3.39-1.52-3.39-3.39,1.52-3.39,3.39-3.39ZM11.25,5.8c-1.41,0-2.54,1.13-2.54,2.54s1.13,2.54,2.54,2.54,2.54-1.13,2.54-2.54-1.13-2.54-2.54-2.54ZM12.48,7.06l.56.52-1.91,2.03-.25.27-.28-.25-1.14-1.02.51-.57.87.77,1.65-1.76h0Z"/><path class="checklist-template-final-cls-3" d="M11.25,4.27l-.71.48-.85-.17-.47.72-.85.16-.16.85-.72.47.17.85-.48.71.48.71-.17.85.72.47.16.85.85.16.47.72.85-.17.71.48.71-.48.85.17.47-.72.85-.16.16-.85.72-.47-.17-.85.48-.71-.48-.71.17-.85-.72-.47-.16-.85-.85-.16-.47-.72-.85.17-.71-.48ZM11.25,4.95c1.87,0,3.39,1.52,3.39,3.39s-1.52,3.39-3.39,3.39-3.39-1.52-3.39-3.39,1.52-3.39,3.39-3.39ZM11.25,5.8c-1.41,0-2.54,1.13-2.54,2.54s1.13,2.54,2.54,2.54,2.54-1.13,2.54-2.54-1.13-2.54-2.54-2.54ZM12.48,7.06l.56.52-1.91,2.03-.25.27-.28-.25-1.14-1.02.51-.57.87.77,1.65-1.76h0Z"/></svg>
