<svg width="40" height="40" viewBox="0 0 40 40" fill="none" xmlns="http://www.w3.org/2000/svg">
    <circle cx="20" cy="20" r="20" fill="white"/>
    <g clip-path="url(#clip0_192_1281)">
        <path d="M6.41923 29.9974L7.83047 32.3845C8.12372 32.8871 8.54521 33.282 9.04009 33.5692C10.4576 31.8072 11.4441 30.455 12.0001 29.5128C12.5642 28.5566 13.2576 27.0608 14.0802 25.0257C11.8632 24.7398 10.1832 24.597 9.04021 24.597C7.94309 24.597 6.26311 24.7398 4 25.0257C4 25.582 4.14662 26.1384 4.43987 26.641L6.41923 29.9974Z" fill="#0066DA"/>
        <path d="M30.9599 33.5692C31.4549 33.282 31.8764 32.8871 32.1696 32.3846L32.7561 31.3975L35.5603 26.641C35.8481 26.1493 35.9997 25.5925 36 25.0257C33.7238 24.7398 32.0469 24.597 30.9692 24.597C29.811 24.597 28.134 24.7398 25.9382 25.0257C26.7511 27.0719 27.4353 28.5677 27.991 29.5128C28.5513 30.4663 29.541 31.8183 30.9599 33.5692Z" fill="#EA4335"/>
        <path d="M20 14.9743C21.64 13.0347 22.7703 11.5389 23.3906 10.4872C23.8903 9.64036 24.4401 8.28817 25.0401 6.43078C24.5453 6.14359 23.9771 6 23.3906 6H16.6094C16.023 6 15.455 6.16159 14.96 6.43078C15.7232 8.56103 16.3709 10.0771 16.9029 10.979C17.4909 11.9757 18.5233 13.3074 20 14.9743Z" fill="#00832D"/>
        <path d="M25.9199 25.0257H14.0802L9.04028 33.5692C9.53503 33.8564 10.1031 34 10.6896 34H29.3105C29.897 34 30.4652 33.8384 30.96 33.5691L25.9199 25.0257Z" fill="#2684FC"/>
        <path d="M20 14.9743L14.96 6.4309C14.465 6.71808 14.0435 7.11287 13.7503 7.6155L4.43987 23.4103C4.15201 23.902 4.00038 24.4589 4 25.0257H14.0802L20 14.9743Z" fill="#00AC47"/>
        <path d="M30.9052 15.5128L26.2498 7.61538C25.9567 7.11275 25.5351 6.71796 25.0402 6.43078L20.0002 14.9743L25.9199 25.0257H35.9819C35.9819 24.4692 35.8352 23.9129 35.542 23.4103L30.9052 15.5128Z" fill="#FFBA00"/>
    </g>
    <defs>
        <clipPath id="clip0_192_1281">
            <rect width="32" height="28" fill="white" transform="translate(4 6)"/>
        </clipPath>
    </defs>
</svg>
