<svg width="20" height="20" aria-hidden="true" xmlns="http://www.w3.org/2000/svg" viewBox="0 0 20 20">
  <g fill="currentColor">
		<path d="M7.6,4.1l1.6-1.5v4h1.5v-4l1.6,1.5c0.3,0.3,0.8,0.3,1.1,0c0.1-0.1,0.2-0.3,0.2-0.5c0-0.2-0.1-0.4-0.2-0.5
			l-2.9-2.8C10.4,0.1,10.2,0,10,0C9.8,0,9.6,0.1,9.5,0.2L6.5,3c0,0,0,0,0,0c-0.3,0.3-0.2,0.7,0,1C6.9,4.4,7.3,4.4,7.6,4.1z"/>
		<path d="M15.5,6.5h-4.8v5.9c0,0.4-0.4,0.8-0.8,0.8c-0.4,0-0.8-0.3-0.8-0.8V6.5H4.4C2,6.5,0,8.5,0,10.9v4.8
			C0,18,2,20,4.5,20h11.1c2.5,0,4.4-2,4.4-4.3v-4.8C20,8.5,18,6.5,15.5,6.5z"/>
  </g>
</svg>
