<svg width="23" height="23" viewBox="0 0 23 23" fill="none" style="cursor:pointer" xmlns="http://www.w3.org/2000/svg" aria-labelledby="questionmark-icon"  aria-describedby="questionmark-icon-desc">
	<title id="questionmark-icon">Question mark</title>
	<desc id="questionmark-icon-desc">Icon that indicates there's more information being given here on the given subject.</desc>
  <circle cx="11.5" cy="11.6953" r="11" class="lightblue--fill"/>
  <path d="M8.5 6.87818C8.676 6.71503 8.868 6.56275 9.076 6.42135C9.284 6.27995 9.508 6.15486 9.748 6.04609C9.99333 5.93732 10.2573 5.85303 10.54 5.7932C10.828 5.72794 11.1373 5.69531 11.468 5.69531C11.9107 5.69531 12.316 5.76057 12.684 5.8911C13.0573 6.01618 13.3773 6.19837 13.644 6.43767C13.916 6.67152 14.1267 6.95704 14.276 7.29422C14.4253 7.62597 14.5 7.99851 14.5 8.41183C14.5 8.82516 14.4413 9.1841 14.324 9.48865C14.2067 9.78777 14.0573 10.0488 13.876 10.2718C13.6947 10.4948 13.4973 10.6906 13.284 10.8591C13.0707 11.0223 12.868 11.1773 12.676 11.3241C12.4893 11.4655 12.3267 11.6097 12.188 11.7565C12.0547 11.8979 11.9747 12.0556 11.948 12.2296L11.78 13.4533H10.612L10.492 12.1073C10.4653 11.8517 10.5053 11.6314 10.612 11.4465C10.7187 11.2616 10.86 11.0876 11.036 10.9244C11.2173 10.7613 11.4147 10.6063 11.628 10.4594C11.8467 10.3071 12.0493 10.1385 12.236 9.95364C12.4227 9.76873 12.58 9.56207 12.708 9.33365C12.836 9.10524 12.9 8.83059 12.9 8.50972C12.9 8.29762 12.86 8.10728 12.78 7.93868C12.7 7.76465 12.588 7.61781 12.444 7.49817C12.3 7.37852 12.132 7.28607 11.94 7.22081C11.748 7.15554 11.54 7.12291 11.316 7.12291C11.0013 7.12291 10.7347 7.16098 10.516 7.23712C10.2973 7.31326 10.1107 7.39756 9.956 7.49001C9.80133 7.57703 9.67333 7.6586 9.572 7.73474C9.47067 7.80544 9.38533 7.84079 9.316 7.84079C9.15067 7.84079 9.028 7.76737 8.948 7.62053L8.5 6.87818ZM10.036 16.5614C10.036 16.4037 10.0627 16.2568 10.116 16.1209C10.1747 15.9795 10.252 15.8571 10.348 15.7538C10.4493 15.6504 10.5667 15.5689 10.7 15.509C10.8387 15.4492 10.9853 15.4193 11.14 15.4193C11.2947 15.4193 11.4387 15.4492 11.572 15.509C11.7107 15.5689 11.8307 15.6504 11.932 15.7538C12.0333 15.8571 12.1133 15.9795 12.172 16.1209C12.2307 16.2568 12.26 16.4037 12.26 16.5614C12.26 16.7245 12.2307 16.8741 12.172 17.0101C12.1133 17.146 12.0333 17.2657 11.932 17.369C11.8307 17.4723 11.7107 17.5512 11.572 17.6056C11.4387 17.6654 11.2947 17.6953 11.14 17.6953C10.9853 17.6953 10.8387 17.6654 10.7 17.6056C10.5667 17.5512 10.4493 17.4723 10.348 17.369C10.252 17.2657 10.1747 17.146 10.116 17.0101C10.0627 16.8741 10.036 16.7245 10.036 16.5614Z" fill="white"/>
</svg>
