<?xml version="1.0" encoding="UTF-8"?><svg id="Layer_1" xmlns="http://www.w3.org/2000/svg" viewBox="0 0 24.05 16.34"><defs><style>.checklist-template-ground-mount-cls-1{fill-rule:evenodd;}.checklist-template-ground-mount-cls-1,.checklist-template-ground-mount-cls-2{fill:#34383c;stroke-width:0px;}</style></defs><path class="checklist-template-ground-mount-cls-1" d="M8.08,6.93H2.04l-.68,1.54c-.03.07-.04.14-.04.21.02.22.2.4.43.4h5.9l.41-2.15ZM3.42,3.8h5.27l.41-2.15h-4.45c-.18,0-.32.09-.4.26l-.83,1.89ZM8.59,4.29H3.2l-.94,2.15h5.91l.42-2.15ZM14.87,3.8l-.41-2.15h-4.86l-.41,2.15h5.69ZM15.38,6.44l-.41-2.15h-5.88s-.41,2.15-.41,2.15h6.71ZM15.47,4.29l.41,2.15h5.92l-.94-2.15h-5.39ZM14.96,1.65l.41,2.15h5.27l-.83-1.89c-.07-.16-.22-.26-.4-.26h-4.45,0ZM16.39,9.07h5.9c.32,0,.52-.32.4-.61l-.68-1.54h-6.04s.41,2.15.41,2.15ZM10.7,9.07h5.19l-.41-2.15h-6.9s-.41,2.15-.41,2.15h2.53Z"/><polyline class="checklist-template-ground-mount-cls-2" points="12.83 9.54 12.83 12.62 11.23 12.62 11.23 9.54"/><polygon class="checklist-template-ground-mount-cls-2" points="10.21 12.86 9.12 14.06 9.12 14.69 11.77 14.69 12.28 14.65 14.93 14.65 14.93 14.02 13.84 12.86 10.21 12.86"/></svg>
