<svg width="20" height="15" fill="none" xmlns="http://www.w3.org/2000/svg" aria-labelledby="team-icon"  aria-describedby="team-icon-desc">
	<title id="team-icon">Team</title>
	<desc id="team-icon-desc">Icon that indicates a redirection to a page that has more information about the team </desc>
  <path d="M9.954 9.88c3.119 0 5.782.51 5.782 2.552 0 2.04-2.646 2.568-5.782 2.568-3.12 0-5.783-.51-5.783-2.55s2.646-2.57 5.783-2.57zm4.987-1.228c1.193-.023 2.475.146 2.948.266 1.004.204 1.664.619 1.938 1.223.23.495.23 1.07 0 1.565-.419.936-1.768 1.237-2.292 1.315-.108.016-.195-.08-.184-.193.268-2.595-1.862-3.825-2.413-4.108-.024-.012-.029-.032-.026-.043.001-.009.011-.022.029-.025zM4.835 8.65l.225.002a.034.034 0 0 1 .028.024c.003.013-.002.031-.025.045-.552.283-2.682 1.513-2.414 4.107.011.113-.075.209-.184.193-.524-.078-1.873-.378-2.291-1.315a1.847 1.847 0 0 1 0-1.565c.273-.604.933-1.02 1.937-1.223.474-.12 1.755-.288 2.949-.266l-.225-.002zM9.954 0c2.123 0 3.826 1.765 3.826 3.968 0 2.203-1.703 3.97-3.826 3.97-2.124 0-3.827-1.767-3.827-3.97C6.127 1.765 7.83 0 9.954 0zm5.194.662c2.052 0 3.663 2.002 3.114 4.232a3.209 3.209 0 0 1-3.644 2.413.15.15 0 0 1-.097-.228c.57-.87.894-1.916.894-3.04a5.56 5.56 0 0 0-.97-3.16c-.02-.027-.035-.07-.015-.102.016-.027.046-.04.075-.047.207-.044.42-.068.643-.068zm-10.297 0c.223 0 .436.024.645.068.027.007.058.021.074.047.02.032.005.075-.014.103a5.56 5.56 0 0 0-.971 3.16c0 1.123.324 2.169.894 3.039a.15.15 0 0 1-.097.228 3.209 3.209 0 0 1-3.644-2.414C1.188 2.663 2.8.662 4.851.662z" fill="#2E3134"/>
</svg>
