<svg id="clockIcon" viewBox="0 0 20 20" fill="none" xmlns="http://www.w3.org/2000/svg" aria-labelledby="clock-icon"  aria-describedby="clock-icon-desc">
	<title id="clock-icon">Clock icon</title>
	<desc id="clock-icon-desc">Icon to indicate the expected turnaround time</desc>
  <g clip-path="url(#clip0_1422_19164)">
    <path d="M10 20C4.47656 20 0 15.5234 0 10C0 4.47656 4.47656 0 10 0C15.5234 0 20 4.47656 20 10C20 15.5234 15.5234 20 10 20ZM9.0625 4.6875V10C9.0625 10.3125 9.21875 10.6055 9.48047 10.7812L13.2305 13.2812C13.6602 13.5703 14.2422 13.4531 14.5312 13.0195C14.8203 12.5859 14.7031 12.0078 14.2695 11.7188L10.9375 9.5V4.6875C10.9375 4.16797 10.5195 3.75 10 3.75C9.48047 3.75 9.0625 4.16797 9.0625 4.6875Z" class="blue--fill"/>
  </g>
  <defs>
    <clipPath id="clip0_1422_19164">
    <rect width="20" height="20" fill="white"/>
    </clipPath>
  </defs>
</svg>