<?xml version="1.0" encoding="UTF-8"?><svg id="Layer_1" xmlns="http://www.w3.org/2000/svg" viewBox="0 0 23.67 21.87"><defs><style>.checklist-template-building-cls-1{fill:#34383c;}.checklist-template-building-cls-1,.checklist-template-building-cls-2{stroke-width:0px;}.checklist-template-building-cls-2{fill:#fff;}</style></defs><polygon class="checklist-template-building-cls-1" points="9.08 21.16 1.57 16.82 1.57 7.45 9.08 11.78 9.08 21.16"/><polygon class="checklist-template-building-cls-1" points="1.75 7.14 13.71 .61 21.93 4.56 9.25 11.48 1.75 7.14"/><polygon class="checklist-template-building-cls-1" points="22.1 14.24 9.43 21.16 9.43 11.78 22.1 4.86 22.1 14.24"/><path class="checklist-template-building-cls-2" d="M22.36,4.41L13.8.26c-.05-.03-.12-.03-.18,0L1.31,6.99c-.05.03-.09.09-.09.15v9.78c0,.06.03.12.09.15l7.85,4.53s.06.02.09.02.06,0,.09-.02l13.03-7.12c.05-.03.09-.09.09-.15V4.56c0-.06-.03-.12-.09-.15h0ZM13.71.61l8.21,3.94-.33.19-7.83-3.72s-.08-.02-.12,0L2.07,7.33l-.33-.19L13.71.61ZM9.08,21.16l-7.5-4.33V7.45l7.5,4.33v9.38ZM2.31,7.47L13.71,1.26l7.66,3.62-12.12,6.6L2.31,7.47ZM22.1,14.24l-12.68,6.92v-9.38l12.68-6.92v9.38Z"/><polygon class="checklist-template-building-cls-2" points="4.35 17.02 5.18 17.5 5.18 18.93 4.35 18.45 4.35 17.02"/><polygon class="checklist-template-building-cls-2" points="16.49 15.91 17.32 15.47 17.32 16.9 16.49 17.34 16.49 15.91"/><polygon class="checklist-template-building-cls-2" points="2.26 9.66 3.09 10.15 3.09 11.58 2.26 11.1 2.26 9.66"/><polygon class="checklist-template-building-cls-2" points="3.93 10.63 4.77 11.11 4.77 12.55 3.93 12.07 3.93 10.63"/><polygon class="checklist-template-building-cls-2" points="5.61 11.6 6.44 12.08 6.44 13.52 5.61 13.03 5.61 11.6"/><polygon class="checklist-template-building-cls-2" points="7.28 12.57 8.12 13.05 8.12 14.49 7.28 14 7.28 12.57"/><polygon class="checklist-template-building-cls-2" points="2.26 12.07 3.09 12.56 3.09 13.99 2.26 13.51 2.26 12.07"/><polygon class="checklist-template-building-cls-2" points="3.93 13.04 4.77 13.53 4.77 14.96 3.93 14.48 3.93 13.04"/><polygon class="checklist-template-building-cls-2" points="5.61 14.01 6.44 14.49 6.44 15.93 5.61 15.44 5.61 14.01"/><polygon class="checklist-template-building-cls-2" points="7.28 14.98 8.12 15.46 8.12 16.9 7.28 16.41 7.28 14.98"/><polygon class="checklist-template-building-cls-2" points="15.98 11.1 15.14 11.58 15.14 10.15 15.98 9.66 15.98 11.1"/><polygon class="checklist-template-building-cls-2" points="14.3 12.07 13.46 12.55 13.46 11.11 14.3 10.63 14.3 12.07"/><polygon class="checklist-template-building-cls-2" points="12.62 13.03 11.79 13.52 11.79 12.08 12.62 11.6 12.62 13.03"/><polygon class="checklist-template-building-cls-2" points="10.95 14 10.11 14.49 10.11 13.05 10.95 12.57 10.95 14"/><polygon class="checklist-template-building-cls-2" points="15.98 13.51 15.14 13.99 15.14 12.56 15.98 12.07 15.98 13.51"/><polygon class="checklist-template-building-cls-2" points="14.3 14.48 13.46 14.96 13.46 13.53 14.3 13.04 14.3 14.48"/><polygon class="checklist-template-building-cls-2" points="12.62 15.44 11.79 15.93 11.79 14.49 12.62 14.01 12.62 15.44"/><polygon class="checklist-template-building-cls-2" points="20.85 8.28 20.01 8.77 20.01 7.33 20.85 6.85 20.85 8.28"/><polygon class="checklist-template-building-cls-2" points="19.17 9.25 18.33 9.73 18.33 8.3 19.17 7.82 19.17 9.25"/><polygon class="checklist-template-building-cls-2" points="17.49 10.22 16.66 10.7 16.66 9.27 17.49 8.78 17.49 10.22"/><polygon class="checklist-template-building-cls-2" points="20.85 10.69 20.01 11.18 20.01 9.74 20.85 9.26 20.85 10.69"/><polygon class="checklist-template-building-cls-2" points="19.17 11.66 18.33 12.14 18.33 10.71 19.17 10.23 19.17 11.66"/><polygon class="checklist-template-building-cls-2" points="17.49 12.63 16.66 13.11 16.66 11.68 17.49 11.19 17.49 12.63"/><polygon class="checklist-template-building-cls-2" points="10.95 16.41 10.11 16.9 10.11 15.46 10.95 14.98 10.95 16.41"/></svg>
