<svg width="56" height="56" id="camera" xmlns="http://www.w3.org/2000/svg" viewBox="0 0 100 100">
	<path fill="#E4EBEE" d="M0,0h100v100H0V0z"/>
	<path class="blue--fill" d="M70.5,39.2c-0.3-0.1-0.7-0.1-0.9,0L60,44.4v-3.1c0-2.5-2-4.4-4.4-4.4h-22c-2.5,0-4.4,2-4.4,4.4v17.5
		c0,2.5,2,4.4,4.4,4.4h22c2.5,0,4.4-2,4.4-4.4v-3.1l9.5,5.2c0.3,0.1,0.7,0.1,0.9,0c0.3-0.1,0.4-0.4,0.4-0.8V40
		C70.8,39.7,70.7,39.3,70.5,39.2L70.5,39.2z M58.2,58.7c0,1.4-1.2,2.6-2.6,2.6h-22c-1.4,0-2.6-1.2-2.6-2.6V41.3
		c0-1.4,1.2-2.6,2.6-2.6h22c1.4,0,2.6,1.2,2.6,2.6V58.7z M69,58.6l-9.1-5v-7.2l9.1-5V58.6z"/>
</svg>
