<svg width="15" height="15" viewBox="0 0 15 15" xmlns="http://www.w3.org/2000/svg">
<path d="M13.5938 13.125H1.40625C0.62959 13.125 0 12.4954 0 11.7187V3.28125C0 2.50459 0.62959 1.875 1.40625 1.875H13.5938C14.3704 1.875 15 2.50459 15 3.28125V11.7187C15 12.4954 14.3704 13.125 13.5938 13.125ZM3.28125 3.51562C2.37516 3.51562 1.64062 4.25016 1.64062 5.15625C1.64062 6.06234 2.37516 6.79687 3.28125 6.79687C4.18734 6.79687 4.92188 6.06234 4.92188 5.15625C4.92188 4.25016 4.18734 3.51562 3.28125 3.51562ZM1.875 11.25H13.125V7.96875L10.5611 5.40483C10.4238 5.26755 10.2012 5.26755 10.0639 5.40483L6.09375 9.375L4.46733 7.74858C4.33005 7.6113 4.10745 7.6113 3.97014 7.74858L1.875 9.84375V11.25Z"/>
</svg>
