<svg width="18" height="18" viewBox="0 0 18 18" fill="none" xmlns="http://www.w3.org/2000/svg" aria-labelledby="logout-icon"  aria-describedby="logout-icon-desc">
	<title id="logout-icon">Log out</title>
	<desc id="logout-icon-desc">Icon that enables users to log out</desc>
  <path d="M8.28029 0.666504C10.2714 0.666504 11.8953 2.32484 11.8953 4.3665V8.35817H6.99912C6.64822 8.35817 6.37077 8.6415 6.37077 8.99984C6.37077 9.34984 6.64822 9.6415 6.99912 9.6415H11.8953V13.6248C11.8953 15.6665 10.2714 17.3332 8.26397 17.3332H4.28988C2.2906 17.3332 0.666687 15.6748 0.666687 13.6332V4.37484C0.666687 2.32484 2.29876 0.666504 4.29804 0.666504H8.28029ZM13.9327 6.125C14.1733 5.86667 14.5663 5.86667 14.8069 6.11667L17.1489 8.54167C17.2692 8.66667 17.3334 8.825 17.3334 9C17.3334 9.16667 17.2692 9.33334 17.1489 9.45L14.8069 11.875C14.6866 12 14.5262 12.0667 14.3738 12.0667C14.2134 12.0667 14.053 12 13.9327 11.875C13.6921 11.625 13.6921 11.2167 13.9327 10.9667L15.216 9.64167H11.8955V8.35834H15.216L13.9327 7.03334C13.6921 6.78334 13.6921 6.375 13.9327 6.125Z" fill="currentColor"/>
</svg>
