<svg width="25" height="25" viewBox="0 0 25 25" fill="none" xmlns="http://www.w3.org/2000/svg">
<g clip-path="url(#clip0_117_7287)">
<path d="M12.5001 1.5625C13.1935 1.5625 13.8332 1.92871 14.1847 2.5293L24.7316 20.498C25.088 21.1035 25.088 21.8506 24.7414 22.4561C24.3947 23.0615 23.7453 23.4375 23.047 23.4375H1.95328C1.25503 23.4375 0.60562 23.0615 0.25894 22.4561C-0.0877397 21.8506 -0.0828569 21.0986 0.268706 20.498L10.8156 2.5293C11.1671 1.92871 11.8068 1.5625 12.5001 1.5625ZM12.5001 7.8125C11.8507 7.8125 11.3283 8.33496 11.3283 8.98438V14.4531C11.3283 15.1025 11.8507 15.625 12.5001 15.625C13.1496 15.625 13.672 15.1025 13.672 14.4531V8.98438C13.672 8.33496 13.1496 7.8125 12.5001 7.8125ZM14.0627 18.75C14.0627 17.8857 13.3644 17.1875 12.5001 17.1875C11.6359 17.1875 10.9376 17.8857 10.9376 18.75C10.9376 19.6143 11.6359 20.3125 12.5001 20.3125C13.3644 20.3125 14.0627 19.6143 14.0627 18.75Z" fill="#F9A91C"/>
</g>
<defs>
<clipPath id="clip0_117_7287">
<rect width="25" height="25" fill="white"/>
</clipPath>
</defs>
</svg>
