<?xml version="1.0" encoding="UTF-8"?><svg id="Layer_1" xmlns="http://www.w3.org/2000/svg" viewBox="0 0 23.79 21.87"><defs><style>.checklist-template-maintenance-cls-1{fill:#34383c;stroke-width:0px;}</style></defs><path class="checklist-template-maintenance-cls-1" d="M17.69,11.74c-.18.04-.3.22-.27.4.04.18.21.3.4.27.18-.04.3-.22.27-.4-.04-.18-.21-.3-.4-.27Z"/><path class="checklist-template-maintenance-cls-1" d="M19.38,11.81c-.09-.43-.33-.8-.7-1.04l-9.24-6.17c-.17-.11-.26-.28-.27-.49-.02-1.13-.59-2.18-1.53-2.81-1.52-1.01-3.57-.67-4.67.79-.03.05-.04.11-.03.16.02.05.06.1.12.11l2.9.92.26,1.18-.89.82-2.8-.88c-.06-.02-.12,0-.17.03s-.07.1-.06.16c.12,1,.67,1.89,1.51,2.44.77.51,1.7.71,2.56.53.25-.05.5-.13.72-.24.08-.04.17-.06.26-.06.12,0,.24.03.34.1l9.16,6.12c.36.24.8.33,1.23.24.43-.09.8-.33,1.04-.7.24-.36.33-.8.24-1.23ZM17.92,12.86c-.44.09-.86-.2-.95-.63-.09-.44.2-.86.63-.95.44-.09.86.2.95.63.09.44-.2.86-.63.95Z"/><path class="checklist-template-maintenance-cls-1" d="M17.52,9.54h2.56l-.78-2.1c-.04-.12-.16-.19-.31-.19h-4.25l.07.48,2.72,1.81Z"/><path class="checklist-template-maintenance-cls-1" d="M8.87,8.6l-1.37-.92c-.07-.05-.16-.05-.23-.02-.26.12-.53.21-.81.27-.68.14-1.41.06-2.07-.19l-.66,1.8h5.03l.13-.94Z"/><path class="checklist-template-maintenance-cls-1" d="M18.89,10.45c.45.3.75.75.86,1.28.05.23.05.46.02.69h1.37l-.86-2.38h-1.99l.61.41Z"/><polygon class="checklist-template-maintenance-cls-1" points="10.27 9.54 9.3 8.89 9.21 9.54 10.27 9.54"/><polygon class="checklist-template-maintenance-cls-1" points="11.03 10.05 9.17 10.05 8.82 12.43 14.59 12.43 11.03 10.05"/><rect class="checklist-template-maintenance-cls-1" x="11.08" y="16.01" width="1.6" height="3.08"/><polygon class="checklist-template-maintenance-cls-1" points="8.78 12.93 8.39 15.7 15.4 15.7 15.01 12.93 8.78 12.93"/><path class="checklist-template-maintenance-cls-1" d="M1.61,15.27c-.04.12-.04.19.04.27.08.08.16.16.27.16h5.96l.39-2.77H2.46l-.86,2.34Z"/><path class="checklist-template-maintenance-cls-1" d="M22.18,15.27l-.86-2.34h-1.71c-.05.11-.1.21-.17.31-.3.45-.75.75-1.28.86-.13.03-.26.04-.4.04-.39,0-.78-.12-1.11-.34l-1.12-.74.37,2.64h5.96c.12,0,.19-.04.27-.16.08-.08.08-.19.04-.27Z"/><polygon class="checklist-template-maintenance-cls-1" points="10.06 19.32 8.97 20.53 8.97 21.15 11.62 21.15 12.13 21.11 14.78 21.11 14.78 20.49 13.69 19.32 10.06 19.32"/><polygon class="checklist-template-maintenance-cls-1" points="3.52 10.05 2.66 12.43 8.31 12.43 8.66 10.05 3.52 10.05"/></svg>
