<svg width="24" height="24" viewBox="0 0 24 24" fill="none" xmlns="http://www.w3.org/2000/svg">
    <circle cx="12" cy="12" r="12" class="blue--fill"/>
    <path d="M13.5864 5.52561C13.6139 5.39628 13.598 5.26147 13.5411 5.14213C13.4842 5.02278 13.3894 4.92559 13.2715 4.86565C13.1537 4.80572 13.0193 4.7864 12.8893 4.81069C12.7593 4.83499 12.641 4.90154 12.5528 5.00001L5.75276 12.6C5.67555 12.6863 5.62497 12.7932 5.60713 12.9076C5.5893 13.0221 5.60497 13.1392 5.65225 13.2449C5.69953 13.3507 5.77641 13.4405 5.8736 13.5035C5.97079 13.5665 6.08414 13.6 6.19996 13.6H11.4576L10.4136 18.4744C10.386 18.6037 10.4019 18.7385 10.4588 18.8579C10.5158 18.9772 10.6105 19.0744 10.7284 19.1344C10.8463 19.1943 10.9806 19.2136 11.1106 19.1893C11.2406 19.165 11.3589 19.0985 11.4472 19L18.2472 11.4C18.3244 11.3137 18.375 11.2068 18.3928 11.0924C18.4106 10.978 18.395 10.8608 18.3477 10.7551C18.3004 10.6493 18.2235 10.5595 18.1263 10.4965C18.0291 10.4335 17.9158 10.4 17.8 10.4H12.5424L13.5864 5.52561Z" fill="white"/>
</svg>
