<svg aria-hidden="true" xmlns="http://www.w3.org/2000/svg" viewBox="0 0 19 19"
aria-labelledby="category-icon"  aria-describedby="category-icon-desc">
	<title id="category-icon">Category</title>
	<desc id="category-icon-desc">Icon to indicate category</desc>
  <g fill="currentColor">
		<path d="M7.5,0.2H3.5c-1.9,0-3.3,1.4-3.3,3.3v4c0,0.7,0.3,1,1,1h6.3c0.6,0,1-0.3,1-1V4.4c0-1.1,0-2.1,0-3.2
			C8.5,0.6,8.2,0.2,7.5,0.2z M6.8,1.9v5l-5,0V3.5c0-0.7,0.3-1.2,0.9-1.5c0.2-0.1,0.4-0.1,0.6-0.1H6.8z"/>
		<path d="M7.5,10.3H4.3c-0.9,0-1.7,0-2.5,0H1c-0.5,0-0.8,0.3-0.8,0.8c0,0.5,0,1,0,1.5c0,1,0,2,0,3c0,1.1,0.6,2,1.6,2.6
			c0.5,0.3,1.1,0.4,1.7,0.4h4c0.9,0,1-0.6,1-1v-6.3C8.5,10.7,8.2,10.3,7.5,10.3z M6.9,12V17H3.4c-0.8,0-1.4-0.4-1.7-1.3
			c0-0.1,0-0.3,0-0.4l0-3.4H6.9z"/>
		<path d="M18.6,2.8c-0.3-1.5-1.6-2.6-3.1-2.6h-4.2c-0.6,0-0.9,0.3-0.9,0.9v3.2c0,1.1,0,2.1,0,3.2c0,0.6,0.3,1,1,1h6.4
			c0.6,0,1-0.3,1-1v-4C18.6,3.3,18.6,3.1,18.6,2.8z M17,3.4v3.5l-5,0l0-5.1h3.4c0.8,0,1.3,0.4,1.6,1.2C16.9,3.1,17,3.3,17,3.4z
			M17.3,7.3L17.3,7.3L17.3,7.3L17.3,7.3z"/>
		<path d="M14.5,10.3c-2.3-0.1-4.1,1.7-4.2,4.1c0,1.1,0.4,2.1,1.2,2.9c0.8,0.8,1.8,1.3,2.9,1.3c2.3,0,4.2-1.8,4.2-4.1
			C18.6,12.5,17.1,10.3,14.5,10.3z M17,14.5c0,1.4-1.1,2.5-2.5,2.5c-1.4,0-2.6-1.1-2.6-2.5s1.2-2.6,2.6-2.6C15.9,11.9,17,13,17,14.5z
			"/>
  </g>
</svg>
