<svg width="28" height="27" viewBox="0 0 28 27" fill="none" xmlns="http://www.w3.org/2000/svg">
<path d="M23.2302 6.01995C23.4115 5.98773 23.5887 6.05217 23.6491 6.20119C24.1002 7.03895 24.4587 7.90893 24.7285 8.81113C24.7889 8.99238 24.6963 9.16959 24.5473 9.26223C23.7095 9.76972 22.2676 10.8209 22.2676 12.4119C22.2676 14.0028 23.6773 15.05 24.5473 15.5615C24.6963 15.6501 24.7889 15.8314 24.7285 16.0126C24.5191 16.7618 24.221 17.4827 23.8585 18.1996L20.1692 14.6311C19.4804 14.0028 19.0898 13.1006 19.0616 12.1138C19.0012 10.4947 18.3406 8.90779 17.1122 7.67532C14.4136 4.97678 9.91471 5.06539 7.36922 8.00559C5.23858 10.4343 5.21039 14.1196 7.24839 16.6087C8.53725 18.1392 10.3054 18.9488 12.1058 19.0374C13.0966 19.0696 13.9948 19.4885 14.6553 20.145L18.1634 23.8626C17.4424 24.221 16.7255 24.4909 15.9764 24.7325C15.7951 24.793 15.6179 24.7003 15.5253 24.5513C15.0178 23.7135 13.9666 22.2716 12.3756 22.2716C10.7847 22.2716 9.7375 23.6813 9.22598 24.5513C9.13737 24.7003 8.95613 24.793 8.77488 24.7325C7.87671 24.4627 7.00673 24.1042 6.16495 23.6531C6.01592 23.5645 5.92329 23.3833 5.9837 23.2342C6.22536 22.2757 6.46299 20.5035 5.35538 19.3959C4.24777 18.2883 2.47559 18.5259 1.51701 18.7675C1.33576 18.7998 1.15854 18.7353 1.09813 18.5863C0.647027 17.7485 0.288563 16.8786 0.0187089 15.9764C-0.0417063 15.7951 0.0509303 15.6179 0.199954 15.5575C1.03771 15.05 2.47962 13.9988 2.47962 12.4078C2.47962 10.8169 1.06993 9.76972 0.232176 9.2582C0.0831518 9.16959 -0.00948487 8.98835 0.0509303 8.8071C0.320785 7.90893 0.679248 7.03895 1.13035 6.19717C1.21896 6.04814 1.4002 5.95551 1.54923 6.01592C2.50781 6.25758 4.27999 6.49521 5.3876 5.3876C6.49521 4.27999 6.25758 2.50781 6.01592 1.54923C5.9837 1.36798 6.04814 1.19076 6.19717 1.13035C7.03492 0.679248 7.9049 0.320785 8.8071 0.0509303C8.98835 -0.00948487 9.16557 0.0831516 9.2582 0.232176C9.76569 1.06993 10.8491 2.47962 12.4078 2.47962C13.9666 2.47962 15.0742 1.06993 15.5575 0.199954C15.6461 0.0509303 15.8273 -0.0417063 15.9764 0.0187089C16.8745 0.288563 17.7445 0.647027 18.5863 1.09813C18.7353 1.18674 18.828 1.36798 18.7675 1.51701C18.5259 2.47559 18.2883 4.24777 19.3959 5.35538C20.5357 6.49924 22.2757 6.25758 23.2342 6.01592L23.2302 6.01995ZM17.4465 12.1662C17.5069 13.5477 18.0748 14.8325 19.0656 15.7951L26.2026 22.4207L26.2631 22.4811C27.2821 23.5001 27.3143 25.1796 26.2631 26.2308C25.2118 27.2821 23.5041 27.2498 22.4569 26.1704L15.8314 19.0334C14.8728 18.0426 13.5839 17.4747 12.2024 17.4142C11.1834 17.382 10.1644 17.0236 9.29445 16.363C7.70352 15.1024 7.10742 13.157 7.46589 11.3566C7.5263 11.1472 7.79615 11.0586 7.94518 11.2076L10.4343 13.6967C10.5833 13.8457 10.825 13.9384 11.0626 13.8779L12.9516 13.3705C13.161 13.31 13.3423 13.1288 13.4027 12.9194L13.9102 11.0304C13.9706 10.8209 13.9102 10.5793 13.7289 10.4021L11.2398 7.91296C11.0908 7.76393 11.1512 7.46186 11.3888 7.43366C13.008 7.10339 14.7157 7.55449 15.9764 8.81516C16.9068 9.74555 17.4143 10.9418 17.4465 12.1742V12.1662ZM24.9984 23.7377C24.6681 23.4074 24.1002 23.3792 23.7377 23.7377C23.3752 24.0962 23.4074 24.6359 23.7377 24.9984C24.0962 25.3568 24.6359 25.3568 24.9984 24.9984C25.3609 24.6399 25.3568 24.068 24.9984 23.7377Z" fill="#0024FC"/>
</svg>
