<svg viewBox="0 0 46 54" fill="none" xmlns="http://www.w3.org/2000/svg" aria-labelledby="pin-icon"  aria-describedby="pin-icon-desc">
	<title id="pin-icon">Pin</title>
	<desc id="pin-icon-desc">Icon to pin a location in the map</desc>
  <path d="M22.9825 0.333496C35.4163 0.333496 45.6666 10.2479 45.6666 22.5142C45.6666 28.6953 43.4187 34.4338 39.7186 39.2977C35.6368 44.6629 30.6057 49.3374 24.9428 53.0066C23.6467 53.8546 22.477 53.9186 21.0545 53.0066C15.3593 49.3374 10.3282 44.6629 6.28131 39.2977C2.5786 34.4338 0.333313 28.6953 0.333313 22.5142C0.333313 10.2479 10.5837 0.333496 22.9825 0.333496ZM22.9825 15.7384C18.8711 15.7384 15.5179 19.1276 15.5179 23.2048C15.5179 27.314 18.8711 30.5459 22.9825 30.5459C27.0966 30.5459 30.482 27.314 30.482 23.2048C30.482 19.1276 27.0966 15.7384 22.9825 15.7384Z" class="blue--fill"/>
</svg>
