<svg width="16" height="16" viewBox="0 0 16 16" fill="none" xmlns="http://www.w3.org/2000/svg">
<path fill-rule="evenodd" clip-rule="evenodd" d="M14.3996 8.00001C14.3996 11.5346 11.5342 14.4 7.99961 14.4C4.46499 14.4 1.59961 11.5346 1.59961 8.00001C1.59961 4.46538 4.46499 1.60001 7.99961 1.60001C11.5342 1.60001 14.3996 4.46538 14.3996 8.00001ZM6.76701 5.39254C6.38733 5.01286 5.77176 5.01286 5.39208 5.39254C5.0124 5.77221 5.0124 6.38779 5.39208 6.76747L6.62462 8L5.39208 9.23254C5.0124 9.61221 5.0124 10.2278 5.39208 10.6075C5.77176 10.9871 6.38733 10.9871 6.76701 10.6075L7.99955 9.37493L9.23208 10.6075C9.61176 10.9871 10.2273 10.9871 10.607 10.6075C10.9867 10.2278 10.9867 9.61221 10.607 9.23254L9.37448 8L10.607 6.76747C10.9867 6.38779 10.9867 5.77221 10.607 5.39254C10.2273 5.01286 9.61176 5.01286 9.23208 5.39254L7.99955 6.62507L6.76701 5.39254Z" fill="currentColor"/>
</svg>
