<?xml version="1.0" encoding="utf-8"?>
<!-- Generator: Adobe Illustrator 27.2.0, SVG Export Plug-In . SVG Version: 6.00 Build 0)  -->
<svg version="1.1" id="Layer_1" xmlns="http://www.w3.org/2000/svg" xmlns:xlink="http://www.w3.org/1999/xlink" x="0px" y="0px"
	 viewBox="0 0 504 504" style="enable-background:new 0 0 504 504;" xml:space="preserve">
<style type="text/css">
	.st0{fill:#2E3134;}
	.st1{fill:#FFFFFF;}
</style>
<g>
	<path class="st0" d="M407.25,460.75H96.75c-29.42,0-53.5-24.07-53.5-53.5V96.75c0-29.42,24.07-53.5,53.5-53.5h310.5
		c29.42,0,53.5,24.07,53.5,53.5v310.5C460.75,436.68,436.68,460.75,407.25,460.75z"/>
	<path class="st1" d="M397.06,376.61c-15.18,0-46.1-3.12-71.19-25.66c-11.21-10.07-19.95-22.9-25.98-38.15
		c-1.17-2.95-2.24-6.01-3.21-9.16c-13.02-1.51-27.83-2.37-44.67-2.37h-0.03c-0.16,0-16.41-0.04-22.21-0.04v-24.19
		c5.83,0,22.11,0.04,22.27,0.04c13.9,0,27.02,0.57,39.31,1.7c-1.12-8.45-1.69-17.4-1.69-26.79s0.56-18.33,1.69-26.79
		c-12.3,1.13-25.43,1.7-39.34,1.7c-13.91,0-27.04-0.57-39.34-1.7c0.92,6.95,1.47,14.22,1.63,21.8c0.04,1.86,0.05,16.85,0.05,17
		h-24.19c0-2.37-0.02-15.18-0.05-16.48c-0.2-9.16-1-17.69-2.41-25.59c-11.3-1.96-21.7-4.5-31.18-7.62
		c-21.21-6.97-38.01-16.85-49.93-29.37c-19.65-20.64-19.67-41.54-19.48-45.52c0.3-6.1,4.92-10.99,10.99-11.64
		c4.68-0.5,46.7-4.07,79.3,24.6c11,9.67,19.68,21.97,25.81,36.56c1.53,3.65,2.91,7.45,4.13,11.4c13.02,1.51,27.83,2.37,44.68,2.37
		s31.65-0.86,44.67-2.37c0.97-3.15,2.04-6.2,3.21-9.16c6.04-15.24,14.78-28.08,25.98-38.15c32.69-29.38,75.29-25.77,80.04-25.26
		c6.07,0.65,10.69,5.55,10.99,11.64c0.2,3.98,0.17,24.89-19.48,45.52c-11.92,12.52-28.72,22.4-49.93,29.37
		c-9.48,3.11-19.89,5.66-31.19,7.62c-1.64,9.17-2.46,19.19-2.46,30.06c0,10.86,0.82,20.89,2.46,30.06
		c11.3,1.96,21.71,4.5,31.19,7.62c21.21,6.97,38.01,16.85,49.93,29.37c19.65,20.64,19.67,41.54,19.48,45.52
		c-0.3,6.09-4.92,10.99-10.98,11.64C404.81,376.32,401.66,376.61,397.06,376.61z M324.25,308.3c4.49,9.8,10.42,18.03,17.79,24.65
		c16.05,14.42,35.79,18.34,48.47,19.23c-1.78-4.75-4.97-10.55-10.65-16.51C370.62,326,354.02,315.18,324.25,308.3z M390.51,151.82
		c-12.68,0.89-32.42,4.81-48.47,19.23c-7.36,6.62-13.3,14.85-17.79,24.65c29.77-6.87,46.37-17.69,55.6-27.37
		C385.54,162.37,388.73,156.56,390.51,151.82z M113.49,151.82c1.78,4.75,4.97,10.55,10.65,16.51c9.23,9.67,25.83,20.49,55.6,27.37
		c-4.6-10.05-10.72-18.44-18.33-25.14C145.47,156.54,126.03,152.7,113.49,151.82z M190.62,300.36h24.41v-24.41h-24.41V300.36z
		 M145.23,343.99h38.19V305.8h-38.19V343.99z M107.97,375.53h28.46v-28.46h-28.46V375.53z"/>
</g>
</svg>
