<svg width="90" height="90" viewBox="0 0 90 90" fill="none" xmlns="http://www.w3.org/2000/svg">
    <path d="M83.262 40.062L83.328 33.036L80.55 33L80.478 39.618" fill="#2E3134"/>
    <path d="M24.0122 39.3001L21.6782 39.5761L21.7622 31.6021L24.0842 31.6261L24.0122 39.3001Z" fill="#2E3134"/>
    <path d="M6.57031 39.27L6.64231 32.232L9.42631 32.262L9.35431 38.874" fill="#2E3134"/>
    <path d="M65.3403 38.208L67.6623 38.532L67.7283 32.082L65.4003 32.058L65.3403 38.208Z" fill="#2E3134"/>
    <path d="M59.6763 45.84L83.2383 42.174L83.2623 40.062L59.7723 35.91" fill="white"/>
    <path d="M59.8141 46.728L59.5381 44.952L82.3441 41.4L82.3501 40.818L59.6161 36.798L59.9281 35.028L83.4121 39.18C83.8441 39.258 84.1621 39.636 84.1561 40.074L84.1321 42.186C84.1261 42.624 83.8081 42.996 83.3701 43.068L59.8141 46.728Z" fill="#2E3134"/>
    <path d="M59.5083 47.9221L53.5443 55.602C53.4603 55.71 53.3283 55.7701 53.1903 55.7641L44.7123 55.6801L36.2343 55.5901C36.0963 55.5901 35.9703 55.5241 35.8863 55.4161L30.0063 47.4901" fill="white"/>
    <path d="M53.1963 56.67C53.1843 56.67 53.1783 56.67 53.1663 56.67L36.2223 56.49C35.7963 56.484 35.4183 56.292 35.1723 55.962L29.2803 48.024L30.7263 46.95L36.4683 54.684L52.9743 54.858L58.7943 47.364L60.2163 48.468L54.2523 56.148C54.0003 56.478 53.6103 56.67 53.1963 56.67Z" fill="#2E3134"/>
    <path d="M30.0302 45.528L6.55225 41.382L6.57025 39.27L30.1382 35.604" fill="white"/>
    <path d="M29.8739 46.416L6.39594 42.27C5.96394 42.192 5.64594 41.814 5.65194 41.376L5.66994 39.27C5.67594 38.832 5.99394 38.454 6.43194 38.388L29.9999 34.716L30.2759 36.492L7.46394 40.044L7.45794 40.626L30.1859 44.64L29.8739 46.416Z" fill="#2E3134"/>
    <path d="M59.2923 33.072L30.6123 32.772C30.3663 32.766 30.1623 32.964 30.1623 33.216L30.0123 47.358C30.0063 47.604 30.2043 47.808 30.4563 47.808L59.1363 48.108C59.3823 48.114 59.5863 47.916 59.5863 47.664L59.7363 33.522C59.7363 33.276 59.5383 33.072 59.2923 33.072Z" fill="white"/>
    <path d="M59.1422 49.008C59.1302 49.008 59.1242 49.008 59.1122 49.008L30.4382 48.708C30.0662 48.72 29.7482 48.57 29.4902 48.306C29.2322 48.042 29.1002 47.7 29.1062 47.334L29.2562 33.204C29.2562 32.85 29.4002 32.508 29.6582 32.256C29.9162 31.998 30.2702 31.854 30.6242 31.872L59.2922 32.172C59.6522 32.172 59.9942 32.316 60.2462 32.574C60.5042 32.832 60.6362 33.18 60.6302 33.546L60.4802 47.676C60.4802 48.024 60.3362 48.372 60.0782 48.624C59.8322 48.876 59.4962 49.008 59.1422 49.008ZM58.6862 47.658C58.6862 47.664 58.6862 47.664 58.6862 47.67V47.658ZM30.9122 47.358V47.364C30.9122 47.364 30.9122 47.364 30.9122 47.358ZM30.9122 46.914L58.6862 47.208L58.8242 33.972L31.0502 33.684L30.9122 46.914ZM30.4502 46.908H30.4622C30.4562 46.908 30.4562 46.908 30.4502 46.908ZM31.0562 33.216V33.228C31.0562 33.222 31.0562 33.216 31.0562 33.216Z" fill="#2E3134"/>
    <path d="M44.7358 60.456C48.7155 60.456 51.9418 57.2298 51.9418 53.25C51.9418 49.2702 48.7155 46.044 44.7358 46.044C40.756 46.044 37.5298 49.2702 37.5298 53.25C37.5298 57.2298 40.756 60.456 44.7358 60.456Z" fill="white"/>
    <path d="M44.742 61.356C41.118 61.356 37.812 58.908 36.882 55.236C35.784 50.904 38.418 46.488 42.75 45.39C44.85 44.862 47.028 45.18 48.888 46.284C50.748 47.388 52.062 49.158 52.596 51.258C53.694 55.59 51.06 60.006 46.728 61.104C46.062 61.278 45.396 61.356 44.742 61.356ZM44.748 46.944C44.226 46.944 43.704 47.01 43.188 47.142C39.816 47.994 37.77 51.432 38.622 54.804C39.474 58.176 42.912 60.222 46.284 59.37C49.656 58.518 51.702 55.08 50.85 51.708C50.436 50.076 49.41 48.702 47.964 47.838C46.98 47.244 45.87 46.944 44.748 46.944Z" fill="#2E3134"/>
    <path d="M44.7362 58.536C47.6556 58.536 50.0222 56.1694 50.0222 53.25C50.0222 50.3307 47.6556 47.9641 44.7362 47.9641C41.8168 47.9641 39.4502 50.3307 39.4502 53.25C39.4502 56.1694 41.8168 58.536 44.7362 58.536Z" fill="#0024FA"/>
    <path d="M13.0862 32.268L3.25816 32.172C2.56816 32.166 2.01016 31.596 2.02216 30.906C2.02816 30.216 2.59816 29.6581 3.28816 29.6701L13.1162 29.772C13.8062 29.778 14.3642 30.3481 14.3522 31.0381C14.3462 31.722 13.7762 32.274 13.0862 32.268Z" fill="#2E3134"/>
    <path d="M26.9219 31.656L18.9299 31.572C18.3659 31.566 17.9159 31.104 17.9219 30.546C17.9279 29.982 18.3899 29.532 18.9479 29.538L26.9399 29.622C27.5039 29.628 27.9539 30.09 27.9479 30.648C27.9419 31.212 27.4799 31.668 26.9219 31.656Z" fill="#2E3134"/>
    <path d="M76.884 32.928L86.712 33.03C87.402 33.036 87.972 32.484 87.978 31.794C87.984 31.104 87.432 30.534 86.742 30.528L76.914 30.426C76.224 30.42 75.654 30.972 75.648 31.662C75.642 32.358 76.2 32.922 76.884 32.928Z" fill="#2E3134"/>
    <path d="M62.5681 32.028L70.5601 32.112C71.1241 32.118 71.5801 31.668 71.5861 31.104C71.5921 30.54 71.1421 30.084 70.5781 30.078L62.5861 29.994C62.0221 29.988 61.5661 30.438 61.5601 31.002C61.5541 31.56 62.0101 32.022 62.5681 32.028Z" fill="#2E3134"/>
</svg>
