<svg width="20" height="20" viewBox="0 0 20 20" fill="none" xmlns="http://www.w3.org/2000/svg">
<path d="M18.8242 6.50781C18.9492 6.84766 18.8438 7.22656 18.5742 7.46875L17.3672 8.56641C17.0664 8.84375 16.9219 9.25 16.9414 9.65625C16.9453 9.76953 16.9492 9.88281 16.9492 10C16.9492 10.1172 16.9453 10.2305 16.9414 10.3437C16.9219 10.7539 17.0625 11.1602 17.3672 11.4336L18.5742 12.5312C18.8438 12.7734 18.9492 13.1523 18.8242 13.4922C18.6524 13.957 18.4453 14.4023 18.207 14.832L18.0234 15.1484C17.7656 15.5781 17.4766 15.9844 17.1602 16.3672C16.9297 16.6484 16.5469 16.7422 16.2031 16.6328L14.6524 16.1406C14.2617 16.0156 13.8399 16.0977 13.4922 16.3203C13.3008 16.4414 13.1055 16.5586 12.9024 16.6602C12.5391 16.8477 12.2578 17.1758 12.168 17.5742L11.8203 19.1641C11.7422 19.5195 11.4688 19.8008 11.1094 19.8594C10.5703 19.9492 10.0156 19.9961 9.44923 19.9961C8.88282 19.9961 8.32813 19.9492 7.78907 19.8594C7.4297 19.8008 7.15626 19.5195 7.07813 19.1641L6.73048 17.5742C6.64454 17.1758 6.35939 16.8477 5.9961 16.6602C5.79298 16.5547 5.59767 16.4414 5.40626 16.3203C5.06251 16.0977 4.63673 16.0156 4.2461 16.1406L2.69923 16.6367C2.35548 16.7461 1.97267 16.6484 1.7422 16.3711C1.42579 15.9883 1.13673 15.582 0.878916 15.1523L0.695323 14.8359C0.457041 14.4062 0.25001 13.9609 0.078135 13.4961C-0.046865 13.1562 0.0586038 12.7773 0.328135 12.5352L1.53517 11.4375C1.83595 11.1602 1.98048 10.7539 1.96095 10.3477C1.95704 10.2344 1.95314 10.1211 1.95314 10.0039C1.95314 9.88672 1.95704 9.77344 1.96095 9.66016C1.98048 9.25 1.83985 8.84375 1.53517 8.57031L0.328135 7.46875C0.0586038 7.22656 -0.046865 6.84766 0.078135 6.50781C0.25001 6.04297 0.457041 5.59766 0.695323 5.16797L0.878916 4.85156C1.13673 4.42187 1.42579 4.01562 1.7422 3.63281C1.97267 3.35156 2.35548 3.25781 2.69923 3.36719L4.25001 3.85937C4.64064 3.98437 5.06251 3.90234 5.41017 3.67969C5.60157 3.55859 5.79689 3.44141 6.00001 3.33984C6.36329 3.15234 6.64454 2.82422 6.73438 2.42578L7.08204 0.835937C7.16017 0.480469 7.4336 0.199219 7.79298 0.140625C8.33204 0.046875 8.88673 0 9.45313 0C10.0195 0 10.5742 0.046875 11.1133 0.136719C11.4727 0.195312 11.7461 0.476562 11.8242 0.832031L12.1719 2.42187C12.2578 2.82031 12.5391 3.14844 12.9063 3.33594C13.1094 3.44141 13.3047 3.55469 13.4961 3.67578C13.8399 3.89844 14.2656 3.97656 14.6563 3.85547L16.207 3.36328C16.5508 3.25391 16.9336 3.35156 17.1641 3.62891C17.4805 4.01172 17.7695 4.41797 18.0274 4.84766L18.2109 5.16406C18.4492 5.59375 18.6563 6.03906 18.8281 6.50391L18.8242 6.50781ZM9.45313 13.125C10.2819 13.125 11.0768 12.7958 11.6628 12.2097C12.2489 11.6237 12.5781 10.8288 12.5781 10C12.5781 9.1712 12.2489 8.37634 11.6628 7.79029C11.0768 7.20424 10.2819 6.875 9.45313 6.875C8.62433 6.875 7.82948 7.20424 7.24343 7.79029C6.65737 8.37634 6.32814 9.1712 6.32814 10C6.32814 10.8288 6.65737 11.6237 7.24343 12.2097C7.82948 12.7958 8.62433 13.125 9.45313 13.125Z" fill="#6A6F83"/>
</svg>
