<svg xmlns="http://www.w3.org/2000/svg" viewBox="0 0 576 512" >
	<path fill="#2E3134" d="M32.15,287.5h32l-0.7,160.2c0,2.8,0.2,5.5,0.5,8.1V472c0,22.1,17.9,40,40,40h16c1.1,0,2.2,0,3.3-0.1
		c1.4,0.1,2.8,0.1,4.2,0.1h32.5h24c22.1,0,40-17.9,40-40v-24v-64c0-17.7,14.3-32,32-32h64c17.7,0,32,14.3,32,32v64v24
		c0,22.1,17.9,40,40,40h24h32c1.5,0,3-0.1,4.5-0.2c1.2,0.1,2.4,0.2,3.6,0.2h16c22.1,0,40-17.9,40-40V360.1c0-1,0-1.9-0.1-2.8v-69.7
		h32c18,0,32-14.1,32-32.1c0-9-3-17-10-24L309.45,8c-7-7-15-8-22-8c-7,0-15,2-21,7l-106.5,93.7V64c0-17.7-14.3-32-32-32h-32
		c-17.7,0-32,14.3-32,32v121l-52.8,46.5c-8,7-12,15-11,24c0,18.1,15,32.1,32,32.1V287.5z"/>
</svg>
