<svg width="13" height="18" viewBox="0 0 13 18" fill="none" xmlns="http://www.w3.org/2000/svg">
    <path d="M13 4.28699V4.5H8.66667V0H8.87179C9.08727 1.16999e-06 9.29392 0.0888899 9.44629 0.247113L12.762 3.69035C12.9144 3.84859 13 4.06321 13 4.28699ZM8.39583 5.625C7.94896 5.625 7.58333 5.24531 7.58333 4.78125V0H0.8125C0.363763 0 0 0.377754 0 0.84375V17.1562C0 17.6222 0.363763 18 0.8125 18H12.1875C12.6362 18 13 17.6222 13 17.1562V5.625H8.39583ZM3.81012 6.1875C4.70759 6.1875 5.43512 6.94301 5.43512 7.875C5.43512 8.80699 4.70759 9.5625 3.81012 9.5625C2.91264 9.5625 2.18512 8.80699 2.18512 7.875C2.18512 6.94301 2.91268 6.1875 3.81012 6.1875ZM10.8518 14.625H2.18512L2.20154 12.9205L3.53928 11.5312C3.69792 11.3665 3.93873 11.3836 4.09737 11.5483L5.43512 12.9375L8.93953 9.2983C9.09817 9.13356 9.3554 9.13356 9.51407 9.2983L10.8518 10.6875V14.625Z" fill="#2E3134"/>
</svg>
