<svg width="22" height="25" viewBox="0 0 22 25" fill="none" xmlns="http://www.w3.org/2000/svg">
    <path d="M11 25C12.7345 25 14.1414 23.6011 14.1414 21.875H7.85862C7.85862 23.6011 9.26554 25 11 25ZM21.5772 17.6899C20.6284 16.6763 18.8532 15.1514 18.8532 10.1562C18.8532 6.3623 16.1778 3.3252 12.5704 2.58008V1.5625C12.5704 0.699707 11.8672 0 11 0C10.1328 0 9.42956 0.699707 9.42956 1.5625V2.58008C5.82216 3.3252 3.14681 6.3623 3.14681 10.1562C3.14681 15.1514 1.37159 16.6763 0.422845 17.6899C0.128203 18.0049 -0.0024214 18.3813 3.3952e-05 18.75C0.00543572 19.5508 0.637442 20.3125 1.57637 20.3125H20.4236C21.3626 20.3125 21.9951 19.5508 22 18.75C22.0024 18.3813 21.8718 18.0044 21.5772 17.6899Z" fill="#979797"/>
</svg>
