<svg width="100" height="100" viewBox="0 0 100 100" fill="none" xmlns="http://www.w3.org/2000/svg">
  <path d="M59.1008 72.2363H46.1674V67.9252C46.1647 67.0363 45.8869 66.1697 45.3702 65.4474C44.8563 64.7225 44.1313 64.1752 43.2925 63.878V60.9836C43.4758 50.4086 45.9008 39.9919 50.4091 30.4224C51.4063 28.2058 51.9202 25.803 51.9147 23.3724C51.9147 19.9086 50.8702 16.5224 48.9175 13.6613C46.9647 10.7974 44.198 8.58911 40.9702 7.32522C37.7452 6.05856 34.2147 5.79467 30.8341 6.56411C27.4563 7.33356 24.3869 9.103 22.0286 11.6419C19.6702 14.1808 18.1313 17.3697 17.6147 20.7974C17.0952 24.2224 17.6202 27.7252 19.123 30.8502C23.5036 39.4974 25.8674 49.0224 26.0452 58.7141V63.8808C25.2063 64.178 24.4813 64.7252 23.9674 65.4502C23.4536 66.1752 23.1758 67.0391 23.1702 67.928V72.2391H10.2369C8.33134 72.2419 6.50634 73.0002 5.15911 74.3475C3.81189 75.6947 3.05356 77.5197 3.05078 79.4252V82.3002C3.05356 83.1891 3.33134 84.0558 3.848 84.778C4.36189 85.503 5.08689 86.0502 5.92578 86.3475V88.0502C5.92856 89.9558 6.68689 91.7808 8.03411 93.128C9.38134 94.4752 11.2063 95.2336 13.1119 95.2363H56.2258C58.1313 95.2336 59.9563 94.4752 61.3036 93.128C62.6508 91.7808 63.4091 89.9558 63.4119 88.0502V86.3475C64.2508 86.0502 64.9758 85.503 65.4897 84.778C66.0036 84.053 66.2813 83.1891 66.2869 82.3002V79.4252C66.2841 77.5197 65.5258 75.6947 64.1786 74.3475C62.8313 72.9975 61.0036 72.2391 59.1008 72.2363ZM28.9202 60.7391H40.4174V60.9836V63.6141H28.9202V60.7391ZM33.0091 9.09467C35.5313 8.803 38.0869 9.18078 40.4174 10.1919V14.7502C40.4174 16.803 39.323 18.703 37.5424 19.728C35.7647 20.7558 33.573 20.7558 31.7952 19.728C30.0174 18.7002 28.9202 16.803 28.9202 14.7502V10.2197C30.2175 9.63634 31.5952 9.25856 33.0091 9.09467ZM21.7119 29.5919C20.2675 26.6002 19.9091 23.2002 20.7008 19.9724C21.4924 16.7474 23.3813 13.8974 26.0452 11.9141V14.7502C26.0452 17.8308 27.6897 20.678 30.3563 22.2169C33.023 23.7558 36.3119 23.7558 38.9786 22.2169C41.6452 20.6752 43.2897 17.8308 43.2897 14.7502V11.8891C43.6147 12.1336 43.9369 12.3808 44.2452 12.6558C45.7536 14.0058 46.9591 15.6558 47.7841 17.503C48.6091 19.3502 49.0369 21.3502 49.0397 23.3724C49.0452 25.3947 48.6175 27.3974 47.7869 29.2419C43.5924 38.2447 41.1258 47.953 40.5119 57.8641H28.8924C28.5897 48.0308 26.1369 38.3808 21.7119 29.5919ZM26.0452 67.9252C26.0452 67.5447 26.198 67.178 26.4674 66.9086C26.7369 66.6391 27.1036 66.4863 27.4841 66.4863H41.8563C42.2369 66.4863 42.6036 66.6391 42.873 66.9086C43.1424 67.178 43.2952 67.5447 43.2952 67.9252V72.2363H26.0452V67.9252ZM63.4119 82.2974C63.4119 82.678 63.2591 83.0447 62.9897 83.3141C62.7202 83.5836 62.3536 83.7363 61.973 83.7363H7.36189C6.98134 83.7363 6.61467 83.5836 6.34523 83.3141C6.07578 83.0447 5.923 82.678 5.923 82.2974V79.4224C5.923 78.278 6.37856 77.1836 7.18689 76.3752C7.99523 75.5669 9.09245 75.1113 10.2341 75.1113H59.098C60.2425 75.1113 61.3369 75.5669 62.1452 76.3752C62.9536 77.1836 63.4091 78.2808 63.4091 79.4224L63.4119 82.2974Z" fill="#2E3134"/>
  <path d="M37.543 14.75C37.543 16.3361 36.2569 17.625 34.668 17.625C33.0791 17.625 31.793 16.3389 31.793 14.75C31.793 13.1611 33.0791 11.875 34.668 11.875C36.2569 11.875 37.543 13.1639 37.543 14.75Z" fill="#2E3134"/>
  <path d="M72.9969 69.2692C85.632 69.2692 95.8747 59.0265 95.8747 46.3914C95.8747 33.7564 85.632 23.5137 72.9969 23.5137C60.3619 23.5137 50.1191 33.7564 50.1191 46.3914C50.1191 59.0265 60.3619 69.2692 72.9969 69.2692Z" fill="white"/>
  <path d="M72.9985 62.1718C81.8504 62.1718 89.0263 54.9959 89.0263 46.144C89.0263 37.2921 81.8504 30.1162 72.9985 30.1162C64.1466 30.1162 56.9707 37.2921 56.9707 46.144C56.9707 54.9959 64.1466 62.1718 72.9985 62.1718Z" class="blue--fill"/>
  <path d="M72.998 20.5L68.5146 23.5556L63.1813 22.4528L60.2007 27.0111L54.8674 28.0139L53.8646 33.3472L49.3063 36.3278L50.4091 41.6611L47.3535 46.1444L50.4091 50.6278L49.3063 55.9611L53.8646 58.9417L54.8674 64.275L60.2007 65.2778L63.1813 69.8361L68.5146 68.7333L72.998 71.7889L77.4813 68.7333L82.8146 69.8361L85.7952 65.2778L91.1285 64.275L92.1313 58.9417L96.6896 55.9611L95.5868 50.6278L98.6424 46.1444L95.5868 41.6611L96.6896 36.3278L92.1313 33.3472L91.1285 28.0139L85.7952 27.0111L82.8146 22.4528L77.4813 23.5556L72.998 20.5ZM72.998 24.7861C84.773 24.7861 94.3563 34.3694 94.3563 46.1444C94.3563 57.9194 84.773 67.5028 72.998 67.5028C61.223 67.5028 51.6396 57.9194 51.6396 46.1444C51.6396 34.3694 61.223 24.7861 72.998 24.7861ZM72.998 30.1167C64.1257 30.1167 56.9702 37.2722 56.9702 46.1444C56.9702 55.0167 64.1257 62.1722 72.998 62.1722C81.8702 62.1722 89.0257 55.0167 89.0257 46.1444C89.0257 37.2722 81.8674 30.1167 72.998 30.1167ZM80.7841 38.0806L84.2896 41.3611L72.2702 54.1833L70.6674 55.8861L68.9146 54.3333L61.7035 47.9222L64.9091 44.3417L70.3674 49.2L80.7841 38.0806Z" fill="#2E3134"/>
  <path d="M76.0217 64.7671C86.307 63.0979 93.2918 53.4067 91.6225 43.1214C89.9533 32.836 80.2622 25.8513 69.9768 27.5205C59.6914 29.1898 52.7067 38.8809 54.376 49.1663C56.0452 59.4516 65.7363 66.4363 76.0217 64.7671Z" class="blue--fill"/>
  <path d="M80.7837 38.0801L84.292 41.3606L72.2698 54.1829L70.667 55.8856L68.9142 54.3329L61.7031 47.9217L64.9087 44.3412L70.367 49.1995L80.7837 38.0801Z" fill="white"/>
</svg>
