<svg viewBox="0 0 100 100" fill="none" xmlns="http://www.w3.org/2000/svg">
  <path d="M71.3403 56.6002H61.6303C61.7303 56.1202 61.9203 55.6402 62.0103 55.2502C62.4903 53.9002 62.4903 52.5602 62.1103 51.1202C61.4403 48.6202 59.4203 46.6002 56.9203 46.0302C54.7103 45.5502 52.5003 46.0302 50.7703 47.3802C49.0403 48.7302 48.0803 50.7402 48.0803 52.9502C48.0803 53.7202 48.1803 54.4902 48.4603 55.1602C48.6503 55.6402 48.7503 56.1202 48.8403 56.6002H40.8603V46.0302C40.8603 45.5502 40.6703 45.0702 40.2803 44.6802C39.9003 44.3902 39.4203 44.2002 38.8403 44.3002C37.3003 44.5902 36.1503 44.8802 35.0003 45.2602C33.4603 45.7402 31.8303 45.2602 30.9603 44.0102C30.2903 43.1502 30.0003 41.9902 30.2903 40.7402C30.5803 39.4902 31.6403 38.4302 32.8803 38.0502C33.6503 37.8602 34.4203 37.8602 34.9903 38.0502C36.1403 38.4302 37.3903 38.7202 38.9303 39.0102C39.4103 39.1102 39.8903 38.9102 40.2803 38.6302C40.6603 38.3402 40.8603 37.8602 40.8603 37.2802V26.1402C40.8603 25.1802 40.0903 24.4102 39.1303 24.4102H7.05031C6.09031 24.4102 5.32031 25.1802 5.32031 26.1402V90.4302C5.32031 91.3902 6.09031 92.1602 7.05031 92.1602H71.3403C72.3003 92.1602 73.0703 91.3902 73.0703 90.4302V58.3302C73.0703 57.3702 72.3003 56.6002 71.3403 56.6002ZM37.5103 27.8702V35.4602C37.0303 35.3602 36.5503 35.1702 36.1603 35.0802C34.8103 34.6002 33.4703 34.6002 32.0303 34.9802C29.5303 35.6502 27.6103 37.6702 26.9403 40.1702C26.4603 42.3802 26.9403 44.5902 28.2903 46.3202C30.1203 48.6302 33.1903 49.5902 36.0703 48.6302C36.5503 48.4402 36.9303 48.3402 37.5103 48.2502V56.7102H27.3203C26.8403 56.7102 26.3603 56.9002 25.9703 57.2902C25.6803 57.6702 25.4903 58.1502 25.5903 58.7302C25.8803 60.1702 26.1703 61.4202 26.5503 62.5702C26.6503 62.9502 26.7403 63.3402 26.7403 63.7202C26.7403 64.8702 26.2603 65.9302 25.3003 66.6002C24.4403 67.3702 23.2803 67.5602 22.0303 67.2702C20.7803 66.9802 19.7203 65.9202 19.3403 64.6802C19.1503 63.9102 19.1503 63.2402 19.4403 62.4702C19.8203 61.3202 20.1103 59.9702 20.4003 58.6302C20.5003 58.1502 20.3003 57.6702 20.0203 57.2802C19.7403 56.8902 19.2503 56.7002 18.6703 56.7002H8.77031V27.8702H37.5103ZM8.78031 59.9702H16.7603C16.6603 60.4502 16.4703 60.9302 16.3803 61.3202C15.9003 62.6702 15.9003 64.0102 16.2803 65.4502C16.9503 67.9502 18.9703 69.9702 21.4703 70.5402C22.0503 70.6402 22.6203 70.7302 23.2003 70.7302C24.8303 70.7302 26.3703 70.1502 27.6203 69.1902C29.3503 67.8402 30.3103 65.8302 30.3103 63.6202C30.3103 62.8502 30.2103 62.0802 29.9303 61.4102C29.7403 60.9302 29.6403 60.4502 29.5503 59.9702H37.5303V70.0602C37.5303 70.5402 37.7203 71.0202 38.1103 71.4102C38.4903 71.7002 38.9703 71.8902 39.5503 71.7902C40.9903 71.5002 42.3403 71.2102 43.3903 70.8302C44.8303 70.3502 46.4703 70.8302 47.4303 72.0802C48.1003 72.9402 48.3903 74.1002 48.1003 75.3502C47.8103 76.6002 46.7503 77.6602 45.5103 78.0402C44.7403 78.2302 44.0703 78.2302 43.3003 77.9402C42.0503 77.5602 40.8003 77.2702 39.4603 76.9802C38.9803 76.8802 38.5003 77.0802 38.1103 77.3602C37.7303 77.6502 37.5303 78.1302 37.5303 78.7102V88.8002H8.78031V59.9702ZM69.6103 88.8002H40.8703V80.8202C41.3503 80.9202 41.8303 81.1102 42.2203 81.2002C43.5703 81.6802 44.9103 81.6802 46.3503 81.3002C48.8503 80.6302 50.8703 78.6102 51.4403 76.1102C51.9203 73.9002 51.4403 71.6902 50.0903 69.9602C48.7403 68.2302 46.7303 67.2702 44.5203 67.2702C43.7503 67.2702 42.9803 67.3702 42.3103 67.6502C41.8303 67.8402 41.3503 67.9402 40.8703 68.0302V59.9602H50.9603C51.4403 59.9602 51.9203 59.7702 52.3103 59.3802C52.6003 59.0002 52.7903 58.5202 52.6903 57.9402C52.4003 56.5002 52.1103 55.1502 51.7303 54.1002C51.6303 53.7202 51.5403 53.3302 51.5403 52.9502C51.5403 51.8002 52.0203 50.7402 52.9803 50.0702C53.8403 49.4002 55.0003 49.1102 56.2503 49.4002C57.5003 49.6902 58.5603 50.7502 58.9403 51.9902C59.1303 52.7602 59.1303 53.4302 58.8403 54.2002C58.4603 55.3502 58.1703 56.7002 57.8803 58.0402C57.7803 58.5202 57.9803 59.0002 58.2603 59.3902C58.5503 59.7702 59.0303 59.9702 59.6103 59.9702H69.7003V88.8002H69.6103Z" fill="#34383C"/>
  <path class="blue--fill" d="M96.4203 13.9287C96.2303 13.5487 95.8403 13.2587 95.3603 13.1587L64.3203 4.70874C63.8403 4.60874 63.4603 4.60874 63.0703 4.89874C62.6903 5.08874 62.4003 5.47874 62.3003 5.95874L59.7103 15.3787C59.3303 15.0887 58.8503 14.8987 58.4603 14.6087C57.3103 13.8387 56.0603 13.4587 54.6203 13.4587C52.0303 13.4587 49.5303 14.8087 48.2803 17.1087C47.2203 19.0287 47.1303 21.3387 47.9903 23.3587C48.8503 25.3787 50.5803 26.8187 52.7003 27.3987C53.4703 27.5887 54.1403 27.6887 54.9103 27.5887C55.3903 27.5887 55.8703 27.5887 56.3503 27.5887L53.8503 36.9987C53.5603 37.8587 54.1403 38.8287 55.0003 39.1087L66.3403 42.1887C66.8203 42.2887 67.4003 42.1887 67.7803 41.8987C68.1603 41.6087 68.4503 41.1287 68.5503 40.6487C68.6503 39.2087 68.7403 38.0587 68.6503 36.8987C68.6503 36.5187 68.6503 36.1287 68.7503 35.7487C69.0403 34.6887 69.8103 33.7287 70.8603 33.3487C71.9203 32.8687 73.0703 32.9687 74.1303 33.5387C75.2803 34.1187 76.0503 35.4587 76.0503 36.8087C76.0503 37.5787 75.8603 38.2487 75.4703 38.8287C74.8003 39.7887 74.2203 40.8487 73.6403 42.0987C73.4503 42.5787 73.4503 43.0587 73.6403 43.5387C73.8303 44.0187 74.2203 44.3087 74.7003 44.4987L86.0403 47.4787C86.2303 47.4787 86.3303 47.5787 86.5203 47.5787C87.2903 47.5787 87.9603 47.0987 88.1503 46.3287L96.6103 15.2887C96.7103 14.7987 96.6103 14.3187 96.4203 13.9287ZM85.2703 43.7187L77.5803 41.6087C77.7703 41.2287 77.9603 40.9387 78.2503 40.5487C79.0203 39.3987 79.4003 38.0487 79.4003 36.7087C79.5003 34.1187 77.9603 31.6187 75.7503 30.3687C73.8303 29.3087 71.5203 29.2187 69.5003 30.0787C67.4803 30.9387 66.0403 32.6687 65.4603 34.7887C65.2703 35.5587 65.1703 36.2287 65.2703 36.9987C65.2703 37.3787 65.2703 37.7687 65.2703 38.2487L57.5803 36.1387L60.2703 26.3387C60.3703 25.8587 60.2703 25.3787 59.9803 24.8987C59.6903 24.4187 59.2103 24.4187 58.6303 24.3187C57.1903 24.2187 55.8403 24.1287 54.5903 24.2187C54.2103 24.2187 53.8203 24.2187 53.4403 24.1187C52.3803 23.8287 51.4203 23.0587 51.0403 22.0087C50.5603 20.9487 50.6603 19.7987 51.2303 18.7387C51.8103 17.5887 53.1503 16.8187 54.4003 16.8187H54.5003C55.2703 16.8187 55.9403 17.0087 56.5203 17.3987C57.5803 18.0687 58.7303 18.7487 60.0803 19.3187C60.5603 19.5087 61.0403 19.5087 61.5203 19.3187C62.0003 19.1287 62.2903 18.7387 62.4803 18.2587L65.1703 8.45874L92.9403 15.9587L85.2703 43.7187Z"/>
</svg>
