<svg width="22" height="22" viewBox="0 0 75 75" fill="none" xmlns="http://www.w3.org/2000/svg">
  <path d="M62.0998 70.6008H22.2998C18.1998 70.6008 14.7998 67.2008 14.7998 63.1008V23.3008C14.7998 19.2008 18.1998 15.8008 22.2998 15.8008H62.0998C66.1998 15.8008 69.5998 19.2008 69.5998 23.3008V63.1008C69.5998 67.2008 66.1998 70.6008 62.0998 70.6008Z" fill="white"/>
  <path d="M56.5999 64.8996H16.8999C12.7999 64.8996 9.3999 61.4996 9.3999 57.3996V17.5996C9.3999 13.4996 12.7999 10.0996 16.8999 10.0996H56.6999C60.7999 10.0996 64.1999 13.4996 64.1999 17.5996V57.3996C64.1999 61.4996 60.7999 64.8996 56.5999 64.8996Z" fill="white"/>
  <path d="M51.2 59.2004H11.5C7.4 59.2004 4 55.8004 4 51.7004V11.9004C4 7.80039 7.4 4.40039 11.5 4.40039H51.3C55.4 4.40039 58.8 7.80039 58.8 11.9004V51.7004C58.7 55.8004 55.4 59.2004 51.2 59.2004Z" fill="white"/>
  <path d="M23.7998 71.6008C19.0998 71.6008 15.2998 67.8008 15.2998 63.1008V23.3008C15.2998 18.6008 19.0998 14.8008 23.7998 14.8008H63.5998C68.2998 14.8008 72.0998 18.6008 72.0998 23.3008V63.1008C72.0998 67.8008 68.2998 71.6008 63.5998 71.6008C63.4998 71.6008 23.7998 71.6008 23.7998 71.6008Z" fill="#2E3134"/>
  <path d="M63.4998 15.8008C67.5998 15.8008 70.9998 19.2008 70.9998 23.3008V63.1008C70.9998 67.2008 67.5998 70.6008 63.4998 70.6008H23.7998C19.6998 70.6008 16.2998 67.2008 16.2998 63.1008V23.3008C16.2998 19.2008 19.6998 15.8008 23.7998 15.8008H63.4998ZM63.4998 13.8008H23.7998C18.5998 13.8008 14.2998 18.1008 14.2998 23.3008V63.1008C14.2998 68.3008 18.5998 72.6008 23.7998 72.6008H63.5998C68.7998 72.6008 73.0998 68.3008 73.0998 63.1008V23.3008C73.0998 18.1008 68.7998 13.8008 63.4998 13.8008Z" fill="white"/>
  <path d="M17.6001 65.8996C12.9001 65.8996 9.1001 62.0996 9.1001 57.3996V17.5996C9.1001 12.8996 12.9001 9.09961 17.6001 9.09961H57.4001C62.1001 9.09961 65.9001 12.8996 65.9001 17.5996V57.3996C65.9001 62.0996 62.1001 65.8996 57.4001 65.8996H17.6001Z" fill="#2E3134"/>
  <path d="M57.4001 10.0996C61.5001 10.0996 64.9001 13.4996 64.9001 17.5996V57.3996C64.9001 61.4996 61.5001 64.8996 57.4001 64.8996H17.6001C13.5001 64.8996 10.1001 61.4996 10.1001 57.3996V17.5996C10.1001 13.4996 13.5001 10.0996 17.6001 10.0996H57.4001ZM57.4001 8.09961H17.6001C12.4001 8.09961 8.1001 12.3996 8.1001 17.5996V57.3996C8.1001 62.5996 12.4001 66.8996 17.6001 66.8996H57.4001C62.6001 66.8996 66.9001 62.5996 66.9001 57.3996V17.5996C66.9001 12.3996 62.6001 8.09961 57.4001 8.09961Z" fill="white"/>
  <path d="M11.5 60.2004C6.8 60.2004 3 56.4004 3 51.7004V11.9004C3 7.20039 6.8 3.40039 11.5 3.40039H51.3C56 3.40039 59.8 7.20039 59.8 11.9004V51.7004C59.8 56.4004 56 60.2004 51.3 60.2004C51.2 60.2004 11.5 60.2004 11.5 60.2004Z" fill="#2E3134"/>
  <path d="M51.2 4.40039C55.3 4.40039 58.7 7.80039 58.7 11.9004V51.7004C58.7 55.8004 55.3 59.2004 51.2 59.2004H11.5C7.4 59.2004 4 55.8004 4 51.7004V11.9004C4 7.80039 7.4 4.40039 11.5 4.40039H51.2ZM51.2 2.40039H11.5C6.3 2.40039 2 6.70039 2 11.9004V51.7004C2 56.9004 6.3 61.2004 11.5 61.2004H51.3C56.5 61.2004 60.8 56.9004 60.8 51.7004V11.9004C60.7 6.70039 56.5 2.40039 51.2 2.40039Z" fill="white"/>
</svg>
