<?xml version="1.0" encoding="utf-8"?>
<!-- Generator: Adobe Illustrator 28.0.0, SVG Export Plug-In . SVG Version: 6.00 Build 0)  -->
<svg version="1.1" id="Layer_1" xmlns="http://www.w3.org/2000/svg" xmlns:xlink="http://www.w3.org/1999/xlink" x="0px" y="0px"
	 viewBox="0 0 75 75" style="enable-background:new 0 0 75 75;" xml:space="preserve">
<style type="text/css">
	.st0{fill:#F7F7F7;}
	.st1{fill:#34383C;}
	.st2{fill:#FFFFFF;}
	.st3{fill-rule:evenodd;clip-rule:evenodd;fill:#34383C;}
	.st4{fill-rule:evenodd;clip-rule:evenodd;fill:#FFFFFF;}
	.st5{fill:#2E3134;}
	.st6{fill-rule:evenodd;clip-rule:evenodd;fill:#0A23F3;}
	.st7{fill:#2E3134;stroke:#2E3134;stroke-width:0.75;stroke-miterlimit:10;}
	.st8{fill:#0A23F3;}
	.st9{fill:#34383B;}
	.st10{fill:#0024FC;}
	.st11{fill:#0024FA;}
	.st12{fill:#0025FC;}
	.st13{fill:#292B2E;stroke:#2E3134;stroke-miterlimit:10;}
	.st14{fill:none;stroke:#0024FC;stroke-width:2;stroke-linecap:round;stroke-linejoin:round;stroke-miterlimit:10;}
	.st15{fill:#292B2E;stroke:#FFFFFF;stroke-width:0.2114;stroke-miterlimit:10;}
</style>
<g>
	<g>
		<path class="st2" d="M62.8,70.59H23.03c-4.14,0-7.51-3.37-7.51-7.51V23.31c0-4.14,3.37-7.51,7.51-7.51H62.8
			c4.14,0,7.51,3.37,7.51,7.51v39.77C70.31,67.22,66.94,70.59,62.8,70.59z"/>
	</g>
	<g>
		<path class="st2" d="M57.39,64.89H17.61c-4.14,0-7.51-3.37-7.51-7.51V17.61c0-4.14,3.37-7.51,7.51-7.51h39.77
			c4.14,0,7.51,3.37,7.51,7.51v39.77C64.89,61.53,61.53,64.89,57.39,64.89z"/>
	</g>
	<g>
		<path class="st2" d="M51.97,59.2H12.2c-4.14,0-7.51-3.37-7.51-7.51V11.92c0-4.14,3.37-7.51,7.51-7.51h39.77
			c4.14,0,7.51,3.37,7.51,7.51v39.77C59.48,55.83,56.11,59.2,51.97,59.2z"/>
	</g>
	<g>
		<g>
			<path class="st2" d="M22.36,69.24c-4.69,0-8.51-3.82-8.51-8.51V20.96c0-4.69,3.82-8.51,8.51-8.51h39.77
				c4.69,0,8.51,3.82,8.51,8.51v39.77c0,4.69-3.82,8.51-8.51,8.51H22.36z"/>
			<path class="st5" d="M62.14,13.45c4.14,0,7.51,3.37,7.51,7.51v39.77c0,4.14-3.37,7.51-7.51,7.51H22.36
				c-4.14,0-7.51-3.37-7.51-7.51V20.96c0-4.14,3.37-7.51,7.51-7.51H62.14 M62.14,11.45H22.36c-5.24,0-9.51,4.27-9.51,9.51v39.77
				c0,5.24,4.26,9.51,9.51,9.51h39.77c5.24,0,9.51-4.27,9.51-9.51V20.96C71.64,15.71,67.38,11.45,62.14,11.45L62.14,11.45z"/>
		</g>
	</g>
	<g>
		<g>
			<path class="st2" d="M17.28,64.72c-4.69,0-8.51-3.82-8.51-8.51V16.44c0-4.69,3.82-8.51,8.51-8.51h39.77
				c4.69,0,8.51,3.82,8.51,8.51v39.77c0,4.69-3.82,8.51-8.51,8.51H17.28z"/>
			<path class="st5" d="M57.05,8.93c4.14,0,7.51,3.37,7.51,7.51v39.77c0,4.14-3.37,7.51-7.51,7.51H17.28
				c-4.14,0-7.51-3.37-7.51-7.51V16.44c0-4.14,3.37-7.51,7.51-7.51H57.05 M57.05,6.93H17.28c-5.24,0-9.51,4.27-9.51,9.51v39.77
				c0,5.24,4.27,9.51,9.51,9.51h39.77c5.24,0,9.51-4.27,9.51-9.51V16.44C66.56,11.2,62.3,6.93,57.05,6.93L57.05,6.93z"/>
		</g>
	</g>
	<g>
		<g>
			<path class="st2" d="M12.2,60.2c-4.69,0-8.51-3.82-8.51-8.51V11.92c0-4.69,3.82-8.51,8.51-8.51h39.77c4.69,0,8.51,3.82,8.51,8.51
				v39.77c0,4.69-3.82,8.51-8.51,8.51H12.2z"/>
			<path class="st5" d="M51.97,4.41c4.14,0,7.51,3.37,7.51,7.51v39.77c0,4.14-3.37,7.51-7.51,7.51H12.2c-4.14,0-7.51-3.37-7.51-7.51
				V11.92c0-4.14,3.37-7.51,7.51-7.51H51.97 M51.97,2.41H12.2c-5.24,0-9.51,4.27-9.51,9.51v39.77c0,5.24,4.27,9.51,9.51,9.51h39.77
				c5.24,0,9.51-4.27,9.51-9.51V11.92C61.48,6.68,57.21,2.41,51.97,2.41L51.97,2.41z"/>
		</g>
	</g>
</g>
<path class="st12" d="M52.89,31.89l-6.51-13.4c-0.08-0.17-0.25-0.27-0.44-0.27H17.66c-0.18,0-0.36,0.11-0.44,0.27l-6.51,13.39
	c-0.07,0.15-0.06,0.33,0.03,0.47c0.09,0.14,0.24,0.23,0.41,0.23h4.52v12.28h-3.03c-0.27,0-0.49,0.22-0.49,0.48
	c0,0.27,0.22,0.49,0.49,0.49h38.32c0.27,0,0.48-0.22,0.48-0.49c0-0.27-0.22-0.48-0.48-0.48h-3.03V32.59h4.52
	c0.17,0,0.32-0.09,0.41-0.23C52.96,32.22,52.96,32.04,52.89,31.89L52.89,31.89z M34.95,44.87h-6.29v-8.3h6.29V44.87z M46.97,44.87
	H35.92v-8.79c0-0.27-0.22-0.48-0.48-0.48h-7.26c-0.27,0-0.48,0.22-0.48,0.48v8.79H16.64V32.59h30.33V44.87z"/>
<path class="st13" d="M46.97,32.59v12.28H35.92v-8.79c0-0.27-0.22-0.48-0.48-0.48h-7.26c-0.27,0-0.48,0.22-0.48,0.48v8.79H16.64
	V32.59h-0.97v12.28h-3.03c-0.27,0-0.49,0.22-0.49,0.48c0,0.27,0.22,0.49,0.49,0.49h38.32c0.27,0,0.48-0.22,0.48-0.49
	c0-0.27-0.22-0.48-0.48-0.48h-3.03V32.59H46.97z"/>
<polygon class="st15" points="45.56,19.16 48.2,24.6 38.16,24.6 37.22,19.16 "/>
<polygon class="st15" points="37.8,31.29 25.95,31.29 26.9,25.85 36.85,25.85 "/>
<polygon class="st15" points="35.74,19.16 36.69,24.6 27.06,24.6 28.01,19.16 "/>
<polygon class="st15" points="18.19,19.16 26.52,19.16 25.57,24.59 15.55,24.59 "/>
<polygon class="st15" points="12.34,31.29 14.98,25.85 25.31,25.85 24.36,31.29 "/>
<polygon class="st15" points="39.38,31.29 38.43,25.85 48.76,25.85 51.41,31.29 "/>
</svg>
