<svg viewBox="0 0 100 100" fill="none" xmlns="http://www.w3.org/2000/svg" aria-labelledby="completed-icon"  aria-describedby="completed-icon-desc">
	<title id="completed-icon">Completed icon</title>
	<desc id="completed-icon-desc">Icon to indicate completion of a process</desc>
  <path d="M49.9999 78.1189C65.5301 78.1189 78.1199 65.5292 78.1199 49.9989C78.1199 34.4687 65.5301 21.8789 49.9999 21.8789C34.4696 21.8789 21.8799 34.4687 21.8799 49.9989C21.8799 65.5292 34.4696 78.1189 49.9999 78.1189Z" class="blue--fill"/>
  <path d="M50.0002 5L42.1302 10.36L32.7702 8.43L27.5402 16.43L18.1802 18.19L16.4202 27.55L8.42023 32.78L10.3502 42.14L4.99023 50.01L10.3502 57.88L8.42023 67.24L16.4202 72.47L18.1802 81.83L27.5402 83.59L32.7702 91.59L42.1302 89.66L50.0002 95.02L57.8702 89.66L67.2302 91.59L72.4602 83.59L81.8202 81.83L83.5802 72.47L91.5802 67.24L89.6502 57.88L95.0102 50.01L89.6502 42.14L91.5802 32.78L83.5802 27.55L81.8202 18.19L72.4602 16.43L67.2302 8.43L57.8702 10.36L50.0002 5ZM50.0002 12.52C70.6602 12.52 87.4802 29.34 87.4802 50C87.4802 70.66 70.6602 87.48 50.0002 87.48C29.3402 87.48 12.5202 70.66 12.5202 50C12.5202 29.34 29.3402 12.52 50.0002 12.52ZM50.0002 21.87C34.4302 21.87 21.8702 34.43 21.8702 50C21.8702 65.57 34.4302 78.12 50.0002 78.12C65.5702 78.12 78.1202 65.56 78.1202 50C78.1202 34.44 65.5602 21.87 50.0002 21.87ZM63.6702 35.84L69.8202 41.6L48.7302 64.1L45.9202 67.09L42.8402 64.37L30.1802 53.12L35.8102 46.84L45.3902 55.37L63.6702 35.86V35.84Z" fill="#34383C"/>
  <path d="M55.3104 82.6766C73.3603 79.7467 85.6175 62.7392 82.6876 44.6893C79.7577 26.6394 62.7502 14.3822 44.7003 17.3121C26.6504 20.242 14.3932 37.2495 17.3231 55.2994C20.2531 73.3493 37.2605 85.6065 55.3104 82.6766Z" class="blue--fill"/>
  <path d="M63.6702 35.8516L69.8202 41.6116L48.7302 64.1116L45.9102 67.0916L42.8402 64.3716L30.1802 53.1216L35.8102 46.8416L45.3902 55.3616L63.6702 35.8516Z" fill="white"/>
</svg>
