<svg id="projects" xmlns="http://www.w3.org/2000/svg" viewBox="0 0 75 75">
  <g fill="#2e3134">
    <path d="M67.95,28.32H7.06c-.89,0-1.61-.72-1.61-1.61V14.89c0-3.14,2.56-5.7,5.7-5.7H31.66c3.14,0,5.7,2.56,5.7,5.7v2.09h19.13c.16-.01,.33-.02,.49-.02h6.91c3.13,0,5.68,2.55,5.68,5.68v4.07c0,.89-.72,1.61-1.61,1.61Zm-59.28-3.22h57.67v-2.34s0-.05,0-.07,0-.05,0-.07c-.01-1.34-1.11-2.43-2.46-2.43h-6.91c-.08,0-.16,0-.24,.01-.06,0-.11,0-.17,0h-20.82c-.89,0-1.61-.72-1.61-1.61v-3.7c0-1.36-1.11-2.47-2.48-2.47H11.14c-1.36,0-2.47,1.11-2.47,2.47v10.2Z"/>
    <path d="M63.38,65.9H11.61c-3.41,0-6.18-2.77-6.18-6.18V26.9c0-.89,.72-1.61,1.61-1.61h60.91c.89,0,1.61,.72,1.61,1.61V59.72c0,3.41-2.77,6.18-6.18,6.18ZM8.65,28.52v31.21c0,1.63,1.33,2.96,2.96,2.96H63.38c1.63,0,2.96-1.33,2.96-2.96V28.52H8.65Z"/>
  </g>
  <path class="blue--fill" d="M8.68,25V14.79c0-1.36,1.11-2.47,2.47-2.47H31.67c1.36,0,2.48,1.11,2.48,2.47v3.7c0,.89,.72,1.61,1.61,1.61h20.82c.06,0,.11,0,.17,0,.08,0,.16-.01,.24-.01h6.91c1.35,0,2.44,1.09,2.46,2.43,0,.02,0,.05,0,.07s0,.05,0,.07v2.34h3.22v-2.45c0-3.13-2.55-5.68-5.68-5.68h-6.91c-.16,0-.33,0-.49,.02h-19.13v-2.09c0-3.14-2.56-5.7-5.7-5.7H11.15c-3.14,0-5.7,2.56-5.7,5.7v10.2h3.22Z"/>
</svg>