<svg id="loginSecurityIcon" xmlns="http://www.w3.org/2000/svg" viewBox="0 0 35 43" aria-labelledby="login-icon"  aria-describedby="login-icon-desc">
	<title id="login-icon">Login</title>
	<desc id="login-icon-desc">Icon for login</desc>
  <path class="blue--fill" d="M17.67,24.56h0c-1.75,0-3.17,1.43-3.17,3.18,0,1.11,.59,2.13,1.52,2.7v4.74h3.32v-4.74c.93-.57,1.52-1.59,1.52-2.7,0-1.75-1.43-3.17-3.18-3.17Z"/>
  <path fill="#34383b" d="M32.96,21.48c0-2.43-1.98-4.4-4.41-4.4h-.2v-4.39c0-6.17-5.03-11.19-11.21-11.19-6.18,0-11.2,5.03-11.19,11.21v4.41c-2.2,.24-3.92,2.11-3.92,4.38v15.6c0,2.43,1.98,4.4,4.41,4.4H28.56c2.43-.01,4.4-1.99,4.4-4.42v-15.6ZM17.15,3.2c5.23,0,9.5,4.26,9.5,9.49v4.99h-2.1v-4.99c0-4.07-3.32-7.38-7.39-7.38h0c-1.97,0-3.82,.77-5.22,2.17-1.4,1.4-2.16,3.25-2.16,5.22v4.98l-2.1,.02v-5c0-5.24,4.25-9.5,9.49-9.5Zm5.68,9.5v4.39H11.47v-4.38c0-1.52,.58-2.94,1.66-4.02,1.07-1.08,2.5-1.67,4.02-1.67v0c3.14,0,5.68,2.55,5.69,5.68Zm5.73,27.09H6.44v.01c-1.49,0-2.7-1.21-2.7-2.7v-15.6c0-1.49,1.21-2.7,2.7-2.7H28.56c1.49-.01,2.7,1.2,2.7,2.69v15.6c0,1.49-1.21,2.7-2.7,2.7Z"/>
</svg>