<svg id="Layer_1" xmlns="http://www.w3.org/2000/svg" height="20" width="20" viewBox="0 0 22 22" aria-labelledby="designs-icon"  aria-describedby="designs-icon-desc">
	<title id="designs-icon">Designs</title>
	<desc id="designs-icon-desc">Icon that links to project designs.</desc>
  <g fill="#34383c">
    <path d="M20.09,5.57c1.03-1.04,1.03-2.74,0-3.78-1.03-1.04-2.7-1.04-3.73,0L3.36,14.96s-.07,.09-.09,.14l-2.1,5.32c-.04,.1-.04,.22,0,.32,.04,.1,.12,.18,.23,.22,.1,.04,.21,.04,.31,0l5.25-2.13c.05-.02,.1-.05,.14-.09L20.09,5.57Zm-1.87-3.73h0c1,0,1.82,.83,1.82,1.84,0,.49-.19,.95-.53,1.3l-.11,.11-2.57-2.6m-.58,.59l2.57,2.6-.99,1.01-2.57-2.6,.99-1.01ZM4.65,18.88l-1.42-1.44,.57-1.44,2.27,2.3-1.42,.58Z"/>
    <path d="M1.27,5.58l5.2,5.08,3.79-3.84,.31-.33-1.48-1.44-.29,.31c-.12,.13-.32,.13-.44,0s-.13-.32,0-.45l.29-.31-1.48-1.44c-.68,.71-1.49,1.56-1.49,1.56-.12,.13-.32,.13-.44,0-.12-.12-.13-.32,0-.45l1.49-1.56-1.44-1.41c-.17-.16-.39-.25-.62-.25-.23,0-.45,.1-.61,.27L1.25,4.32c-.16,.17-.25,.4-.25,.63,0,.08,.01,.15,.03,.22,.04,.15,.12,.29,.24,.4Z"/>
    <path d="M18.72,14.46l-1.49,1.56c-.12,.13-.32,.13-.44,0s-.13-.32,0-.45l1.49-1.56-1.48-1.44-.29,.31c-.12,.13-.32,.13-.44,0-.12-.12-.13-.32,0-.45l.29-.31-.69-.67-4.11,4.17,5.17,5.06c.17,.16,.39,.25,.62,.25,.23,0,.45-.1,.61-.27l2.79-2.99-.41-.4,.41,.4c.16-.17,.25-.4,.25-.63,0-.24-.1-.46-.27-.62l-2.01-1.97Z"/>
  </g>
</svg>