<svg id="errorIcon" viewBox="0 0 100 100" fill="none" xmlns="http://www.w3.org/2000/svg" aria-labelledby="error-icon"  aria-describedby="error-icon-desc">
	<title id="error-icon">Error icon</title>
	<desc id="error-icon-desc">Icon that indicates an error</desc>
  <path d="M76.0308 95C76.3108 95 76.5908 94.9 76.8408 94.72C77.1608 94.49 77.3508 94.1 77.3508 93.68V71.99C77.3508 71.38 77.8408 70.88 78.4608 70.88H83.3308C87.8608 70.88 91.5508 67.19 91.5508 62.66V13.22C91.5508 8.69 87.8608 5 83.3308 5H16.6608C14.4708 5 12.4108 5.86 10.8608 7.42C9.31079 8.98 8.46079 11.03 8.47079 13.21V62.67C8.47079 67.2 12.1608 70.89 16.6908 70.89H48.5308C48.9208 70.89 49.2908 71.1 49.4908 71.44L50.1108 72.5C60.1808 89.92 75.0308 94.74 75.6708 94.94L75.7408 94.96C75.7408 94.96 75.8808 95 76.0408 95H76.0308ZM75.8408 68.22C75.1108 68.22 74.5208 68.81 74.5208 69.54V90.14C74.5208 90.54 74.3108 90.91 73.9608 91.1C73.7908 91.2 73.6008 91.24 73.4208 91.24C73.2208 91.24 73.0308 91.19 72.8508 91.08L69.6308 89.15C68.6108 88.53 67.7508 87.98 66.9508 87.41C60.2608 82.69 54.8908 76.48 51.0008 68.94C50.7808 68.52 50.3108 68.24 49.8308 68.24H16.5108C14.5308 68.24 12.6108 67.1 11.6308 65.33C11.5408 65.17 11.4908 64.98 11.4908 64.8L11.3008 13.22C11.3008 10.09 13.5808 7.64 16.4908 7.64H83.1308C86.1508 7.64 88.7108 10.19 88.7108 13.22V62.64C88.7108 65.66 86.1608 68.22 83.1308 68.22H75.8408Z" fill="#34383C"/>
  <path d="M47.1809 49.7016C46.4809 49.0516 46.1309 48.2416 46.1309 47.2916C46.1309 46.3416 46.4809 45.4816 47.1809 44.8216C47.8809 44.1616 48.7809 43.8216 49.8909 43.8216C51.0009 43.8216 51.8609 44.1516 52.5609 44.8216C53.2609 45.4816 53.6109 46.3116 53.6109 47.2916C53.6109 48.2716 53.2609 49.0516 52.5609 49.7016C51.8609 50.3516 50.9709 50.6816 49.8909 50.6816C48.8109 50.6816 47.8809 50.3516 47.1809 49.7016ZM53.2009 23.6016L52.4609 41.2416H47.1209L46.3809 23.6016H53.1909H53.2009Z" class="blue--fill"/>
</svg>
