<svg viewBox="0 0 14 14" fill="none" aria-hidden="true" xmlns="http://www.w3.org/2000/svg" aria-labelledby="cancel-icon"  aria-describedby="cancel-icon-desc">
	<title id="cancel-icon">Delete</title>
	<desc id="cancel-icon-desc">Icon to delete</desc>
  <path fill-rule="evenodd" clip-rule="evenodd" d="M14 7C14 10.866 10.866 14 7 14C3.13401 14 0 10.866 0 7C0 3.13401 3.13401 0 7 0C10.866 0 14 3.13401 14 7ZM5.58743 4.21253C5.20775 3.83286 4.59217 3.83286 4.2125 4.21253C3.83282 4.59221 3.83282 5.20779 4.2125 5.58746L5.62503 7L4.2125 8.41253C3.83282 8.79221 3.83282 9.40779 4.2125 9.78746C4.59217 10.1671 5.20775 10.1671 5.58743 9.78746L6.99996 8.37493L8.4125 9.78746C8.79217 10.1671 9.40775 10.1671 9.78743 9.78746C10.1671 9.40779 10.1671 8.79221 9.78743 8.41253L8.37489 7L9.78743 5.58746C10.1671 5.20779 10.1671 4.59221 9.78743 4.21253C9.40775 3.83286 8.79217 3.83286 8.4125 4.21253L6.99996 5.62507L5.58743 4.21253Z" fill="currentColor"/>
</svg>
