<svg width="56" height="56" id="image" xmlns="http://www.w3.org/2000/svg" viewBox="0 0 56 56">
	<path fill="#E4EBEE" d="M0,0h56v56H0V0z"/>
	<g class="blue--fill">
		<path d="M28,36.8c-3.3,0-6.6,0-9.9,0c-1.1,0-1.8-0.7-1.8-1.8c0-4.7,0-9.4,0-14.2c0-0.9,0.4-1.4,1.2-1.6
			c0.2,0,0.3-0.1,0.5-0.1c6.7,0,13.3,0,20,0c1,0,1.6,0.6,1.6,1.6c0,4.8,0,9.6,0,14.3c0,1-0.7,1.6-1.7,1.6
			C34.7,36.8,31.3,36.8,28,36.8z M38.6,31.6c0-0.2,0-0.3,0-0.3c0-3.4,0-6.8,0-10.2c0-0.6-0.1-0.7-0.7-0.7c-6.6,0-13.2,0-19.7,0
			c-0.6,0-0.7,0.1-0.7,0.7c0,3.3,0,6.6,0,9.8c0,0.1,0,0.2,0,0.3c0.1-0.1,0.2-0.1,0.3-0.2c2.1-1.4,4.2-2.9,6.3-4.3
			c0.4-0.3,0.5-0.3,0.9,0c1.7,1.3,3.3,2.7,5,4c0.1-0.1,0.2-0.1,0.3-0.2c1.1-0.8,2.3-1.6,3.4-2.4c0.3-0.2,0.5-0.2,0.9,0
			c0.8,0.7,1.6,1.3,2.5,2C37.4,30.6,38,31.1,38.6,31.6z M24.4,27.6c0,0-0.1,0-0.1,0.1c-2.2,1.5-4.5,3.1-6.7,4.6
			c-0.1,0.1-0.1,0.2-0.1,0.3c0,0.8,0,1.7,0,2.5c0,0.4,0.2,0.6,0.6,0.6c6.6,0,13.3,0,19.9,0c0.5,0,0.6-0.2,0.6-0.7c0-0.7,0-1.3,0-2
			c0-0.2-0.1-0.3-0.2-0.4c-1.4-1.1-2.9-2.3-4.3-3.4c-0.1-0.1-0.2-0.1-0.4,0c-1.2,0.8-2.3,1.6-3.5,2.4c-0.3,0.2-0.5,0.2-0.8,0
			c-0.5-0.4-1-0.8-1.5-1.2C26.7,29.5,25.6,28.6,24.4,27.6z"/>
		<path d="M31.9,24.9c0,1.1-1,2.1-2.1,2.1c-1.1,0-2.1-1-2.1-2.1c0-1.1,1-2.1,2.1-2.1C31,22.8,31.9,23.8,31.9,24.9z
			M29.8,25.9c0.6,0,1-0.4,1-1c0-0.6-0.5-1-1-1c-0.6,0-1,0.5-1,1C28.8,25.4,29.2,25.9,29.8,25.9z"/>
	</g>
</svg>
