<svg width="15" height="15" viewBox="0 0 15 15" xmlns="http://www.w3.org/2000/svg">
<path d="M15 7.52508C15 9.38127 15 11.2375 15 13.0435C15 13.8462 14.5977 14.4482 13.7931 14.7993C13.5057 14.9498 13.1034 15 12.7586 15C9.25286 15 5.74712 15 2.24138 15C0.919537 15 0 14.1973 0 13.0435C0 9.3311 0 5.6689 0 1.95652C0 0.802676 0.977011 0 2.29885 0C5.8046 0 9.31033 0 12.7586 0C13.8506 0 14.6552 0.551841 14.9425 1.40468C15 1.60535 15 1.80602 15 2.00669C15 3.86288 15 5.6689 15 7.52508ZM9.65516 4.21405C10.5172 4.21405 11.3793 4.21405 12.2988 4.21405C12.7011 4.21405 12.931 4.01338 12.931 3.71238C12.931 3.41137 12.7011 3.26087 12.2988 3.26087C10.6896 3.26087 9.08046 3.26087 7.47126 3.26087C7.29885 3.26087 7.12644 3.26087 6.95402 3.26087C6.72414 3.26087 6.49424 3.41137 6.43677 3.61204C6.32183 3.96321 6.55171 4.21405 7.01148 4.21405C7.93102 4.21405 8.79309 4.21405 9.65516 4.21405ZM9.65516 7.02341C8.79309 7.02341 7.93103 7.02341 7.06896 7.02341C6.66666 7.02341 6.43677 7.22408 6.43677 7.52508C6.43677 7.82609 6.66666 7.97659 7.06896 7.97659C7.47126 7.97659 7.93103 7.97659 8.33333 7.97659C9.65517 7.97659 10.977 7.97659 12.2414 7.97659C12.4713 7.97659 12.6437 7.97659 12.8161 7.77592C12.931 7.62542 12.931 7.42475 12.8161 7.27425C12.7011 7.07358 12.5287 7.02341 12.2988 7.02341C11.4368 7.02341 10.5172 7.02341 9.65516 7.02341ZM9.65516 10.786C9.31034 10.786 9.02299 10.786 8.67816 10.786C8.10345 10.786 7.58619 10.786 7.01148 10.786C6.60918 10.786 6.32183 11.087 6.43677 11.388C6.49424 11.5886 6.72413 11.689 7.01148 11.689C7.98849 11.689 8.96551 11.689 9.99999 11.689C10.7471 11.689 11.4942 11.689 12.2414 11.689C12.4713 11.689 12.6437 11.689 12.7586 11.4883C12.8735 11.3378 12.8736 11.1371 12.8161 10.9866C12.7011 10.786 12.5287 10.7358 12.2988 10.7358C11.4368 10.786 10.5172 10.786 9.65516 10.786ZM4.31034 3.76254C4.31034 3.61204 4.31034 3.46154 4.31034 3.31104C4.31034 2.95987 4.13793 2.80937 3.73563 2.80937C3.3908 2.80937 3.10344 2.80937 2.75861 2.80937C2.41379 2.80937 2.1839 2.95987 2.1839 3.31104C2.1839 3.61204 2.1839 3.91304 2.1839 4.26421C2.1839 4.56522 2.41378 4.71572 2.70114 4.71572C3.04597 4.71572 3.39081 4.71572 3.79311 4.71572C4.13793 4.71572 4.31034 4.56522 4.31034 4.26421C4.31034 4.06354 4.31034 3.91304 4.31034 3.76254ZM3.21839 6.52174C3.04598 6.52174 2.93103 6.52174 2.75861 6.52174C2.35631 6.52174 2.1839 6.67224 2.12643 7.02341C2.12643 7.32441 2.12643 7.62542 2.12643 7.87626C2.12643 8.17726 2.29885 8.37793 2.64368 8.37793C2.98851 8.37793 3.3908 8.37793 3.73563 8.37793C4.08046 8.37793 4.25287 8.22743 4.25287 7.92642C4.25287 7.62542 4.25287 7.32442 4.25287 6.97324C4.25287 6.67224 4.02298 6.52174 3.67816 6.52174C3.56321 6.52174 3.39081 6.57191 3.21839 6.52174ZM4.31034 11.2375C4.31034 11.087 4.31034 10.9365 4.31034 10.786C4.31034 10.4348 4.08046 10.2843 3.73563 10.2843C3.44828 10.2843 3.10344 10.2843 2.81609 10.2843C2.41379 10.2843 2.24137 10.4348 2.1839 10.786C2.1839 11.087 2.1839 11.388 2.1839 11.6388C2.1839 11.99 2.41379 12.1405 2.75861 12.1405C3.10344 12.1405 3.3908 12.1405 3.73563 12.1405C4.13793 12.1405 4.31034 11.99 4.31034 11.6388C4.31034 11.5385 4.31034 11.388 4.31034 11.2375Z" />
</svg>
