<svg xmlns="http://www.w3.org/2000/svg" xml:space="preserve" id="Layer_1" x="0" y="0"
  style="enable-background:new 0 0 360 360" version="1.1" viewBox="0 0 360 360">
  <style>
    .st1 {
      fill: #FFFFFF
    }
  </style>
  <path
    d="M331.73 174.64c-2.76-3.12-68.59-76.48-151.73-76.48S31.03 171.52 28.27 174.64a8.084 8.084 0 0 0 0 10.72c2.76 3.12 68.59 76.48 151.73 76.48s148.97-73.36 151.73-76.48a8.084 8.084 0 0 0 0-10.72zM180 245.66c-63.32 0-117.87-49.11-134.45-65.66 16.58-16.55 71.13-65.66 134.45-65.66S297.87 163.45 314.45 180c-16.58 16.55-71.13 65.66-134.45 65.66z"
    class="st1" />
  <circle cx="180" cy="180" r="46.58" style="fill:#0024fc" />
  <path
    d="M261.56 108.04c-2.46 0-4.91-.94-6.79-2.81a9.603 9.603 0 0 1 0-13.58l71.1-71.1h-32.29c-5.3 0-9.6-4.3-9.6-9.6s4.3-9.6 9.6-9.6h55.47c3.88 0 7.38 2.34 8.87 5.93s.66 7.72-2.08 10.46l-87.49 87.49a9.57 9.57 0 0 1-6.79 2.81z"
    class="st1" />
  <path
    d="M349.05 76.99c-5.3 0-9.6-4.3-9.6-9.6V10.95c0-5.3 4.3-9.6 9.6-9.6s9.6 4.3 9.6 9.6v56.43c0 5.31-4.3 9.61-9.6 9.61zM349.05 358.65h-55.47c-5.3 0-9.6-4.3-9.6-9.6s4.3-9.6 9.6-9.6h32.29l-71.1-71.1a9.603 9.603 0 0 1 13.58-13.58l87.49 87.49a9.582 9.582 0 0 1 2.08 10.46 9.607 9.607 0 0 1-8.87 5.93z"
    class="st1" />
  <path
    d="M349.05 358.65c-5.3 0-9.6-4.3-9.6-9.6v-56.43c0-5.3 4.3-9.6 9.6-9.6s9.6 4.3 9.6 9.6v56.43c0 5.3-4.3 9.6-9.6 9.6zM98.44 108.04c-2.46 0-4.91-.94-6.79-2.81L4.16 17.74C1.42 14.99.6 10.87 2.08 7.28s4.99-5.93 8.87-5.93h55.47c5.3 0 9.6 4.3 9.6 9.6s-4.3 9.6-9.6 9.6H34.13l71.1 71.1a9.603 9.603 0 0 1 0 13.58 9.536 9.536 0 0 1-6.79 2.81z"
    class="st1" />
  <path
    d="M10.95 76.99c-5.3 0-9.6-4.3-9.6-9.6V10.95c0-5.3 4.3-9.6 9.6-9.6s9.6 4.3 9.6 9.6v56.43c0 5.31-4.3 9.61-9.6 9.61zM66.42 358.65H10.95c-3.88 0-7.38-2.34-8.87-5.93a9.596 9.596 0 0 1 2.08-10.46l87.49-87.49a9.603 9.603 0 0 1 13.58 13.58l-71.1 71.1h32.29c5.3 0 9.6 4.3 9.6 9.6s-4.3 9.6-9.6 9.6z"
    class="st1" />
  <path
    d="M10.95 358.65c-5.3 0-9.6-4.3-9.6-9.6v-56.43c0-5.3 4.3-9.6 9.6-9.6s9.6 4.3 9.6 9.6v56.43c0 5.3-4.3 9.6-9.6 9.6z"
    class="st1" />
</svg>