<svg viewBox="0 0 100 100" fill="none" xmlns="http://www.w3.org/2000/svg">
  <path d="M39.6697 68.2911C46.2797 68.2911 52.5597 66.2311 57.8097 62.4411L61.1897 65.9411L60.4697 66.6611C60.1397 66.9911 59.9697 67.4111 59.9697 67.8811C59.9697 68.3511 60.1597 68.7711 60.4697 69.1011L80.7297 89.3611C82.2697 90.9011 84.2997 91.6811 86.3197 91.6811C88.3397 91.6811 90.3697 90.9111 91.9097 89.3611C94.9997 86.2711 94.9997 81.2411 91.9097 78.1611L71.6597 57.8811C70.9897 57.2111 69.9097 57.2111 69.2397 57.8811L68.4697 58.6511L65.0697 55.1511C73.7397 42.9711 72.6397 25.9311 61.7197 15.0211C55.8297 9.12109 47.9897 5.87109 39.6497 5.87109C31.3097 5.87109 23.4697 9.11109 17.5797 15.0211C11.6797 20.9111 8.42969 28.7511 8.42969 37.0911C8.42969 45.4311 11.6697 53.2711 17.5797 59.1611C23.4697 65.0611 31.3097 68.3111 39.6497 68.3111L39.6697 68.2911ZM89.5197 80.5811C91.2697 82.3311 91.2697 85.1811 89.5197 86.9311C87.7697 88.6811 84.9197 88.6811 83.1697 86.9311L64.1197 67.8811L70.4697 61.5311L89.5197 80.5811ZM66.0497 61.0911L63.6297 63.5111L60.4897 60.2711C60.8997 59.8911 61.3297 59.5311 61.7297 59.1411C62.1297 58.7511 62.5197 58.2611 62.9097 57.8411L66.0497 61.1011V61.0911ZM20.0197 17.4311C25.2697 12.1811 32.2497 9.30109 39.6697 9.30109C47.0897 9.30109 54.0697 12.1811 59.3197 17.4311C70.1497 28.2611 70.1497 45.8811 59.3197 56.7111C54.0697 61.9611 47.0997 64.8411 39.6697 64.8411C32.2397 64.8411 25.2697 61.9611 20.0197 56.7111C14.7697 51.4611 11.8897 44.4911 11.8897 37.0811C11.8897 29.6711 14.7897 22.6811 20.0197 17.4311Z" fill="#34383C"/>
  <path d="M61.1901 38.1605C61.7001 37.5305 61.7001 36.6305 61.1901 36.0005C60.8001 35.5205 51.5001 24.2305 39.6701 24.2305C27.8401 24.2305 18.5501 35.5205 18.1501 36.0005C17.6401 36.6305 17.6401 37.5305 18.1501 38.1605C18.5401 38.6405 27.8401 49.9305 39.6701 49.9305C51.5001 49.9305 60.7901 38.6405 61.1901 38.1605ZM21.7801 37.0805C24.3001 34.4005 31.4401 27.6605 39.6601 27.6605C47.8801 27.6605 55.0201 34.4005 57.5401 37.0805C55.0201 39.7605 47.8801 46.5005 39.6601 46.5005C31.4401 46.5005 24.3201 39.7605 21.7801 37.0805Z" fill="#34383C"/>
  <path class="blue--fill" d="M45.8702 37.0806C45.8702 33.6706 43.0902 30.8906 39.6802 30.8906C36.2702 30.8906 33.4902 33.6706 33.4902 37.0806C33.4902 40.4906 36.2702 43.2706 39.6802 43.2706C43.0902 43.2706 45.8702 40.4906 45.8702 37.0806ZM36.9102 37.0806C36.9102 35.5506 38.1502 34.3206 39.6702 34.3206C41.1902 34.3206 42.4302 35.5606 42.4302 37.0806C42.4302 38.6006 41.1902 39.8406 39.6702 39.8406C38.1502 39.8406 36.9102 38.5906 36.9102 37.0806Z"/>
</svg>
