<svg width="18" height="12" viewBox="0 0 18 12" xmlns="http://www.w3.org/2000/svg">
<path d="M8.76979 11.7334C7.85375 11.7334 6.98861 11.7334 6.07257 11.7334C4.95296 11.7334 3.83334 11.5293 2.86641 10.9172C1.64502 10.1519 0.72898 9.13165 0.321851 7.75425C-0.187061 6.27482 -0.0852789 4.79539 0.576307 3.36698C1.08522 2.29567 1.84859 1.47943 2.86641 0.867251C3.88423 0.255074 5.00384 0.0510148 6.17434 0C7.95553 0 9.78762 0 11.5688 0C12.4848 0 13.35 0.153044 14.2151 0.510148C15.2839 1.0203 16.149 1.78552 16.7597 2.7548C17.4722 3.92814 17.7267 5.20351 17.574 6.52989C17.2686 9.13164 15.2839 11.2233 12.6375 11.6314C12.2813 11.6824 11.8742 11.7334 11.5179 11.7334C10.6019 11.7334 9.68583 11.7334 8.76979 11.7334ZM14.6732 5.8667C14.6732 4.23423 13.35 2.90784 11.7215 2.90784C10.093 2.90784 8.82068 4.1322 8.76979 5.81568C8.76979 7.49917 10.0421 8.72353 11.7215 8.77454C13.35 8.82556 14.6732 7.49917 14.6732 5.8667Z" />
</svg>
