<svg width="20" height="20" fill="none" aria-label="projects" xmlns="http://www.w3.org/2000/svg" aria-labelledby="projects-icon"  aria-describedby="projects-icon-desc">
	<title id="projects-icon">My Projects</title>
	<desc id="projects-icon-desc">Icon to direct the user to their own projects</desc>
  <path d="M7.05 0c.93-.01 1.8.42 2.37 1.15l.88 1.17c.28.35.7.56 1.15.56h3.07c3.69 0 5.49 1.97 5.48 6.01v4.87c0 3.86-2.38 6.24-6.25 6.24H6.24C2.39 20 0 17.62 0 13.75V6.24C0 2.1 1.84 0 5.47 0h1.58zm7.58 11.79H5.37c-.42 0-.75.33-.75.75 0 .41.33.75.75.75h9.26c.41 0 .74-.34.74-.75a.74.74 0 0 0-.74-.75z" fill="#2E3134"/>
</svg>