<svg id="projectTitleIcon" xmlns="http://www.w3.org/2000/svg" viewBox="0 0 20 22">
<style type="text/css">
	.st3{fill-rule:evenodd;clip-rule:evenodd;fill:#34383C;}
</style>
<path class="st3" d="M16.97,1C16.97,1,16.97,1,16.97,1H3.03C3.02,1,3,1,2.99,1c-0.23,0.02-0.41,0.22-0.4,0.45v14.6
	c0,0.1,0.03,0.19,0.09,0.27l3.37,4.49C6.13,20.93,6.26,21,6.41,21h10.56c0.25,0,0.45-0.2,0.45-0.45V1.46C17.42,1.21,17.22,1,16.97,1
	z M6.94,20.11l-3.37-4.5H6.5c0.24,0,0.44,0.19,0.44,0.43V20.11z M13.82,6.84c0,0.25-0.2,0.45-0.45,0.45H6.63
	c-0.25,0-0.45-0.2-0.45-0.45v-1.8c0-0.23,0.18-0.43,0.41-0.45c0.01,0,0.03,0,0.04,0h6.74c0.25,0,0.45,0.2,0.45,0.45V6.84z"/>
</svg>
