<?xml version="1.0" encoding="utf-8"?>
<!-- Generator: Adobe Illustrator 25.2.1, SVG Export Plug-In . SVG Version: 6.00 Build 0)  -->
<svg version="1.1" id="Layer_1" xmlns="http://www.w3.org/2000/svg" xmlns:xlink="http://www.w3.org/1999/xlink" x="0px" y="0px"
	 viewBox="0 0 48 48" style="enable-background:new 0 0 48 48;" xml:space="preserve">
<style type="text/css">
	.st0{fill:#2E3134;}
	.st1{fill:#2D3134;}
</style>
<g>
	<circle class="st0" cx="30.1" cy="31.4" r="1.8"/>
	<path class="st0" d="M31,34.7l-2.5,2.5c0,0.1-0.1,0.2-0.1,0.4v1.1c0,0.3,0.2,0.6,0.6,0.6H41c0.3,0,0.6-0.2,0.6-0.6v-3.4
		c0-0.2-0.1-0.4-0.2-0.5l-3.5-3.5c-0.2-0.2-0.3-0.2-0.5,0l-4.7,4.6l-1.2-1.2C31.3,34.5,31.1,34.5,31,34.7z"/>
	<path class="st0" d="M42.8,25.5H27c-1.6,0-2.8,1.3-2.8,2.8v12.2c0,1.6,1.3,2.8,2.8,2.8h15.8c1.6,0,2.8-1.3,2.8-2.8V28.3
		C45.6,26.8,44.3,25.5,42.8,25.5z M42.8,28.4l0,12H27.1l0-12L42.8,28.4z"/>
	<path class="st0" d="M26.9,21.3h12.5c1.5,0,2.7-1.4,2.7-3V6.5c0-1.7-1.2-3-2.7-3H26.9c-1.5,0-2.7,1.3-2.7,3v11.9
		C24.3,20,25.5,21.3,26.9,21.3z M27.3,18.1V6.7h11.8v11.3H27.3z"/>
	<path class="st0" d="M17.6,3.5H5.1c-1.5,0-2.7,1.4-2.7,3v11.9c0,1.7,1.2,3,2.7,3h12.5c1.5,0,2.7-1.4,2.7-3V6.5
		C20.2,4.8,19,3.5,17.6,3.5z M17.2,6.8v11.2H5.4V6.8H17.2z"/>
	<path class="st0" d="M17.6,25.5H5.1c-1.5,0-2.7,1.4-2.7,3v11.9c0,1.7,1.2,3,2.7,3h12.5c1.5,0,2.7-1.4,2.7-3V28.5
		C20.2,26.8,19,25.5,17.6,25.5z M17.2,28.8v11.3H5.4V28.8H17.2z"/>
</g>
</svg>
