<svg width="18" height="19" fill="none" xmlns="http://www.w3.org/2000/svg" viewBox="0 0 48 48" aria-labelledby="thumbnail-icon"  aria-describedby="thumbnail-icon-desc">
	<title id="thumbnail-icon">Thumbnail</title>
	<desc id="thumbnail-icon-desc">Thumbnail placeholder</desc>
  <g fill="currentColor">
		<path d="M42.8,25.5H27c-1.6,0-2.8,1.3-2.8,2.8v12.2c0,1.6,1.3,2.8,2.8,2.8h15.8c1.6,0,2.8-1.3,2.8-2.8V28.3
			C45.6,26.8,44.3,25.5,42.8,25.5z M30.1,33.2c-1,0-1.8-0.8-1.8-1.8c0-1,0.8-1.8,1.8-1.8c1,0,1.8,0.8,1.8,1.8
			C31.9,32.4,31.1,33.2,30.1,33.2z M32.7,35.9l4.7-4.6c0.2-0.2,0.3-0.2,0.5,0l3.5,3.5c0.1,0.1,0.2,0.3,0.2,0.5v3.4
			c0,0.4-0.3,0.6-0.6,0.6H29c-0.4,0-0.6-0.3-0.6-0.6v-1.1c0-0.2,0.1-0.3,0.1-0.4l2.5-2.5c0.1-0.2,0.3-0.2,0.5,0L32.7,35.9z"/>
		<path d="M26.9,21.3h12.5c1.5,0,2.7-1.4,2.7-3V6.5c0-1.7-1.2-3-2.7-3H26.9c-1.5,0-2.7,1.3-2.7,3v11.9
			C24.3,20,25.5,21.3,26.9,21.3z"/>
		<path d="M17.6,3.5H5.1c-1.5,0-2.7,1.4-2.7,3v11.9c0,1.7,1.2,3,2.7,3h12.5c1.5,0,2.7-1.4,2.7-3V6.5
			C20.2,4.8,19,3.5,17.6,3.5z"/>
		<path d="M17.6,25.5H5.1c-1.5,0-2.7,1.4-2.7,3v11.9c0,1.7,1.2,3,2.7,3h12.5c1.5,0,2.7-1.4,2.7-3V28.5
			C20.2,26.8,19,25.5,17.6,25.5z"/>
  </g>
</svg>
