<svg width="23" height="25" viewBox="0 0 23 25" fill="none" xmlns="http://www.w3.org/2000/svg">
<path fill-rule="evenodd" clip-rule="evenodd" d="M22.3898 3.55859C22.3898 2.45402 21.4943 1.55859 20.3898 1.55859H12.5081C13.3121 2.08876 14.0087 2.76866 14.558 3.55859H20.3898V6.87288H15.84C15.8823 7.19601 15.9041 7.52558 15.9041 7.86024C15.9041 8.20363 15.8811 8.54166 15.8367 8.87288H20.3898V12.1872H14.5404C13.9157 13.0775 13.1036 13.8267 12.1612 14.3774V17.5014H5.93262V15.0036C5.21055 14.7582 4.53766 14.4064 3.93262 13.9668V22.8157C3.93262 23.9203 4.82805 24.8157 5.93262 24.8157H20.3898C21.4943 24.8157 22.3898 23.9203 22.3898 22.8157V3.55859ZM20.3898 14.1872H14.1612V17.5014H20.3898V14.1872ZM20.3898 19.5014H14.1612V22.8157H20.3898V19.5014ZM12.1612 22.8157V19.5014H5.93262V22.8157H12.1612Z" fill="#2E3134"/>
<path fill-rule="evenodd" clip-rule="evenodd" d="M8.36122 0.317383C4.19541 0.317383 0.818359 3.69443 0.818359 7.86024C0.818359 10.3713 2.04541 12.5958 3.93262 13.9668C4.53766 14.4064 5.21055 14.7582 5.93262 15.0036C6.6947 15.2626 7.51155 15.4031 8.36122 15.4031C9.7469 15.4031 11.0453 15.0294 12.1612 14.3774C13.1036 13.8267 13.9157 13.0775 14.5404 12.1872C15.2164 11.2235 15.6728 10.0945 15.8367 8.87288C15.8811 8.54166 15.9041 8.20363 15.9041 7.86024C15.9041 7.52558 15.8823 7.19601 15.84 6.87288C15.6804 5.65222 15.229 4.52334 14.558 3.55859C14.0087 2.76866 13.3121 2.08876 12.5081 1.55859C11.3183 0.774018 9.89306 0.317383 8.36122 0.317383ZM8.36122 2.31738C5.29998 2.31738 2.81836 4.799 2.81836 7.86024C2.81836 10.9215 5.29998 13.4031 8.36122 13.4031C11.4224 13.4031 13.9041 10.9215 13.9041 7.86024C13.9041 4.79901 11.4225 2.31738 8.36122 2.31738Z" fill="#2E3134"/>
<path d="M9.36122 6.86024V3.74595C9.36122 3.19367 8.9135 2.74595 8.36122 2.74595C7.80893 2.74595 7.36122 3.19367 7.36122 3.74595V6.86024H4.24693C3.69465 6.86024 3.24693 7.30796 3.24693 7.86024C3.24693 8.41253 3.69465 8.87288 4.24693 8.87288H7.36122V11.9745C7.36122 12.5268 7.80893 12.9745 8.36122 12.9745C8.9135 12.9745 9.36122 12.5268 9.36122 11.9745V8.87288H12.4755C13.0278 8.87288 13.4755 8.41253 13.4755 7.86024C13.4755 7.30796 13.0278 6.86024 12.4755 6.86024H9.36122Z" fill="currentColor"/>
</svg>
