<svg width="22" height="22" viewBox="0 0 22 22" fill="none" xmlns="http://www.w3.org/2000/svg">
    <path d="M11 22C17.0758 22 22 17.0758 22 11C22 4.92422 17.0758 0 11 0C4.92422 0 0 4.92422 0 11C0 17.0758 4.92422 22 11 22ZM11 5.5C11.5715 5.5 12.0312 5.95977 12.0312 6.53125V11.3438C12.0312 11.9152 11.5715 12.375 11 12.375C10.4285 12.375 9.96875 11.9152 9.96875 11.3438V6.53125C9.96875 5.95977 10.4285 5.5 11 5.5ZM12.375 15.125C12.375 15.8855 11.7605 16.5 11 16.5C10.2395 16.5 9.625 15.8855 9.625 15.125C9.625 14.3645 10.2395 13.75 11 13.75C11.7605 13.75 12.375 14.3645 12.375 15.125Z" fill="#E14942"/>
</svg>