<svg width="20" height="20" viewBox="0 0 20 20" fill="none" xmlns="http://www.w3.org/2000/svg">
<path d="M4.74165 16.325C5.39165 16.325 5.91665 15.8 5.91665 15.15C5.91665 14.5 5.39165 13.975 4.74165 13.975C4.09165 13.975 3.56665 14.5 3.56665 15.15C3.56665 15.8 4.09165 16.325 4.74165 16.325Z" fill="currentColor"/>
<path d="M4.94165 14.9583L6.36665 13.5333" stroke="currentColor" stroke-width="1.2"/>
<path d="M9.675 12.55L7.38334 10.25C7.14167 10.0084 7.14167 9.60837 7.38334 9.3667L14.7333 2.0167C15.0583 1.6917 15.5917 1.6917 15.9167 2.0167L17.9083 4.00837C18.2333 4.33337 18.2333 4.85837 17.9083 5.1917L10.5583 12.5417C10.3167 12.7917 9.91667 12.7917 9.675 12.55Z" fill="currentColor"/>
<path d="M14.9667 14.05L11.2167 10.3L14.5167 7L18.2667 10.75C18.35 10.8333 18.35 10.9667 18.2667 11.0417L15.2667 14.0417C15.175 14.1333 15.05 14.1333 14.9667 14.05Z" stroke="currentColor" stroke-width="1.5" stroke-miterlimit="10"/>
<path d="M9.65002 8.75834L5.90002 5.00834C5.81669 4.92501 5.81669 4.80001 5.90002 4.71667L8.90002 1.71667C8.98336 1.63334 9.11669 1.63334 9.20002 1.71667L12.95 5.46667L9.65002 8.75834Z" stroke="currentColor" stroke-width="1.5" stroke-miterlimit="10"/>
<path d="M9.48333 10.4084C7.18333 8.10839 3.88333 7.61673 1.85 9.18339C1.625 9.35839 1.59166 9.68339 1.79166 9.88339L10.0083 18.1001C10.2083 18.3001 10.5333 18.2667 10.7083 18.0417C12.275 16.0084 11.7833 12.7084 9.48333 10.4084Z" fill="currentColor"/>
</svg>
