<svg xmlns="http://www.w3.org/2000/svg" viewBox="0 0 48 48" xml:space="preserve">
	<path
		d="M24 43.3H7.5c-1.8 0-2.7-1-2.7-2.8V6.3c0-1.8 1-2.8 2.7-2.8h22.7c1.8 0 3.3.7 4.6 2l6.6 6.9c1.2 1.3 1.9 2.9 1.9 4.7v23.5c0 1-1 2.8-2.7 2.8-5.6-.1-11.1-.1-16.6-.1m16.3-2.4V16.7c0-.9-.5-1.9-1.2-2.6-1.8-1.8-3.5-3.6-5.3-5.5l-1.5-1.5c-.5-.5-1.2-.7-1.9-.9v10.9c0 1.8-1 2.8-2.7 2.8H13.9c-1.7 0-2.7-1-2.7-2.8V6.3H7.8v34.5h3.4V29.4c0-1.7 1-2.7 2.7-2.7h20.2c1.7 0 2.7 1 2.7 2.8v11.4zM14.4 30.1v10.8h19.2V30.1zm6.4-18.3v3.9c0 .7.3 1.1 1 1.1h4.4c.7 0 1-.3 1-1.1V7.8c0-.7-.3-1-1-1h-4.4c-.7 0-1 .3-1 1.1z"
		fill="currentColor" />
</svg>