<svg width="574" height="180" viewBox="0 0 574 180" fill="none" xmlns="http://www.w3.org/2000/svg">
<path fill-rule="evenodd" clip-rule="evenodd" d="M280.5 4.03557C280.442 4.03762 280.385 4.03976 280.327 4.04199C279.231 4.08446 278.144 4.15887 277.07 4.26391C262.197 5.71726 249.415 13.045 240.342 22.8665C231.248 32.7095 226 44.922 226 56V72H268.125V45.875C268.125 40.2859 271.315 35.4453 275.965 33.0685C277.182 32.4461 278.501 31.9919 279.889 31.737C280.091 31.6998 280.295 31.6669 280.5 31.6383V4.03557ZM284.5 4.03557V31.6383C284.705 31.6669 284.909 31.6998 285.111 31.737C286.499 31.9919 287.818 32.4461 289.035 33.0685C293.685 35.4453 296.875 40.2859 296.875 45.875V72H339V56C339 44.922 333.752 32.7095 324.658 22.8665C315.585 13.045 302.803 5.71726 287.93 4.26391C286.856 4.15887 285.769 4.08446 284.673 4.04199C284.615 4.03976 284.558 4.03762 284.5 4.03557ZM339 76H296.875V79.625C296.875 87.5641 290.439 94 282.5 94C274.561 94 268.125 87.5641 268.125 79.625V76H226V119C226 150.204 251.296 175.5 282.5 175.5C313.704 175.5 339 150.204 339 119V76ZM343 119C343 152.413 315.913 179.5 282.5 179.5C249.087 179.5 222 152.413 222 119V56C222 43.7247 227.769 30.5807 237.404 20.1521C247.058 9.70201 260.714 1.84312 276.68 0.282869C277.833 0.170245 278.997 0.0904946 280.173 0.0449822C280.944 0.0151212 281.72 0 282.5 0C283.28 0 284.056 0.0151212 284.827 0.0449822C286.003 0.0904946 287.167 0.170245 288.32 0.282869C304.286 1.84312 317.942 9.70201 327.596 20.1521C337.231 30.5807 343 43.7247 343 56V119ZM292.875 45.875C292.875 41.8461 290.579 38.3499 287.215 36.6302C286.337 36.1817 285.388 35.8547 284.389 35.6711C283.778 35.5589 283.147 35.5 282.5 35.5C281.853 35.5 281.222 35.5589 280.611 35.6711C279.612 35.8547 278.663 36.1817 277.785 36.6302C274.421 38.3499 272.125 41.8461 272.125 45.875V79.625C272.125 85.3549 276.77 90 282.5 90C288.23 90 292.875 85.3549 292.875 79.625V45.875Z" fill="#6A6F83"/>
<path d="M65 30H207.654M207.654 30L250.5 46.8611C250.733 46.9529 250.981 47 251.232 47H283M207.654 30H311" stroke="#0024FC" stroke-width="2"/>
<path d="M499 30H355.39C354.923 30 354.472 30.1628 354.113 30.4604L334.76 46.5066M283 63.0132H314.131C314.597 63.0132 315.049 62.8503 315.408 62.5528L334.76 46.5066M334.76 46.5066H311" stroke="#0024FC" stroke-width="2"/>
<path d="M283 79V109.105C283 109.943 282.478 110.692 281.691 110.982L208.679 137.877C208.457 137.958 208.223 138 207.987 138L66 138" stroke="#0024FC" stroke-width="2"/>
<path d="M513.959 34.5996L511.112 29.4321H510.312V34.5996H506.978V20.9106H512.574C513.653 20.9106 514.57 21.0991 515.324 21.4761C516.091 21.8531 516.663 22.3731 517.04 23.0361C517.417 23.6861 517.605 24.4141 517.605 25.2201C517.605 26.1301 517.345 26.9426 516.825 27.6576C516.318 28.3726 515.564 28.8796 514.563 29.1786L517.722 34.5996H513.959ZM510.312 27.0726H512.379C512.99 27.0726 513.445 26.9231 513.744 26.6241C514.056 26.3251 514.212 25.9026 514.212 25.3566C514.212 24.8366 514.056 24.4271 513.744 24.1281C513.445 23.8291 512.99 23.6796 512.379 23.6796H510.312V27.0726ZM524.951 34.7556C523.885 34.7556 522.923 34.5281 522.065 34.0731C521.22 33.6181 520.551 32.9681 520.057 32.1231C519.576 31.2781 519.335 30.2901 519.335 29.1591C519.335 28.0411 519.582 27.0596 520.076 26.2146C520.57 25.3566 521.246 24.7001 522.104 24.2451C522.962 23.7901 523.924 23.5626 524.99 23.5626C526.056 23.5626 527.018 23.7901 527.876 24.2451C528.734 24.7001 529.41 25.3566 529.904 26.2146C530.398 27.0596 530.645 28.0411 530.645 29.1591C530.645 30.2771 530.392 31.2651 529.885 32.1231C529.391 32.9681 528.708 33.6181 527.837 34.0731C526.979 34.5281 526.017 34.7556 524.951 34.7556ZM524.951 31.8696C525.588 31.8696 526.128 31.6356 526.57 31.1676C527.025 30.6996 527.252 30.0301 527.252 29.1591C527.252 28.2881 527.031 27.6186 526.589 27.1506C526.16 26.6826 525.627 26.4486 524.99 26.4486C524.34 26.4486 523.801 26.6826 523.372 27.1506C522.943 27.6056 522.728 28.2751 522.728 29.1591C522.728 30.0301 522.936 30.6996 523.352 31.1676C523.781 31.6356 524.314 31.8696 524.951 31.8696ZM538.779 31.7721V34.5996H537.082C535.873 34.5996 534.931 34.3071 534.255 33.7221C533.579 33.1241 533.241 32.1556 533.241 30.8166V26.4876H531.915V23.7186H533.241V21.0666H536.575V23.7186H538.759V26.4876H536.575V30.8556C536.575 31.1806 536.653 31.4146 536.809 31.5576C536.965 31.7006 537.225 31.7721 537.589 31.7721H538.779ZM540.273 29.1396C540.273 28.0216 540.481 27.0401 540.897 26.1951C541.326 25.3501 541.905 24.7001 542.633 24.2451C543.361 23.7901 544.173 23.5626 545.07 23.5626C545.837 23.5626 546.507 23.7186 547.079 24.0306C547.664 24.3426 548.112 24.7521 548.424 25.2591V23.7186H551.759V34.5996H548.424V33.0591C548.099 33.5661 547.644 33.9756 547.059 34.2876C546.487 34.5996 545.818 34.7556 545.051 34.7556C544.167 34.7556 543.361 34.5281 542.633 34.0731C541.905 33.6051 541.326 32.9486 540.897 32.1036C540.481 31.2456 540.273 30.2576 540.273 29.1396ZM548.424 29.1591C548.424 28.3271 548.19 27.6706 547.722 27.1896C547.267 26.7086 546.708 26.4681 546.045 26.4681C545.382 26.4681 544.817 26.7086 544.349 27.1896C543.894 27.6576 543.666 28.3076 543.666 29.1396C543.666 29.9716 543.894 30.6346 544.349 31.1286C544.817 31.6096 545.382 31.8501 546.045 31.8501C546.708 31.8501 547.267 31.6096 547.722 31.1286C548.19 30.6476 548.424 29.9911 548.424 29.1591ZM560.536 31.7721V34.5996H558.839C557.63 34.5996 556.688 34.3071 556.012 33.7221C555.336 33.1241 554.998 32.1556 554.998 30.8166V26.4876H553.672V23.7186H554.998V21.0666H558.332V23.7186H560.516V26.4876H558.332V30.8556C558.332 31.1806 558.41 31.4146 558.566 31.5576C558.722 31.7006 558.982 31.7721 559.346 31.7721H560.536ZM572.95 28.9836C572.95 29.2956 572.93 29.6206 572.891 29.9586H565.345C565.397 30.6346 565.611 31.1546 565.988 31.5186C566.378 31.8696 566.853 32.0451 567.412 32.0451C568.244 32.0451 568.822 31.6941 569.147 30.9921H572.696C572.514 31.7071 572.183 32.3506 571.702 32.9226C571.234 33.4946 570.642 33.9431 569.927 34.2681C569.212 34.5931 568.413 34.7556 567.529 34.7556C566.463 34.7556 565.514 34.5281 564.682 34.0731C563.85 33.6181 563.2 32.9681 562.732 32.1231C562.264 31.2781 562.03 30.2901 562.03 29.1591C562.03 28.0281 562.257 27.0401 562.712 26.1951C563.18 25.3501 563.83 24.7001 564.662 24.2451C565.494 23.7901 566.45 23.5626 567.529 23.5626C568.582 23.5626 569.518 23.7836 570.337 24.2256C571.156 24.6676 571.793 25.2981 572.248 26.1171C572.716 26.9361 572.95 27.8916 572.95 28.9836ZM569.537 28.1061C569.537 27.5341 569.342 27.0791 568.952 26.7411C568.562 26.4031 568.075 26.2341 567.49 26.2341C566.931 26.2341 566.456 26.3966 566.066 26.7216C565.689 27.0466 565.455 27.5081 565.364 28.1061H569.537ZM476.504 49.5996L474.844 46.7496H473.744V49.5996H472.834V42.6296H475.084C475.611 42.6296 476.054 42.7196 476.414 42.8996C476.781 43.0796 477.054 43.3229 477.234 43.6296C477.414 43.9363 477.504 44.2863 477.504 44.6796C477.504 45.1596 477.364 45.5829 477.084 45.9496C476.811 46.3163 476.398 46.5596 475.844 46.6796L477.594 49.5996H476.504ZM473.744 46.0196H475.084C475.578 46.0196 475.948 45.8996 476.194 45.6596C476.441 45.4129 476.564 45.0863 476.564 44.6796C476.564 44.2663 476.441 43.9463 476.194 43.7196C475.954 43.4929 475.584 43.3796 475.084 43.3796H473.744V46.0196ZM479.388 43.2296C479.215 43.2296 479.068 43.1696 478.948 43.0496C478.828 42.9296 478.768 42.7829 478.768 42.6096C478.768 42.4363 478.828 42.2896 478.948 42.1696C479.068 42.0496 479.215 41.9896 479.388 41.9896C479.555 41.9896 479.695 42.0496 479.808 42.1696C479.928 42.2896 479.988 42.4363 479.988 42.6096C479.988 42.7829 479.928 42.9296 479.808 43.0496C479.695 43.1696 479.555 43.2296 479.388 43.2296ZM479.828 44.1196V49.5996H478.918V44.1196H479.828ZM483.639 44.0296C484.113 44.0296 484.526 44.1329 484.879 44.3396C485.239 44.5463 485.506 44.8063 485.679 45.1196V44.1196H486.599V49.7196C486.599 50.2196 486.493 50.6629 486.279 51.0496C486.066 51.4429 485.759 51.7496 485.359 51.9696C484.966 52.1896 484.506 52.2996 483.979 52.2996C483.259 52.2996 482.659 52.1296 482.179 51.7896C481.699 51.4496 481.416 50.9863 481.329 50.3996H482.229C482.329 50.7329 482.536 50.9996 482.849 51.1996C483.163 51.4063 483.539 51.5096 483.979 51.5096C484.479 51.5096 484.886 51.3529 485.199 51.0396C485.519 50.7263 485.679 50.2863 485.679 49.7196V48.5696C485.499 48.8896 485.233 49.1563 484.879 49.3696C484.526 49.5829 484.113 49.6896 483.639 49.6896C483.153 49.6896 482.709 49.5696 482.309 49.3296C481.916 49.0896 481.606 48.7529 481.379 48.3196C481.153 47.8863 481.039 47.3929 481.039 46.8396C481.039 46.2796 481.153 45.7896 481.379 45.3696C481.606 44.9429 481.916 44.6129 482.309 44.3796C482.709 44.1463 483.153 44.0296 483.639 44.0296ZM485.679 46.8496C485.679 46.4363 485.596 46.0763 485.429 45.7696C485.263 45.4629 485.036 45.2296 484.749 45.0696C484.469 44.9029 484.159 44.8196 483.819 44.8196C483.479 44.8196 483.169 44.8996 482.889 45.0596C482.609 45.2196 482.386 45.4529 482.219 45.7596C482.053 46.0663 481.969 46.4263 481.969 46.8396C481.969 47.2596 482.053 47.6263 482.219 47.9396C482.386 48.2463 482.609 48.4829 482.889 48.6496C483.169 48.8096 483.479 48.8896 483.819 48.8896C484.159 48.8896 484.469 48.8096 484.749 48.6496C485.036 48.4829 485.263 48.2463 485.429 47.9396C485.596 47.6263 485.679 47.2629 485.679 46.8496ZM490.857 44.0196C491.271 44.0196 491.644 44.1096 491.977 44.2896C492.311 44.4629 492.571 44.7263 492.757 45.0796C492.951 45.4329 493.047 45.8629 493.047 46.3696V49.5996H492.147V46.4996C492.147 45.9529 492.011 45.5363 491.737 45.2496C491.464 44.9563 491.091 44.8096 490.617 44.8096C490.137 44.8096 489.754 44.9596 489.467 45.2596C489.187 45.5596 489.047 45.9963 489.047 46.5696V49.5996H488.137V42.1996H489.047V44.8996C489.227 44.6196 489.474 44.4029 489.787 44.2496C490.107 44.0963 490.464 44.0196 490.857 44.0196ZM495.644 44.8696V48.0996C495.644 48.3663 495.7 48.5563 495.814 48.6696C495.927 48.7763 496.124 48.8296 496.404 48.8296H497.074V49.5996H496.254C495.747 49.5996 495.367 49.4829 495.114 49.2496C494.86 49.0163 494.734 48.6329 494.734 48.0996V44.8696H494.024V44.1196H494.734V42.7396H495.644V44.1196H497.074V44.8696H495.644ZM500.502 46.1096C500.502 45.4296 500.656 44.8196 500.962 44.2796C501.269 43.7329 501.686 43.3063 502.212 42.9996C502.746 42.6929 503.336 42.5396 503.982 42.5396C504.742 42.5396 505.406 42.7229 505.972 43.0896C506.539 43.4563 506.952 43.9763 507.212 44.6496H506.122C505.929 44.2296 505.649 43.9063 505.282 43.6796C504.922 43.4529 504.489 43.3396 503.982 43.3396C503.496 43.3396 503.059 43.4529 502.672 43.6796C502.286 43.9063 501.982 44.2296 501.762 44.6496C501.542 45.0629 501.432 45.5496 501.432 46.1096C501.432 46.6629 501.542 47.1496 501.762 47.5696C501.982 47.9829 502.286 48.3029 502.672 48.5296C503.059 48.7563 503.496 48.8696 503.982 48.8696C504.489 48.8696 504.922 48.7596 505.282 48.5396C505.649 48.3129 505.929 47.9896 506.122 47.5696H507.212C506.952 48.2363 506.539 48.7529 505.972 49.1196C505.406 49.4796 504.742 49.6596 503.982 49.6596C503.336 49.6596 502.746 49.5096 502.212 49.2096C501.686 48.9029 501.269 48.4796 500.962 47.9396C500.656 47.3996 500.502 46.7896 500.502 46.1096ZM509.477 42.1996V49.5996H508.567V42.1996H509.477ZM511.498 43.2296C511.324 43.2296 511.178 43.1696 511.058 43.0496C510.938 42.9296 510.878 42.7829 510.878 42.6096C510.878 42.4363 510.938 42.2896 511.058 42.1696C511.178 42.0496 511.324 41.9896 511.498 41.9896C511.664 41.9896 511.804 42.0496 511.918 42.1696C512.038 42.2896 512.098 42.4363 512.098 42.6096C512.098 42.7829 512.038 42.9296 511.918 43.0496C511.804 43.1696 511.664 43.2296 511.498 43.2296ZM511.938 44.1196V49.5996H511.028V44.1196H511.938ZM513.149 46.8496C513.149 46.2829 513.262 45.7896 513.489 45.3696C513.715 44.9429 514.029 44.6129 514.429 44.3796C514.835 44.1463 515.299 44.0296 515.819 44.0296C516.492 44.0296 517.045 44.1929 517.479 44.5196C517.919 44.8463 518.209 45.2996 518.349 45.8796H517.369C517.275 45.5463 517.092 45.2829 516.819 45.0896C516.552 44.8963 516.219 44.7996 515.819 44.7996C515.299 44.7996 514.879 44.9796 514.559 45.3396C514.239 45.6929 514.079 46.1963 514.079 46.8496C514.079 47.5096 514.239 48.0196 514.559 48.3796C514.879 48.7396 515.299 48.9196 515.819 48.9196C516.219 48.9196 516.552 48.8263 516.819 48.6396C517.085 48.4529 517.269 48.1863 517.369 47.8396H518.349C518.202 48.3996 517.909 48.8496 517.469 49.1896C517.029 49.5229 516.479 49.6896 515.819 49.6896C515.299 49.6896 514.835 49.5729 514.429 49.3396C514.029 49.1063 513.715 48.7763 513.489 48.3496C513.262 47.9229 513.149 47.4229 513.149 46.8496ZM522.623 49.5996L520.473 47.1796V49.5996H519.563V42.1996H520.473V46.5496L522.583 44.1196H523.853L521.273 46.8496L523.863 49.5996H522.623ZM527.035 46.8396C527.035 46.2796 527.149 45.7896 527.375 45.3696C527.602 44.9429 527.912 44.6129 528.305 44.3796C528.705 44.1463 529.149 44.0296 529.635 44.0296C530.115 44.0296 530.532 44.1329 530.885 44.3396C531.239 44.5463 531.502 44.8063 531.675 45.1196V44.1196H532.595V49.5996H531.675V48.5796C531.495 48.8996 531.225 49.1663 530.865 49.3796C530.512 49.5863 530.099 49.6896 529.625 49.6896C529.139 49.6896 528.699 49.5696 528.305 49.3296C527.912 49.0896 527.602 48.7529 527.375 48.3196C527.149 47.8863 527.035 47.3929 527.035 46.8396ZM531.675 46.8496C531.675 46.4363 531.592 46.0763 531.425 45.7696C531.259 45.4629 531.032 45.2296 530.745 45.0696C530.465 44.9029 530.155 44.8196 529.815 44.8196C529.475 44.8196 529.165 44.8996 528.885 45.0596C528.605 45.2196 528.382 45.4529 528.215 45.7596C528.049 46.0663 527.965 46.4263 527.965 46.8396C527.965 47.2596 528.049 47.6263 528.215 47.9396C528.382 48.2463 528.605 48.4829 528.885 48.6496C529.165 48.8096 529.475 48.8896 529.815 48.8896C530.155 48.8896 530.465 48.8096 530.745 48.6496C531.032 48.4829 531.259 48.2463 531.425 47.9396C531.592 47.6263 531.675 47.2629 531.675 46.8496ZM536.803 44.0196C537.47 44.0196 538.01 44.2229 538.423 44.6296C538.837 45.0296 539.043 45.6096 539.043 46.3696V49.5996H538.143V46.4996C538.143 45.9529 538.007 45.5363 537.733 45.2496C537.46 44.9563 537.087 44.8096 536.613 44.8096C536.133 44.8096 535.75 44.9596 535.463 45.2596C535.183 45.5596 535.043 45.9963 535.043 46.5696V49.5996H534.133V44.1196H535.043V44.8996C535.223 44.6196 535.467 44.4029 535.773 44.2496C536.087 44.0963 536.43 44.0196 536.803 44.0196ZM540.19 46.8396C540.19 46.2796 540.303 45.7896 540.53 45.3696C540.756 44.9429 541.066 44.6129 541.46 44.3796C541.86 44.1463 542.306 44.0296 542.8 44.0296C543.226 44.0296 543.623 44.1296 543.99 44.3296C544.356 44.5229 544.636 44.7796 544.83 45.0996V42.1996H545.75V49.5996H544.83V48.5696C544.65 48.8963 544.383 49.1663 544.03 49.3796C543.676 49.5863 543.263 49.6896 542.79 49.6896C542.303 49.6896 541.86 49.5696 541.46 49.3296C541.066 49.0896 540.756 48.7529 540.53 48.3196C540.303 47.8863 540.19 47.3929 540.19 46.8396ZM544.83 46.8496C544.83 46.4363 544.746 46.0763 544.58 45.7696C544.413 45.4629 544.186 45.2296 543.9 45.0696C543.62 44.9029 543.31 44.8196 542.97 44.8196C542.63 44.8196 542.32 44.8996 542.04 45.0596C541.76 45.2196 541.536 45.4529 541.37 45.7596C541.203 46.0663 541.12 46.4263 541.12 46.8396C541.12 47.2596 541.203 47.6263 541.37 47.9396C541.536 48.2463 541.76 48.4829 542.04 48.6496C542.32 48.8096 542.63 48.8896 542.97 48.8896C543.31 48.8896 543.62 48.8096 543.9 48.6496C544.186 48.4829 544.413 48.2463 544.58 47.9396C544.746 47.6263 544.83 47.2629 544.83 46.8496ZM552.124 42.6296C552.884 42.6296 553.54 42.7729 554.094 43.0596C554.654 43.3396 555.08 43.7429 555.374 44.2696C555.674 44.7963 555.824 45.4163 555.824 46.1296C555.824 46.8429 555.674 47.4629 555.374 47.9896C555.08 48.5096 554.654 48.9096 554.094 49.1896C553.54 49.4629 552.884 49.5996 552.124 49.5996H549.954V42.6296H552.124ZM552.124 48.8496C553.024 48.8496 553.71 48.6129 554.184 48.1396C554.657 47.6596 554.894 46.9896 554.894 46.1296C554.894 45.2629 554.654 44.5863 554.174 44.0996C553.7 43.6129 553.017 43.3696 552.124 43.3696H550.864V48.8496H552.124ZM557.934 45.0096C558.094 44.6963 558.321 44.4529 558.614 44.2796C558.914 44.1063 559.277 44.0196 559.704 44.0196V44.9596H559.464C558.444 44.9596 557.934 45.5129 557.934 46.6196V49.5996H557.024V44.1196H557.934V45.0096ZM560.414 46.8396C560.414 46.2796 560.528 45.7896 560.754 45.3696C560.981 44.9429 561.291 44.6129 561.684 44.3796C562.084 44.1463 562.528 44.0296 563.014 44.0296C563.494 44.0296 563.911 44.1329 564.264 44.3396C564.618 44.5463 564.881 44.8063 565.054 45.1196V44.1196H565.974V49.5996H565.054V48.5796C564.874 48.8996 564.604 49.1663 564.244 49.3796C563.891 49.5863 563.478 49.6896 563.004 49.6896C562.518 49.6896 562.078 49.5696 561.684 49.3296C561.291 49.0896 560.981 48.7529 560.754 48.3196C560.528 47.8863 560.414 47.3929 560.414 46.8396ZM565.054 46.8496C565.054 46.4363 564.971 46.0763 564.804 45.7696C564.638 45.4629 564.411 45.2296 564.124 45.0696C563.844 44.9029 563.534 44.8196 563.194 44.8196C562.854 44.8196 562.544 44.8996 562.264 45.0596C561.984 45.2196 561.761 45.4529 561.594 45.7596C561.428 46.0663 561.344 46.4263 561.344 46.8396C561.344 47.2596 561.428 47.6263 561.594 47.9396C561.761 48.2463 561.984 48.4829 562.264 48.6496C562.544 48.8096 562.854 48.8896 563.194 48.8896C563.534 48.8896 563.844 48.8096 564.124 48.6496C564.411 48.4829 564.638 48.2463 564.804 47.9396C564.971 47.6263 565.054 47.2629 565.054 46.8496ZM569.772 44.0296C570.246 44.0296 570.659 44.1329 571.012 44.3396C571.372 44.5463 571.639 44.8063 571.812 45.1196V44.1196H572.732V49.7196C572.732 50.2196 572.626 50.6629 572.412 51.0496C572.199 51.4429 571.892 51.7496 571.492 51.9696C571.099 52.1896 570.639 52.2996 570.112 52.2996C569.392 52.2996 568.792 52.1296 568.312 51.7896C567.832 51.4496 567.549 50.9863 567.462 50.3996H568.362C568.462 50.7329 568.669 50.9996 568.982 51.1996C569.296 51.4063 569.672 51.5096 570.112 51.5096C570.612 51.5096 571.019 51.3529 571.332 51.0396C571.652 50.7263 571.812 50.2863 571.812 49.7196V48.5696C571.632 48.8896 571.366 49.1563 571.012 49.3696C570.659 49.5829 570.246 49.6896 569.772 49.6896C569.286 49.6896 568.842 49.5696 568.442 49.3296C568.049 49.0896 567.739 48.7529 567.512 48.3196C567.286 47.8863 567.172 47.3929 567.172 46.8396C567.172 46.2796 567.286 45.7896 567.512 45.3696C567.739 44.9429 568.049 44.6129 568.442 44.3796C568.842 44.1463 569.286 44.0296 569.772 44.0296ZM571.812 46.8496C571.812 46.4363 571.729 46.0763 571.562 45.7696C571.396 45.4629 571.169 45.2296 570.882 45.0696C570.602 44.9029 570.292 44.8196 569.952 44.8196C569.612 44.8196 569.302 44.8996 569.022 45.0596C568.742 45.2196 568.519 45.4529 568.352 45.7596C568.186 46.0663 568.102 46.4263 568.102 46.8396C568.102 47.2596 568.186 47.6263 568.352 47.9396C568.519 48.2463 568.742 48.4829 569.022 48.6496C569.302 48.8096 569.612 48.8896 569.952 48.8896C570.292 48.8896 570.602 48.8096 570.882 48.6496C571.169 48.4829 571.396 48.2463 571.562 47.9396C571.729 47.6263 571.812 47.2629 571.812 46.8496ZM451.473 64.6696C450.826 64.6696 450.236 64.5196 449.703 64.2196C449.17 63.9129 448.746 63.4896 448.433 62.9496C448.126 62.4029 447.973 61.7896 447.973 61.1096C447.973 60.4296 448.126 59.8196 448.433 59.2796C448.746 58.7329 449.17 58.3096 449.703 58.0096C450.236 57.7029 450.826 57.5496 451.473 57.5496C452.126 57.5496 452.72 57.7029 453.253 58.0096C453.786 58.3096 454.206 58.7296 454.513 59.2696C454.82 59.8096 454.973 60.4229 454.973 61.1096C454.973 61.7963 454.82 62.4096 454.513 62.9496C454.206 63.4896 453.786 63.9129 453.253 64.2196C452.72 64.5196 452.126 64.6696 451.473 64.6696ZM451.473 63.8796C451.96 63.8796 452.396 63.7663 452.783 63.5396C453.176 63.3129 453.483 62.9896 453.703 62.5696C453.93 62.1496 454.043 61.6629 454.043 61.1096C454.043 60.5496 453.93 60.0629 453.703 59.6496C453.483 59.2296 453.18 58.9063 452.793 58.6796C452.406 58.4529 451.966 58.3396 451.473 58.3396C450.98 58.3396 450.54 58.4529 450.153 58.6796C449.766 58.9063 449.46 59.2296 449.233 59.6496C449.013 60.0629 448.903 60.5496 448.903 61.1096C448.903 61.6629 449.013 62.1496 449.233 62.5696C449.46 62.9896 449.766 63.3129 450.153 63.5396C450.546 63.7663 450.986 63.8796 451.473 63.8796ZM459.844 64.5996L458.184 61.7496H457.084V64.5996H456.174V57.6296H458.424C458.951 57.6296 459.394 57.7196 459.754 57.8996C460.121 58.0796 460.394 58.3229 460.574 58.6296C460.754 58.9363 460.844 59.2863 460.844 59.6796C460.844 60.1596 460.704 60.5829 460.424 60.9496C460.151 61.3163 459.738 61.5596 459.184 61.6796L460.934 64.5996H459.844ZM457.084 61.0196H458.424C458.918 61.0196 459.288 60.8996 459.534 60.6596C459.781 60.4129 459.904 60.0863 459.904 59.6796C459.904 59.2663 459.781 58.9463 459.534 58.7196C459.294 58.4929 458.924 58.3796 458.424 58.3796H457.084V61.0196ZM471.994 57.6796V64.5996H471.084V59.4396L468.784 64.5996H468.144L465.834 59.4296V64.5996H464.924V57.6796H465.904L468.464 63.3996L471.024 57.6796H471.994ZM474.008 58.2296C473.834 58.2296 473.688 58.1696 473.568 58.0496C473.448 57.9296 473.388 57.7829 473.388 57.6096C473.388 57.4363 473.448 57.2896 473.568 57.1696C473.688 57.0496 473.834 56.9896 474.008 56.9896C474.174 56.9896 474.314 57.0496 474.428 57.1696C474.548 57.2896 474.608 57.4363 474.608 57.6096C474.608 57.7829 474.548 57.9296 474.428 58.0496C474.314 58.1696 474.174 58.2296 474.008 58.2296ZM474.448 59.1196V64.5996H473.538V59.1196H474.448ZM475.659 61.8396C475.659 61.2796 475.772 60.7896 475.999 60.3696C476.225 59.9429 476.535 59.6129 476.929 59.3796C477.329 59.1463 477.775 59.0296 478.269 59.0296C478.695 59.0296 479.092 59.1296 479.459 59.3296C479.825 59.5229 480.105 59.7796 480.299 60.0996V57.1996H481.219V64.5996H480.299V63.5696C480.119 63.8963 479.852 64.1663 479.499 64.3796C479.145 64.5863 478.732 64.6896 478.259 64.6896C477.772 64.6896 477.329 64.5696 476.929 64.3296C476.535 64.0896 476.225 63.7529 475.999 63.3196C475.772 62.8863 475.659 62.3929 475.659 61.8396ZM480.299 61.8496C480.299 61.4363 480.215 61.0763 480.049 60.7696C479.882 60.4629 479.655 60.2296 479.369 60.0696C479.089 59.9029 478.779 59.8196 478.439 59.8196C478.099 59.8196 477.789 59.8996 477.509 60.0596C477.229 60.2196 477.005 60.4529 476.839 60.7596C476.672 61.0663 476.589 61.4263 476.589 61.8396C476.589 62.2596 476.672 62.6263 476.839 62.9396C477.005 63.2463 477.229 63.4829 477.509 63.6496C477.789 63.8096 478.099 63.8896 478.439 63.8896C478.779 63.8896 479.089 63.8096 479.369 63.6496C479.655 63.4829 479.882 63.2463 480.049 62.9396C480.215 62.6263 480.299 62.2629 480.299 61.8496ZM482.416 61.8396C482.416 61.2796 482.53 60.7896 482.756 60.3696C482.983 59.9429 483.293 59.6129 483.686 59.3796C484.086 59.1463 484.533 59.0296 485.026 59.0296C485.453 59.0296 485.85 59.1296 486.216 59.3296C486.583 59.5229 486.863 59.7796 487.056 60.0996V57.1996H487.976V64.5996H487.056V63.5696C486.876 63.8963 486.61 64.1663 486.256 64.3796C485.903 64.5863 485.49 64.6896 485.016 64.6896C484.53 64.6896 484.086 64.5696 483.686 64.3296C483.293 64.0896 482.983 63.7529 482.756 63.3196C482.53 62.8863 482.416 62.3929 482.416 61.8396ZM487.056 61.8496C487.056 61.4363 486.973 61.0763 486.806 60.7696C486.64 60.4629 486.413 60.2296 486.126 60.0696C485.846 59.9029 485.536 59.8196 485.196 59.8196C484.856 59.8196 484.546 59.8996 484.266 60.0596C483.986 60.2196 483.763 60.4529 483.596 60.7596C483.43 61.0663 483.346 61.4263 483.346 61.8396C483.346 62.2596 483.43 62.6263 483.596 62.9396C483.763 63.2463 483.986 63.4829 484.266 63.6496C484.546 63.8096 484.856 63.8896 485.196 63.8896C485.536 63.8896 485.846 63.8096 486.126 63.6496C486.413 63.4829 486.64 63.2463 486.806 62.9396C486.973 62.6263 487.056 62.2629 487.056 61.8496ZM490.424 57.1996V64.5996H489.514V57.1996H490.424ZM496.975 61.6496C496.975 61.8229 496.965 62.0063 496.945 62.1996H492.565C492.598 62.7396 492.782 63.1629 493.115 63.4696C493.455 63.7696 493.865 63.9196 494.345 63.9196C494.738 63.9196 495.065 63.8296 495.325 63.6496C495.592 63.4629 495.778 63.2163 495.885 62.9096H496.865C496.718 63.4363 496.425 63.8663 495.985 64.1996C495.545 64.5263 494.998 64.6896 494.345 64.6896C493.825 64.6896 493.358 64.5729 492.945 64.3396C492.538 64.1063 492.218 63.7763 491.985 63.3496C491.752 62.9163 491.635 62.4163 491.635 61.8496C491.635 61.2829 491.748 60.7863 491.975 60.3596C492.202 59.9329 492.518 59.6063 492.925 59.3796C493.338 59.1463 493.812 59.0296 494.345 59.0296C494.865 59.0296 495.325 59.1429 495.725 59.3696C496.125 59.5963 496.432 59.9096 496.645 60.3096C496.865 60.7029 496.975 61.1496 496.975 61.6496ZM496.035 61.4596C496.035 61.1129 495.958 60.8163 495.805 60.5696C495.652 60.3163 495.442 60.1263 495.175 59.9996C494.915 59.8663 494.625 59.7996 494.305 59.7996C493.845 59.7996 493.452 59.9463 493.125 60.2396C492.805 60.5329 492.622 60.9396 492.575 61.4596H496.035ZM500.502 61.1096C500.502 60.4296 500.656 59.8196 500.962 59.2796C501.269 58.7329 501.686 58.3063 502.212 57.9996C502.746 57.6929 503.336 57.5396 503.982 57.5396C504.742 57.5396 505.406 57.7229 505.972 58.0896C506.539 58.4563 506.952 58.9763 507.212 59.6496H506.122C505.929 59.2296 505.649 58.9063 505.282 58.6796C504.922 58.4529 504.489 58.3396 503.982 58.3396C503.496 58.3396 503.059 58.4529 502.672 58.6796C502.286 58.9063 501.982 59.2296 501.762 59.6496C501.542 60.0629 501.432 60.5496 501.432 61.1096C501.432 61.6629 501.542 62.1496 501.762 62.5696C501.982 62.9829 502.286 63.3029 502.672 63.5296C503.059 63.7563 503.496 63.8696 503.982 63.8696C504.489 63.8696 504.922 63.7596 505.282 63.5396C505.649 63.3129 505.929 62.9896 506.122 62.5696H507.212C506.952 63.2363 506.539 63.7529 505.972 64.1196C505.406 64.4796 504.742 64.6596 503.982 64.6596C503.336 64.6596 502.746 64.5096 502.212 64.2096C501.686 63.9029 501.269 63.4796 500.962 62.9396C500.656 62.3996 500.502 61.7896 500.502 61.1096ZM509.477 57.1996V64.5996H508.567V57.1996H509.477ZM511.498 58.2296C511.324 58.2296 511.178 58.1696 511.058 58.0496C510.938 57.9296 510.878 57.7829 510.878 57.6096C510.878 57.4363 510.938 57.2896 511.058 57.1696C511.178 57.0496 511.324 56.9896 511.498 56.9896C511.664 56.9896 511.804 57.0496 511.918 57.1696C512.038 57.2896 512.098 57.4363 512.098 57.6096C512.098 57.7829 512.038 57.9296 511.918 58.0496C511.804 58.1696 511.664 58.2296 511.498 58.2296ZM511.938 59.1196V64.5996H511.028V59.1196H511.938ZM513.149 61.8496C513.149 61.2829 513.262 60.7896 513.489 60.3696C513.715 59.9429 514.029 59.6129 514.429 59.3796C514.835 59.1463 515.299 59.0296 515.819 59.0296C516.492 59.0296 517.045 59.1929 517.479 59.5196C517.919 59.8463 518.209 60.2996 518.349 60.8796H517.369C517.275 60.5463 517.092 60.2829 516.819 60.0896C516.552 59.8963 516.219 59.7996 515.819 59.7996C515.299 59.7996 514.879 59.9796 514.559 60.3396C514.239 60.6929 514.079 61.1963 514.079 61.8496C514.079 62.5096 514.239 63.0196 514.559 63.3796C514.879 63.7396 515.299 63.9196 515.819 63.9196C516.219 63.9196 516.552 63.8263 516.819 63.6396C517.085 63.4529 517.269 63.1863 517.369 62.8396H518.349C518.202 63.3996 517.909 63.8496 517.469 64.1896C517.029 64.5229 516.479 64.6896 515.819 64.6896C515.299 64.6896 514.835 64.5729 514.429 64.3396C514.029 64.1063 513.715 63.7763 513.489 63.3496C513.262 62.9229 513.149 62.4229 513.149 61.8496ZM522.623 64.5996L520.473 62.1796V64.5996H519.563V57.1996H520.473V61.5496L522.583 59.1196H523.853L521.273 61.8496L523.863 64.5996H522.623ZM527.035 61.8396C527.035 61.2796 527.149 60.7896 527.375 60.3696C527.602 59.9429 527.912 59.6129 528.305 59.3796C528.705 59.1463 529.149 59.0296 529.635 59.0296C530.115 59.0296 530.532 59.1329 530.885 59.3396C531.239 59.5463 531.502 59.8063 531.675 60.1196V59.1196H532.595V64.5996H531.675V63.5796C531.495 63.8996 531.225 64.1663 530.865 64.3796C530.512 64.5863 530.099 64.6896 529.625 64.6896C529.139 64.6896 528.699 64.5696 528.305 64.3296C527.912 64.0896 527.602 63.7529 527.375 63.3196C527.149 62.8863 527.035 62.3929 527.035 61.8396ZM531.675 61.8496C531.675 61.4363 531.592 61.0763 531.425 60.7696C531.259 60.4629 531.032 60.2296 530.745 60.0696C530.465 59.9029 530.155 59.8196 529.815 59.8196C529.475 59.8196 529.165 59.8996 528.885 60.0596C528.605 60.2196 528.382 60.4529 528.215 60.7596C528.049 61.0663 527.965 61.4263 527.965 61.8396C527.965 62.2596 528.049 62.6263 528.215 62.9396C528.382 63.2463 528.605 63.4829 528.885 63.6496C529.165 63.8096 529.475 63.8896 529.815 63.8896C530.155 63.8896 530.465 63.8096 530.745 63.6496C531.032 63.4829 531.259 63.2463 531.425 62.9396C531.592 62.6263 531.675 62.2629 531.675 61.8496ZM536.803 59.0196C537.47 59.0196 538.01 59.2229 538.423 59.6296C538.837 60.0296 539.043 60.6096 539.043 61.3696V64.5996H538.143V61.4996C538.143 60.9529 538.007 60.5363 537.733 60.2496C537.46 59.9563 537.087 59.8096 536.613 59.8096C536.133 59.8096 535.75 59.9596 535.463 60.2596C535.183 60.5596 535.043 60.9963 535.043 61.5696V64.5996H534.133V59.1196H535.043V59.8996C535.223 59.6196 535.467 59.4029 535.773 59.2496C536.087 59.0963 536.43 59.0196 536.803 59.0196ZM540.19 61.8396C540.19 61.2796 540.303 60.7896 540.53 60.3696C540.756 59.9429 541.066 59.6129 541.46 59.3796C541.86 59.1463 542.306 59.0296 542.8 59.0296C543.226 59.0296 543.623 59.1296 543.99 59.3296C544.356 59.5229 544.636 59.7796 544.83 60.0996V57.1996H545.75V64.5996H544.83V63.5696C544.65 63.8963 544.383 64.1663 544.03 64.3796C543.676 64.5863 543.263 64.6896 542.79 64.6896C542.303 64.6896 541.86 64.5696 541.46 64.3296C541.066 64.0896 540.756 63.7529 540.53 63.3196C540.303 62.8863 540.19 62.3929 540.19 61.8396ZM544.83 61.8496C544.83 61.4363 544.746 61.0763 544.58 60.7696C544.413 60.4629 544.186 60.2296 543.9 60.0696C543.62 59.9029 543.31 59.8196 542.97 59.8196C542.63 59.8196 542.32 59.8996 542.04 60.0596C541.76 60.2196 541.536 60.4529 541.37 60.7596C541.203 61.0663 541.12 61.4263 541.12 61.8396C541.12 62.2596 541.203 62.6263 541.37 62.9396C541.536 63.2463 541.76 63.4829 542.04 63.6496C542.32 63.8096 542.63 63.8896 542.97 63.8896C543.31 63.8896 543.62 63.8096 543.9 63.6496C544.186 63.4829 544.413 63.2463 544.58 62.9396C544.746 62.6263 544.83 62.2629 544.83 61.8496ZM552.124 57.6296C552.884 57.6296 553.54 57.7729 554.094 58.0596C554.654 58.3396 555.08 58.7429 555.374 59.2696C555.674 59.7963 555.824 60.4163 555.824 61.1296C555.824 61.8429 555.674 62.4629 555.374 62.9896C555.08 63.5096 554.654 63.9096 554.094 64.1896C553.54 64.4629 552.884 64.5996 552.124 64.5996H549.954V57.6296H552.124ZM552.124 63.8496C553.024 63.8496 553.71 63.6129 554.184 63.1396C554.657 62.6596 554.894 61.9896 554.894 61.1296C554.894 60.2629 554.654 59.5863 554.174 59.0996C553.7 58.6129 553.017 58.3696 552.124 58.3696H550.864V63.8496H552.124ZM557.934 60.0096C558.094 59.6963 558.321 59.4529 558.614 59.2796C558.914 59.1063 559.277 59.0196 559.704 59.0196V59.9596H559.464C558.444 59.9596 557.934 60.5129 557.934 61.6196V64.5996H557.024V59.1196H557.934V60.0096ZM560.414 61.8396C560.414 61.2796 560.528 60.7896 560.754 60.3696C560.981 59.9429 561.291 59.6129 561.684 59.3796C562.084 59.1463 562.528 59.0296 563.014 59.0296C563.494 59.0296 563.911 59.1329 564.264 59.3396C564.618 59.5463 564.881 59.8063 565.054 60.1196V59.1196H565.974V64.5996H565.054V63.5796C564.874 63.8996 564.604 64.1663 564.244 64.3796C563.891 64.5863 563.478 64.6896 563.004 64.6896C562.518 64.6896 562.078 64.5696 561.684 64.3296C561.291 64.0896 560.981 63.7529 560.754 63.3196C560.528 62.8863 560.414 62.3929 560.414 61.8396ZM565.054 61.8496C565.054 61.4363 564.971 61.0763 564.804 60.7696C564.638 60.4629 564.411 60.2296 564.124 60.0696C563.844 59.9029 563.534 59.8196 563.194 59.8196C562.854 59.8196 562.544 59.8996 562.264 60.0596C561.984 60.2196 561.761 60.4529 561.594 60.7596C561.428 61.0663 561.344 61.4263 561.344 61.8396C561.344 62.2596 561.428 62.6263 561.594 62.9396C561.761 63.2463 561.984 63.4829 562.264 63.6496C562.544 63.8096 562.854 63.8896 563.194 63.8896C563.534 63.8896 563.844 63.8096 564.124 63.6496C564.411 63.4829 564.638 63.2463 564.804 62.9396C564.971 62.6263 565.054 62.2629 565.054 61.8496ZM569.772 59.0296C570.246 59.0296 570.659 59.1329 571.012 59.3396C571.372 59.5463 571.639 59.8063 571.812 60.1196V59.1196H572.732V64.7196C572.732 65.2196 572.626 65.6629 572.412 66.0496C572.199 66.4429 571.892 66.7496 571.492 66.9696C571.099 67.1896 570.639 67.2996 570.112 67.2996C569.392 67.2996 568.792 67.1296 568.312 66.7896C567.832 66.4496 567.549 65.9863 567.462 65.3996H568.362C568.462 65.7329 568.669 65.9996 568.982 66.1996C569.296 66.4063 569.672 66.5096 570.112 66.5096C570.612 66.5096 571.019 66.3529 571.332 66.0396C571.652 65.7263 571.812 65.2863 571.812 64.7196V63.5696C571.632 63.8896 571.366 64.1563 571.012 64.3696C570.659 64.5829 570.246 64.6896 569.772 64.6896C569.286 64.6896 568.842 64.5696 568.442 64.3296C568.049 64.0896 567.739 63.7529 567.512 63.3196C567.286 62.8863 567.172 62.3929 567.172 61.8396C567.172 61.2796 567.286 60.7896 567.512 60.3696C567.739 59.9429 568.049 59.6129 568.442 59.3796C568.842 59.1463 569.286 59.0296 569.772 59.0296ZM571.812 61.8496C571.812 61.4363 571.729 61.0763 571.562 60.7696C571.396 60.4629 571.169 60.2296 570.882 60.0696C570.602 59.9029 570.292 59.8196 569.952 59.8196C569.612 59.8196 569.302 59.8996 569.022 60.0596C568.742 60.2196 568.519 60.4529 568.352 60.7596C568.186 61.0663 568.102 61.4263 568.102 61.8396C568.102 62.2596 568.186 62.6263 568.352 62.9396C568.519 63.2463 568.742 63.4829 569.022 63.6496C569.302 63.8096 569.612 63.8896 569.952 63.8896C570.292 63.8896 570.602 63.8096 570.882 63.6496C571.169 63.4829 571.396 63.2463 571.562 62.9396C571.729 62.6263 571.812 62.2629 571.812 61.8496Z" fill="#2E3134"/>
<path d="M4.758 139.27H10.647V142H0.975V139.465L6.825 131.041H0.975V128.311H10.647V130.846L4.758 139.27ZM18.0782 142.156C17.0122 142.156 16.0502 141.929 15.1922 141.473C14.3472 141.018 13.6777 140.368 13.1837 139.523C12.7027 138.678 12.4622 137.69 12.4622 136.559C12.4622 135.441 12.7092 134.46 13.2032 133.615C13.6972 132.757 14.3732 132.1 15.2312 131.645C16.0892 131.19 17.0512 130.963 18.1172 130.963C19.1832 130.963 20.1452 131.19 21.0032 131.645C21.8612 132.1 22.5372 132.757 23.0312 133.615C23.5252 134.46 23.7722 135.441 23.7722 136.559C23.7722 137.677 23.5187 138.665 23.0117 139.523C22.5177 140.368 21.8352 141.018 20.9642 141.473C20.1062 141.929 19.1442 142.156 18.0782 142.156ZM18.0782 139.27C18.7152 139.27 19.2547 139.036 19.6967 138.568C20.1517 138.1 20.3792 137.43 20.3792 136.559C20.3792 135.688 20.1582 135.019 19.7162 134.551C19.2872 134.083 18.7542 133.849 18.1172 133.849C17.4672 133.849 16.9277 134.083 16.4987 134.551C16.0697 135.006 15.8552 135.675 15.8552 136.559C15.8552 137.43 16.0632 138.1 16.4792 138.568C16.9082 139.036 17.4412 139.27 18.0782 139.27ZM30.7942 142.156C29.7282 142.156 28.7662 141.929 27.9082 141.473C27.0632 141.018 26.3937 140.368 25.8997 139.523C25.4187 138.678 25.1782 137.69 25.1782 136.559C25.1782 135.441 25.4252 134.46 25.9192 133.615C26.4132 132.757 27.0892 132.1 27.9472 131.645C28.8052 131.19 29.7672 130.963 30.8332 130.963C31.8992 130.963 32.8612 131.19 33.7192 131.645C34.5772 132.1 35.2532 132.757 35.7472 133.615C36.2412 134.46 36.4882 135.441 36.4882 136.559C36.4882 137.677 36.2347 138.665 35.7277 139.523C35.2337 140.368 34.5512 141.018 33.6802 141.473C32.8222 141.929 31.8602 142.156 30.7942 142.156ZM30.7942 139.27C31.4312 139.27 31.9707 139.036 32.4127 138.568C32.8677 138.1 33.0952 137.43 33.0952 136.559C33.0952 135.688 32.8742 135.019 32.4322 134.551C32.0032 134.083 31.4702 133.849 30.8332 133.849C30.1832 133.849 29.6437 134.083 29.2147 134.551C28.7857 135.006 28.5712 135.675 28.5712 136.559C28.5712 137.43 28.7792 138.1 29.1952 138.568C29.6242 139.036 30.1572 139.27 30.7942 139.27ZM52.4412 131.002C53.7932 131.002 54.8657 131.411 55.6587 132.23C56.4647 133.049 56.8677 134.187 56.8677 135.643V142H53.5527V136.091C53.5527 135.389 53.3642 134.85 52.9872 134.473C52.6232 134.083 52.1162 133.888 51.4662 133.888C50.8162 133.888 50.3027 134.083 49.9257 134.473C49.5617 134.85 49.3797 135.389 49.3797 136.091V142H46.0647V136.091C46.0647 135.389 45.8762 134.85 45.4992 134.473C45.1352 134.083 44.6282 133.888 43.9782 133.888C43.3282 133.888 42.8147 134.083 42.4377 134.473C42.0737 134.85 41.8917 135.389 41.8917 136.091V142H38.5572V131.119H41.8917V132.484C42.2297 132.029 42.6717 131.671 43.2177 131.411C43.7637 131.138 44.3812 131.002 45.0702 131.002C45.8892 131.002 46.6172 131.177 47.2542 131.528C47.9042 131.879 48.4112 132.38 48.7752 133.03C49.1522 132.432 49.6657 131.944 50.3157 131.567C50.9657 131.19 51.6742 131.002 52.4412 131.002ZM7.84 150.08V157H6.93V151.84L4.63 157H3.99L1.68 151.83V157H0.77V150.08H1.75L4.31 155.8L6.87 150.08H7.84ZM11.7733 157.09C11.2599 157.09 10.7933 156.973 10.3733 156.74C9.95995 156.507 9.63328 156.177 9.39328 155.75C9.15995 155.317 9.04328 154.817 9.04328 154.25C9.04328 153.69 9.16328 153.197 9.40328 152.77C9.64995 152.337 9.98328 152.007 10.4033 151.78C10.8233 151.547 11.2933 151.43 11.8133 151.43C12.3333 151.43 12.8033 151.547 13.2233 151.78C13.6433 152.007 13.9733 152.333 14.2133 152.76C14.4599 153.187 14.5833 153.683 14.5833 154.25C14.5833 154.817 14.4566 155.317 14.2033 155.75C13.9566 156.177 13.6199 156.507 13.1933 156.74C12.7666 156.973 12.2933 157.09 11.7733 157.09ZM11.7733 156.29C12.0999 156.29 12.4066 156.213 12.6933 156.06C12.9799 155.907 13.2099 155.677 13.3833 155.37C13.5633 155.063 13.6533 154.69 13.6533 154.25C13.6533 153.81 13.5666 153.437 13.3933 153.13C13.2199 152.823 12.9933 152.597 12.7133 152.45C12.4333 152.297 12.1299 152.22 11.8033 152.22C11.4699 152.22 11.1633 152.297 10.8833 152.45C10.6099 152.597 10.3899 152.823 10.2233 153.13C10.0566 153.437 9.97328 153.81 9.97328 154.25C9.97328 154.697 10.0533 155.073 10.2133 155.38C10.3799 155.687 10.5999 155.917 10.8733 156.07C11.1466 156.217 11.4466 156.29 11.7733 156.29ZM20.6398 151.52V157H19.7298V156.19C19.5564 156.47 19.3131 156.69 18.9998 156.85C18.6931 157.003 18.3531 157.08 17.9798 157.08C17.5531 157.08 17.1698 156.993 16.8298 156.82C16.4898 156.64 16.2198 156.373 16.0198 156.02C15.8264 155.667 15.7298 155.237 15.7298 154.73V151.52H16.6298V154.61C16.6298 155.15 16.7664 155.567 17.0398 155.86C17.3131 156.147 17.6864 156.29 18.1598 156.29C18.6464 156.29 19.0298 156.14 19.3098 155.84C19.5898 155.54 19.7298 155.103 19.7298 154.53V151.52H20.6398ZM24.1163 157.09C23.6963 157.09 23.3196 157.02 22.9863 156.88C22.6529 156.733 22.3896 156.533 22.1963 156.28C22.0029 156.02 21.8963 155.723 21.8763 155.39H22.8163C22.8429 155.663 22.9696 155.887 23.1963 156.06C23.4296 156.233 23.7329 156.32 24.1063 156.32C24.4529 156.32 24.7263 156.243 24.9263 156.09C25.1263 155.937 25.2263 155.743 25.2263 155.51C25.2263 155.27 25.1196 155.093 24.9063 154.98C24.6929 154.86 24.3629 154.743 23.9163 154.63C23.5096 154.523 23.1763 154.417 22.9163 154.31C22.6629 154.197 22.4429 154.033 22.2563 153.82C22.0763 153.6 21.9863 153.313 21.9863 152.96C21.9863 152.68 22.0696 152.423 22.2363 152.19C22.4029 151.957 22.6396 151.773 22.9463 151.64C23.2529 151.5 23.6029 151.43 23.9963 151.43C24.6029 151.43 25.0929 151.583 25.4663 151.89C25.8396 152.197 26.0396 152.617 26.0663 153.15H25.1563C25.1363 152.863 25.0196 152.633 24.8063 152.46C24.5996 152.287 24.3196 152.2 23.9663 152.2C23.6396 152.2 23.3796 152.27 23.1863 152.41C22.9929 152.55 22.8963 152.733 22.8963 152.96C22.8963 153.14 22.9529 153.29 23.0663 153.41C23.1863 153.523 23.3329 153.617 23.5063 153.69C23.6863 153.757 23.9329 153.833 24.2463 153.92C24.6396 154.027 24.9596 154.133 25.2063 154.24C25.4529 154.34 25.6629 154.493 25.8363 154.7C26.0163 154.907 26.1096 155.177 26.1163 155.51C26.1163 155.81 26.0329 156.08 25.8663 156.32C25.6996 156.56 25.4629 156.75 25.1563 156.89C24.8563 157.023 24.5096 157.09 24.1163 157.09ZM32.4009 154.05C32.4009 154.223 32.3909 154.407 32.3709 154.6H27.9909C28.0242 155.14 28.2075 155.563 28.5409 155.87C28.8809 156.17 29.2909 156.32 29.7709 156.32C30.1642 156.32 30.4909 156.23 30.7509 156.05C31.0175 155.863 31.2042 155.617 31.3109 155.31H32.2909C32.1442 155.837 31.8509 156.267 31.4109 156.6C30.9709 156.927 30.4242 157.09 29.7709 157.09C29.2509 157.09 28.7842 156.973 28.3709 156.74C27.9642 156.507 27.6442 156.177 27.4109 155.75C27.1775 155.317 27.0609 154.817 27.0609 154.25C27.0609 153.683 27.1742 153.187 27.4009 152.76C27.6275 152.333 27.9442 152.007 28.3509 151.78C28.7642 151.547 29.2375 151.43 29.7709 151.43C30.2909 151.43 30.7509 151.543 31.1509 151.77C31.5509 151.997 31.8575 152.31 32.0709 152.71C32.2909 153.103 32.4009 153.55 32.4009 154.05ZM31.4609 153.86C31.4609 153.513 31.3842 153.217 31.2309 152.97C31.0775 152.717 30.8675 152.527 30.6009 152.4C30.3409 152.267 30.0509 152.2 29.7309 152.2C29.2709 152.2 28.8775 152.347 28.5509 152.64C28.2309 152.933 28.0475 153.34 28.0009 153.86H31.4609ZM45.028 150.03L43.008 157H41.988L40.368 151.39L38.688 157L37.678 157.01L35.728 150.03H36.698L38.218 155.94L39.898 150.03H40.918L42.518 155.92L44.048 150.03H45.028ZM48.7439 151.42C49.1572 151.42 49.5306 151.51 49.8639 151.69C50.1972 151.863 50.4572 152.127 50.6439 152.48C50.8372 152.833 50.9339 153.263 50.9339 153.77V157H50.0339V153.9C50.0339 153.353 49.8972 152.937 49.6239 152.65C49.3506 152.357 48.9772 152.21 48.5039 152.21C48.0239 152.21 47.6406 152.36 47.3539 152.66C47.0739 152.96 46.9339 153.397 46.9339 153.97V157H46.0239V149.6H46.9339V152.3C47.1139 152.02 47.3606 151.803 47.6739 151.65C47.9939 151.497 48.3506 151.42 48.7439 151.42ZM57.4204 154.05C57.4204 154.223 57.4104 154.407 57.3904 154.6H53.0104C53.0437 155.14 53.2271 155.563 53.5604 155.87C53.9004 156.17 54.3104 156.32 54.7904 156.32C55.1837 156.32 55.5104 156.23 55.7704 156.05C56.0371 155.863 56.2237 155.617 56.3304 155.31H57.3104C57.1637 155.837 56.8704 156.267 56.4304 156.6C55.9904 156.927 55.4437 157.09 54.7904 157.09C54.2704 157.09 53.8037 156.973 53.3904 156.74C52.9837 156.507 52.6637 156.177 52.4304 155.75C52.1971 155.317 52.0804 154.817 52.0804 154.25C52.0804 153.683 52.1937 153.187 52.4204 152.76C52.6471 152.333 52.9637 152.007 53.3704 151.78C53.7837 151.547 54.2571 151.43 54.7904 151.43C55.3104 151.43 55.7704 151.543 56.1704 151.77C56.5704 151.997 56.8771 152.31 57.0904 152.71C57.3104 153.103 57.4204 153.55 57.4204 154.05ZM56.4804 153.86C56.4804 153.513 56.4037 153.217 56.2504 152.97C56.0971 152.717 55.8871 152.527 55.6204 152.4C55.3604 152.267 55.0704 152.2 54.7504 152.2C54.2904 152.2 53.8971 152.347 53.5704 152.64C53.2504 152.933 53.0671 153.34 53.0204 153.86H56.4804ZM63.6216 154.05C63.6216 154.223 63.6116 154.407 63.5916 154.6H59.2116C59.2449 155.14 59.4282 155.563 59.7616 155.87C60.1016 156.17 60.5116 156.32 60.9916 156.32C61.3849 156.32 61.7116 156.23 61.9716 156.05C62.2382 155.863 62.4249 155.617 62.5316 155.31H63.5116C63.3649 155.837 63.0716 156.267 62.6316 156.6C62.1916 156.927 61.6449 157.09 60.9916 157.09C60.4716 157.09 60.0049 156.973 59.5916 156.74C59.1849 156.507 58.8649 156.177 58.6316 155.75C58.3982 155.317 58.2816 154.817 58.2816 154.25C58.2816 153.683 58.3949 153.187 58.6216 152.76C58.8482 152.333 59.1649 152.007 59.5716 151.78C59.9849 151.547 60.4582 151.43 60.9916 151.43C61.5116 151.43 61.9716 151.543 62.3716 151.77C62.7716 151.997 63.0782 152.31 63.2916 152.71C63.5116 153.103 63.6216 153.55 63.6216 154.05ZM62.6816 153.86C62.6816 153.513 62.6049 153.217 62.4516 152.97C62.2982 152.717 62.0882 152.527 61.8216 152.4C61.5616 152.267 61.2716 152.2 60.9516 152.2C60.4916 152.2 60.0982 152.347 59.7716 152.64C59.4516 152.933 59.2682 153.34 59.2216 153.86H62.6816ZM65.7327 149.6V157H64.8227V149.6H65.7327ZM74.8097 151.52V157H73.8997V156.19C73.7264 156.47 73.483 156.69 73.1697 156.85C72.863 157.003 72.523 157.08 72.1497 157.08C71.723 157.08 71.3397 156.993 70.9997 156.82C70.6597 156.64 70.3897 156.373 70.1897 156.02C69.9964 155.667 69.8997 155.237 69.8997 154.73V151.52H70.7997V154.61C70.7997 155.15 70.9364 155.567 71.2097 155.86C71.483 156.147 71.8564 156.29 72.3297 156.29C72.8164 156.29 73.1997 156.14 73.4797 155.84C73.7597 155.54 73.8997 155.103 73.8997 154.53V151.52H74.8097ZM77.2562 152.53C77.4362 152.217 77.7028 151.957 78.0562 151.75C78.4162 151.537 78.8328 151.43 79.3062 151.43C79.7928 151.43 80.2328 151.547 80.6262 151.78C81.0262 152.013 81.3395 152.343 81.5662 152.77C81.7928 153.19 81.9062 153.68 81.9062 154.24C81.9062 154.793 81.7928 155.287 81.5662 155.72C81.3395 156.153 81.0262 156.49 80.6262 156.73C80.2328 156.97 79.7928 157.09 79.3062 157.09C78.8395 157.09 78.4262 156.987 78.0662 156.78C77.7128 156.567 77.4428 156.303 77.2562 155.99V159.6H76.3462V151.52H77.2562V152.53ZM80.9762 154.24C80.9762 153.827 80.8928 153.467 80.7262 153.16C80.5595 152.853 80.3328 152.62 80.0462 152.46C79.7662 152.3 79.4562 152.22 79.1162 152.22C78.7828 152.22 78.4728 152.303 78.1862 152.47C77.9062 152.63 77.6795 152.867 77.5062 153.18C77.3395 153.487 77.2562 153.843 77.2562 154.25C77.2562 154.663 77.3395 155.027 77.5062 155.34C77.6795 155.647 77.9062 155.883 78.1862 156.05C78.4728 156.21 78.7828 156.29 79.1162 156.29C79.4562 156.29 79.7662 156.21 80.0462 156.05C80.3328 155.883 80.5595 155.647 80.7262 155.34C80.8928 155.027 80.9762 154.66 80.9762 154.24ZM86.504 147.58L83.764 158.7H82.864L85.594 147.58H86.504ZM87.5198 154.24C87.5198 153.68 87.6332 153.19 87.8598 152.77C88.0865 152.343 88.3965 152.013 88.7898 151.78C89.1898 151.547 89.6365 151.43 90.1298 151.43C90.5565 151.43 90.9532 151.53 91.3198 151.73C91.6865 151.923 91.9665 152.18 92.1598 152.5V149.6H93.0798V157H92.1598V155.97C91.9798 156.297 91.7132 156.567 91.3598 156.78C91.0065 156.987 90.5932 157.09 90.1198 157.09C89.6332 157.09 89.1898 156.97 88.7898 156.73C88.3965 156.49 88.0865 156.153 87.8598 155.72C87.6332 155.287 87.5198 154.793 87.5198 154.24ZM92.1598 154.25C92.1598 153.837 92.0765 153.477 91.9098 153.17C91.7432 152.863 91.5165 152.63 91.2298 152.47C90.9498 152.303 90.6398 152.22 90.2998 152.22C89.9598 152.22 89.6498 152.3 89.3698 152.46C89.0898 152.62 88.8665 152.853 88.6998 153.16C88.5332 153.467 88.4498 153.827 88.4498 154.24C88.4498 154.66 88.5332 155.027 88.6998 155.34C88.8665 155.647 89.0898 155.883 89.3698 156.05C89.6498 156.21 89.9598 156.29 90.2998 156.29C90.6398 156.29 90.9498 156.21 91.2298 156.05C91.5165 155.883 91.7432 155.647 91.9098 155.34C92.0765 155.027 92.1598 154.663 92.1598 154.25ZM97.0077 157.09C96.4943 157.09 96.0277 156.973 95.6077 156.74C95.1943 156.507 94.8677 156.177 94.6277 155.75C94.3943 155.317 94.2777 154.817 94.2777 154.25C94.2777 153.69 94.3977 153.197 94.6377 152.77C94.8843 152.337 95.2177 152.007 95.6377 151.78C96.0577 151.547 96.5277 151.43 97.0477 151.43C97.5677 151.43 98.0377 151.547 98.4577 151.78C98.8777 152.007 99.2077 152.333 99.4477 152.76C99.6943 153.187 99.8177 153.683 99.8177 154.25C99.8177 154.817 99.691 155.317 99.4377 155.75C99.191 156.177 98.8543 156.507 98.4277 156.74C98.001 156.973 97.5277 157.09 97.0077 157.09ZM97.0077 156.29C97.3343 156.29 97.641 156.213 97.9277 156.06C98.2143 155.907 98.4443 155.677 98.6177 155.37C98.7977 155.063 98.8877 154.69 98.8877 154.25C98.8877 153.81 98.801 153.437 98.6277 153.13C98.4543 152.823 98.2277 152.597 97.9477 152.45C97.6677 152.297 97.3643 152.22 97.0377 152.22C96.7043 152.22 96.3977 152.297 96.1177 152.45C95.8443 152.597 95.6243 152.823 95.4577 153.13C95.291 153.437 95.2077 153.81 95.2077 154.25C95.2077 154.697 95.2877 155.073 95.4477 155.38C95.6143 155.687 95.8343 155.917 96.1077 156.07C96.381 156.217 96.681 156.29 97.0077 156.29ZM108.314 151.52L106.604 157H105.664L104.344 152.65L103.024 157H102.084L100.364 151.52H101.294L102.554 156.12L103.914 151.52H104.844L106.174 156.13L107.414 151.52H108.314ZM111.887 151.42C112.554 151.42 113.094 151.623 113.507 152.03C113.921 152.43 114.127 153.01 114.127 153.77V157H113.227V153.9C113.227 153.353 113.091 152.937 112.817 152.65C112.544 152.357 112.171 152.21 111.697 152.21C111.217 152.21 110.834 152.36 110.547 152.66C110.267 152.96 110.127 153.397 110.127 153.97V157H109.217V151.52H110.127V152.3C110.307 152.02 110.551 151.803 110.857 151.65C111.171 151.497 111.514 151.42 111.887 151.42Z" fill="#2E3134"/>
<path d="M17.7115 21.311V35H14.377V26.7905L11.3155 35H8.6245L5.5435 26.771V35H2.209V21.311H6.148L9.9895 30.788L13.792 21.311H17.7115ZM25.3624 35.156C24.2964 35.156 23.3344 34.9285 22.4764 34.4735C21.6314 34.0185 20.9619 33.3685 20.4679 32.5235C19.9869 31.6785 19.7464 30.6905 19.7464 29.5595C19.7464 28.4415 19.9934 27.46 20.4874 26.615C20.9814 25.757 21.6574 25.1005 22.5154 24.6455C23.3734 24.1905 24.3354 23.963 25.4014 23.963C26.4674 23.963 27.4294 24.1905 28.2874 24.6455C29.1454 25.1005 29.8214 25.757 30.3154 26.615C30.8094 27.46 31.0564 28.4415 31.0564 29.5595C31.0564 30.6775 30.8029 31.6655 30.2959 32.5235C29.8019 33.3685 29.1194 34.0185 28.2484 34.4735C27.3904 34.9285 26.4284 35.156 25.3624 35.156ZM25.3624 32.27C25.9994 32.27 26.5389 32.036 26.9809 31.568C27.4359 31.1 27.6634 30.4305 27.6634 29.5595C27.6634 28.6885 27.4424 28.019 27.0004 27.551C26.5714 27.083 26.0384 26.849 25.4014 26.849C24.7514 26.849 24.2119 27.083 23.7829 27.551C23.3539 28.006 23.1394 28.6755 23.1394 29.5595C23.1394 30.4305 23.3474 31.1 23.7634 31.568C24.1924 32.036 24.7254 32.27 25.3624 32.27ZM38.0199 31.88L40.3794 24.119H43.9284L40.0674 35H35.9529L32.0919 24.119H35.6604L38.0199 31.88ZM55.889 29.384C55.889 29.696 55.8695 30.021 55.8305 30.359H48.284C48.336 31.035 48.5505 31.555 48.9275 31.919C49.3175 32.27 49.792 32.4455 50.351 32.4455C51.183 32.4455 51.7615 32.0945 52.0865 31.3925H55.6355C55.4535 32.1075 55.122 32.751 54.641 33.323C54.173 33.895 53.5815 34.3435 52.8665 34.6685C52.1515 34.9935 51.352 35.156 50.468 35.156C49.402 35.156 48.453 34.9285 47.621 34.4735C46.789 34.0185 46.139 33.3685 45.671 32.5235C45.203 31.6785 44.969 30.6905 44.969 29.5595C44.969 28.4285 45.1965 27.4405 45.6515 26.5955C46.1195 25.7505 46.7695 25.1005 47.6015 24.6455C48.4335 24.1905 49.389 23.963 50.468 23.963C51.521 23.963 52.457 24.184 53.276 24.626C54.095 25.068 54.732 25.6985 55.187 26.5175C55.655 27.3365 55.889 28.292 55.889 29.384ZM52.4765 28.5065C52.4765 27.9345 52.2815 27.4795 51.8915 27.1415C51.5015 26.8035 51.014 26.6345 50.429 26.6345C49.87 26.6345 49.3955 26.797 49.0055 27.122C48.6285 27.447 48.3945 27.9085 48.3035 28.5065H52.4765ZM3.98 50.07C3.52 50.07 3.10667 49.99 2.74 49.83C2.38 49.6633 2.09667 49.4367 1.89 49.15C1.68333 48.8567 1.57667 48.52 1.57 48.14H2.54C2.57333 48.4667 2.70667 48.7433 2.94 48.97C3.18 49.19 3.52667 49.3 3.98 49.3C4.41333 49.3 4.75333 49.1933 5 48.98C5.25333 48.76 5.38 48.48 5.38 48.14C5.38 47.8733 5.30667 47.6567 5.16 47.49C5.01333 47.3233 4.83 47.1967 4.61 47.11C4.39 47.0233 4.09333 46.93 3.72 46.83C3.26 46.71 2.89 46.59 2.61 46.47C2.33667 46.35 2.1 46.1633 1.9 45.91C1.70667 45.65 1.61 45.3033 1.61 44.87C1.61 44.49 1.70667 44.1533 1.9 43.86C2.09333 43.5667 2.36333 43.34 2.71 43.18C3.06333 43.02 3.46667 42.94 3.92 42.94C4.57333 42.94 5.10667 43.1033 5.52 43.43C5.94 43.7567 6.17667 44.19 6.23 44.73H5.23C5.19667 44.4633 5.05667 44.23 4.81 44.03C4.56333 43.8233 4.23667 43.72 3.83 43.72C3.45 43.72 3.14 43.82 2.9 44.02C2.66 44.2133 2.54 44.4867 2.54 44.84C2.54 45.0933 2.61 45.3 2.75 45.46C2.89667 45.62 3.07333 45.7433 3.28 45.83C3.49333 45.91 3.79 46.0033 4.17 46.11C4.63 46.2367 5 46.3633 5.28 46.49C5.56 46.61 5.8 46.8 6 47.06C6.2 47.3133 6.3 47.66 6.3 48.1C6.3 48.44 6.21 48.76 6.03 49.06C5.85 49.36 5.58333 49.6033 5.23 49.79C4.87667 49.9767 4.46 50.07 3.98 50.07ZM10.3591 44.42C10.7725 44.42 11.1458 44.51 11.4791 44.69C11.8125 44.8633 12.0725 45.1267 12.2591 45.48C12.4525 45.8333 12.5491 46.2633 12.5491 46.77V50H11.6491V46.9C11.6491 46.3533 11.5125 45.9367 11.2391 45.65C10.9658 45.3567 10.5925 45.21 10.1191 45.21C9.63914 45.21 9.25581 45.36 8.96914 45.66C8.68914 45.96 8.54914 46.3967 8.54914 46.97V50H7.63914V42.6H8.54914V45.3C8.72914 45.02 8.97581 44.8033 9.28914 44.65C9.60914 44.4967 9.96581 44.42 10.3591 44.42ZM14.5056 43.63C14.3323 43.63 14.1856 43.57 14.0656 43.45C13.9456 43.33 13.8856 43.1833 13.8856 43.01C13.8856 42.8367 13.9456 42.69 14.0656 42.57C14.1856 42.45 14.3323 42.39 14.5056 42.39C14.6723 42.39 14.8123 42.45 14.9256 42.57C15.0456 42.69 15.1056 42.8367 15.1056 43.01C15.1056 43.1833 15.0456 43.33 14.9256 43.45C14.8123 43.57 14.6723 43.63 14.5056 43.63ZM14.9456 44.52V50H14.0356V44.52H14.9456ZM18.7266 45.27H17.5766V50H16.6666V45.27H15.9566V44.52H16.6666V44.13C16.6666 43.5167 16.8232 43.07 17.1366 42.79C17.4566 42.5033 17.9666 42.36 18.6666 42.36V43.12C18.2666 43.12 17.9832 43.2 17.8166 43.36C17.6566 43.5133 17.5766 43.77 17.5766 44.13V44.52H18.7266V45.27ZM20.8976 45.27V48.5C20.8976 48.7667 20.9542 48.9567 21.0676 49.07C21.1809 49.1767 21.3776 49.23 21.6576 49.23H22.3276V50H21.5076C21.0009 50 20.6209 49.8833 20.3676 49.65C20.1142 49.4167 19.9876 49.0333 19.9876 48.5V45.27H19.2776V44.52H19.9876V43.14H20.8976V44.52H22.3276V45.27H20.8976ZM31.2962 46.73H29.1662V48.89H28.3162V46.73H26.1962V45.96H28.3162V43.79H29.1662V45.96H31.2962V46.73ZM39.2584 50L37.5984 47.15H36.4984V50H35.5884V43.03H37.8384C38.365 43.03 38.8084 43.12 39.1684 43.3C39.535 43.48 39.8084 43.7233 39.9884 44.03C40.1684 44.3367 40.2584 44.6867 40.2584 45.08C40.2584 45.56 40.1184 45.9833 39.8384 46.35C39.565 46.7167 39.1517 46.96 38.5984 47.08L40.3484 50H39.2584ZM36.4984 46.42H37.8384C38.3317 46.42 38.7017 46.3 38.9484 46.06C39.195 45.8133 39.3184 45.4867 39.3184 45.08C39.3184 44.6667 39.195 44.3467 38.9484 44.12C38.7084 43.8933 38.3384 43.78 37.8384 43.78H36.4984V46.42ZM42.1423 43.63C41.969 43.63 41.8223 43.57 41.7023 43.45C41.5823 43.33 41.5223 43.1833 41.5223 43.01C41.5223 42.8367 41.5823 42.69 41.7023 42.57C41.8223 42.45 41.969 42.39 42.1423 42.39C42.309 42.39 42.449 42.45 42.5623 42.57C42.6823 42.69 42.7423 42.8367 42.7423 43.01C42.7423 43.1833 42.6823 43.33 42.5623 43.45C42.449 43.57 42.309 43.63 42.1423 43.63ZM42.5823 44.52V50H41.6723V44.52H42.5823ZM46.3933 44.43C46.8666 44.43 47.2799 44.5333 47.6333 44.74C47.9933 44.9467 48.2599 45.2067 48.4333 45.52V44.52H49.3533V50.12C49.3533 50.62 49.2466 51.0633 49.0333 51.45C48.8199 51.8433 48.5133 52.15 48.1133 52.37C47.7199 52.59 47.2599 52.7 46.7333 52.7C46.0133 52.7 45.4133 52.53 44.9333 52.19C44.4533 51.85 44.1699 51.3867 44.0833 50.8H44.9833C45.0833 51.1333 45.2899 51.4 45.6033 51.6C45.9166 51.8067 46.2933 51.91 46.7333 51.91C47.2333 51.91 47.6399 51.7533 47.9533 51.44C48.2733 51.1267 48.4333 50.6867 48.4333 50.12V48.97C48.2533 49.29 47.9866 49.5567 47.6333 49.77C47.2799 49.9833 46.8666 50.09 46.3933 50.09C45.9066 50.09 45.4633 49.97 45.0633 49.73C44.6699 49.49 44.3599 49.1533 44.1333 48.72C43.9066 48.2867 43.7933 47.7933 43.7933 47.24C43.7933 46.68 43.9066 46.19 44.1333 45.77C44.3599 45.3433 44.6699 45.0133 45.0633 44.78C45.4633 44.5467 45.9066 44.43 46.3933 44.43ZM48.4333 47.25C48.4333 46.8367 48.3499 46.4767 48.1833 46.17C48.0166 45.8633 47.7899 45.63 47.5033 45.47C47.2233 45.3033 46.9133 45.22 46.5733 45.22C46.2333 45.22 45.9233 45.3 45.6433 45.46C45.3633 45.62 45.1399 45.8533 44.9733 46.16C44.8066 46.4667 44.7233 46.8267 44.7233 47.24C44.7233 47.66 44.8066 48.0267 44.9733 48.34C45.1399 48.6467 45.3633 48.8833 45.6433 49.05C45.9233 49.21 46.2333 49.29 46.5733 49.29C46.9133 49.29 47.2233 49.21 47.5033 49.05C47.7899 48.8833 48.0166 48.6467 48.1833 48.34C48.3499 48.0267 48.4333 47.6633 48.4333 47.25ZM53.6111 44.42C54.0244 44.42 54.3978 44.51 54.7311 44.69C55.0644 44.8633 55.3244 45.1267 55.5111 45.48C55.7044 45.8333 55.8011 46.2633 55.8011 46.77V50H54.9011V46.9C54.9011 46.3533 54.7644 45.9367 54.4911 45.65C54.2178 45.3567 53.8444 45.21 53.3711 45.21C52.8911 45.21 52.5078 45.36 52.2211 45.66C51.9411 45.96 51.8011 46.3967 51.8011 46.97V50H50.8911V42.6H51.8011V45.3C51.9811 45.02 52.2278 44.8033 52.5411 44.65C52.8611 44.4967 53.2178 44.42 53.6111 44.42ZM58.3976 45.27V48.5C58.3976 48.7667 58.4542 48.9567 58.5676 49.07C58.6809 49.1767 58.8776 49.23 59.1576 49.23H59.8276V50H59.0076C58.5009 50 58.1209 49.8833 57.8676 49.65C57.6142 49.4167 57.4876 49.0333 57.4876 48.5V45.27H56.7776V44.52H57.4876V43.14H58.3976V44.52H59.8276V45.27H58.3976ZM63.2562 46.51C63.2562 45.83 63.4095 45.22 63.7162 44.68C64.0228 44.1333 64.4395 43.7067 64.9662 43.4C65.4995 43.0933 66.0895 42.94 66.7362 42.94C67.4962 42.94 68.1595 43.1233 68.7262 43.49C69.2928 43.8567 69.7062 44.3767 69.9662 45.05H68.8762C68.6828 44.63 68.4028 44.3067 68.0362 44.08C67.6762 43.8533 67.2428 43.74 66.7362 43.74C66.2495 43.74 65.8128 43.8533 65.4262 44.08C65.0395 44.3067 64.7362 44.63 64.5162 45.05C64.2962 45.4633 64.1862 45.95 64.1862 46.51C64.1862 47.0633 64.2962 47.55 64.5162 47.97C64.7362 48.3833 65.0395 48.7033 65.4262 48.93C65.8128 49.1567 66.2495 49.27 66.7362 49.27C67.2428 49.27 67.6762 49.16 68.0362 48.94C68.4028 48.7133 68.6828 48.39 68.8762 47.97H69.9662C69.7062 48.6367 69.2928 49.1533 68.7262 49.52C68.1595 49.88 67.4962 50.06 66.7362 50.06C66.0895 50.06 65.4995 49.91 64.9662 49.61C64.4395 49.3033 64.0228 48.88 63.7162 48.34C63.4095 47.8 63.2562 47.19 63.2562 46.51ZM72.2308 42.6V50H71.3208V42.6H72.2308ZM74.2517 43.63C74.0784 43.63 73.9317 43.57 73.8117 43.45C73.6917 43.33 73.6317 43.1833 73.6317 43.01C73.6317 42.8367 73.6917 42.69 73.8117 42.57C73.9317 42.45 74.0784 42.39 74.2517 42.39C74.4184 42.39 74.5584 42.45 74.6717 42.57C74.7917 42.69 74.8517 42.8367 74.8517 43.01C74.8517 43.1833 74.7917 43.33 74.6717 43.45C74.5584 43.57 74.4184 43.63 74.2517 43.63ZM74.6917 44.52V50H73.7817V44.52H74.6917ZM75.9027 47.25C75.9027 46.6833 76.016 46.19 76.2427 45.77C76.4693 45.3433 76.7827 45.0133 77.1827 44.78C77.5893 44.5467 78.0527 44.43 78.5727 44.43C79.246 44.43 79.7993 44.5933 80.2327 44.92C80.6727 45.2467 80.9627 45.7 81.1027 46.28H80.1227C80.0293 45.9467 79.846 45.6833 79.5727 45.49C79.306 45.2967 78.9727 45.2 78.5727 45.2C78.0527 45.2 77.6327 45.38 77.3127 45.74C76.9927 46.0933 76.8327 46.5967 76.8327 47.25C76.8327 47.91 76.9927 48.42 77.3127 48.78C77.6327 49.14 78.0527 49.32 78.5727 49.32C78.9727 49.32 79.306 49.2267 79.5727 49.04C79.8393 48.8533 80.0227 48.5867 80.1227 48.24H81.1027C80.956 48.8 80.6627 49.25 80.2227 49.59C79.7827 49.9233 79.2327 50.09 78.5727 50.09C78.0527 50.09 77.5893 49.9733 77.1827 49.74C76.7827 49.5067 76.4693 49.1767 76.2427 48.75C76.016 48.3233 75.9027 47.8233 75.9027 47.25ZM85.3769 50L83.2269 47.58V50H82.3169V42.6H83.2269V46.95L85.3369 44.52H86.6069L84.0269 47.25L86.6169 50H85.3769ZM89.7894 47.24C89.7894 46.68 89.9027 46.19 90.1294 45.77C90.356 45.3433 90.666 45.0133 91.0594 44.78C91.4594 44.5467 91.9027 44.43 92.3894 44.43C92.8694 44.43 93.286 44.5333 93.6394 44.74C93.9927 44.9467 94.256 45.2067 94.4294 45.52V44.52H95.3494V50H94.4294V48.98C94.2494 49.3 93.9794 49.5667 93.6194 49.78C93.266 49.9867 92.8527 50.09 92.3794 50.09C91.8927 50.09 91.4527 49.97 91.0594 49.73C90.666 49.49 90.356 49.1533 90.1294 48.72C89.9027 48.2867 89.7894 47.7933 89.7894 47.24ZM94.4294 47.25C94.4294 46.8367 94.346 46.4767 94.1794 46.17C94.0127 45.8633 93.786 45.63 93.4994 45.47C93.2194 45.3033 92.9094 45.22 92.5694 45.22C92.2294 45.22 91.9194 45.3 91.6394 45.46C91.3594 45.62 91.136 45.8533 90.9694 46.16C90.8027 46.4667 90.7194 46.8267 90.7194 47.24C90.7194 47.66 90.8027 48.0267 90.9694 48.34C91.136 48.6467 91.3594 48.8833 91.6394 49.05C91.9194 49.21 92.2294 49.29 92.5694 49.29C92.9094 49.29 93.2194 49.21 93.4994 49.05C93.786 48.8833 94.0127 48.6467 94.1794 48.34C94.346 48.0267 94.4294 47.6633 94.4294 47.25ZM99.5572 44.42C100.224 44.42 100.764 44.6233 101.177 45.03C101.591 45.43 101.797 46.01 101.797 46.77V50H100.897V46.9C100.897 46.3533 100.761 45.9367 100.487 45.65C100.214 45.3567 99.8405 45.21 99.3672 45.21C98.8872 45.21 98.5039 45.36 98.2172 45.66C97.9372 45.96 97.7972 46.3967 97.7972 46.97V50H96.8872V44.52H97.7972V45.3C97.9772 45.02 98.2205 44.8033 98.5272 44.65C98.8405 44.4967 99.1839 44.42 99.5572 44.42ZM102.944 47.24C102.944 46.68 103.057 46.19 103.284 45.77C103.51 45.3433 103.82 45.0133 104.214 44.78C104.614 44.5467 105.06 44.43 105.554 44.43C105.98 44.43 106.377 44.53 106.744 44.73C107.11 44.9233 107.39 45.18 107.584 45.5V42.6H108.504V50H107.584V48.97C107.404 49.2967 107.137 49.5667 106.784 49.78C106.43 49.9867 106.017 50.09 105.544 50.09C105.057 50.09 104.614 49.97 104.214 49.73C103.82 49.49 103.51 49.1533 103.284 48.72C103.057 48.2867 102.944 47.7933 102.944 47.24ZM107.584 47.25C107.584 46.8367 107.5 46.4767 107.334 46.17C107.167 45.8633 106.94 45.63 106.654 45.47C106.374 45.3033 106.064 45.22 105.724 45.22C105.384 45.22 105.074 45.3 104.794 45.46C104.514 45.62 104.29 45.8533 104.124 46.16C103.957 46.4667 103.874 46.8267 103.874 47.24C103.874 47.66 103.957 48.0267 104.124 48.34C104.29 48.6467 104.514 48.8833 104.794 49.05C105.074 49.21 105.384 49.29 105.724 49.29C106.064 49.29 106.374 49.21 106.654 49.05C106.94 48.8833 107.167 48.6467 107.334 48.34C107.5 48.0267 107.584 47.6633 107.584 47.25ZM114.877 43.03C115.638 43.03 116.294 43.1733 116.848 43.46C117.408 43.74 117.834 44.1433 118.128 44.67C118.428 45.1967 118.578 45.8167 118.578 46.53C118.578 47.2433 118.428 47.8633 118.128 48.39C117.834 48.91 117.408 49.31 116.848 49.59C116.294 49.8633 115.638 50 114.877 50H112.708V43.03H114.877ZM114.877 49.25C115.778 49.25 116.464 49.0133 116.938 48.54C117.411 48.06 117.648 47.39 117.648 46.53C117.648 45.6633 117.408 44.9867 116.928 44.5C116.454 44.0133 115.771 43.77 114.877 43.77H113.618V49.25H114.877ZM120.688 45.41C120.848 45.0967 121.074 44.8533 121.368 44.68C121.668 44.5067 122.031 44.42 122.458 44.42V45.36H122.218C121.198 45.36 120.688 45.9133 120.688 47.02V50H119.778V44.52H120.688V45.41ZM123.168 47.24C123.168 46.68 123.282 46.19 123.508 45.77C123.735 45.3433 124.045 45.0133 124.438 44.78C124.838 44.5467 125.282 44.43 125.768 44.43C126.248 44.43 126.665 44.5333 127.018 44.74C127.372 44.9467 127.635 45.2067 127.808 45.52V44.52H128.728V50H127.808V48.98C127.628 49.3 127.358 49.5667 126.998 49.78C126.645 49.9867 126.232 50.09 125.758 50.09C125.272 50.09 124.832 49.97 124.438 49.73C124.045 49.49 123.735 49.1533 123.508 48.72C123.282 48.2867 123.168 47.7933 123.168 47.24ZM127.808 47.25C127.808 46.8367 127.725 46.4767 127.558 46.17C127.392 45.8633 127.165 45.63 126.878 45.47C126.598 45.3033 126.288 45.22 125.948 45.22C125.608 45.22 125.298 45.3 125.018 45.46C124.738 45.62 124.515 45.8533 124.348 46.16C124.182 46.4667 124.098 46.8267 124.098 47.24C124.098 47.66 124.182 48.0267 124.348 48.34C124.515 48.6467 124.738 48.8833 125.018 49.05C125.298 49.21 125.608 49.29 125.948 49.29C126.288 49.29 126.598 49.21 126.878 49.05C127.165 48.8833 127.392 48.6467 127.558 48.34C127.725 48.0267 127.808 47.6633 127.808 47.25ZM132.526 44.43C132.999 44.43 133.413 44.5333 133.766 44.74C134.126 44.9467 134.393 45.2067 134.566 45.52V44.52H135.486V50.12C135.486 50.62 135.379 51.0633 135.166 51.45C134.953 51.8433 134.646 52.15 134.246 52.37C133.853 52.59 133.393 52.7 132.866 52.7C132.146 52.7 131.546 52.53 131.066 52.19C130.586 51.85 130.303 51.3867 130.216 50.8H131.116C131.216 51.1333 131.423 51.4 131.736 51.6C132.049 51.8067 132.426 51.91 132.866 51.91C133.366 51.91 133.773 51.7533 134.086 51.44C134.406 51.1267 134.566 50.6867 134.566 50.12V48.97C134.386 49.29 134.119 49.5567 133.766 49.77C133.413 49.9833 132.999 50.09 132.526 50.09C132.039 50.09 131.596 49.97 131.196 49.73C130.803 49.49 130.493 49.1533 130.266 48.72C130.039 48.2867 129.926 47.7933 129.926 47.24C129.926 46.68 130.039 46.19 130.266 45.77C130.493 45.3433 130.803 45.0133 131.196 44.78C131.596 44.5467 132.039 44.43 132.526 44.43ZM134.566 47.25C134.566 46.8367 134.483 46.4767 134.316 46.17C134.149 45.8633 133.923 45.63 133.636 45.47C133.356 45.3033 133.046 45.22 132.706 45.22C132.366 45.22 132.056 45.3 131.776 45.46C131.496 45.62 131.273 45.8533 131.106 46.16C130.939 46.4667 130.856 46.8267 130.856 47.24C130.856 47.66 130.939 48.0267 131.106 48.34C131.273 48.6467 131.496 48.8833 131.776 49.05C132.056 49.21 132.366 49.29 132.706 49.29C133.046 49.29 133.356 49.21 133.636 49.05C133.923 48.8833 134.149 48.6467 134.316 48.34C134.483 48.0267 134.566 47.6633 134.566 47.25ZM4.93 65.07C4.28333 65.07 3.69333 64.92 3.16 64.62C2.62667 64.3133 2.20333 63.89 1.89 63.35C1.58333 62.8033 1.43 62.19 1.43 61.51C1.43 60.83 1.58333 60.22 1.89 59.68C2.20333 59.1333 2.62667 58.71 3.16 58.41C3.69333 58.1033 4.28333 57.95 4.93 57.95C5.58333 57.95 6.17667 58.1033 6.71 58.41C7.24333 58.71 7.66333 59.13 7.97 59.67C8.27667 60.21 8.43 60.8233 8.43 61.51C8.43 62.1967 8.27667 62.81 7.97 63.35C7.66333 63.89 7.24333 64.3133 6.71 64.62C6.17667 64.92 5.58333 65.07 4.93 65.07ZM4.93 64.28C5.41667 64.28 5.85333 64.1667 6.24 63.94C6.63333 63.7133 6.94 63.39 7.16 62.97C7.38667 62.55 7.5 62.0633 7.5 61.51C7.5 60.95 7.38667 60.4633 7.16 60.05C6.94 59.63 6.63667 59.3067 6.25 59.08C5.86333 58.8533 5.42333 58.74 4.93 58.74C4.43667 58.74 3.99667 58.8533 3.61 59.08C3.22333 59.3067 2.91667 59.63 2.69 60.05C2.47 60.4633 2.36 60.95 2.36 61.51C2.36 62.0633 2.47 62.55 2.69 62.97C2.91667 63.39 3.22333 63.7133 3.61 63.94C4.00333 64.1667 4.44333 64.28 4.93 64.28ZM13.3013 65L11.6413 62.15H10.5413V65H9.63133V58.03H11.8813C12.408 58.03 12.8513 58.12 13.2113 58.3C13.578 58.48 13.8513 58.7233 14.0313 59.03C14.2113 59.3367 14.3013 59.6867 14.3013 60.08C14.3013 60.56 14.1613 60.9833 13.8813 61.35C13.608 61.7167 13.1947 61.96 12.6413 62.08L14.3913 65H13.3013ZM10.5413 61.42H11.8813C12.3747 61.42 12.7447 61.3 12.9913 61.06C13.238 60.8133 13.3613 60.4867 13.3613 60.08C13.3613 59.6667 13.238 59.3467 12.9913 59.12C12.7513 58.8933 12.3813 58.78 11.8813 58.78H10.5413V61.42ZM20.5913 65.07C20.1313 65.07 19.718 64.99 19.3513 64.83C18.9913 64.6633 18.708 64.4367 18.5013 64.15C18.2947 63.8567 18.188 63.52 18.1813 63.14H19.1513C19.1847 63.4667 19.318 63.7433 19.5513 63.97C19.7913 64.19 20.138 64.3 20.5913 64.3C21.0247 64.3 21.3647 64.1933 21.6113 63.98C21.8647 63.76 21.9913 63.48 21.9913 63.14C21.9913 62.8733 21.918 62.6567 21.7713 62.49C21.6247 62.3233 21.4413 62.1967 21.2213 62.11C21.0013 62.0233 20.7047 61.93 20.3313 61.83C19.8713 61.71 19.5013 61.59 19.2213 61.47C18.948 61.35 18.7113 61.1633 18.5113 60.91C18.318 60.65 18.2213 60.3033 18.2213 59.87C18.2213 59.49 18.318 59.1533 18.5113 58.86C18.7047 58.5667 18.9747 58.34 19.3213 58.18C19.6747 58.02 20.078 57.94 20.5313 57.94C21.1847 57.94 21.718 58.1033 22.1313 58.43C22.5513 58.7567 22.788 59.19 22.8413 59.73H21.8413C21.808 59.4633 21.668 59.23 21.4213 59.03C21.1747 58.8233 20.848 58.72 20.4413 58.72C20.0613 58.72 19.7513 58.82 19.5113 59.02C19.2713 59.2133 19.1513 59.4867 19.1513 59.84C19.1513 60.0933 19.2213 60.3 19.3613 60.46C19.508 60.62 19.6847 60.7433 19.8913 60.83C20.1047 60.91 20.4013 61.0033 20.7813 61.11C21.2413 61.2367 21.6113 61.3633 21.8913 61.49C22.1713 61.61 22.4113 61.8 22.6113 62.06C22.8113 62.3133 22.9113 62.66 22.9113 63.1C22.9113 63.44 22.8213 63.76 22.6413 64.06C22.4613 64.36 22.1947 64.6033 21.8413 64.79C21.488 64.9767 21.0713 65.07 20.5913 65.07ZM26.9705 59.42C27.3838 59.42 27.7571 59.51 28.0905 59.69C28.4238 59.8633 28.6838 60.1267 28.8705 60.48C29.0638 60.8333 29.1605 61.2633 29.1605 61.77V65H28.2605V61.9C28.2605 61.3533 28.1238 60.9367 27.8505 60.65C27.5771 60.3567 27.2038 60.21 26.7305 60.21C26.2505 60.21 25.8671 60.36 25.5805 60.66C25.3005 60.96 25.1605 61.3967 25.1605 61.97V65H24.2505V57.6H25.1605V60.3C25.3405 60.02 25.5871 59.8033 25.9005 59.65C26.2205 59.4967 26.5771 59.42 26.9705 59.42ZM31.117 58.63C30.9436 58.63 30.797 58.57 30.677 58.45C30.557 58.33 30.497 58.1833 30.497 58.01C30.497 57.8367 30.557 57.69 30.677 57.57C30.797 57.45 30.9436 57.39 31.117 57.39C31.2836 57.39 31.4236 57.45 31.537 57.57C31.657 57.69 31.717 57.8367 31.717 58.01C31.717 58.1833 31.657 58.33 31.537 58.45C31.4236 58.57 31.2836 58.63 31.117 58.63ZM31.557 59.52V65H30.647V59.52H31.557ZM35.3379 60.27H34.1879V65H33.2779V60.27H32.5679V59.52H33.2779V59.13C33.2779 58.5167 33.4346 58.07 33.7479 57.79C34.0679 57.5033 34.5779 57.36 35.2779 57.36V58.12C34.8779 58.12 34.5946 58.2 34.4279 58.36C34.2679 58.5133 34.1879 58.77 34.1879 59.13V59.52H35.3379V60.27ZM37.5089 60.27V63.5C37.5089 63.7667 37.5656 63.9567 37.6789 64.07C37.7922 64.1767 37.9889 64.23 38.2689 64.23H38.9389V65H38.1189C37.6122 65 37.2322 64.8833 36.9789 64.65C36.7256 64.4167 36.5989 64.0333 36.5989 63.5V60.27H35.8889V59.52H36.5989V58.14H37.5089V59.52H38.9389V60.27H37.5089ZM47.9075 61.73H45.7775V63.89H44.9275V61.73H42.8075V60.96H44.9275V58.79H45.7775V60.96H47.9075V61.73ZM59.2697 58.08V65H58.3597V59.84L56.0597 65H55.4197L53.1097 59.83V65H52.1997V58.08H53.1797L55.7397 63.8L58.2997 58.08H59.2697ZM61.283 58.63C61.1096 58.63 60.963 58.57 60.843 58.45C60.723 58.33 60.663 58.1833 60.663 58.01C60.663 57.8367 60.723 57.69 60.843 57.57C60.963 57.45 61.1096 57.39 61.283 57.39C61.4496 57.39 61.5896 57.45 61.703 57.57C61.823 57.69 61.883 57.8367 61.883 58.01C61.883 58.1833 61.823 58.33 61.703 58.45C61.5896 58.57 61.4496 58.63 61.283 58.63ZM61.723 59.52V65H60.813V59.52H61.723ZM62.9339 62.24C62.9339 61.68 63.0472 61.19 63.2739 60.77C63.5006 60.3433 63.8106 60.0133 64.2039 59.78C64.6039 59.5467 65.0506 59.43 65.5439 59.43C65.9706 59.43 66.3672 59.53 66.7339 59.73C67.1006 59.9233 67.3806 60.18 67.5739 60.5V57.6H68.4939V65H67.5739V63.97C67.3939 64.2967 67.1272 64.5667 66.7739 64.78C66.4206 64.9867 66.0072 65.09 65.5339 65.09C65.0472 65.09 64.6039 64.97 64.2039 64.73C63.8106 64.49 63.5006 64.1533 63.2739 63.72C63.0472 63.2867 62.9339 62.7933 62.9339 62.24ZM67.5739 62.25C67.5739 61.8367 67.4906 61.4767 67.3239 61.17C67.1572 60.8633 66.9306 60.63 66.6439 60.47C66.3639 60.3033 66.0539 60.22 65.7139 60.22C65.3739 60.22 65.0639 60.3 64.7839 60.46C64.5039 60.62 64.2806 60.8533 64.1139 61.16C63.9472 61.4667 63.8639 61.8267 63.8639 62.24C63.8639 62.66 63.9472 63.0267 64.1139 63.34C64.2806 63.6467 64.5039 63.8833 64.7839 64.05C65.0639 64.21 65.3739 64.29 65.7139 64.29C66.0539 64.29 66.3639 64.21 66.6439 64.05C66.9306 63.8833 67.1572 63.6467 67.3239 63.34C67.4906 63.0267 67.5739 62.6633 67.5739 62.25ZM69.6917 62.24C69.6917 61.68 69.8051 61.19 70.0317 60.77C70.2584 60.3433 70.5684 60.0133 70.9617 59.78C71.3617 59.5467 71.8084 59.43 72.3017 59.43C72.7284 59.43 73.1251 59.53 73.4917 59.73C73.8584 59.9233 74.1384 60.18 74.3317 60.5V57.6H75.2517V65H74.3317V63.97C74.1517 64.2967 73.8851 64.5667 73.5317 64.78C73.1784 64.9867 72.7651 65.09 72.2917 65.09C71.8051 65.09 71.3617 64.97 70.9617 64.73C70.5684 64.49 70.2584 64.1533 70.0317 63.72C69.8051 63.2867 69.6917 62.7933 69.6917 62.24ZM74.3317 62.25C74.3317 61.8367 74.2484 61.4767 74.0817 61.17C73.9151 60.8633 73.6884 60.63 73.4017 60.47C73.1217 60.3033 72.8117 60.22 72.4717 60.22C72.1317 60.22 71.8217 60.3 71.5417 60.46C71.2617 60.62 71.0384 60.8533 70.8717 61.16C70.7051 61.4667 70.6217 61.8267 70.6217 62.24C70.6217 62.66 70.7051 63.0267 70.8717 63.34C71.0384 63.6467 71.2617 63.8833 71.5417 64.05C71.8217 64.21 72.1317 64.29 72.4717 64.29C72.8117 64.29 73.1217 64.21 73.4017 64.05C73.6884 63.8833 73.9151 63.6467 74.0817 63.34C74.2484 63.0267 74.3317 62.6633 74.3317 62.25ZM77.6995 57.6V65H76.7895V57.6H77.6995ZM84.2505 62.05C84.2505 62.2233 84.2405 62.4067 84.2205 62.6H79.8405C79.8738 63.14 80.0571 63.5633 80.3905 63.87C80.7305 64.17 81.1405 64.32 81.6205 64.32C82.0138 64.32 82.3405 64.23 82.6005 64.05C82.8671 63.8633 83.0538 63.6167 83.1605 63.31H84.1405C83.9938 63.8367 83.7005 64.2667 83.2605 64.6C82.8205 64.9267 82.2738 65.09 81.6205 65.09C81.1005 65.09 80.6338 64.9733 80.2205 64.74C79.8138 64.5067 79.4938 64.1767 79.2605 63.75C79.0271 63.3167 78.9105 62.8167 78.9105 62.25C78.9105 61.6833 79.0238 61.1867 79.2505 60.76C79.4771 60.3333 79.7938 60.0067 80.2005 59.78C80.6138 59.5467 81.0871 59.43 81.6205 59.43C82.1405 59.43 82.6005 59.5433 83.0005 59.77C83.4005 59.9967 83.7071 60.31 83.9205 60.71C84.1405 61.1033 84.2505 61.55 84.2505 62.05ZM83.3105 61.86C83.3105 61.5133 83.2338 61.2167 83.0805 60.97C82.9271 60.7167 82.7171 60.5267 82.4505 60.4C82.1905 60.2667 81.9005 60.2 81.5805 60.2C81.1205 60.2 80.7271 60.3467 80.4005 60.64C80.0805 60.9333 79.8971 61.34 79.8505 61.86H83.3105ZM87.7777 61.51C87.7777 60.83 87.931 60.22 88.2377 59.68C88.5443 59.1333 88.961 58.7067 89.4877 58.4C90.021 58.0933 90.611 57.94 91.2577 57.94C92.0177 57.94 92.681 58.1233 93.2477 58.49C93.8143 58.8567 94.2277 59.3767 94.4877 60.05H93.3977C93.2043 59.63 92.9243 59.3067 92.5577 59.08C92.1977 58.8533 91.7643 58.74 91.2577 58.74C90.771 58.74 90.3343 58.8533 89.9477 59.08C89.561 59.3067 89.2577 59.63 89.0377 60.05C88.8177 60.4633 88.7077 60.95 88.7077 61.51C88.7077 62.0633 88.8177 62.55 89.0377 62.97C89.2577 63.3833 89.561 63.7033 89.9477 63.93C90.3343 64.1567 90.771 64.27 91.2577 64.27C91.7643 64.27 92.1977 64.16 92.5577 63.94C92.9243 63.7133 93.2043 63.39 93.3977 62.97H94.4877C94.2277 63.6367 93.8143 64.1533 93.2477 64.52C92.681 64.88 92.0177 65.06 91.2577 65.06C90.611 65.06 90.021 64.91 89.4877 64.61C88.961 64.3033 88.5443 63.88 88.2377 63.34C87.931 62.8 87.7777 62.19 87.7777 61.51ZM96.7523 57.6V65H95.8423V57.6H96.7523ZM98.7732 58.63C98.5999 58.63 98.4532 58.57 98.3332 58.45C98.2132 58.33 98.1532 58.1833 98.1532 58.01C98.1532 57.8367 98.2132 57.69 98.3332 57.57C98.4532 57.45 98.5999 57.39 98.7732 57.39C98.9399 57.39 99.0799 57.45 99.1932 57.57C99.3132 57.69 99.3732 57.8367 99.3732 58.01C99.3732 58.1833 99.3132 58.33 99.1932 58.45C99.0799 58.57 98.9399 58.63 98.7732 58.63ZM99.2132 59.52V65H98.3032V59.52H99.2132ZM100.424 62.25C100.424 61.6833 100.537 61.19 100.764 60.77C100.991 60.3433 101.304 60.0133 101.704 59.78C102.111 59.5467 102.574 59.43 103.094 59.43C103.767 59.43 104.321 59.5933 104.754 59.92C105.194 60.2467 105.484 60.7 105.624 61.28H104.644C104.551 60.9467 104.367 60.6833 104.094 60.49C103.827 60.2967 103.494 60.2 103.094 60.2C102.574 60.2 102.154 60.38 101.834 60.74C101.514 61.0933 101.354 61.5967 101.354 62.25C101.354 62.91 101.514 63.42 101.834 63.78C102.154 64.14 102.574 64.32 103.094 64.32C103.494 64.32 103.827 64.2267 104.094 64.04C104.361 63.8533 104.544 63.5867 104.644 63.24H105.624C105.477 63.8 105.184 64.25 104.744 64.59C104.304 64.9233 103.754 65.09 103.094 65.09C102.574 65.09 102.111 64.9733 101.704 64.74C101.304 64.5067 100.991 64.1767 100.764 63.75C100.537 63.3233 100.424 62.8233 100.424 62.25ZM109.898 65L107.748 62.58V65H106.838V57.6H107.748V61.95L109.858 59.52H111.128L108.548 62.25L111.138 65H109.898ZM114.311 62.24C114.311 61.68 114.424 61.19 114.651 60.77C114.878 60.3433 115.188 60.0133 115.581 59.78C115.981 59.5467 116.424 59.43 116.911 59.43C117.391 59.43 117.808 59.5333 118.161 59.74C118.514 59.9467 118.778 60.2067 118.951 60.52V59.52H119.871V65H118.951V63.98C118.771 64.3 118.501 64.5667 118.141 64.78C117.788 64.9867 117.374 65.09 116.901 65.09C116.414 65.09 115.974 64.97 115.581 64.73C115.188 64.49 114.878 64.1533 114.651 63.72C114.424 63.2867 114.311 62.7933 114.311 62.24ZM118.951 62.25C118.951 61.8367 118.868 61.4767 118.701 61.17C118.534 60.8633 118.308 60.63 118.021 60.47C117.741 60.3033 117.431 60.22 117.091 60.22C116.751 60.22 116.441 60.3 116.161 60.46C115.881 60.62 115.658 60.8533 115.491 61.16C115.324 61.4667 115.241 61.8267 115.241 62.24C115.241 62.66 115.324 63.0267 115.491 63.34C115.658 63.6467 115.881 63.8833 116.161 64.05C116.441 64.21 116.751 64.29 117.091 64.29C117.431 64.29 117.741 64.21 118.021 64.05C118.308 63.8833 118.534 63.6467 118.701 63.34C118.868 63.0267 118.951 62.6633 118.951 62.25ZM124.079 59.42C124.745 59.42 125.285 59.6233 125.699 60.03C126.112 60.43 126.319 61.01 126.319 61.77V65H125.419V61.9C125.419 61.3533 125.282 60.9367 125.009 60.65C124.735 60.3567 124.362 60.21 123.889 60.21C123.409 60.21 123.025 60.36 122.739 60.66C122.459 60.96 122.319 61.3967 122.319 61.97V65H121.409V59.52H122.319V60.3C122.499 60.02 122.742 59.8033 123.049 59.65C123.362 59.4967 123.705 59.42 124.079 59.42ZM127.465 62.24C127.465 61.68 127.578 61.19 127.805 60.77C128.032 60.3433 128.342 60.0133 128.735 59.78C129.135 59.5467 129.582 59.43 130.075 59.43C130.502 59.43 130.898 59.53 131.265 59.73C131.632 59.9233 131.912 60.18 132.105 60.5V57.6H133.025V65H132.105V63.97C131.925 64.2967 131.658 64.5667 131.305 64.78C130.952 64.9867 130.538 65.09 130.065 65.09C129.578 65.09 129.135 64.97 128.735 64.73C128.342 64.49 128.032 64.1533 127.805 63.72C127.578 63.2867 127.465 62.7933 127.465 62.24ZM132.105 62.25C132.105 61.8367 132.022 61.4767 131.855 61.17C131.688 60.8633 131.462 60.63 131.175 60.47C130.895 60.3033 130.585 60.22 130.245 60.22C129.905 60.22 129.595 60.3 129.315 60.46C129.035 60.62 128.812 60.8533 128.645 61.16C128.478 61.4667 128.395 61.8267 128.395 62.24C128.395 62.66 128.478 63.0267 128.645 63.34C128.812 63.6467 129.035 63.8833 129.315 64.05C129.595 64.21 129.905 64.29 130.245 64.29C130.585 64.29 130.895 64.21 131.175 64.05C131.462 63.8833 131.688 63.6467 131.855 63.34C132.022 63.0267 132.105 62.6633 132.105 62.25ZM139.399 58.03C140.159 58.03 140.816 58.1733 141.369 58.46C141.929 58.74 142.356 59.1433 142.649 59.67C142.949 60.1967 143.099 60.8167 143.099 61.53C143.099 62.2433 142.949 62.8633 142.649 63.39C142.356 63.91 141.929 64.31 141.369 64.59C140.816 64.8633 140.159 65 139.399 65H137.229V58.03H139.399ZM139.399 64.25C140.299 64.25 140.986 64.0133 141.459 63.54C141.932 63.06 142.169 62.39 142.169 61.53C142.169 60.6633 141.929 59.9867 141.449 59.5C140.976 59.0133 140.292 58.77 139.399 58.77H138.139V64.25H139.399ZM145.209 60.41C145.369 60.0967 145.596 59.8533 145.889 59.68C146.189 59.5067 146.553 59.42 146.979 59.42V60.36H146.739C145.719 60.36 145.209 60.9133 145.209 62.02V65H144.299V59.52H145.209V60.41ZM147.69 62.24C147.69 61.68 147.803 61.19 148.03 60.77C148.256 60.3433 148.566 60.0133 148.96 59.78C149.36 59.5467 149.803 59.43 150.29 59.43C150.77 59.43 151.186 59.5333 151.54 59.74C151.893 59.9467 152.156 60.2067 152.33 60.52V59.52H153.25V65H152.33V63.98C152.15 64.3 151.88 64.5667 151.52 64.78C151.166 64.9867 150.753 65.09 150.28 65.09C149.793 65.09 149.353 64.97 148.96 64.73C148.566 64.49 148.256 64.1533 148.03 63.72C147.803 63.2867 147.69 62.7933 147.69 62.24ZM152.33 62.25C152.33 61.8367 152.246 61.4767 152.08 61.17C151.913 60.8633 151.686 60.63 151.4 60.47C151.12 60.3033 150.81 60.22 150.47 60.22C150.13 60.22 149.82 60.3 149.54 60.46C149.26 60.62 149.036 60.8533 148.87 61.16C148.703 61.4667 148.62 61.8267 148.62 62.24C148.62 62.66 148.703 63.0267 148.87 63.34C149.036 63.6467 149.26 63.8833 149.54 64.05C149.82 64.21 150.13 64.29 150.47 64.29C150.81 64.29 151.12 64.21 151.4 64.05C151.686 63.8833 151.913 63.6467 152.08 63.34C152.246 63.0267 152.33 62.6633 152.33 62.25ZM157.048 59.43C157.521 59.43 157.934 59.5333 158.288 59.74C158.648 59.9467 158.914 60.2067 159.088 60.52V59.52H160.008V65.12C160.008 65.62 159.901 66.0633 159.688 66.45C159.474 66.8433 159.168 67.15 158.768 67.37C158.374 67.59 157.914 67.7 157.388 67.7C156.668 67.7 156.068 67.53 155.588 67.19C155.108 66.85 154.824 66.3867 154.738 65.8H155.638C155.738 66.1333 155.944 66.4 156.258 66.6C156.571 66.8067 156.948 66.91 157.388 66.91C157.888 66.91 158.294 66.7533 158.608 66.44C158.928 66.1267 159.088 65.6867 159.088 65.12V63.97C158.908 64.29 158.641 64.5567 158.288 64.77C157.934 64.9833 157.521 65.09 157.048 65.09C156.561 65.09 156.118 64.97 155.718 64.73C155.324 64.49 155.014 64.1533 154.788 63.72C154.561 63.2867 154.448 62.7933 154.448 62.24C154.448 61.68 154.561 61.19 154.788 60.77C155.014 60.3433 155.324 60.0133 155.718 59.78C156.118 59.5467 156.561 59.43 157.048 59.43ZM159.088 62.25C159.088 61.8367 159.004 61.4767 158.838 61.17C158.671 60.8633 158.444 60.63 158.158 60.47C157.878 60.3033 157.568 60.22 157.228 60.22C156.888 60.22 156.578 60.3 156.298 60.46C156.018 60.62 155.794 60.8533 155.628 61.16C155.461 61.4667 155.378 61.8267 155.378 62.24C155.378 62.66 155.461 63.0267 155.628 63.34C155.794 63.6467 156.018 63.8833 156.298 64.05C156.578 64.21 156.888 64.29 157.228 64.29C157.568 64.29 157.878 64.21 158.158 64.05C158.444 63.8833 158.671 63.6467 158.838 63.34C159.004 63.0267 159.088 62.6633 159.088 62.25Z" fill="#2E3134"/>
<circle cx="283" cy="79" r="5" fill="white" stroke="#0024FC" stroke-width="2"/>
<circle cx="283" cy="47" r="5" fill="white" stroke="#0024FC" stroke-width="2"/>
<circle cx="311" cy="30" r="5" fill="white" stroke="#0024FC" stroke-width="2"/>
<circle cx="311" cy="47" r="5" fill="white" stroke="#0024FC" stroke-width="2"/>
<circle cx="283" cy="63" r="5" fill="white" stroke="#0024FC" stroke-width="2"/>
</svg>
