<svg version="1.1" id="Layer_1" xmlns="http://www.w3.org/2000/svg" xmlns:xlink="http://www.w3.org/1999/xlink" x="0px" y="0px"
	 viewBox="0 0 504 504" style="enable-background:new 0 0 504 504;" xml:space="preserve">
<g>
	<path fill="#0024FC"  d="M439.42,504H64.58C29.06,504,0,474.94,0,439.42V64.58C0,29.06,29.06,0,64.58,0h374.84
		C474.94,0,504,29.06,504,64.58v374.84C504,474.94,474.94,504,439.42,504z"/>
	<path fill="#FFFFFF" d="M427.12,402.42c-18.32,0-55.66-3.76-85.94-30.98c-13.53-12.16-24.08-27.65-31.37-46.05
		c-1.41-3.57-2.71-7.25-3.88-11.05c-15.72-1.82-33.6-2.86-53.93-2.86h-0.04c-0.2,0-19.81-0.05-26.81-0.05v-29.2
		c7.03,0,26.69,0.05,26.89,0.05c16.77,0,32.61,0.69,47.45,2.05c-1.35-10.21-2.03-21-2.03-32.34s0.68-22.13,2.03-32.34
		c-14.85,1.37-30.7,2.05-47.49,2.05s-32.64-0.69-47.49-2.05c1.11,8.39,1.77,17.17,1.97,26.32c0.05,2.24,0.06,20.34,0.06,20.52h-29.2
		c0-2.86-0.02-18.33-0.06-19.89c-0.24-11.05-1.21-21.36-2.91-30.89c-13.64-2.37-26.2-5.44-37.65-9.2
		c-25.6-8.41-45.88-20.34-60.27-35.45c-23.72-24.91-23.75-50.15-23.51-54.95c0.36-7.36,5.94-13.27,13.27-14.05
		c5.65-0.6,56.38-4.91,95.73,29.69c13.28,11.68,23.76,26.53,31.16,44.13c1.85,4.4,3.51,9,4.98,13.77
		c15.72,1.82,33.6,2.86,53.93,2.86s38.21-1.04,53.93-2.86c1.17-3.8,2.46-7.49,3.88-11.05c7.29-18.4,17.84-33.89,31.37-46.05
		c39.46-35.46,90.89-31.1,96.63-30.49c7.33,0.79,12.9,6.7,13.26,14.05c0.24,4.81,0.21,30.04-23.51,54.95
		c-14.39,15.11-34.67,27.04-60.28,35.45c-11.44,3.76-24.01,6.83-37.65,9.2c-1.98,11.07-2.97,23.17-2.97,36.28
		c0,13.11,0.99,25.21,2.97,36.28c13.64,2.37,26.21,5.44,37.65,9.2c25.6,8.41,45.88,20.34,60.28,35.45
		c23.72,24.91,23.75,50.15,23.51,54.95c-0.36,7.35-5.94,13.26-13.25,14.05C436.48,402.08,432.67,402.42,427.12,402.42z
		 M339.22,319.97c5.42,11.83,12.58,21.77,21.47,29.76c19.37,17.41,43.2,22.13,58.51,23.21c-2.15-5.73-5.99-12.74-12.86-19.94
		C395.2,341.33,375.16,328.27,339.22,319.97z M419.2,131.06c-15.3,1.08-39.14,5.8-58.51,23.21c-8.89,7.99-16.05,17.93-21.47,29.76
		c35.94-8.3,55.98-21.36,67.12-33.04C413.21,143.8,417.06,136.79,419.2,131.06z M84.8,131.06c2.15,5.73,5.99,12.74,12.86,19.93
		c11.15,11.68,31.18,24.74,67.12,33.04c-5.55-12.13-12.94-22.26-22.13-30.35C123.4,136.76,99.93,132.13,84.8,131.06z M177.9,310.38
		h29.47v-29.47H177.9V310.38z M123.11,363.05h46.1v-46.1h-46.1V363.05z M78.13,401.13h34.36v-34.36H78.13V401.13z"/>
</g>
</svg>
