<svg version="1.1" id="Layer_1" xmlns="http://www.w3.org/2000/svg" xmlns:xlink="http://www.w3.org/1999/xlink" x="0px" y="0px" viewBox="0 0 864 260.23" style="enable-background:new 0 0 864 260.23;" xml:space="preserve">
	<title id="scanifly-logo">Scanifly Logo</title>
	<desc id="scanifly-logo-desc">Scanifly's awesome logo!</desc>
	<path class="blue--fill" d="M214.85,233.98H64.87c-15.88,0-28.87-12.99-28.87-28.87V55.12c0-15.88,12.99-28.87,28.87-28.87h149.99
	c15.88,0,28.87,12.99,28.87,28.87v149.99C243.72,220.99,230.73,233.98,214.85,233.98z"/>
	<path fill="#FFFFFF" d="M212.03,192.11c-7.55,0-22.94-1.55-35.42-12.77c-5.57-5.01-9.92-11.4-12.93-18.98
	c-0.58-1.47-1.11-2.99-1.6-4.56c-6.48-0.75-13.85-1.18-22.23-1.18h-0.02c-0.08,0-8.17-0.02-11.05-0.02v-12.04
	c2.9,0,11,0.02,11.08,0.02c6.91,0,13.44,0.28,19.56,0.85c-0.56-4.21-0.84-8.66-0.84-13.33c0-4.67,0.28-9.12,0.84-13.33
	c-6.12,0.56-12.65,0.85-19.57,0.85c-6.92,0-13.45-0.28-19.57-0.85c0.46,3.46,0.73,7.08,0.81,10.85c0.02,0.92,0.03,8.38,0.03,8.46
	h-12.04c0-1.18-0.01-7.55-0.02-8.2c-0.1-4.56-0.5-8.8-1.2-12.73c-5.62-0.98-10.8-2.24-15.52-3.79
	c-10.55-3.47-18.91-8.38-24.84-14.61c-9.78-10.27-9.79-20.67-9.69-22.65c0.15-3.03,2.45-5.47,5.47-5.79
	c2.33-0.25,23.24-2.02,39.45,12.24c5.47,4.81,9.79,10.93,12.84,18.19c0.76,1.81,1.45,3.71,2.05,5.67
	c6.48,0.75,13.85,1.18,22.23,1.18c8.38,0,15.75-0.43,22.23-1.18c0.48-1.57,1.02-3.09,1.6-4.56c3-7.58,7.35-13.97,12.93-18.98
	c16.26-14.62,37.46-12.82,39.82-12.57c3.02,0.33,5.32,2.76,5.47,5.79c0.1,1.98,0.09,12.38-9.69,22.65
	c-5.93,6.23-14.29,11.15-24.84,14.61c-4.72,1.55-9.9,2.81-15.52,3.79c-0.81,4.56-1.22,9.55-1.22,14.95c0,5.41,0.41,10.39,1.22,14.95
	c5.62,0.98,10.8,2.24,15.52,3.79c10.55,3.47,18.91,8.38,24.84,14.61c9.78,10.27,9.79,20.67,9.69,22.65
	c-0.15,3.03-2.45,5.47-5.46,5.79C215.89,191.97,214.32,192.11,212.03,192.11z M175.81,158.13c2.23,4.88,5.19,8.97,8.85,12.26
	c7.98,7.17,17.81,9.12,24.12,9.57c-0.89-2.36-2.47-5.25-5.3-8.22C198.88,166.93,190.62,161.55,175.81,158.13z M208.77,80.27
	c-6.31,0.44-16.13,2.39-24.12,9.57c-3.66,3.29-6.62,7.39-8.85,12.26c14.81-3.42,23.07-8.8,27.66-13.62
	C206.3,85.52,207.89,82.63,208.77,80.27z M70.95,80.27c0.89,2.36,2.47,5.25,5.3,8.22c4.59,4.81,12.85,10.19,27.66,13.62
	c-2.29-5-5.33-9.18-9.12-12.51C86.86,82.62,77.19,80.71,70.95,80.27z M109.32,154.17h12.15v-12.15h-12.15V154.17z M86.74,175.88h19
	v-19h-19V175.88z M68.2,191.58h14.16v-14.16H68.2V191.58z"/>
	<g>
		<path class="gray--fill" d="M330.06,130.77c-2.49-1.83-5.68-3.45-9.59-4.87c-3.91-1.42-8.6-2.84-14.08-4.26c-2.94-0.71-5.4-1.39-7.38-2.05
			c-1.98-0.66-3.58-1.34-4.79-2.06c-1.22-0.71-2.11-1.52-2.66-2.43c-0.56-0.91-0.84-2.08-0.84-3.5c0-3.14,1.17-5.43,3.5-6.85
			c2.33-1.42,5.22-2.13,8.68-2.13c3.75,0,7.53,0.71,11.34,2.13c3.8,1.42,7.74,3.65,11.8,6.7l8.22-12.33
			c-4.36-3.86-9.16-6.65-14.38-8.37c-5.23-1.72-10.83-2.59-16.82-2.59c-4.47,0-8.6,0.61-12.4,1.83c-3.8,1.22-7.13,2.97-9.97,5.25
			c-2.84,2.28-5.05,5.05-6.62,8.29c-1.57,3.25-2.36,6.9-2.36,10.96c0,3.04,0.51,5.66,1.52,7.84c1.01,2.18,2.64,4.11,4.87,5.78
			c2.23,1.67,5.17,3.17,8.83,4.49c3.65,1.32,8.07,2.69,13.24,4.11c6.19,1.73,10.65,3.25,13.39,4.57c2.74,1.32,4.11,3.4,4.11,6.24
			c0,2.84-1.17,5.02-3.5,6.54c-2.34,1.52-5.53,2.28-9.59,2.28c-4.57,0-9.16-0.89-13.77-2.66c-4.62-1.77-9.36-4.39-14.23-7.84
			l-7.61,12.79c4.57,3.96,10.05,7,16.44,9.13c6.39,2.13,12.94,3.2,19.63,3.2c9.94,0,17.81-2.26,23.59-6.77
			c5.78-4.51,8.68-10.68,8.68-18.49c0-3.35-0.59-6.21-1.75-8.6C334.37,134.7,332.54,132.6,330.06,130.77z"/>
		<path class="gray--fill" d="M395.96,150.86c-3.1,1.83-6.47,2.74-10.12,2.74c-2.84,0-5.53-0.58-8.07-1.75c-2.54-1.17-4.74-2.82-6.62-4.95
			c-1.88-2.13-3.37-4.67-4.49-7.61c-1.12-2.94-1.67-6.19-1.67-9.74c0-3.55,0.53-6.8,1.6-9.74c1.07-2.94,2.54-5.45,4.41-7.53
			c1.88-2.08,4.08-3.7,6.62-4.87c2.54-1.17,5.27-1.75,8.22-1.75c3.45,0,6.59,0.79,9.44,2.36c2.84,1.57,5.12,3.83,6.85,6.77
			l19.94-6.09c-3.04-6.09-7.64-11.01-13.77-14.76c-6.14-3.75-13.57-5.63-22.3-5.63c-6.49,0-12.33,1.12-17.5,3.35
			c-5.17,2.23-9.59,5.23-13.24,8.98c-3.65,3.76-6.44,8.12-8.37,13.09c-1.93,4.97-2.89,10.25-2.89,15.83c0,5.48,0.99,10.73,2.97,15.75
			c1.98,5.02,4.79,9.44,8.45,13.24c3.65,3.81,8.07,6.83,13.24,9.06c5.17,2.23,11.01,3.35,17.5,3.35c8.83,0,16.39-1.93,22.68-5.78
			c6.29-3.86,10.81-8.83,13.55-14.92l-19.94-6.09C401.21,146.8,399.05,149.04,395.96,150.86z"/>
		<path class="gray--fill" d="M489.63,103.83c-2.64-4.77-6.29-8.55-10.96-11.34c-4.67-2.79-10-4.19-15.98-4.19c-5.07,0-9.79,1.07-14.15,3.2
			c-4.36,2.13-8.14,5.05-11.34,8.75c-3.2,3.71-5.71,8.07-7.53,13.09c-1.83,5.02-2.74,10.43-2.74,16.21c0,5.78,0.94,11.19,2.82,16.21
			c1.88,5.02,4.49,9.41,7.84,13.16c3.35,3.76,7.33,6.7,11.95,8.83c4.62,2.13,9.66,3.2,15.14,3.2c5.78,0,10.73-1.27,14.84-3.81
			c4.11-2.54,7.48-6.09,10.12-10.65v12.94h20.39V90.74h-20.39V103.83z M489.63,140.21c-2.03,4.06-4.69,7.31-7.99,9.74
			c-3.3,2.44-7.23,3.65-11.8,3.65c-3.15,0-6.06-0.61-8.75-1.83c-2.69-1.22-5-2.89-6.93-5.02c-1.93-2.13-3.42-4.64-4.49-7.53
			c-1.07-2.89-1.6-5.96-1.6-9.21c0-3.14,0.51-6.16,1.52-9.06c1.01-2.89,2.46-5.48,4.34-7.76c1.88-2.28,4.11-4.11,6.7-5.48
			c2.59-1.37,5.4-2.06,8.45-2.06c4.46,0,8.55,1.45,12.25,4.34c3.7,2.89,6.47,6.67,8.29,11.34V140.21z"/>
		<path class="gray--fill" d="M598.33,98.2c-1.73-2.94-4.16-5.33-7.31-7.15c-3.15-1.83-7.21-2.74-12.18-2.74c-7,0-13.29,1.42-18.87,4.26
			c-5.58,2.84-9.84,6.8-12.79,11.87V89.68h-18.42v79.75h20.39v-46.57c0.71-2.44,1.83-4.67,3.35-6.7c1.52-2.03,3.22-3.78,5.1-5.25
			c1.88-1.47,3.88-2.61,6.01-3.43c2.13-0.81,4.21-1.22,6.24-1.22c3.96,0,7.05,1.47,9.28,4.41c2.23,2.94,3.35,7.61,3.35,14v44.75
			h20.39v-49.77c0-3.85-0.33-7.66-0.99-11.41C601.25,104.49,600.06,101.15,598.33,98.2z"/>
		<rect class="gray--fill" x="621.1" y="58.32" width="20.39" height="20.24"/>
		<rect class="gray--fill" x="621.1" y="89.68" width="20.39" height="79.75"/>
		<path class="gray--fill" d="M698.75,56.8c-10.45,0-18.62,2.61-24.5,7.84c-5.89,5.23-8.83,12.76-8.83,22.6v6.7h-10.5v15.53h10.5v59.97
			h20.39v-59.97h13.24V93.94h-13.24V91.2c0.1-5.07,1.14-9.18,3.12-12.33c1.95-3.1,5.36-4.66,10.22-4.71V56.81
			C699.02,56.81,698.89,56.8,698.75,56.8z"/>
		<path class="gray--fill" d="M745.55,151.39c-0.86,0.25-1.8,0.48-2.81,0.68c-1.02,0.2-1.98,0.3-2.89,0.3c-1.32,0-2.44-0.28-3.35-0.84
			c-0.91-0.56-1.67-1.27-2.28-2.13c-0.61-0.86-1.04-1.83-1.29-2.89c-0.25-1.07-0.38-2.1-0.38-3.12V86.63
			c0-8.93-2.74-16.13-8.22-21.61c-3.12-3.12-7.22-5.34-12.31-6.69v29.14c0.09,1.06,0.13,2.15,0.13,3.27v62.86
			c0,2.34,0.46,4.52,1.37,6.54c0.91,2.03,2.23,3.83,3.96,5.4c1.72,1.57,3.83,2.82,6.32,3.73c2.49,0.91,5.35,1.37,8.6,1.37
			c2.23,0,4.49-0.18,6.77-0.53c2.28-0.36,4.34-0.76,6.16-1.22c1.83-0.46,3.3-0.89,4.41-1.29c1.12-0.4,1.72-0.66,1.83-0.76
			l-2.89-16.44C747.46,150.81,746.41,151.14,745.55,151.39z"/>
		<path class="gray--fill" d="M808.82,89.68l-19.18,62.1l-21.61-62.1h-21l31.51,79.75c-1.02,3.35-1.98,6.14-2.89,8.37
			c-0.91,2.23-1.83,3.98-2.74,5.25c-0.91,1.27-1.93,2.15-3.04,2.66c-1.12,0.51-2.34,0.76-3.65,0.76c-1.12,0-2.49-0.13-4.11-0.38
			c-1.62-0.25-3.3-0.64-5.02-1.14v17.65c1.83,0.61,3.58,1.04,5.25,1.29c1.67,0.25,3.32,0.38,4.95,0.38c6.9,0,12.68-1.78,17.35-5.33
			c4.67-3.55,7.96-8.12,9.89-13.7L828,89.68H808.82z"/>
	</g>
</svg>
