<svg xmlns="http://www.w3.org/2000/svg" fill="currentColor" viewBox="0 0 48 48">
	<path
		d="M17.4 41.9c0-.8-.7-1.7-1.7-1.7H5.8V30.1c0-.9-.7-1.7-1.6-1.7s-1.7.7-1.7 1.7v12.7c0 .4.3.7.7.7h12.4c1 0 1.8-.8 1.8-1.6M4.1 18.6c.8 0 1.7-.7 1.7-1.7V7.1h10c.9 0 1.7-.7 1.7-1.6s-.7-1.7-1.7-1.7H3.2c-.4 0-.7.3-.7.7v12.4c0 .9.8 1.7 1.6 1.7M27.2 5.3c0 .8.8 1.7 1.7 1.7h9.8v10c0 .9.7 1.7 1.6 1.7.8 0 1.7-.7 1.7-1.7V4.4c0-.4-.3-.7-.7-.7H28.9c-1 0-1.7.8-1.7 1.6m-14.1 9.6c1.9 0 3.4 1.6 3.4 3.4 0 1.9-1.6 3.4-3.4 3.4s-3.4-1.5-3.4-3.4 1.6-3.4 3.4-3.4m21.8 13.5v-2.7c0-.4-.2-.7-.4-1L28 18.1c-.3-.3-.7-.3-.9 0l-8.8 8.6-2.3-2.3c-.3-.3-.7-.3-.9 0l-4.8 4.8c-.3.2-.4.6-.4.8v2c0 .6.5 1.1 1.1 1.1h18.2c1.1-2.2 3.2-3.9 5.7-4.7m3.8 2.1c-2.2 0-4.4.8-5.9 2.4s-2.4 3.6-2.4 5.9c0 4.6 3.7 8.3 8.3 8.3s8.3-3.7 8.3-8.3c-.1-4.6-3.8-8.3-8.3-8.3m3.8 10.6L39 44.6c-.1.1-.3.2-.5.2s-.3-.1-.5-.2l-3.4-3.4c-.3-.3-.3-.7 0-.9.3-.3.7-.3.9 0l2.3 2.3v-8.8c0-.4.3-.7.7-.7s.7.3.7.7v8.8l2.3-2.3c.3-.3.7-.3.9 0 .3.2.3.6.1.8" />
</svg>