<svg data-name="Layer 1" xmlns="http://www.w3.org/2000/svg" fill="currentColor" viewBox="0 0 48 48">
    <path
        d="M13.41 25.43V8a5.2 5.2 0 0 1 1.29-3.75 5 5 0 0 1 4.83-1.64 4.78 4.78 0 0 1 3.77 3.24 6.7 6.7 0 0 1 .35 2.09v8.45h2.28a5 5 0 0 1 3.46 1.25 1 1 0 0 0 .69.13 7 7 0 0 1 4.95.69 6.7 6.7 0 0 1 1.37 1.24 1.16 1.16 0 0 0 .92.5 5.12 5.12 0 0 1 5.17 5.4v10.11a9.64 9.64 0 0 1-5 8.35 10.2 10.2 0 0 1-5.72 1.53h-8.61a12.68 12.68 0 0 1-10.56-5.26c-2.29-3-4.5-6-6.73-9a5 5 0 0 1-.07-6.24c1.2-1.85 5.28-2.6 7.2-.2Zm2.64-6.87V29a5 5 0 0 1 0 .78 1.12 1.12 0 0 1-1.48 1 2.13 2.13 0 0 1-1-.68c-.79-1-1.54-2-2.26-3.08a2.15 2.15 0 0 0-2.19-.94 1.93 1.93 0 0 0-1.62 1.45 2 2 0 0 0 .44 2l6.76 9.12a9.86 9.86 0 0 0 8.44 4.24h8.66a7.94 7.94 0 0 0 6.71-3.37 5.52 5.52 0 0 0 1.26-3.25c.06-3.74 0-7.49 0-11.23a2.27 2.27 0 0 0-2-2.19c-.6-.06-1.2-.06-1.8-.08a1.47 1.47 0 0 1-1.28-.77c-.17-.29-.34-.57-.54-.85-.82-1.14-3.1-1-4.15-.59a1.42 1.42 0 0 1-1.94-.52 2.56 2.56 0 0 0-1.2-.84 4.18 4.18 0 0 0-3.7.51 1.32 1.32 0 0 1-2.16-1V7.53a2.4 2.4 0 0 0-4-1.79 2.64 2.64 0 0 0-1 2.28c.06 3.5.05 6.98.05 10.54" />
    <path
        d="M35.73 33.47v3.93a1.27 1.27 0 0 1-1.8 1.31 2.1 2.1 0 0 1-.75-.83 1.5 1.5 0 0 1-.1-.71v-7.41a2.3 2.3 0 0 1 .19-1 1.3 1.3 0 0 1 2.4.32 3 3 0 0 1 .06.66Zm-13.38-.05V29.6a1.37 1.37 0 0 1 .79-1.38 1.13 1.13 0 0 1 1.39.25 2 2 0 0 1 .47 1.15v7.69a1.34 1.34 0 0 1-1.81 1.42c-.56-.19-.84-.66-.85-1.44 0-1.29.01-2.58.01-3.87m7.83-.07v3.87c0 1-.29 1.39-1 1.56a1.25 1.25 0 0 1-1.55-1 3 3 0 0 1 0-.51v-7.62c0-.82.29-1.27.88-1.46a1.17 1.17 0 0 1 1.68 1.12v4Z" />
</svg>