<svg fill="none" xmlns="http://www.w3.org/2000/svg" viewBox="0 0 32 32">
    <path fill-rule="evenodd" clip-rule="evenodd"
        d="M1.882 1.882H2.9A.941.941 0 1 0 2.9 0H1.544C.69 0 0 .691 0 1.544v1.355a.941.941 0 1 0 1.882 0zm4.593-.94c0-.52.422-.942.941-.942h2.711a.941.941 0 0 1 0 1.882h-2.71a.94.94 0 0 1-.942-.94m7.229 0c0-.52.42-.942.94-.942h2.711a.941.941 0 1 1 0 1.882h-2.71a.94.94 0 0 1-.941-.94m7.228 0c0-.52.421-.942.94-.942h2.712a.941.941 0 1 1 0 1.882h-2.711a.94.94 0 0 1-.941-.94m7.228 0c0-.52.421-.942.941-.942h1.355C31.31 0 32 .691 32 1.544v1.355a.941.941 0 0 1-1.882 0V1.882H29.1a.94.94 0 0 1-.941-.94m2.899 5.533c.52 0 .941.422.941.941v2.711a.941.941 0 0 1-1.882 0v-2.71c0-.52.421-.942.94-.942m-30.118 0c.52 0 .941.422.941.941v2.711a.941.941 0 0 1-1.882 0v-2.71c0-.52.421-.942.941-.942m0 7.229c.52 0 .941.42.941.94v2.711a.941.941 0 1 1-1.882 0v-2.71a.94.94 0 0 1 .941-.941m30.118 0c.52 0 .941.42.941.94v2.711a.941.941 0 0 1-1.882 0v-2.71a.94.94 0 0 1 .94-.941m0 7.228a.94.94 0 0 1 .941.94v2.712a.941.941 0 0 1-1.882 0v-2.711a.94.94 0 0 1 .94-.941m-30.118 0a.94.94 0 0 1 .941.94v2.712a.941.941 0 1 1-1.882 0v-2.711a.94.94 0 0 1 .941-.941M31.06 28.16a.94.94 0 0 1 .941.941v1.355A1.545 1.545 0 0 1 30.456 32h-1.355a.941.941 0 0 1 0-1.882h1.017V29.1a.94.94 0 0 1 .94-.941m-30.118 0a.94.94 0 0 1 .941.941v1.017H2.9a.941.941 0 0 1 0 1.882H1.544A1.544 1.544 0 0 1 0 30.456v-1.355a.94.94 0 0 1 .941-.941m5.534 2.899c0-.52.422-.941.941-.941h2.711a.941.941 0 0 1 0 1.882h-2.71a.94.94 0 0 1-.942-.941m7.229 0c0-.52.42-.941.94-.941h2.711a.941.941 0 0 1 0 1.882h-2.71a.94.94 0 0 1-.941-.941m7.228 0a.94.94 0 0 1 .94-.941h2.712a.941.941 0 0 1 0 1.882h-2.711a.94.94 0 0 1-.941-.941"
        fill="currentColor" />
    <path
        d="M16 8a8 8 0 1 0 0 16 8 8 0 0 0 0-16m4.197 3.803c2.111 2.111 2.258 5.338.667 7.601l-8.268-8.268c2.265-1.592 5.491-1.443 7.601.667m-8.394 8.394c-2.111-2.111-2.258-5.338-.667-7.601l8.268 8.268c-2.264 1.592-5.491 1.443-7.601-.667"
        fill="currentColor" />
</svg>