<svg fill="none" xmlns="http://www.w3.org/2000/svg" viewBox="0 0 32 33">
    <path fill-rule="evenodd" clip-rule="evenodd"
        d="M1.882 2.549H2.9a.941.941 0 1 0 0-1.882H1.544C.69.667 0 1.357 0 2.21v1.355a.941.941 0 1 0 1.882 0zm4.593-.941c0-.52.422-.941.941-.941h2.711a.941.941 0 0 1 0 1.882h-2.71a.94.94 0 0 1-.942-.941m7.229 0c0-.52.42-.941.94-.941h2.711a.941.941 0 1 1 0 1.882h-2.71a.94.94 0 0 1-.941-.941m7.228 0a.94.94 0 0 1 .94-.941h2.712a.941.941 0 1 1 0 1.882h-2.711a.94.94 0 0 1-.941-.941m7.228 0a.94.94 0 0 1 .941-.941h1.355C31.31.667 32 1.357 32 2.21v1.355a.941.941 0 0 1-1.882 0V2.55H29.1a.94.94 0 0 1-.941-.941m2.899 5.534a.94.94 0 0 1 .941.941v2.71a.941.941 0 0 1-1.882 0v-2.71a.94.94 0 0 1 .94-.941m-30.118 0a.94.94 0 0 1 .941.941v2.71a.941.941 0 0 1-1.882 0v-2.71a.94.94 0 0 1 .941-.941m0 7.228a.94.94 0 0 1 .941.941v2.71a.941.941 0 1 1-1.882 0v-2.71a.94.94 0 0 1 .941-.941m30.118 0a.94.94 0 0 1 .941.941v2.71a.941.941 0 0 1-1.882 0v-2.71a.94.94 0 0 1 .94-.941m0 7.228c.52 0 .941.422.941.941v2.711a.941.941 0 0 1-1.882 0v-2.71c0-.52.421-.942.94-.942m-30.118 0c.52 0 .941.422.941.941v2.711a.941.941 0 1 1-1.882 0v-2.71c0-.52.421-.942.941-.942m30.118 7.229c.52 0 .941.42.941.94v1.356c0 .852-.691 1.543-1.544 1.543h-1.355a.941.941 0 0 1 0-1.882h1.017v-1.016c0-.52.421-.942.94-.942m-30.118 0c.52 0 .941.42.941.94v1.017H2.9a.941.941 0 1 1 0 1.883H1.544A1.544 1.544 0 0 1 0 31.123v-1.355c0-.52.421-.942.941-.942m5.534 2.898c0-.52.422-.94.941-.94h2.711a.941.941 0 1 1 0 1.881h-2.71a.94.94 0 0 1-.942-.94m7.229 0c0-.52.42-.94.94-.94h2.711a.941.941 0 1 1 0 1.881h-2.71a.94.94 0 0 1-.941-.94m7.228 0c0-.52.421-.94.94-.94h2.712a.941.941 0 1 1 0 1.881h-2.711a.94.94 0 0 1-.941-.94"
        fill="currentColor" />
    <path
        d="M12.333 9.524v2.857a.857.857 0 0 1-.857.857H7.857A.857.857 0 0 1 7 12.38V9.524c0-.474.384-.857.857-.857h3.62c.473 0 .856.383.856.857m6.477 8.571v-2.857a.857.857 0 0 0-.858-.857h-3.619a.857.857 0 0 0-.857.857v2.857c0 .474.384.857.857.857h3.62a.857.857 0 0 0 .857-.857m1.142-8.571v2.857c0 .473.384.857.857.857h3.62a.857.857 0 0 0 .857-.857V9.524a.857.857 0 0 0-.857-.857h-3.62a.857.857 0 0 0-.857.857M18.81 12.38V9.524a.857.857 0 0 0-.857-.857h-3.619a.857.857 0 0 0-.857.857v2.857c0 .473.384.857.857.857h3.62a.857.857 0 0 0 .857-.857m-7.333 2H7.857a.857.857 0 0 0-.857.857v2.857c0 .474.384.857.857.857h3.62a.857.857 0 0 0 .856-.857v-2.857a.857.857 0 0 0-.857-.857M7 20.952v2.857c0 .474.384.857.857.857h3.62a.857.857 0 0 0 .856-.857v-2.857a.857.857 0 0 0-.857-.857H7.857a.857.857 0 0 0-.857.857m13.81-2h3.619a.857.857 0 0 0 .857-.857v-2.857a.857.857 0 0 0-.857-.857h-3.62a.857.857 0 0 0-.857.857v2.857c0 .474.384.857.857.857m0 5.714h3.619a.857.857 0 0 0 .857-.857v-2.857a.857.857 0 0 0-.857-.857h-3.62a.857.857 0 0 0-.857.857v2.857c0 .474.384.857.857.857m-7.334-3.714v2.857c0 .474.384.857.857.857h3.62a.857.857 0 0 0 .857-.857v-2.857a.857.857 0 0 0-.858-.857h-3.619a.857.857 0 0 0-.857.857"
        fill="currentColor" />
</svg>