<svg width="574" height="180" viewBox="0 0 574 180" fill="none" xmlns="http://www.w3.org/2000/svg">
<path fill-rule="evenodd" clip-rule="evenodd" d="M280.5 4.43596C280.442 4.43801 280.385 4.44015 280.327 4.44238C279.231 4.48485 278.144 4.55926 277.07 4.6643C262.197 6.11765 249.415 13.4454 240.342 23.2669C231.248 33.1099 226 45.3224 226 56.4004V72.4004H268.125V46.2754C268.125 40.6863 271.315 35.8457 275.965 33.4689C277.182 32.8465 278.501 32.3923 279.889 32.1373C280.091 32.1002 280.295 32.0672 280.5 32.0387V4.43596ZM284.5 4.43596V32.0387C284.705 32.0672 284.909 32.1002 285.111 32.1373C286.499 32.3923 287.818 32.8465 289.035 33.4689C293.685 35.8457 296.875 40.6863 296.875 46.2754V72.4004H339V56.4004C339 45.3224 333.752 33.1099 324.658 23.2669C315.585 13.4454 302.803 6.11765 287.93 4.6643C286.856 4.55926 285.769 4.48485 284.673 4.44238C284.615 4.44015 284.558 4.43801 284.5 4.43596ZM339 76.4004H296.875V80.0254C296.875 87.9645 290.439 94.4004 282.5 94.4004C274.561 94.4004 268.125 87.9645 268.125 80.0254V76.4004H226V119.4C226 150.604 251.296 175.9 282.5 175.9C313.704 175.9 339 150.604 339 119.4V76.4004ZM343 119.4C343 152.814 315.913 179.9 282.5 179.9C249.087 179.9 222 152.814 222 119.4V56.4004C222 44.1251 227.769 30.9811 237.404 20.5525C247.058 10.1024 260.714 2.24351 276.68 0.68326C277.833 0.570636 278.997 0.490885 280.173 0.445373C280.944 0.415512 281.72 0.400391 282.5 0.400391C283.28 0.400391 284.056 0.415512 284.827 0.445373C286.003 0.490885 287.167 0.570636 288.32 0.68326C304.286 2.24351 317.942 10.1024 327.596 20.5525C337.231 30.9811 343 44.1251 343 56.4004V119.4ZM292.875 46.2754C292.875 42.2465 290.579 38.7503 287.215 37.0305C286.337 36.5821 285.388 36.2551 284.389 36.0715C283.778 35.9593 283.147 35.9004 282.5 35.9004C281.853 35.9004 281.222 35.9593 280.611 36.0715C279.612 36.2551 278.663 36.5821 277.785 37.0305C274.421 38.7503 272.125 42.2465 272.125 46.2754V80.0254C272.125 85.7553 276.77 90.4004 282.5 90.4004C288.23 90.4004 292.875 85.7553 292.875 80.0254V46.2754Z" fill="#6A6F83"/>
<path d="M65 30.4004H207.275C207.526 30.4004 207.774 30.4475 208.007 30.5393L250.5 47.2615C250.733 47.3533 250.981 47.4004 251.232 47.4004H283" stroke="#0024FC" stroke-width="2"/>
<path d="M499 30.4004H355.39C354.923 30.4004 354.472 30.5632 354.113 30.8608L315.408 62.9532C315.049 63.2507 314.597 63.4136 314.131 63.4136H283" stroke="#0024FC" stroke-width="2"/>
<path d="M283 79.4004V109.506C283 110.344 282.478 111.093 281.691 111.382L208.679 138.277C208.457 138.359 208.223 138.4 207.987 138.4L66 138.4" stroke="#0024FC" stroke-width="2"/>
<path d="M514.459 35.4004L511.612 30.2329H510.812V35.4004H507.478V21.7114H513.074C514.153 21.7114 515.07 21.8999 515.824 22.2769C516.591 22.6539 517.163 23.1739 517.54 23.8369C517.917 24.4869 518.105 25.2149 518.105 26.0209C518.105 26.9309 517.845 27.7434 517.325 28.4584C516.818 29.1734 516.064 29.6804 515.063 29.9794L518.222 35.4004H514.459ZM510.812 27.8734H512.879C513.49 27.8734 513.945 27.7239 514.244 27.4249C514.556 27.1259 514.712 26.7034 514.712 26.1574C514.712 25.6374 514.556 25.2279 514.244 24.9289C513.945 24.6299 513.49 24.4804 512.879 24.4804H510.812V27.8734ZM525.451 35.5564C524.385 35.5564 523.423 35.3289 522.565 34.8739C521.72 34.4189 521.051 33.7689 520.557 32.9239C520.076 32.0789 519.835 31.0909 519.835 29.9599C519.835 28.8419 520.082 27.8604 520.576 27.0154C521.07 26.1574 521.746 25.5009 522.604 25.0459C523.462 24.5909 524.424 24.3634 525.49 24.3634C526.556 24.3634 527.518 24.5909 528.376 25.0459C529.234 25.5009 529.91 26.1574 530.404 27.0154C530.898 27.8604 531.145 28.8419 531.145 29.9599C531.145 31.0779 530.892 32.0659 530.385 32.9239C529.891 33.7689 529.208 34.4189 528.337 34.8739C527.479 35.3289 526.517 35.5564 525.451 35.5564ZM525.451 32.6704C526.088 32.6704 526.628 32.4364 527.07 31.9684C527.525 31.5004 527.752 30.8309 527.752 29.9599C527.752 29.0889 527.531 28.4194 527.089 27.9514C526.66 27.4834 526.127 27.2494 525.49 27.2494C524.84 27.2494 524.301 27.4834 523.872 27.9514C523.443 28.4064 523.228 29.0759 523.228 29.9599C523.228 30.8309 523.436 31.5004 523.852 31.9684C524.281 32.4364 524.814 32.6704 525.451 32.6704ZM539.279 32.5729V35.4004H537.582C536.373 35.4004 535.431 35.1079 534.755 34.5229C534.079 33.9249 533.741 32.9564 533.741 31.6174V27.2884H532.415V24.5194H533.741V21.8674H537.075V24.5194H539.259V27.2884H537.075V31.6564C537.075 31.9814 537.153 32.2154 537.309 32.3584C537.465 32.5014 537.725 32.5729 538.089 32.5729H539.279ZM540.773 29.9404C540.773 28.8224 540.981 27.8409 541.397 26.9959C541.826 26.1509 542.405 25.5009 543.133 25.0459C543.861 24.5909 544.673 24.3634 545.57 24.3634C546.337 24.3634 547.007 24.5194 547.579 24.8314C548.164 25.1434 548.612 25.5529 548.924 26.0599V24.5194H552.259V35.4004H548.924V33.8599C548.599 34.3669 548.144 34.7764 547.559 35.0884C546.987 35.4004 546.318 35.5564 545.551 35.5564C544.667 35.5564 543.861 35.3289 543.133 34.8739C542.405 34.4059 541.826 33.7494 541.397 32.9044C540.981 32.0464 540.773 31.0584 540.773 29.9404ZM548.924 29.9599C548.924 29.1279 548.69 28.4714 548.222 27.9904C547.767 27.5094 547.208 27.2689 546.545 27.2689C545.882 27.2689 545.317 27.5094 544.849 27.9904C544.394 28.4584 544.166 29.1084 544.166 29.9404C544.166 30.7724 544.394 31.4354 544.849 31.9294C545.317 32.4104 545.882 32.6509 546.545 32.6509C547.208 32.6509 547.767 32.4104 548.222 31.9294C548.69 31.4484 548.924 30.7919 548.924 29.9599ZM561.036 32.5729V35.4004H559.339C558.13 35.4004 557.188 35.1079 556.512 34.5229C555.836 33.9249 555.498 32.9564 555.498 31.6174V27.2884H554.172V24.5194H555.498V21.8674H558.832V24.5194H561.016V27.2884H558.832V31.6564C558.832 31.9814 558.91 32.2154 559.066 32.3584C559.222 32.5014 559.482 32.5729 559.846 32.5729H561.036ZM573.45 29.7844C573.45 30.0964 573.43 30.4214 573.391 30.7594H565.845C565.897 31.4354 566.111 31.9554 566.488 32.3194C566.878 32.6704 567.353 32.8459 567.912 32.8459C568.744 32.8459 569.322 32.4949 569.647 31.7929H573.196C573.014 32.5079 572.683 33.1514 572.202 33.7234C571.734 34.2954 571.142 34.7439 570.427 35.0689C569.712 35.3939 568.913 35.5564 568.029 35.5564C566.963 35.5564 566.014 35.3289 565.182 34.8739C564.35 34.4189 563.7 33.7689 563.232 32.9239C562.764 32.0789 562.53 31.0909 562.53 29.9599C562.53 28.8289 562.757 27.8409 563.212 26.9959C563.68 26.1509 564.33 25.5009 565.162 25.0459C565.994 24.5909 566.95 24.3634 568.029 24.3634C569.082 24.3634 570.018 24.5844 570.837 25.0264C571.656 25.4684 572.293 26.0989 572.748 26.9179C573.216 27.7369 573.45 28.6924 573.45 29.7844ZM570.037 28.9069C570.037 28.3349 569.842 27.8799 569.452 27.5419C569.062 27.2039 568.575 27.0349 567.99 27.0349C567.431 27.0349 566.956 27.1974 566.566 27.5224C566.189 27.8474 565.955 28.3089 565.864 28.9069H570.037ZM433.816 50.4704C433.356 50.4704 432.943 50.3904 432.576 50.2304C432.216 50.0637 431.933 49.8371 431.726 49.5504C431.519 49.2571 431.413 48.9204 431.406 48.5404H432.376C432.409 48.8671 432.543 49.1437 432.776 49.3704C433.016 49.5904 433.363 49.7004 433.816 49.7004C434.249 49.7004 434.589 49.5937 434.836 49.3804C435.089 49.1604 435.216 48.8804 435.216 48.5404C435.216 48.2737 435.143 48.0571 434.996 47.8904C434.849 47.7237 434.666 47.5971 434.446 47.5104C434.226 47.4237 433.929 47.3304 433.556 47.2304C433.096 47.1104 432.726 46.9904 432.446 46.8704C432.173 46.7504 431.936 46.5637 431.736 46.3104C431.543 46.0504 431.446 45.7037 431.446 45.2704C431.446 44.8904 431.543 44.5537 431.736 44.2604C431.929 43.9671 432.199 43.7404 432.546 43.5804C432.899 43.4204 433.303 43.3404 433.756 43.3404C434.409 43.3404 434.943 43.5037 435.356 43.8304C435.776 44.1571 436.013 44.5904 436.066 45.1304H435.066C435.033 44.8637 434.893 44.6304 434.646 44.4304C434.399 44.2237 434.073 44.1204 433.666 44.1204C433.286 44.1204 432.976 44.2204 432.736 44.4204C432.496 44.6137 432.376 44.8871 432.376 45.2404C432.376 45.4937 432.446 45.7004 432.586 45.8604C432.733 46.0204 432.909 46.1437 433.116 46.2304C433.329 46.3104 433.626 46.4037 434.006 46.5104C434.466 46.6371 434.836 46.7637 435.116 46.8904C435.396 47.0104 435.636 47.2004 435.836 47.4604C436.036 47.7137 436.136 48.0604 436.136 48.5004C436.136 48.8404 436.046 49.1604 435.866 49.4604C435.686 49.7604 435.419 50.0037 435.066 50.1904C434.713 50.3771 434.296 50.4704 433.816 50.4704ZM440.195 44.8204C440.608 44.8204 440.982 44.9104 441.315 45.0904C441.648 45.2637 441.908 45.5271 442.095 45.8804C442.288 46.2337 442.385 46.6637 442.385 47.1704V50.4004H441.485V47.3004C441.485 46.7537 441.348 46.3371 441.075 46.0504C440.802 45.7571 440.428 45.6104 439.955 45.6104C439.475 45.6104 439.092 45.7604 438.805 46.0604C438.525 46.3604 438.385 46.7971 438.385 47.3704V50.4004H437.475V43.0004H438.385V45.7004C438.565 45.4204 438.812 45.2037 439.125 45.0504C439.445 44.8971 439.802 44.8204 440.195 44.8204ZM444.342 44.0304C444.168 44.0304 444.022 43.9704 443.902 43.8504C443.782 43.7304 443.722 43.5837 443.722 43.4104C443.722 43.2371 443.782 43.0904 443.902 42.9704C444.022 42.8504 444.168 42.7904 444.342 42.7904C444.508 42.7904 444.648 42.8504 444.762 42.9704C444.882 43.0904 444.942 43.2371 444.942 43.4104C444.942 43.5837 444.882 43.7304 444.762 43.8504C444.648 43.9704 444.508 44.0304 444.342 44.0304ZM444.782 44.9204V50.4004H443.872V44.9204H444.782ZM448.563 45.6704H447.413V50.4004H446.503V45.6704H445.793V44.9204H446.503V44.5304C446.503 43.9171 446.659 43.4704 446.973 43.1904C447.293 42.9037 447.803 42.7604 448.502 42.7604V43.5204C448.103 43.5204 447.819 43.6004 447.653 43.7604C447.493 43.9137 447.413 44.1704 447.413 44.5304V44.9204H448.563V45.6704ZM450.734 45.6704V48.9004C450.734 49.1671 450.79 49.3571 450.904 49.4704C451.017 49.5771 451.214 49.6304 451.494 49.6304H452.164V50.4004H451.344C450.837 50.4004 450.457 50.2837 450.204 50.0504C449.95 49.8171 449.824 49.4337 449.824 48.9004V45.6704H449.114V44.9204H449.824V43.5404H450.734V44.9204H452.164V45.6704H450.734ZM461.132 47.1304H459.002V49.2904H458.152V47.1304H456.032V46.3604H458.152V44.1904H459.002V46.3604H461.132V47.1304ZM472.494 43.4804V50.4004H471.584V45.2404L469.284 50.4004H468.644L466.334 45.2304V50.4004H465.424V43.4804H466.404L468.964 49.2004L471.524 43.4804H472.494ZM474.508 44.0304C474.334 44.0304 474.188 43.9704 474.068 43.8504C473.948 43.7304 473.888 43.5837 473.888 43.4104C473.888 43.2371 473.948 43.0904 474.068 42.9704C474.188 42.8504 474.334 42.7904 474.508 42.7904C474.674 42.7904 474.814 42.8504 474.928 42.9704C475.048 43.0904 475.108 43.2371 475.108 43.4104C475.108 43.5837 475.048 43.7304 474.928 43.8504C474.814 43.9704 474.674 44.0304 474.508 44.0304ZM474.948 44.9204V50.4004H474.038V44.9204H474.948ZM476.159 47.6404C476.159 47.0804 476.272 46.5904 476.499 46.1704C476.725 45.7437 477.035 45.4137 477.429 45.1804C477.829 44.9471 478.275 44.8304 478.769 44.8304C479.195 44.8304 479.592 44.9304 479.959 45.1304C480.325 45.3237 480.605 45.5804 480.799 45.9004V43.0004H481.719V50.4004H480.799V49.3704C480.619 49.6971 480.352 49.9671 479.999 50.1804C479.645 50.3871 479.232 50.4904 478.759 50.4904C478.272 50.4904 477.829 50.3704 477.429 50.1304C477.035 49.8904 476.725 49.5537 476.499 49.1204C476.272 48.6871 476.159 48.1937 476.159 47.6404ZM480.799 47.6504C480.799 47.2371 480.715 46.8771 480.549 46.5704C480.382 46.2637 480.155 46.0304 479.869 45.8704C479.589 45.7037 479.279 45.6204 478.939 45.6204C478.599 45.6204 478.289 45.7004 478.009 45.8604C477.729 46.0204 477.505 46.2537 477.339 46.5604C477.172 46.8671 477.089 47.2271 477.089 47.6404C477.089 48.0604 477.172 48.4271 477.339 48.7404C477.505 49.0471 477.729 49.2837 478.009 49.4504C478.289 49.6104 478.599 49.6904 478.939 49.6904C479.279 49.6904 479.589 49.6104 479.869 49.4504C480.155 49.2837 480.382 49.0471 480.549 48.7404C480.715 48.4271 480.799 48.0637 480.799 47.6504ZM482.916 47.6404C482.916 47.0804 483.03 46.5904 483.256 46.1704C483.483 45.7437 483.793 45.4137 484.186 45.1804C484.586 44.9471 485.033 44.8304 485.526 44.8304C485.953 44.8304 486.35 44.9304 486.716 45.1304C487.083 45.3237 487.363 45.5804 487.556 45.9004V43.0004H488.476V50.4004H487.556V49.3704C487.376 49.6971 487.11 49.9671 486.756 50.1804C486.403 50.3871 485.99 50.4904 485.516 50.4904C485.03 50.4904 484.586 50.3704 484.186 50.1304C483.793 49.8904 483.483 49.5537 483.256 49.1204C483.03 48.6871 482.916 48.1937 482.916 47.6404ZM487.556 47.6504C487.556 47.2371 487.473 46.8771 487.306 46.5704C487.14 46.2637 486.913 46.0304 486.626 45.8704C486.346 45.7037 486.036 45.6204 485.696 45.6204C485.356 45.6204 485.046 45.7004 484.766 45.8604C484.486 46.0204 484.263 46.2537 484.096 46.5604C483.93 46.8671 483.846 47.2271 483.846 47.6404C483.846 48.0604 483.93 48.4271 484.096 48.7404C484.263 49.0471 484.486 49.2837 484.766 49.4504C485.046 49.6104 485.356 49.6904 485.696 49.6904C486.036 49.6904 486.346 49.6104 486.626 49.4504C486.913 49.2837 487.14 49.0471 487.306 48.7404C487.473 48.4271 487.556 48.0637 487.556 47.6504ZM490.924 43.0004V50.4004H490.014V43.0004H490.924ZM497.475 47.4504C497.475 47.6237 497.465 47.8071 497.445 48.0004H493.065C493.098 48.5404 493.282 48.9637 493.615 49.2704C493.955 49.5704 494.365 49.7204 494.845 49.7204C495.238 49.7204 495.565 49.6304 495.825 49.4504C496.092 49.2637 496.278 49.0171 496.385 48.7104H497.365C497.218 49.2371 496.925 49.6671 496.485 50.0004C496.045 50.3271 495.498 50.4904 494.845 50.4904C494.325 50.4904 493.858 50.3737 493.445 50.1404C493.038 49.9071 492.718 49.5771 492.485 49.1504C492.252 48.7171 492.135 48.2171 492.135 47.6504C492.135 47.0837 492.248 46.5871 492.475 46.1604C492.702 45.7337 493.018 45.4071 493.425 45.1804C493.838 44.9471 494.312 44.8304 494.845 44.8304C495.365 44.8304 495.825 44.9437 496.225 45.1704C496.625 45.3971 496.932 45.7104 497.145 46.1104C497.365 46.5037 497.475 46.9504 497.475 47.4504ZM496.535 47.2604C496.535 46.9137 496.458 46.6171 496.305 46.3704C496.152 46.1171 495.942 45.9271 495.675 45.8004C495.415 45.6671 495.125 45.6004 494.805 45.6004C494.345 45.6004 493.952 45.7471 493.625 46.0404C493.305 46.3337 493.122 46.7404 493.075 47.2604H496.535ZM501.002 46.9104C501.002 46.2304 501.156 45.6204 501.462 45.0804C501.769 44.5337 502.186 44.1071 502.712 43.8004C503.246 43.4937 503.836 43.3404 504.482 43.3404C505.242 43.3404 505.906 43.5237 506.472 43.8904C507.039 44.2571 507.452 44.7771 507.712 45.4504H506.622C506.429 45.0304 506.149 44.7071 505.782 44.4804C505.422 44.2537 504.989 44.1404 504.482 44.1404C503.996 44.1404 503.559 44.2537 503.172 44.4804C502.786 44.7071 502.482 45.0304 502.262 45.4504C502.042 45.8637 501.932 46.3504 501.932 46.9104C501.932 47.4637 502.042 47.9504 502.262 48.3704C502.482 48.7837 502.786 49.1037 503.172 49.3304C503.559 49.5571 503.996 49.6704 504.482 49.6704C504.989 49.6704 505.422 49.5604 505.782 49.3404C506.149 49.1137 506.429 48.7904 506.622 48.3704H507.712C507.452 49.0371 507.039 49.5537 506.472 49.9204C505.906 50.2804 505.242 50.4604 504.482 50.4604C503.836 50.4604 503.246 50.3104 502.712 50.0104C502.186 49.7037 501.769 49.2804 501.462 48.7404C501.156 48.2004 501.002 47.5904 501.002 46.9104ZM509.977 43.0004V50.4004H509.067V43.0004H509.977ZM511.998 44.0304C511.824 44.0304 511.678 43.9704 511.558 43.8504C511.438 43.7304 511.378 43.5837 511.378 43.4104C511.378 43.2371 511.438 43.0904 511.558 42.9704C511.678 42.8504 511.824 42.7904 511.998 42.7904C512.164 42.7904 512.304 42.8504 512.418 42.9704C512.538 43.0904 512.598 43.2371 512.598 43.4104C512.598 43.5837 512.538 43.7304 512.418 43.8504C512.304 43.9704 512.164 44.0304 511.998 44.0304ZM512.438 44.9204V50.4004H511.528V44.9204H512.438ZM513.649 47.6504C513.649 47.0837 513.762 46.5904 513.989 46.1704C514.215 45.7437 514.529 45.4137 514.929 45.1804C515.335 44.9471 515.799 44.8304 516.319 44.8304C516.992 44.8304 517.545 44.9937 517.979 45.3204C518.419 45.6471 518.709 46.1004 518.849 46.6804H517.869C517.775 46.3471 517.592 46.0837 517.319 45.8904C517.052 45.6971 516.719 45.6004 516.319 45.6004C515.799 45.6004 515.379 45.7804 515.059 46.1404C514.739 46.4937 514.579 46.9971 514.579 47.6504C514.579 48.3104 514.739 48.8204 515.059 49.1804C515.379 49.5404 515.799 49.7204 516.319 49.7204C516.719 49.7204 517.052 49.6271 517.319 49.4404C517.585 49.2537 517.769 48.9871 517.869 48.6404H518.849C518.702 49.2004 518.409 49.6504 517.969 49.9904C517.529 50.3237 516.979 50.4904 516.319 50.4904C515.799 50.4904 515.335 50.3737 514.929 50.1404C514.529 49.9071 514.215 49.5771 513.989 49.1504C513.762 48.7237 513.649 48.2237 513.649 47.6504ZM523.123 50.4004L520.973 47.9804V50.4004H520.063V43.0004H520.973V47.3504L523.083 44.9204H524.353L521.773 47.6504L524.363 50.4004H523.123ZM527.535 47.6404C527.535 47.0804 527.649 46.5904 527.875 46.1704C528.102 45.7437 528.412 45.4137 528.805 45.1804C529.205 44.9471 529.649 44.8304 530.135 44.8304C530.615 44.8304 531.032 44.9337 531.385 45.1404C531.739 45.3471 532.002 45.6071 532.175 45.9204V44.9204H533.095V50.4004H532.175V49.3804C531.995 49.7004 531.725 49.9671 531.365 50.1804C531.012 50.3871 530.599 50.4904 530.125 50.4904C529.639 50.4904 529.199 50.3704 528.805 50.1304C528.412 49.8904 528.102 49.5537 527.875 49.1204C527.649 48.6871 527.535 48.1937 527.535 47.6404ZM532.175 47.6504C532.175 47.2371 532.092 46.8771 531.925 46.5704C531.759 46.2637 531.532 46.0304 531.245 45.8704C530.965 45.7037 530.655 45.6204 530.315 45.6204C529.975 45.6204 529.665 45.7004 529.385 45.8604C529.105 46.0204 528.882 46.2537 528.715 46.5604C528.549 46.8671 528.465 47.2271 528.465 47.6404C528.465 48.0604 528.549 48.4271 528.715 48.7404C528.882 49.0471 529.105 49.2837 529.385 49.4504C529.665 49.6104 529.975 49.6904 530.315 49.6904C530.655 49.6904 530.965 49.6104 531.245 49.4504C531.532 49.2837 531.759 49.0471 531.925 48.7404C532.092 48.4271 532.175 48.0637 532.175 47.6504ZM537.303 44.8204C537.97 44.8204 538.51 45.0237 538.923 45.4304C539.337 45.8304 539.543 46.4104 539.543 47.1704V50.4004H538.643V47.3004C538.643 46.7537 538.507 46.3371 538.233 46.0504C537.96 45.7571 537.587 45.6104 537.113 45.6104C536.633 45.6104 536.25 45.7604 535.963 46.0604C535.683 46.3604 535.543 46.7971 535.543 47.3704V50.4004H534.633V44.9204H535.543V45.7004C535.723 45.4204 535.967 45.2037 536.273 45.0504C536.587 44.8971 536.93 44.8204 537.303 44.8204ZM540.69 47.6404C540.69 47.0804 540.803 46.5904 541.03 46.1704C541.256 45.7437 541.566 45.4137 541.96 45.1804C542.36 44.9471 542.806 44.8304 543.3 44.8304C543.726 44.8304 544.123 44.9304 544.49 45.1304C544.856 45.3237 545.136 45.5804 545.33 45.9004V43.0004H546.25V50.4004H545.33V49.3704C545.15 49.6971 544.883 49.9671 544.53 50.1804C544.176 50.3871 543.763 50.4904 543.29 50.4904C542.803 50.4904 542.36 50.3704 541.96 50.1304C541.566 49.8904 541.256 49.5537 541.03 49.1204C540.803 48.6871 540.69 48.1937 540.69 47.6404ZM545.33 47.6504C545.33 47.2371 545.246 46.8771 545.08 46.5704C544.913 46.2637 544.686 46.0304 544.4 45.8704C544.12 45.7037 543.81 45.6204 543.47 45.6204C543.13 45.6204 542.82 45.7004 542.54 45.8604C542.26 46.0204 542.036 46.2537 541.87 46.5604C541.703 46.8671 541.62 47.2271 541.62 47.6404C541.62 48.0604 541.703 48.4271 541.87 48.7404C542.036 49.0471 542.26 49.2837 542.54 49.4504C542.82 49.6104 543.13 49.6904 543.47 49.6904C543.81 49.6904 544.12 49.6104 544.4 49.4504C544.686 49.2837 544.913 49.0471 545.08 48.7404C545.246 48.4271 545.33 48.0637 545.33 47.6504ZM552.624 43.4304C553.384 43.4304 554.04 43.5737 554.594 43.8604C555.154 44.1404 555.58 44.5437 555.874 45.0704C556.174 45.5971 556.324 46.2171 556.324 46.9304C556.324 47.6437 556.174 48.2637 555.874 48.7904C555.58 49.3104 555.154 49.7104 554.594 49.9904C554.04 50.2637 553.384 50.4004 552.624 50.4004H550.454V43.4304H552.624ZM552.624 49.6504C553.524 49.6504 554.21 49.4137 554.684 48.9404C555.157 48.4604 555.394 47.7904 555.394 46.9304C555.394 46.0637 555.154 45.3871 554.674 44.9004C554.2 44.4137 553.517 44.1704 552.624 44.1704H551.364V49.6504H552.624ZM558.434 45.8104C558.594 45.4971 558.821 45.2537 559.114 45.0804C559.414 44.9071 559.777 44.8204 560.204 44.8204V45.7604H559.964C558.944 45.7604 558.434 46.3137 558.434 47.4204V50.4004H557.524V44.9204H558.434V45.8104ZM560.914 47.6404C560.914 47.0804 561.028 46.5904 561.254 46.1704C561.481 45.7437 561.791 45.4137 562.184 45.1804C562.584 44.9471 563.028 44.8304 563.514 44.8304C563.994 44.8304 564.411 44.9337 564.764 45.1404C565.118 45.3471 565.381 45.6071 565.554 45.9204V44.9204H566.474V50.4004H565.554V49.3804C565.374 49.7004 565.104 49.9671 564.744 50.1804C564.391 50.3871 563.978 50.4904 563.504 50.4904C563.018 50.4904 562.578 50.3704 562.184 50.1304C561.791 49.8904 561.481 49.5537 561.254 49.1204C561.028 48.6871 560.914 48.1937 560.914 47.6404ZM565.554 47.6504C565.554 47.2371 565.471 46.8771 565.304 46.5704C565.138 46.2637 564.911 46.0304 564.624 45.8704C564.344 45.7037 564.034 45.6204 563.694 45.6204C563.354 45.6204 563.044 45.7004 562.764 45.8604C562.484 46.0204 562.261 46.2537 562.094 46.5604C561.928 46.8671 561.844 47.2271 561.844 47.6404C561.844 48.0604 561.928 48.4271 562.094 48.7404C562.261 49.0471 562.484 49.2837 562.764 49.4504C563.044 49.6104 563.354 49.6904 563.694 49.6904C564.034 49.6904 564.344 49.6104 564.624 49.4504C564.911 49.2837 565.138 49.0471 565.304 48.7404C565.471 48.4271 565.554 48.0637 565.554 47.6504ZM570.272 44.8304C570.746 44.8304 571.159 44.9337 571.512 45.1404C571.872 45.3471 572.139 45.6071 572.312 45.9204V44.9204H573.232V50.5204C573.232 51.0204 573.126 51.4637 572.912 51.8504C572.699 52.2437 572.392 52.5504 571.992 52.7704C571.599 52.9904 571.139 53.1004 570.612 53.1004C569.892 53.1004 569.292 52.9304 568.812 52.5904C568.332 52.2504 568.049 51.7871 567.962 51.2004H568.862C568.962 51.5337 569.169 51.8004 569.482 52.0004C569.796 52.2071 570.172 52.3104 570.612 52.3104C571.112 52.3104 571.519 52.1537 571.832 51.8404C572.152 51.5271 572.312 51.0871 572.312 50.5204V49.3704C572.132 49.6904 571.866 49.9571 571.512 50.1704C571.159 50.3837 570.746 50.4904 570.272 50.4904C569.786 50.4904 569.342 50.3704 568.942 50.1304C568.549 49.8904 568.239 49.5537 568.012 49.1204C567.786 48.6871 567.672 48.1937 567.672 47.6404C567.672 47.0804 567.786 46.5904 568.012 46.1704C568.239 45.7437 568.549 45.4137 568.942 45.1804C569.342 44.9471 569.786 44.8304 570.272 44.8304ZM572.312 47.6504C572.312 47.2371 572.229 46.8771 572.062 46.5704C571.896 46.2637 571.669 46.0304 571.382 45.8704C571.102 45.7037 570.792 45.6204 570.452 45.6204C570.112 45.6204 569.802 45.7004 569.522 45.8604C569.242 46.0204 569.019 46.2537 568.852 46.5604C568.686 46.8671 568.602 47.2271 568.602 47.6404C568.602 48.0604 568.686 48.4271 568.852 48.7404C569.019 49.0471 569.242 49.2837 569.522 49.4504C569.802 49.6104 570.112 49.6904 570.452 49.6904C570.792 49.6904 571.102 49.6104 571.382 49.4504C571.669 49.2837 571.896 49.0471 572.062 48.7404C572.229 48.4271 572.312 48.0637 572.312 47.6504Z" fill="#2E3134"/>
<path d="M4.758 139.67H10.647V142.4H0.975V139.865L6.825 131.441H0.975V128.711H10.647V131.246L4.758 139.67ZM18.0782 142.556C17.0122 142.556 16.0502 142.329 15.1922 141.874C14.3472 141.419 13.6777 140.769 13.1837 139.924C12.7027 139.079 12.4622 138.091 12.4622 136.96C12.4622 135.842 12.7092 134.86 13.2032 134.015C13.6972 133.157 14.3732 132.501 15.2312 132.046C16.0892 131.591 17.0512 131.363 18.1172 131.363C19.1832 131.363 20.1452 131.591 21.0032 132.046C21.8612 132.501 22.5372 133.157 23.0312 134.015C23.5252 134.86 23.7722 135.842 23.7722 136.96C23.7722 138.078 23.5187 139.066 23.0117 139.924C22.5177 140.769 21.8352 141.419 20.9642 141.874C20.1062 142.329 19.1442 142.556 18.0782 142.556ZM18.0782 139.67C18.7152 139.67 19.2547 139.436 19.6967 138.968C20.1517 138.5 20.3792 137.831 20.3792 136.96C20.3792 136.089 20.1582 135.419 19.7162 134.951C19.2872 134.483 18.7542 134.249 18.1172 134.249C17.4672 134.249 16.9277 134.483 16.4987 134.951C16.0697 135.406 15.8552 136.076 15.8552 136.96C15.8552 137.831 16.0632 138.5 16.4792 138.968C16.9082 139.436 17.4412 139.67 18.0782 139.67ZM30.7942 142.556C29.7282 142.556 28.7662 142.329 27.9082 141.874C27.0632 141.419 26.3937 140.769 25.8997 139.924C25.4187 139.079 25.1782 138.091 25.1782 136.96C25.1782 135.842 25.4252 134.86 25.9192 134.015C26.4132 133.157 27.0892 132.501 27.9472 132.046C28.8052 131.591 29.7672 131.363 30.8332 131.363C31.8992 131.363 32.8612 131.591 33.7192 132.046C34.5772 132.501 35.2532 133.157 35.7472 134.015C36.2412 134.86 36.4882 135.842 36.4882 136.96C36.4882 138.078 36.2347 139.066 35.7277 139.924C35.2337 140.769 34.5512 141.419 33.6802 141.874C32.8222 142.329 31.8602 142.556 30.7942 142.556ZM30.7942 139.67C31.4312 139.67 31.9707 139.436 32.4127 138.968C32.8677 138.5 33.0952 137.831 33.0952 136.96C33.0952 136.089 32.8742 135.419 32.4322 134.951C32.0032 134.483 31.4702 134.249 30.8332 134.249C30.1832 134.249 29.6437 134.483 29.2147 134.951C28.7857 135.406 28.5712 136.076 28.5712 136.96C28.5712 137.831 28.7792 138.5 29.1952 138.968C29.6242 139.436 30.1572 139.67 30.7942 139.67ZM52.4412 131.402C53.7932 131.402 54.8657 131.812 55.6587 132.631C56.4647 133.45 56.8677 134.587 56.8677 136.043V142.4H53.5527V136.492C53.5527 135.79 53.3642 135.25 52.9872 134.873C52.6232 134.483 52.1162 134.288 51.4662 134.288C50.8162 134.288 50.3027 134.483 49.9257 134.873C49.5617 135.25 49.3797 135.79 49.3797 136.492V142.4H46.0647V136.492C46.0647 135.79 45.8762 135.25 45.4992 134.873C45.1352 134.483 44.6282 134.288 43.9782 134.288C43.3282 134.288 42.8147 134.483 42.4377 134.873C42.0737 135.25 41.8917 135.79 41.8917 136.492V142.4H38.5572V131.519H41.8917V132.884C42.2297 132.429 42.6717 132.072 43.2177 131.812C43.7637 131.539 44.3812 131.402 45.0702 131.402C45.8892 131.402 46.6172 131.578 47.2542 131.929C47.9042 132.28 48.4112 132.78 48.7752 133.43C49.1522 132.832 49.6657 132.345 50.3157 131.968C50.9657 131.591 51.6742 131.402 52.4412 131.402ZM7.84 150.48V157.4H6.93V152.24L4.63 157.4H3.99L1.68 152.23V157.4H0.77V150.48H1.75L4.31 156.2L6.87 150.48H7.84ZM11.7733 157.49C11.2599 157.49 10.7933 157.374 10.3733 157.14C9.95995 156.907 9.63328 156.577 9.39328 156.15C9.15995 155.717 9.04328 155.217 9.04328 154.65C9.04328 154.09 9.16328 153.597 9.40328 153.17C9.64995 152.737 9.98328 152.407 10.4033 152.18C10.8233 151.947 11.2933 151.83 11.8133 151.83C12.3333 151.83 12.8033 151.947 13.2233 152.18C13.6433 152.407 13.9733 152.734 14.2133 153.16C14.4599 153.587 14.5833 154.084 14.5833 154.65C14.5833 155.217 14.4566 155.717 14.2033 156.15C13.9566 156.577 13.6199 156.907 13.1933 157.14C12.7666 157.374 12.2933 157.49 11.7733 157.49ZM11.7733 156.69C12.0999 156.69 12.4066 156.614 12.6933 156.46C12.9799 156.307 13.2099 156.077 13.3833 155.77C13.5633 155.464 13.6533 155.09 13.6533 154.65C13.6533 154.21 13.5666 153.837 13.3933 153.53C13.2199 153.224 12.9933 152.997 12.7133 152.85C12.4333 152.697 12.1299 152.62 11.8033 152.62C11.4699 152.62 11.1633 152.697 10.8833 152.85C10.6099 152.997 10.3899 153.224 10.2233 153.53C10.0566 153.837 9.97328 154.21 9.97328 154.65C9.97328 155.097 10.0533 155.474 10.2133 155.78C10.3799 156.087 10.5999 156.317 10.8733 156.47C11.1466 156.617 11.4466 156.69 11.7733 156.69ZM20.6398 151.92V157.4H19.7298V156.59C19.5564 156.87 19.3131 157.09 18.9998 157.25C18.6931 157.404 18.3531 157.48 17.9798 157.48C17.5531 157.48 17.1698 157.394 16.8298 157.22C16.4898 157.04 16.2198 156.774 16.0198 156.42C15.8264 156.067 15.7298 155.637 15.7298 155.13V151.92H16.6298V155.01C16.6298 155.55 16.7664 155.967 17.0398 156.26C17.3131 156.547 17.6864 156.69 18.1598 156.69C18.6464 156.69 19.0298 156.54 19.3098 156.24C19.5898 155.94 19.7298 155.504 19.7298 154.93V151.92H20.6398ZM24.1163 157.49C23.6963 157.49 23.3196 157.42 22.9863 157.28C22.6529 157.134 22.3896 156.934 22.1963 156.68C22.0029 156.42 21.8963 156.124 21.8763 155.79H22.8163C22.8429 156.064 22.9696 156.287 23.1963 156.46C23.4296 156.634 23.7329 156.72 24.1063 156.72C24.4529 156.72 24.7263 156.644 24.9263 156.49C25.1263 156.337 25.2263 156.144 25.2263 155.91C25.2263 155.67 25.1196 155.494 24.9063 155.38C24.6929 155.26 24.3629 155.144 23.9163 155.03C23.5096 154.924 23.1763 154.817 22.9163 154.71C22.6629 154.597 22.4429 154.434 22.2563 154.22C22.0763 154 21.9863 153.714 21.9863 153.36C21.9863 153.08 22.0696 152.824 22.2363 152.59C22.4029 152.357 22.6396 152.174 22.9463 152.04C23.2529 151.9 23.6029 151.83 23.9963 151.83C24.6029 151.83 25.0929 151.984 25.4663 152.29C25.8396 152.597 26.0396 153.017 26.0663 153.55H25.1563C25.1363 153.264 25.0196 153.034 24.8063 152.86C24.5996 152.687 24.3196 152.6 23.9663 152.6C23.6396 152.6 23.3796 152.67 23.1863 152.81C22.9929 152.95 22.8963 153.134 22.8963 153.36C22.8963 153.54 22.9529 153.69 23.0663 153.81C23.1863 153.924 23.3329 154.017 23.5063 154.09C23.6863 154.157 23.9329 154.234 24.2463 154.32C24.6396 154.427 24.9596 154.534 25.2063 154.64C25.4529 154.74 25.6629 154.894 25.8363 155.1C26.0163 155.307 26.1096 155.577 26.1163 155.91C26.1163 156.21 26.0329 156.48 25.8663 156.72C25.6996 156.96 25.4629 157.15 25.1563 157.29C24.8563 157.424 24.5096 157.49 24.1163 157.49ZM32.4009 154.45C32.4009 154.624 32.3909 154.807 32.3709 155H27.9909C28.0242 155.54 28.2075 155.964 28.5409 156.27C28.8809 156.57 29.2909 156.72 29.7709 156.72C30.1642 156.72 30.4909 156.63 30.7509 156.45C31.0175 156.264 31.2042 156.017 31.3109 155.71H32.2909C32.1442 156.237 31.8509 156.667 31.4109 157C30.9709 157.327 30.4242 157.49 29.7709 157.49C29.2509 157.49 28.7842 157.374 28.3709 157.14C27.9642 156.907 27.6442 156.577 27.4109 156.15C27.1775 155.717 27.0609 155.217 27.0609 154.65C27.0609 154.084 27.1742 153.587 27.4009 153.16C27.6275 152.734 27.9442 152.407 28.3509 152.18C28.7642 151.947 29.2375 151.83 29.7709 151.83C30.2909 151.83 30.7509 151.944 31.1509 152.17C31.5509 152.397 31.8575 152.71 32.0709 153.11C32.2909 153.504 32.4009 153.95 32.4009 154.45ZM31.4609 154.26C31.4609 153.914 31.3842 153.617 31.2309 153.37C31.0775 153.117 30.8675 152.927 30.6009 152.8C30.3409 152.667 30.0509 152.6 29.7309 152.6C29.2709 152.6 28.8775 152.747 28.5509 153.04C28.2309 153.334 28.0475 153.74 28.0009 154.26H31.4609ZM45.028 150.43L43.008 157.4H41.988L40.368 151.79L38.688 157.4L37.678 157.41L35.728 150.43H36.698L38.218 156.34L39.898 150.43H40.918L42.518 156.32L44.048 150.43H45.028ZM48.7439 151.82C49.1572 151.82 49.5306 151.91 49.8639 152.09C50.1972 152.264 50.4572 152.527 50.6439 152.88C50.8372 153.234 50.9339 153.664 50.9339 154.17V157.4H50.0339V154.3C50.0339 153.754 49.8972 153.337 49.6239 153.05C49.3506 152.757 48.9772 152.61 48.5039 152.61C48.0239 152.61 47.6406 152.76 47.3539 153.06C47.0739 153.36 46.9339 153.797 46.9339 154.37V157.4H46.0239V150H46.9339V152.7C47.1139 152.42 47.3606 152.204 47.6739 152.05C47.9939 151.897 48.3506 151.82 48.7439 151.82ZM57.4204 154.45C57.4204 154.624 57.4104 154.807 57.3904 155H53.0104C53.0437 155.54 53.2271 155.964 53.5604 156.27C53.9004 156.57 54.3104 156.72 54.7904 156.72C55.1837 156.72 55.5104 156.63 55.7704 156.45C56.0371 156.264 56.2237 156.017 56.3304 155.71H57.3104C57.1637 156.237 56.8704 156.667 56.4304 157C55.9904 157.327 55.4437 157.49 54.7904 157.49C54.2704 157.49 53.8037 157.374 53.3904 157.14C52.9837 156.907 52.6637 156.577 52.4304 156.15C52.1971 155.717 52.0804 155.217 52.0804 154.65C52.0804 154.084 52.1937 153.587 52.4204 153.16C52.6471 152.734 52.9637 152.407 53.3704 152.18C53.7837 151.947 54.2571 151.83 54.7904 151.83C55.3104 151.83 55.7704 151.944 56.1704 152.17C56.5704 152.397 56.8771 152.71 57.0904 153.11C57.3104 153.504 57.4204 153.95 57.4204 154.45ZM56.4804 154.26C56.4804 153.914 56.4037 153.617 56.2504 153.37C56.0971 153.117 55.8871 152.927 55.6204 152.8C55.3604 152.667 55.0704 152.6 54.7504 152.6C54.2904 152.6 53.8971 152.747 53.5704 153.04C53.2504 153.334 53.0671 153.74 53.0204 154.26H56.4804ZM63.6216 154.45C63.6216 154.624 63.6116 154.807 63.5916 155H59.2116C59.2449 155.54 59.4282 155.964 59.7616 156.27C60.1016 156.57 60.5116 156.72 60.9916 156.72C61.3849 156.72 61.7116 156.63 61.9716 156.45C62.2382 156.264 62.4249 156.017 62.5316 155.71H63.5116C63.3649 156.237 63.0716 156.667 62.6316 157C62.1916 157.327 61.6449 157.49 60.9916 157.49C60.4716 157.49 60.0049 157.374 59.5916 157.14C59.1849 156.907 58.8649 156.577 58.6316 156.15C58.3982 155.717 58.2816 155.217 58.2816 154.65C58.2816 154.084 58.3949 153.587 58.6216 153.16C58.8482 152.734 59.1649 152.407 59.5716 152.18C59.9849 151.947 60.4582 151.83 60.9916 151.83C61.5116 151.83 61.9716 151.944 62.3716 152.17C62.7716 152.397 63.0782 152.71 63.2916 153.11C63.5116 153.504 63.6216 153.95 63.6216 154.45ZM62.6816 154.26C62.6816 153.914 62.6049 153.617 62.4516 153.37C62.2982 153.117 62.0882 152.927 61.8216 152.8C61.5616 152.667 61.2716 152.6 60.9516 152.6C60.4916 152.6 60.0982 152.747 59.7716 153.04C59.4516 153.334 59.2682 153.74 59.2216 154.26H62.6816ZM65.7327 150V157.4H64.8227V150H65.7327ZM74.8097 151.92V157.4H73.8997V156.59C73.7264 156.87 73.483 157.09 73.1697 157.25C72.863 157.404 72.523 157.48 72.1497 157.48C71.723 157.48 71.3397 157.394 70.9997 157.22C70.6597 157.04 70.3897 156.774 70.1897 156.42C69.9964 156.067 69.8997 155.637 69.8997 155.13V151.92H70.7997V155.01C70.7997 155.55 70.9364 155.967 71.2097 156.26C71.483 156.547 71.8564 156.69 72.3297 156.69C72.8164 156.69 73.1997 156.54 73.4797 156.24C73.7597 155.94 73.8997 155.504 73.8997 154.93V151.92H74.8097ZM77.2562 152.93C77.4362 152.617 77.7028 152.357 78.0562 152.15C78.4162 151.937 78.8328 151.83 79.3062 151.83C79.7928 151.83 80.2328 151.947 80.6262 152.18C81.0262 152.414 81.3395 152.744 81.5662 153.17C81.7928 153.59 81.9062 154.08 81.9062 154.64C81.9062 155.194 81.7928 155.687 81.5662 156.12C81.3395 156.554 81.0262 156.89 80.6262 157.13C80.2328 157.37 79.7928 157.49 79.3062 157.49C78.8395 157.49 78.4262 157.387 78.0662 157.18C77.7128 156.967 77.4428 156.704 77.2562 156.39V160H76.3462V151.92H77.2562V152.93ZM80.9762 154.64C80.9762 154.227 80.8928 153.867 80.7262 153.56C80.5595 153.254 80.3328 153.02 80.0462 152.86C79.7662 152.7 79.4562 152.62 79.1162 152.62C78.7828 152.62 78.4728 152.704 78.1862 152.87C77.9062 153.03 77.6795 153.267 77.5062 153.58C77.3395 153.887 77.2562 154.244 77.2562 154.65C77.2562 155.064 77.3395 155.427 77.5062 155.74C77.6795 156.047 77.9062 156.284 78.1862 156.45C78.4728 156.61 78.7828 156.69 79.1162 156.69C79.4562 156.69 79.7662 156.61 80.0462 156.45C80.3328 156.284 80.5595 156.047 80.7262 155.74C80.8928 155.427 80.9762 155.06 80.9762 154.64ZM86.504 147.98L83.764 159.1H82.864L85.594 147.98H86.504ZM87.5198 154.64C87.5198 154.08 87.6332 153.59 87.8598 153.17C88.0865 152.744 88.3965 152.414 88.7898 152.18C89.1898 151.947 89.6365 151.83 90.1298 151.83C90.5565 151.83 90.9532 151.93 91.3198 152.13C91.6865 152.324 91.9665 152.58 92.1598 152.9V150H93.0798V157.4H92.1598V156.37C91.9798 156.697 91.7132 156.967 91.3598 157.18C91.0065 157.387 90.5932 157.49 90.1198 157.49C89.6332 157.49 89.1898 157.37 88.7898 157.13C88.3965 156.89 88.0865 156.554 87.8598 156.12C87.6332 155.687 87.5198 155.194 87.5198 154.64ZM92.1598 154.65C92.1598 154.237 92.0765 153.877 91.9098 153.57C91.7432 153.264 91.5165 153.03 91.2298 152.87C90.9498 152.704 90.6398 152.62 90.2998 152.62C89.9598 152.62 89.6498 152.7 89.3698 152.86C89.0898 153.02 88.8665 153.254 88.6998 153.56C88.5332 153.867 88.4498 154.227 88.4498 154.64C88.4498 155.06 88.5332 155.427 88.6998 155.74C88.8665 156.047 89.0898 156.284 89.3698 156.45C89.6498 156.61 89.9598 156.69 90.2998 156.69C90.6398 156.69 90.9498 156.61 91.2298 156.45C91.5165 156.284 91.7432 156.047 91.9098 155.74C92.0765 155.427 92.1598 155.064 92.1598 154.65ZM97.0077 157.49C96.4943 157.49 96.0277 157.374 95.6077 157.14C95.1943 156.907 94.8677 156.577 94.6277 156.15C94.3943 155.717 94.2777 155.217 94.2777 154.65C94.2777 154.09 94.3977 153.597 94.6377 153.17C94.8843 152.737 95.2177 152.407 95.6377 152.18C96.0577 151.947 96.5277 151.83 97.0477 151.83C97.5677 151.83 98.0377 151.947 98.4577 152.18C98.8777 152.407 99.2077 152.734 99.4477 153.16C99.6943 153.587 99.8177 154.084 99.8177 154.65C99.8177 155.217 99.691 155.717 99.4377 156.15C99.191 156.577 98.8543 156.907 98.4277 157.14C98.001 157.374 97.5277 157.49 97.0077 157.49ZM97.0077 156.69C97.3343 156.69 97.641 156.614 97.9277 156.46C98.2143 156.307 98.4443 156.077 98.6177 155.77C98.7977 155.464 98.8877 155.09 98.8877 154.65C98.8877 154.21 98.801 153.837 98.6277 153.53C98.4543 153.224 98.2277 152.997 97.9477 152.85C97.6677 152.697 97.3643 152.62 97.0377 152.62C96.7043 152.62 96.3977 152.697 96.1177 152.85C95.8443 152.997 95.6243 153.224 95.4577 153.53C95.291 153.837 95.2077 154.21 95.2077 154.65C95.2077 155.097 95.2877 155.474 95.4477 155.78C95.6143 156.087 95.8343 156.317 96.1077 156.47C96.381 156.617 96.681 156.69 97.0077 156.69ZM108.314 151.92L106.604 157.4H105.664L104.344 153.05L103.024 157.4H102.084L100.364 151.92H101.294L102.554 156.52L103.914 151.92H104.844L106.174 156.53L107.414 151.92H108.314ZM111.887 151.82C112.554 151.82 113.094 152.024 113.507 152.43C113.921 152.83 114.127 153.41 114.127 154.17V157.4H113.227V154.3C113.227 153.754 113.091 153.337 112.817 153.05C112.544 152.757 112.171 152.61 111.697 152.61C111.217 152.61 110.834 152.76 110.547 153.06C110.267 153.36 110.127 153.797 110.127 154.37V157.4H109.217V151.92H110.127V152.7C110.307 152.42 110.551 152.204 110.857 152.05C111.171 151.897 111.514 151.82 111.887 151.82Z" fill="#2E3134"/>
<path d="M18.7115 21.7114V35.4004H15.377V27.1909L12.3155 35.4004H9.6245L6.5435 27.1714V35.4004H3.209V21.7114H7.148L10.9895 31.1884L14.792 21.7114H18.7115ZM26.3624 35.5564C25.2964 35.5564 24.3344 35.3289 23.4764 34.8739C22.6314 34.4189 21.9619 33.7689 21.4679 32.9239C20.9869 32.0789 20.7464 31.0909 20.7464 29.9599C20.7464 28.8419 20.9934 27.8604 21.4874 27.0154C21.9814 26.1574 22.6574 25.5009 23.5154 25.0459C24.3734 24.5909 25.3354 24.3634 26.4014 24.3634C27.4674 24.3634 28.4294 24.5909 29.2874 25.0459C30.1454 25.5009 30.8214 26.1574 31.3154 27.0154C31.8094 27.8604 32.0564 28.8419 32.0564 29.9599C32.0564 31.0779 31.8029 32.0659 31.2959 32.9239C30.8019 33.7689 30.1194 34.4189 29.2484 34.8739C28.3904 35.3289 27.4284 35.5564 26.3624 35.5564ZM26.3624 32.6704C26.9994 32.6704 27.5389 32.4364 27.9809 31.9684C28.4359 31.5004 28.6634 30.8309 28.6634 29.9599C28.6634 29.0889 28.4424 28.4194 28.0004 27.9514C27.5714 27.4834 27.0384 27.2494 26.4014 27.2494C25.7514 27.2494 25.2119 27.4834 24.7829 27.9514C24.3539 28.4064 24.1394 29.0759 24.1394 29.9599C24.1394 30.8309 24.3474 31.5004 24.7634 31.9684C25.1924 32.4364 25.7254 32.6704 26.3624 32.6704ZM39.0199 32.2804L41.3794 24.5194H44.9284L41.0674 35.4004H36.9529L33.0919 24.5194H36.6604L39.0199 32.2804ZM56.889 29.7844C56.889 30.0964 56.8695 30.4214 56.8305 30.7594H49.284C49.336 31.4354 49.5505 31.9554 49.9275 32.3194C50.3175 32.6704 50.792 32.8459 51.351 32.8459C52.183 32.8459 52.7615 32.4949 53.0865 31.7929H56.6355C56.4535 32.5079 56.122 33.1514 55.641 33.7234C55.173 34.2954 54.5815 34.7439 53.8665 35.0689C53.1515 35.3939 52.352 35.5564 51.468 35.5564C50.402 35.5564 49.453 35.3289 48.621 34.8739C47.789 34.4189 47.139 33.7689 46.671 32.9239C46.203 32.0789 45.969 31.0909 45.969 29.9599C45.969 28.8289 46.1965 27.8409 46.6515 26.9959C47.1195 26.1509 47.7695 25.5009 48.6015 25.0459C49.4335 24.5909 50.389 24.3634 51.468 24.3634C52.521 24.3634 53.457 24.5844 54.276 25.0264C55.095 25.4684 55.732 26.0989 56.187 26.9179C56.655 27.7369 56.889 28.6924 56.889 29.7844ZM53.4765 28.9069C53.4765 28.3349 53.2815 27.8799 52.8915 27.5419C52.5015 27.2039 52.014 27.0349 51.429 27.0349C50.87 27.0349 50.3955 27.1974 50.0055 27.5224C49.6285 27.8474 49.3945 28.3089 49.3035 28.9069H53.4765ZM9.84 43.4804V50.4004H8.93V45.2404L6.63 50.4004H5.99L3.68 45.2304V50.4004H2.77V43.4804H3.75L6.31 49.2004L8.87 43.4804H9.84ZM11.8533 44.0304C11.6799 44.0304 11.5333 43.9704 11.4133 43.8504C11.2933 43.7304 11.2333 43.5837 11.2333 43.4104C11.2333 43.2371 11.2933 43.0904 11.4133 42.9704C11.5333 42.8504 11.6799 42.7904 11.8533 42.7904C12.0199 42.7904 12.1599 42.8504 12.2733 42.9704C12.3933 43.0904 12.4533 43.2371 12.4533 43.4104C12.4533 43.5837 12.3933 43.7304 12.2733 43.8504C12.1599 43.9704 12.0199 44.0304 11.8533 44.0304ZM12.2933 44.9204V50.4004H11.3833V44.9204H12.2933ZM13.5042 47.6404C13.5042 47.0804 13.6176 46.5904 13.8442 46.1704C14.0709 45.7437 14.3809 45.4137 14.7742 45.1804C15.1742 44.9471 15.6209 44.8304 16.1142 44.8304C16.5409 44.8304 16.9376 44.9304 17.3042 45.1304C17.6709 45.3237 17.9509 45.5804 18.1442 45.9004V43.0004H19.0642V50.4004H18.1442V49.3704C17.9642 49.6971 17.6976 49.9671 17.3442 50.1804C16.9909 50.3871 16.5776 50.4904 16.1042 50.4904C15.6176 50.4904 15.1742 50.3704 14.7742 50.1304C14.3809 49.8904 14.0709 49.5537 13.8442 49.1204C13.6176 48.6871 13.5042 48.1937 13.5042 47.6404ZM18.1442 47.6504C18.1442 47.2371 18.0609 46.8771 17.8942 46.5704C17.7276 46.2637 17.5009 46.0304 17.2142 45.8704C16.9342 45.7037 16.6242 45.6204 16.2842 45.6204C15.9442 45.6204 15.6342 45.7004 15.3542 45.8604C15.0742 46.0204 14.8509 46.2537 14.6842 46.5604C14.5176 46.8671 14.4342 47.2271 14.4342 47.6404C14.4342 48.0604 14.5176 48.4271 14.6842 48.7404C14.8509 49.0471 15.0742 49.2837 15.3542 49.4504C15.6342 49.6104 15.9442 49.6904 16.2842 49.6904C16.6242 49.6904 16.9342 49.6104 17.2142 49.4504C17.5009 49.2837 17.7276 49.0471 17.8942 48.7404C18.0609 48.4271 18.1442 48.0637 18.1442 47.6504ZM20.262 47.6404C20.262 47.0804 20.3754 46.5904 20.602 46.1704C20.8287 45.7437 21.1387 45.4137 21.532 45.1804C21.932 44.9471 22.3787 44.8304 22.872 44.8304C23.2987 44.8304 23.6954 44.9304 24.062 45.1304C24.4287 45.3237 24.7087 45.5804 24.902 45.9004V43.0004H25.822V50.4004H24.902V49.3704C24.722 49.6971 24.4554 49.9671 24.102 50.1804C23.7487 50.3871 23.3354 50.4904 22.862 50.4904C22.3754 50.4904 21.932 50.3704 21.532 50.1304C21.1387 49.8904 20.8287 49.5537 20.602 49.1204C20.3754 48.6871 20.262 48.1937 20.262 47.6404ZM24.902 47.6504C24.902 47.2371 24.8187 46.8771 24.652 46.5704C24.4854 46.2637 24.2587 46.0304 23.972 45.8704C23.692 45.7037 23.382 45.6204 23.042 45.6204C22.702 45.6204 22.392 45.7004 22.112 45.8604C21.832 46.0204 21.6087 46.2537 21.442 46.5604C21.2754 46.8671 21.192 47.2271 21.192 47.6404C21.192 48.0604 21.2754 48.4271 21.442 48.7404C21.6087 49.0471 21.832 49.2837 22.112 49.4504C22.392 49.6104 22.702 49.6904 23.042 49.6904C23.382 49.6904 23.692 49.6104 23.972 49.4504C24.2587 49.2837 24.4854 49.0471 24.652 48.7404C24.8187 48.4271 24.902 48.0637 24.902 47.6504ZM28.2698 43.0004V50.4004H27.3598V43.0004H28.2698ZM34.8208 47.4504C34.8208 47.6237 34.8108 47.8071 34.7908 48.0004H30.4108C30.4441 48.5404 30.6274 48.9637 30.9608 49.2704C31.3008 49.5704 31.7108 49.7204 32.1908 49.7204C32.5841 49.7204 32.9108 49.6304 33.1708 49.4504C33.4374 49.2637 33.6241 49.0171 33.7308 48.7104H34.7108C34.5641 49.2371 34.2708 49.6671 33.8308 50.0004C33.3908 50.3271 32.8441 50.4904 32.1908 50.4904C31.6708 50.4904 31.2041 50.3737 30.7908 50.1404C30.3841 49.9071 30.0641 49.5771 29.8308 49.1504C29.5974 48.7171 29.4808 48.2171 29.4808 47.6504C29.4808 47.0837 29.5941 46.5871 29.8208 46.1604C30.0474 45.7337 30.3641 45.4071 30.7708 45.1804C31.1841 44.9471 31.6574 44.8304 32.1908 44.8304C32.7108 44.8304 33.1708 44.9437 33.5708 45.1704C33.9708 45.3971 34.2774 45.7104 34.4908 46.1104C34.7108 46.5037 34.8208 46.9504 34.8208 47.4504ZM33.8808 47.2604C33.8808 46.9137 33.8041 46.6171 33.6508 46.3704C33.4974 46.1171 33.2874 45.9271 33.0208 45.8004C32.7608 45.6671 32.4708 45.6004 32.1508 45.6004C31.6908 45.6004 31.2974 45.7471 30.9708 46.0404C30.6508 46.3337 30.4674 46.7404 30.4208 47.2604H33.8808ZM38.348 46.9104C38.348 46.2304 38.5013 45.6204 38.808 45.0804C39.1146 44.5337 39.5313 44.1071 40.058 43.8004C40.5913 43.4937 41.1813 43.3404 41.828 43.3404C42.588 43.3404 43.2513 43.5237 43.818 43.8904C44.3846 44.2571 44.798 44.7771 45.058 45.4504H43.968C43.7746 45.0304 43.4946 44.7071 43.128 44.4804C42.768 44.2537 42.3346 44.1404 41.828 44.1404C41.3413 44.1404 40.9046 44.2537 40.518 44.4804C40.1313 44.7071 39.828 45.0304 39.608 45.4504C39.388 45.8637 39.278 46.3504 39.278 46.9104C39.278 47.4637 39.388 47.9504 39.608 48.3704C39.828 48.7837 40.1313 49.1037 40.518 49.3304C40.9046 49.5571 41.3413 49.6704 41.828 49.6704C42.3346 49.6704 42.768 49.5604 43.128 49.3404C43.4946 49.1137 43.7746 48.7904 43.968 48.3704H45.058C44.798 49.0371 44.3846 49.5537 43.818 49.9204C43.2513 50.2804 42.588 50.4604 41.828 50.4604C41.1813 50.4604 40.5913 50.3104 40.058 50.0104C39.5313 49.7037 39.1146 49.2804 38.808 48.7404C38.5013 48.2004 38.348 47.5904 38.348 46.9104ZM47.3226 43.0004V50.4004H46.4126V43.0004H47.3226ZM49.3435 44.0304C49.1702 44.0304 49.0235 43.9704 48.9035 43.8504C48.7835 43.7304 48.7235 43.5837 48.7235 43.4104C48.7235 43.2371 48.7835 43.0904 48.9035 42.9704C49.0235 42.8504 49.1702 42.7904 49.3435 42.7904C49.5102 42.7904 49.6502 42.8504 49.7635 42.9704C49.8835 43.0904 49.9435 43.2371 49.9435 43.4104C49.9435 43.5837 49.8835 43.7304 49.7635 43.8504C49.6502 43.9704 49.5102 44.0304 49.3435 44.0304ZM49.7835 44.9204V50.4004H48.8735V44.9204H49.7835ZM50.9945 47.6504C50.9945 47.0837 51.1078 46.5904 51.3345 46.1704C51.5611 45.7437 51.8745 45.4137 52.2745 45.1804C52.6811 44.9471 53.1445 44.8304 53.6645 44.8304C54.3378 44.8304 54.8911 44.9937 55.3245 45.3204C55.7645 45.6471 56.0545 46.1004 56.1945 46.6804H55.2145C55.1211 46.3471 54.9378 46.0837 54.6645 45.8904C54.3978 45.6971 54.0645 45.6004 53.6645 45.6004C53.1445 45.6004 52.7245 45.7804 52.4045 46.1404C52.0845 46.4937 51.9245 46.9971 51.9245 47.6504C51.9245 48.3104 52.0845 48.8204 52.4045 49.1804C52.7245 49.5404 53.1445 49.7204 53.6645 49.7204C54.0645 49.7204 54.3978 49.6271 54.6645 49.4404C54.9311 49.2537 55.1145 48.9871 55.2145 48.6404H56.1945C56.0478 49.2004 55.7545 49.6504 55.3145 49.9904C54.8745 50.3237 54.3245 50.4904 53.6645 50.4904C53.1445 50.4904 52.6811 50.3737 52.2745 50.1404C51.8745 49.9071 51.5611 49.5771 51.3345 49.1504C51.1078 48.7237 50.9945 48.2237 50.9945 47.6504ZM60.4687 50.4004L58.3187 47.9804V50.4004H57.4087V43.0004H58.3187V47.3504L60.4287 44.9204H61.6987L59.1187 47.6504L61.7087 50.4004H60.4687ZM64.8812 47.6404C64.8812 47.0804 64.9945 46.5904 65.2212 46.1704C65.4478 45.7437 65.7578 45.4137 66.1512 45.1804C66.5512 44.9471 66.9945 44.8304 67.4812 44.8304C67.9612 44.8304 68.3778 44.9337 68.7312 45.1404C69.0845 45.3471 69.3478 45.6071 69.5212 45.9204V44.9204H70.4412V50.4004H69.5212V49.3804C69.3412 49.7004 69.0712 49.9671 68.7112 50.1804C68.3578 50.3871 67.9445 50.4904 67.4712 50.4904C66.9845 50.4904 66.5445 50.3704 66.1512 50.1304C65.7578 49.8904 65.4478 49.5537 65.2212 49.1204C64.9945 48.6871 64.8812 48.1937 64.8812 47.6404ZM69.5212 47.6504C69.5212 47.2371 69.4378 46.8771 69.2712 46.5704C69.1045 46.2637 68.8778 46.0304 68.5912 45.8704C68.3112 45.7037 68.0012 45.6204 67.6612 45.6204C67.3212 45.6204 67.0112 45.7004 66.7312 45.8604C66.4512 46.0204 66.2278 46.2537 66.0612 46.5604C65.8945 46.8671 65.8112 47.2271 65.8112 47.6404C65.8112 48.0604 65.8945 48.4271 66.0612 48.7404C66.2278 49.0471 66.4512 49.2837 66.7312 49.4504C67.0112 49.6104 67.3212 49.6904 67.6612 49.6904C68.0012 49.6904 68.3112 49.6104 68.5912 49.4504C68.8778 49.2837 69.1045 49.0471 69.2712 48.7404C69.4378 48.4271 69.5212 48.0637 69.5212 47.6504ZM74.649 44.8204C75.3157 44.8204 75.8557 45.0237 76.269 45.4304C76.6823 45.8304 76.889 46.4104 76.889 47.1704V50.4004H75.989V47.3004C75.989 46.7537 75.8523 46.3371 75.579 46.0504C75.3057 45.7571 74.9323 45.6104 74.459 45.6104C73.979 45.6104 73.5957 45.7604 73.309 46.0604C73.029 46.3604 72.889 46.7971 72.889 47.3704V50.4004H71.979V44.9204H72.889V45.7004C73.069 45.4204 73.3123 45.2037 73.619 45.0504C73.9323 44.8971 74.2757 44.8204 74.649 44.8204ZM78.0355 47.6404C78.0355 47.0804 78.1488 46.5904 78.3755 46.1704C78.6021 45.7437 78.9121 45.4137 79.3055 45.1804C79.7055 44.9471 80.1521 44.8304 80.6455 44.8304C81.0721 44.8304 81.4688 44.9304 81.8355 45.1304C82.2021 45.3237 82.4821 45.5804 82.6755 45.9004V43.0004H83.5955V50.4004H82.6755V49.3704C82.4955 49.6971 82.2288 49.9671 81.8755 50.1804C81.5221 50.3871 81.1088 50.4904 80.6355 50.4904C80.1488 50.4904 79.7055 50.3704 79.3055 50.1304C78.9121 49.8904 78.6021 49.5537 78.3755 49.1204C78.1488 48.6871 78.0355 48.1937 78.0355 47.6404ZM82.6755 47.6504C82.6755 47.2371 82.5921 46.8771 82.4255 46.5704C82.2588 46.2637 82.0321 46.0304 81.7455 45.8704C81.4655 45.7037 81.1555 45.6204 80.8155 45.6204C80.4755 45.6204 80.1655 45.7004 79.8855 45.8604C79.6055 46.0204 79.3821 46.2537 79.2155 46.5604C79.0488 46.8671 78.9655 47.2271 78.9655 47.6404C78.9655 48.0604 79.0488 48.4271 79.2155 48.7404C79.3821 49.0471 79.6055 49.2837 79.8855 49.4504C80.1655 49.6104 80.4755 49.6904 80.8155 49.6904C81.1555 49.6904 81.4655 49.6104 81.7455 49.4504C82.0321 49.2837 82.2588 49.0471 82.4255 48.7404C82.5921 48.4271 82.6755 48.0637 82.6755 47.6504ZM89.9693 43.4304C90.7293 43.4304 91.386 43.5737 91.9393 43.8604C92.4993 44.1404 92.926 44.5437 93.2193 45.0704C93.5193 45.5971 93.6693 46.2171 93.6693 46.9304C93.6693 47.6437 93.5193 48.2637 93.2193 48.7904C92.926 49.3104 92.4993 49.7104 91.9393 49.9904C91.386 50.2637 90.7293 50.4004 89.9693 50.4004H87.7993V43.4304H89.9693ZM89.9693 49.6504C90.8693 49.6504 91.556 49.4137 92.0293 48.9404C92.5026 48.4604 92.7393 47.7904 92.7393 46.9304C92.7393 46.0637 92.4993 45.3871 92.0193 44.9004C91.546 44.4137 90.8626 44.1704 89.9693 44.1704H88.7093V49.6504H89.9693ZM95.7796 45.8104C95.9396 45.4971 96.1663 45.2537 96.4596 45.0804C96.7596 44.9071 97.1229 44.8204 97.5496 44.8204V45.7604H97.3096C96.2896 45.7604 95.7796 46.3137 95.7796 47.4204V50.4004H94.8696V44.9204H95.7796V45.8104ZM98.2601 47.6404C98.2601 47.0804 98.3734 46.5904 98.6001 46.1704C98.8267 45.7437 99.1367 45.4137 99.5301 45.1804C99.9301 44.9471 100.373 44.8304 100.86 44.8304C101.34 44.8304 101.757 44.9337 102.11 45.1404C102.463 45.3471 102.727 45.6071 102.9 45.9204V44.9204H103.82V50.4004H102.9V49.3804C102.72 49.7004 102.45 49.9671 102.09 50.1804C101.737 50.3871 101.323 50.4904 100.85 50.4904C100.363 50.4904 99.9234 50.3704 99.5301 50.1304C99.1367 49.8904 98.8267 49.5537 98.6001 49.1204C98.3734 48.6871 98.2601 48.1937 98.2601 47.6404ZM102.9 47.6504C102.9 47.2371 102.817 46.8771 102.65 46.5704C102.483 46.2637 102.257 46.0304 101.97 45.8704C101.69 45.7037 101.38 45.6204 101.04 45.6204C100.7 45.6204 100.39 45.7004 100.11 45.8604C99.8301 46.0204 99.6067 46.2537 99.4401 46.5604C99.2734 46.8671 99.1901 47.2271 99.1901 47.6404C99.1901 48.0604 99.2734 48.4271 99.4401 48.7404C99.6067 49.0471 99.8301 49.2837 100.11 49.4504C100.39 49.6104 100.7 49.6904 101.04 49.6904C101.38 49.6904 101.69 49.6104 101.97 49.4504C102.257 49.2837 102.483 49.0471 102.65 48.7404C102.817 48.4271 102.9 48.0637 102.9 47.6504ZM107.618 44.8304C108.091 44.8304 108.505 44.9337 108.858 45.1404C109.218 45.3471 109.485 45.6071 109.658 45.9204V44.9204H110.578V50.5204C110.578 51.0204 110.471 51.4637 110.258 51.8504C110.045 52.2437 109.738 52.5504 109.338 52.7704C108.945 52.9904 108.485 53.1004 107.958 53.1004C107.238 53.1004 106.638 52.9304 106.158 52.5904C105.678 52.2504 105.395 51.7871 105.308 51.2004H106.208C106.308 51.5337 106.515 51.8004 106.828 52.0004C107.141 52.2071 107.518 52.3104 107.958 52.3104C108.458 52.3104 108.865 52.1537 109.178 51.8404C109.498 51.5271 109.658 51.0871 109.658 50.5204V49.3704C109.478 49.6904 109.211 49.9571 108.858 50.1704C108.505 50.3837 108.091 50.4904 107.618 50.4904C107.131 50.4904 106.688 50.3704 106.288 50.1304C105.895 49.8904 105.585 49.5537 105.358 49.1204C105.131 48.6871 105.018 48.1937 105.018 47.6404C105.018 47.0804 105.131 46.5904 105.358 46.1704C105.585 45.7437 105.895 45.4137 106.288 45.1804C106.688 44.9471 107.131 44.8304 107.618 44.8304ZM109.658 47.6504C109.658 47.2371 109.575 46.8771 109.408 46.5704C109.241 46.2637 109.015 46.0304 108.728 45.8704C108.448 45.7037 108.138 45.6204 107.798 45.6204C107.458 45.6204 107.148 45.7004 106.868 45.8604C106.588 46.0204 106.365 46.2537 106.198 46.5604C106.031 46.8671 105.948 47.2271 105.948 47.6404C105.948 48.0604 106.031 48.4271 106.198 48.7404C106.365 49.0471 106.588 49.2837 106.868 49.4504C107.148 49.6104 107.458 49.6904 107.798 49.6904C108.138 49.6904 108.448 49.6104 108.728 49.4504C109.015 49.2837 109.241 49.0471 109.408 48.7404C109.575 48.4271 109.658 48.0637 109.658 47.6504Z" fill="#2E3134"/>
<circle cx="283" cy="79.4004" r="5" fill="white" stroke="#0024FC" stroke-width="2"/>
<circle cx="283" cy="47.4004" r="5" fill="white" stroke="#0024FC" stroke-width="2"/>
<circle cx="283" cy="63.4004" r="5" fill="white" stroke="#0024FC" stroke-width="2"/>
</svg>
