<svg width="31" height="28" viewBox="0 0 31 28" fill="none" xmlns="http://www.w3.org/2000/svg">
<path d="M2.00954 1.72771C2.00446 1.6883 2.00896 1.64825 2.02267 1.61097C2.03638 1.57368 2.05889 1.54025 2.08829 1.51353C2.11769 1.4868 2.15311 1.46758 2.19154 1.45748C2.22996 1.44738 2.27026 1.4467 2.309 1.45552L3.39215 1.70142C3.62751 1.75491 3.66689 2.10859 3.46757 2.24442C3.17457 2.44385 2.91101 2.68341 2.6846 2.9561C2.53043 3.14159 2.1821 3.06873 2.15124 2.82935L2.00954 1.72771ZM0.651635 6.64198C0.614951 6.62665 0.582512 6.60269 0.557081 6.57213C0.531651 6.54157 0.513981 6.50531 0.505576 6.46645C0.497172 6.4276 0.498281 6.38728 0.508811 6.34894C0.51934 6.31061 0.538977 6.27538 0.56605 6.24627L1.33196 5.42338C1.4951 5.24774 1.81504 5.38842 1.83089 5.62744C1.85377 5.98661 1.92844 6.34058 2.05257 6.6784C2.13753 6.90394 1.90494 7.16604 1.68263 7.07334L0.651635 6.64198ZM4.23455 10.2697C4.20294 10.2937 4.16603 10.3096 4.12694 10.3163C4.08785 10.3229 4.04774 10.32 4.01 10.3079C3.97226 10.2957 3.938 10.2747 3.91013 10.2465C3.88226 10.2183 3.86159 10.1838 3.84988 10.1459L3.52011 9.08314C3.44862 8.85335 3.73214 8.64433 3.94828 8.74931C4.10602 8.82601 4.27193 8.89261 4.44299 8.94654C4.62012 9.00494 4.79835 9.04768 4.97546 9.07744C5.21181 9.11736 5.31868 9.4477 5.12766 9.59266L4.23455 10.2697ZM6.9408 0.451225C6.97238 0.427128 7.00931 0.411011 7.04845 0.404243C7.08759 0.397475 7.12778 0.400256 7.16562 0.412349C7.20345 0.424443 7.23781 0.445492 7.26577 0.473707C7.29373 0.501922 7.31446 0.536469 7.32621 0.574413L7.6571 1.64281C7.72859 1.8726 7.44364 2.08225 7.22685 1.97653C6.90426 1.81974 6.56094 1.70984 6.20727 1.65017C5.97058 1.60988 5.86119 1.27383 6.05261 1.12784L6.9408 0.451225ZM4.49944 4.16618C5.15678 3.56869 6.18329 3.618 6.78078 4.27534C7.37827 4.93268 7.32966 5.95921 6.67232 6.5567C6.3548 6.84374 5.93657 6.99341 5.50902 6.97302C5.08148 6.95263 4.67939 6.76383 4.39062 6.44788C3.79313 5.79055 3.84211 4.76368 4.49944 4.16618ZM3.77548 3.36971C3.24744 3.85003 2.9317 4.52034 2.89763 5.23334C2.86356 5.94634 3.11395 6.6437 3.59378 7.17218C4.07409 7.7004 4.74452 8.01624 5.45765 8.05025C6.17078 8.08426 6.86822 7.83366 7.39662 7.35354C7.92469 6.8732 8.24039 6.20281 8.27433 5.48977C8.30828 4.77672 8.05767 4.07938 7.57762 3.55104C7.09726 3.02316 6.427 2.70754 5.71408 2.67354C5.00116 2.63954 4.3039 2.88993 3.77548 3.36971Z" fill="#2E3134"/>
<path d="M2.30537 1.45882C2.26663 1.45 2.22633 1.45068 2.18791 1.46078C2.14948 1.47087 2.11406 1.4901 2.08466 1.51683C2.05526 1.54355 2.03275 1.57698 2.01904 1.61427C2.00533 1.65155 2.00083 1.6916 2.00591 1.73101L2.14761 2.83265C2.17847 3.07203 2.5268 3.14489 2.68097 2.9594C2.90738 2.68671 3.17094 2.44715 3.46394 2.24772C3.66326 2.11189 3.62388 1.75821 3.38852 1.70472L2.30537 1.45882ZM7.32621 0.574413C7.31446 0.536469 7.29373 0.501922 7.26577 0.473707C7.23781 0.445492 7.20345 0.424443 7.16562 0.412349C7.12778 0.400256 7.08759 0.397475 7.04845 0.404243C7.00931 0.411011 6.97238 0.427128 6.9408 0.451225L6.04875 1.13602C5.85838 1.28171 5.96798 1.61358 6.2044 1.65211C6.55976 1.70907 6.90502 1.81708 7.22949 1.9728C7.44592 2.07884 7.72897 1.87225 7.65785 1.64212L7.32621 0.574413ZM10.5969 4.48666C10.6237 4.45747 10.6431 4.42225 10.6534 4.38397C10.6638 4.34569 10.6647 4.30548 10.6562 4.26676C10.6477 4.22803 10.63 4.19193 10.6046 4.1615C10.5792 4.13107 10.5468 4.10721 10.5102 4.09195L9.48365 3.66254C9.26171 3.56951 9.02665 3.83184 9.11059 4.05699C9.17193 4.22132 9.22244 4.39281 9.25984 4.56823C9.30112 4.75012 9.32671 4.9316 9.33947 5.11073C9.35672 5.34982 9.67539 5.48764 9.83787 5.31128L10.5969 4.48666ZM0.56605 6.24627C0.538977 6.27538 0.51934 6.31061 0.508811 6.34894C0.498281 6.38728 0.497172 6.4276 0.505576 6.46645C0.513981 6.50531 0.531651 6.54157 0.557081 6.57213C0.582512 6.60269 0.614951 6.62665 0.651635 6.64198L1.68338 7.07266C1.90532 7.16569 2.14114 6.902 2.05654 6.67612C1.93116 6.34008 1.85443 5.98785 1.82869 5.63011C1.81111 5.39066 1.48699 5.24978 1.32345 5.42644L0.56605 6.24627ZM4.49581 4.16948C3.83848 4.76698 3.78987 5.79351 4.38736 6.45085C4.98485 7.10819 6.01135 7.1575 6.66869 6.56C6.98464 6.27124 7.17344 5.86915 7.19383 5.44161C7.21422 5.01406 7.06455 4.59583 6.77751 4.27831C6.18002 3.62097 5.15315 3.57199 4.49581 4.16948ZM3.77185 3.37301C4.30024 2.89308 4.99756 2.64256 5.71057 2.6765C6.42357 2.71044 7.09394 3.02606 7.57435 3.55401C8.05447 4.08241 8.30507 4.77985 8.27106 5.49298C8.23705 6.20611 7.92121 6.87654 7.39299 7.35684C6.86457 7.8368 6.16718 8.08728 5.45414 8.0532C4.7411 8.01913 4.07077 7.7033 3.59052 7.17515C3.11074 6.64673 2.86035 5.94947 2.89435 5.23655C2.92835 4.52363 3.24397 3.85337 3.77185 3.37301Z" fill="#2E3134"/>
<path fill-rule="evenodd" clip-rule="evenodd" d="M11.5652 22.4853L11.5728 19.3179H12.8785C15.3448 19.3179 17.3441 17.3186 17.3441 14.8524C17.3441 13.215 16.4801 11.7748 15.1561 10.9969C14.8905 8.78418 13.0068 7.06902 10.7225 7.06902C8.43939 7.06902 6.55645 8.7824 6.28937 10.9935C4.95653 11.7658 4.07707 13.2036 4.07707 14.8524C4.07707 17.3186 6.07638 19.3179 8.54266 19.3179H9.86807L9.85825 23.3358C9.8571 23.8065 10.2378 24.189 10.7085 24.1902L16.017 24.19C15.9864 24.3258 15.9699 24.4679 15.9699 24.6162C15.9699 25.7152 16.8618 26.4653 17.7376 26.8899C18.6722 27.3431 19.9035 27.5994 21.2172 27.5994C22.1982 27.5994 23.1271 27.4601 23.9194 27.2068C24.5542 27.0039 25.1475 26.7127 25.6033 26.3218C26.7844 26.2805 27.8813 26.031 28.7323 25.6184C29.6081 25.1938 30.5 24.4437 30.5 23.3447C30.5 22.2457 29.6081 21.4956 28.7323 21.071C27.8822 20.6588 26.7866 20.4094 25.6068 20.3677C25.1534 19.974 24.5621 19.6798 23.9278 19.4743C23.1348 19.2175 22.2035 19.0759 21.2172 19.0759C19.9035 19.0759 18.6722 19.3323 17.7376 19.7854C16.8618 20.2101 15.9699 20.9601 15.9699 22.0592C15.9699 22.2075 15.9864 22.3496 16.017 22.4853H11.5652ZM10.7225 8.77373C9.19771 8.77373 7.96162 10.0098 7.96162 11.5346C7.96162 11.8763 7.75758 12.1849 7.44321 12.3188C6.45897 12.7379 5.78178 13.707 5.78178 14.8524C5.78178 16.3772 7.01786 17.6132 8.54266 17.6132H10.7224H12.8785C14.4033 17.6132 15.6394 16.3772 15.6394 14.8524C15.6394 13.7083 14.97 12.7377 13.9973 12.3169C13.6853 12.1819 13.4834 11.8745 13.4834 11.5346C13.4834 10.0098 12.2473 8.77373 10.7225 8.77373Z" fill="#2E3134"/>
</svg>
