<svg x="0px" y="0px"
	 viewBox="0 0 75 75" style="enable-background:new 0 0 75 75;" fill="none" xmlns="http://www.w3.org/2000/svg" aria-labelledby="credits-icon"  aria-describedby="credits-icon-desc">
	<title id="credits-icon">Credits</title>
	<desc id="credits-icon-desc">Icon that indicates a display of credits and links to the billing page if the user has billing access.</desc>
<path class="dollar-sign" d="M41.38,16.58c-1.27-0.19-2.56-0.29-3.84-0.29c-8.06,0-15.49,3.72-20.4,10.19c-3.3,4.41-5.05,9.67-5.05,15.2
	c0,2,0.24,3.98,0.72,5.91c0.45,1.52,1,2.97,1.47,4.17c0.76,2.2,1.6,3.83,2.79,5.45l0.07,0.1h17.91l0.25-0.04l22.26,0.04h0.13
	l0.08-0.11c1.16-1.67,2.28-3.76,3.15-5.89v0c0.25-0.63,0.5-1.27,0.74-1.93c0.81-2.46,1.24-5.12,1.24-7.7
	C62.9,29.26,53.65,18.47,41.38,16.58z M39.53,54.26c2.63-0.5,4.75-1.82,5.96-3.73c0.74-1.15,1.09-2.42,1.09-3.88
	c0-3.68-2.04-5.98-6.81-7.72c-3.54-1.35-4.62-2.1-4.62-3.18c0-1.27,1.09-1.95,3.16-1.95c1.11,0,2.26,0.16,3.41,0.48
	c0.62,0.21,1.28,0.14,1.87-0.18c0.63-0.34,1.1-0.93,1.29-1.62c0.18-0.66,0.08-1.36-0.27-1.96c-0.35-0.6-0.93-1.03-1.61-1.2
	c-0.8-0.2-2-0.46-3.38-0.49v-1.3c0-1.19-1.01-2.2-2.2-2.2s-2.2,1.01-2.2,2.2v1.67c-4.16,0.87-6.73,3.65-6.73,7.28
	c0,4.45,3.9,6.38,7.31,7.56c2.91,0.97,4.04,1.89,4.04,3.26c0,1.98-2.49,2.19-3.56,2.19c-1.29,0-2.68-0.24-4.22-0.72
	c-0.65-0.22-1.34-0.17-1.95,0.13c-0.61,0.31-1.07,0.83-1.28,1.49l-0.08,0.25c-0.36,1.27,0.35,2.62,1.62,3.07
	c1.36,0.48,2.99,0.8,4.62,0.9v0.73H18.82c-1.18-1.62-2.07-3.29-2.65-4.97c-1.06-2.71-1.6-5.55-1.6-8.45
	c0-12.74,10.29-23.1,22.94-23.1s22.94,10.32,22.94,23.02c0,2.94-0.55,5.86-1.6,8.45c-0.75,1.84-1.62,3.47-2.66,4.97H39.53V54.26z"/>
<path d="M65.88,49.38h-4.14h-0.08c0,0,0,0,0,0c-0.24,0.66-0.49,1.3-0.74,1.93v0c-0.87,2.13-1.99,4.22-3.15,5.89
	l-0.08,0.11h-0.13L35.3,57.27l-0.25,0.04H17.15l-0.07-0.1c-1.19-1.62-2.02-3.25-2.79-5.45c-0.28-0.72-0.59-1.52-0.89-2.38h-0.14
	H9.12c-2.57,0-4.62,2.05-4.62,4.55c0,2.57,2.05,4.55,4.62,4.55h4.2h4.98h0.57h6.16h24.93h6.23h0.5h9.25h0.29v-0.03
	c2.42-0.15,4.26-2.12,4.26-4.52C70.5,51.43,68.44,49.38,65.88,49.38z" fill="#2E3134"/>
</svg>
