<svg id="siteDataIcon" xmlns="http://www.w3.org/2000/svg" viewBox="0 0 30 22" aria-labelledby="site-data-icon"  aria-describedby="site-data-icon-desc">
	<title id="site-data-icon">Site Data</title>
	<desc id="site-data-icon-desc">Icon that links to the site data page which gives information on the usage parameters</desc>
	<path fill="#34383C" d="M26.97,10.1c-1.06-0.61-2.35-0.46-3.25,0.28L20.65,8.6c0.24-0.66,0.38-1.36,0.38-2.1c0-3.33-2.7-6.03-6.03-6.03
		c-3.33,0-6.03,2.7-6.03,6.03c0,0.74,0.14,1.45,0.38,2.1l-3.08,1.78c-0.12-0.1-0.25-0.2-0.39-0.28c-1.37-0.79-3.12-0.32-3.92,1.05
		c-0.79,1.37-0.32,3.12,1.05,3.92c1.37,0.79,3.12,0.32,3.92-1.05c0.35-0.6,0.44-1.27,0.33-1.9l3.08-1.78c0.9,1.09,2.19,1.86,3.65,2.1
		l0,3.55c-1.09,0.41-1.87,1.45-1.87,2.68c0,1.58,1.28,2.87,2.87,2.87s2.87-1.28,2.87-2.87c0-1.23-0.78-2.27-1.87-2.68l0-3.55
		c1.46-0.24,2.75-1.01,3.65-2.1l3.07,1.77c-0.19,1.15,0.32,2.34,1.39,2.96c1.37,0.79,3.12,0.32,3.92-1.05
		C28.82,12.64,28.35,10.89,26.97,10.1z"/>
</svg>
