<svg width="24" height="25" viewBox="0 0 24 25" fill="none" xmlns="http://www.w3.org/2000/svg">
<path d="M12.0052 7.5C13.3313 7.5 14.6031 8.02678 15.5407 8.96447C16.4784 9.90215 17.0052 11.1739 17.0052 12.5C17.0052 13.8261 16.4784 15.0979 15.5407 16.0355C14.6031 16.9732 13.3313 17.5 12.0052 17.5C10.6791 17.5 9.40736 16.9732 8.46968 16.0355C7.532 15.0979 7.00521 13.8261 7.00521 12.5C7.00521 11.1739 7.532 9.90215 8.46968 8.96447C9.40736 8.02678 10.6791 7.5 12.0052 7.5ZM12.0052 9.5C11.2096 9.5 10.4465 9.81607 9.88389 10.3787C9.32128 10.9413 9.00521 11.7044 9.00521 12.5C9.00521 13.2956 9.32128 14.0587 9.88389 14.6213C10.4465 15.1839 11.2096 15.5 12.0052 15.5C12.8009 15.5 13.5639 15.1839 14.1265 14.6213C14.6891 14.0587 15.0052 13.2956 15.0052 12.5C15.0052 11.7044 14.6891 10.9413 14.1265 10.3787C13.5639 9.81607 12.8009 9.5 12.0052 9.5ZM12.0052 2.5L14.3952 5.92C13.6552 5.65 12.8452 5.5 12.0052 5.5C11.1652 5.5 10.3552 5.65 9.61521 5.92L12.0052 2.5ZM3.34521 7.5L7.50521 7.15C6.90521 7.66 6.36521 8.28 5.94521 9C5.50521 9.74 5.25522 10.5 5.11522 11.29L3.34521 7.5ZM3.36521 17.5L5.12521 13.73C5.26521 14.5 5.53521 15.28 5.95521 16C6.37521 16.74 6.91521 17.36 7.50521 17.87L3.36521 17.5ZM20.6552 7.5L18.8852 11.29C18.7452 10.5 18.4752 9.73 18.0552 9C17.6352 8.28 17.1052 7.65 16.5052 7.14L20.6552 7.5ZM20.6452 17.5L16.5052 17.86C17.0952 17.35 17.6252 16.72 18.0452 16C18.4652 15.27 18.7352 14.5 18.8752 13.71L20.6452 17.5ZM12.0052 22.5L9.59521 19.06C10.3352 19.33 11.1452 19.5 12.0052 19.5C12.8252 19.5 13.6352 19.33 14.3752 19.06L12.0052 22.5Z" fill="#2E3134"/>
</svg>
