<svg id="teamIcon" xmlns="http://www.w3.org/2000/svg" viewBox="0 0 50 30">
  <path class="blue--fill" d="M25,15.42c1.68,0,3.26,.53,4.57,1.53h.01v.02c.29,.2,.55,.42,.81,.69,.3,.3,.5,.53,.67,.76v.02l.03,.02c.13,.17,.24,.32,.34,.48,.77,1.2,1.2,2.66,1.2,4.12v1.55c0,.49-.4,.89-.89,.89h-13.49c-.49,0-.89-.4-.89-.89v-1.55c0-1.45,.43-2.91,1.21-4.12,.15-.22,.27-.4,.4-.55,.43-.55,.91-1.03,1.45-1.43,1.32-1,2.91-1.53,4.59-1.53m0-1.19c-1.94,0-3.77,.61-5.3,1.77-.62,.46-1.18,1.02-1.67,1.66-.14,.18-.28,.38-.45,.62-.91,1.41-1.41,3.1-1.41,4.77v1.55c0,1.15,.93,2.08,2.08,2.08h13.49c1.15,0,2.08-.93,2.08-2.08v-1.55c0-1.68-.49-3.38-1.39-4.76-.12-.18-.25-.37-.4-.57-.21-.29-.45-.57-.79-.91-.31-.31-.62-.58-.95-.81-1.52-1.16-3.35-1.77-5.29-1.77h0Z"/>
  <g fill="#34383c">
    <path d="M25,4.49c2.09,0,3.78,1.7,3.78,3.78s-1.7,3.78-3.78,3.78-3.78-1.7-3.78-3.78,1.7-3.78,3.78-3.78m0-1.19c-2.74,0-4.97,2.23-4.97,4.97s2.23,4.97,4.97,4.97,4.97-2.23,4.97-4.97-2.23-4.97-4.97-4.97h0Z"/>
    <path d="M13.82,5.76c2.09,0,3.78,1.7,3.78,3.78s-1.7,3.78-3.78,3.78-3.78-1.7-3.78-3.78,1.7-3.78,3.78-3.78m0-1.19c-2.74,0-4.97,2.23-4.97,4.97s2.23,4.97,4.97,4.97,4.97-2.23,4.97-4.97-2.23-4.97-4.97-4.97h0Z"/>
    <path d="M36.18,5.76c2.09,0,3.78,1.7,3.78,3.78s-1.7,3.78-3.78,3.78-3.78-1.7-3.78-3.78,1.7-3.78,3.78-3.78m0-1.19c-2.74,0-4.97,2.23-4.97,4.97s2.23,4.97,4.97,4.97,4.97-2.23,4.97-4.97-2.23-4.97-4.97-4.97h0Z"/>
  </g>
  <path class="blue--fill" d="M36.18,16.61c1.68,0,3.26,.53,4.57,1.53h.01v.02c.29,.2,.55,.42,.81,.69,.3,.3,.5,.53,.67,.76v.02l.03,.02c.13,.17,.24,.33,.34,.48,.77,1.2,1.2,2.66,1.2,4.12v.36c0,.49-.4,.89-.89,.89h-5.33v-1.69c0-2.4-.71-4.82-1.98-6.79-.08-.12-.16-.24-.24-.37,.27-.03,.54-.05,.81-.05m0-1.19c-1.02,0-2,.2-2.92,.53,.34,.35,.61,.67,.84,.98,.2,.26,.37,.49,.52,.73,1.16,1.79,1.8,3.98,1.8,6.16v2.01c0,.31-.06,.6-.16,.87h6.67c1.15,0,2.08-.93,2.08-2.08v-.36c0-1.68-.49-3.38-1.39-4.76-.12-.18-.25-.37-.4-.57-.21-.29-.45-.57-.79-.91-.31-.31-.62-.58-.95-.81-1.52-1.16-3.35-1.77-5.29-1.77h0Z"/>
  <path class="blue--fill" d="M13.82,16.61c.27,0,.54,.02,.81,.05-.09,.12-.16,.24-.24,.36-1.28,1.98-1.99,4.4-1.99,6.8v1.69H7.08c-.49,0-.89-.4-.89-.89v-.36c0-1.46,.43-2.92,1.21-4.13,.09-.15,.2-.3,.33-.47v-.02l.03-.02c.17-.23,.37-.47,.67-.76,.27-.27,.53-.49,.8-.69h.01v-.02c1.32-1,2.9-1.53,4.59-1.53m0-1.19c-1.95,0-3.78,.61-5.29,1.77-.33,.23-.63,.5-.95,.81-.34,.34-.59,.62-.79,.91-.15,.2-.28,.38-.4,.57-.9,1.39-1.39,3.08-1.39,4.76v.36c0,1.15,.93,2.08,2.08,2.08h6.67c-.09-.27-.16-.56-.16-.87v-2.01c0-2.18,.64-4.36,1.8-6.16,.15-.24,.32-.48,.52-.73,.22-.31,.5-.62,.84-.98-.93-.33-1.91-.53-2.92-.53h0Z"/>
</svg>