<svg width="13" height="13" viewBox="0 0 13 13"  xmlns="http://www.w3.org/2000/svg">
<path d="M5.559 11.1304C5.559 8 5.559 4.91305 5.559 1.82609C4.34059 1.82609 3.07866 1.82609 1.81674 1.82609C1.81674 2.08696 1.81674 2.34783 1.81674 2.6087C1.81674 2.91304 1.77322 3.17391 1.59916 3.39131C1.33808 3.69565 0.989958 3.73913 0.641841 3.65217C0.293724 3.56522 0.032636 3.30435 0.032636 2.95652C-0.0108787 2.26087 -0.0108787 1.52174 0.032636 0.826088C0.032636 0.347827 0.424268 0 0.902929 0C0.946444 0 0.989958 0 1.07699 0C4.73222 0 8.38745 0 11.9992 0C12.5213 0 12.8259 0.173914 12.9565 0.608696C13 0.695653 13 0.82609 13 0.913046C13 1.52174 13 2.17391 13 2.78261C13 3.13044 12.8695 3.43478 12.5213 3.6087C12.1732 3.78261 11.7816 3.73913 11.477 3.47826C11.2159 3.26087 11.1724 3 11.1724 2.69565C11.1724 2.43478 11.1724 2.13044 11.1724 1.86957C9.91046 1.86957 8.69205 1.86957 7.43013 1.86957C7.43013 4.95652 7.43013 8.04348 7.43013 11.1739C7.6477 11.1739 7.90879 11.1739 8.12636 11.1739C8.43096 11.1739 8.73556 11.1739 8.99665 11.2174C9.47531 11.2609 9.7364 11.6522 9.7364 12.1739C9.7364 12.6087 9.38828 12.9565 8.95314 13C8.86611 13 8.82259 13 8.73557 13C7.25607 13 5.73305 13 4.25356 13C3.7749 13 3.47029 12.8261 3.33975 12.4348C3.12218 11.913 3.47029 11.2609 4.03598 11.2174C4.34059 11.1739 4.6887 11.1739 4.99331 11.1739C5.16736 11.1304 5.34142 11.1304 5.559 11.1304Z"/>
</svg>

