<svg width="17" height="17" viewBox="0 0 17 17" fill="none" xmlns="http://www.w3.org/2000/svg">
<rect x="0.5" y="0.5" width="16" height="16" rx="2.5" fill="white" stroke="black"/>
<path d="M6.44317 4.636V9.928C6.44317 10.672 6.62317 11.224 6.98317 11.584C7.35117 11.944 7.85917 12.124 8.50717 12.124C9.14717 12.124 9.64717 11.944 10.0072 11.584C10.3752 11.224 10.5592 10.672 10.5592 9.928V4.636H11.6512V9.916C11.6512 10.612 11.5112 11.2 11.2312 11.68C10.9512 12.152 10.5712 12.504 10.0912 12.736C9.61917 12.968 9.08717 13.084 8.49517 13.084C7.90317 13.084 7.36717 12.968 6.88717 12.736C6.41517 12.504 6.03917 12.152 5.75917 11.68C5.48717 11.2 5.35117 10.612 5.35117 9.916V4.636H6.44317Z" fill="black"/>
</svg>
