<svg id="uploadQueue" xmlns="http://www.w3.org/2000/svg" viewBox="0 0 75 75">
  <g>
    <path fill="#2e3134" d="M37.5,72.29c-13.35,0-24.2-10.86-24.2-24.2s10.86-24.2,24.2-24.2,24.2,10.86,24.2,24.2-10.86,24.2-24.2,24.2Zm0-45.41c-11.69,0-21.2,9.51-21.2,21.2s9.51,21.2,21.2,21.2,21.2-9.51,21.2-21.2-9.51-21.2-21.2-21.2Z"/>
    <polygon class="blue--fill" points="44.67 21.92 44.67 48.05 30.33 48.05 30.33 21.92 24.07 21.92 37.5 2.71 50.93 21.92 44.67 21.92"/>
    <rect class="blue--fill" x="30.33" y="50.31" width="14.3" height="3.04"/>
  </g>
  <rect class="blue--fill" x="30.33" y="55.62" width="14.3" height="2.1"/>
  <rect class="blue--fill" x="30.33" y="59.97" width="14.3" height="1.05"/>
</svg>