<svg width="16" height="16" id="uppyCancel" xmlns="http://www.w3.org/2000/svg" viewBox="0 0 16 16">
	<style type="text/css">
		.st0{fill-rule:evenodd;clip-rule:evenodd;fill:#2E3134;}
	</style>
	<path class="st0" d="M15.9,6.7c-0.7-4.4-4.8-7.3-9.2-6.6s-7.3,4.8-6.6,9.2c0.7,4.4,4.8,7.3,9.2,6.6C13.6,15.2,16.6,11.1,15.9,6.7z
		M11.1,10.3c0.2,0.2,0.2,0.6,0,0.8c-0.1,0.1-0.3,0.2-0.4,0.2s-0.3-0.1-0.4-0.2L8,8.8l-2.3,2.3c-0.1,0.1-0.3,0.2-0.4,0.2
		S5,11.3,4.9,11.1c-0.2-0.2-0.2-0.6,0-0.8L7.2,8L4.9,5.7c-0.2-0.2-0.2-0.6,0-0.8c0.2-0.2,0.6-0.2,0.8,0L8,7.2l2.3-2.3
		c0.2-0.2,0.6-0.2,0.8,0c0.2,0.2,0.2,0.6,0,0.8L8.8,8L11.1,10.3z"/>
</svg>
