<svg width="16" height="16" viewBox="0 0 16 16" fill="none" xmlns="http://www.w3.org/2000/svg">
<g clip-path="url(#clip0_119_37)">
<path d="M6.58651 6.58658C6.39001 6.76968 6.2324 6.99048 6.12309 7.23582C6.01378 7.48115 5.955 7.74598 5.95026 8.01452C5.94552 8.28306 5.99492 8.54981 6.09551 8.79884C6.1961 9.04788 6.34582 9.2741 6.53574 9.46402C6.72565 9.65394 6.95188 9.80365 7.20091 9.90424C7.44995 10.0048 7.71669 10.0542 7.98523 10.0495C8.25377 10.0448 8.51861 9.98598 8.76394 9.87667C9.00927 9.76735 9.23008 9.60975 9.41317 9.41325M7.15324 3.38666C7.43411 3.35167 7.71686 3.33386 7.99991 3.33333C12.6666 3.33333 14.6666 8 14.6666 8C14.3685 8.63808 13.9947 9.23795 13.5532 9.78666M4.40659 4.40673C3.08075 5.30982 2.01983 6.55024 1.33325 8.00007C1.33325 8.00007 3.33325 12.6667 7.99992 12.6667C9.27719 12.6702 10.5271 12.2968 11.5933 11.5934M1.33325 1.33333L14.6666 14.6667" stroke="black" stroke-width="1.34" stroke-linecap="round" stroke-linejoin="round"/>
</g>
<defs>
<clipPath id="clip0_119_37">
<rect width="16" height="16" fill="white"/>
</clipPath>
</defs>
</svg>
